<?xml version="1.0" encoding="us-ascii" standalone="no"?><svg xmlns="http://www.w3.org/2000/svg" xmlns:xlink="http://www.w3.org/1999/xlink" contentStyleType="text/css" height="1453px" preserveAspectRatio="none" style="width:837px;height:1453px;background:#FFFFFF;" version="1.1" viewBox="0 0 837 1453" width="837px" zoomAndPan="magnify"><defs/><g><!--cluster gruppo1--><g id="cluster_gruppo1"><path d="M8.5,488 L68.5,488 A3.75,3.75 0 0 1 71,490.5 L78,511.6094 L827.5,511.6094 A2.5,2.5 0 0 1 830,514.1094 L830,1443.5 A2.5,2.5 0 0 1 827.5,1446 L8.5,1446 A2.5,2.5 0 0 1 6,1443.5 L6,490.5 A2.5,2.5 0 0 1 8.5,488 " fill="none" style="stroke:#000000;stroke-width:1.5;"/><line style="stroke:#000000;stroke-width:1.5;" x1="6" x2="78" y1="511.6094" y2="511.6094"/><text fill="#000000" font-family="sans-serif" font-size="14" font-weight="bold" lengthAdjust="spacing" textLength="59" x="10" y="504.5332">gruppo1</text></g><!--cluster progettorubrica--><g id="cluster_progettorubrica"><path d="M32.5,532 L144.5,532 A3.75,3.75 0 0 1 147,534.5 L154,555.6094 L803.5,555.6094 A2.5,2.5 0 0 1 806,558.1094 L806,1419.5 A2.5,2.5 0 0 1 803.5,1422 L32.5,1422 A2.5,2.5 0 0 1 30,1419.5 L30,534.5 A2.5,2.5 0 0 1 32.5,532 " fill="none" style="stroke:#000000;stroke-width:1.5;"/><line style="stroke:#000000;stroke-width:1.5;" x1="30" x2="154" y1="555.6094" y2="555.6094"/><text fill="#000000" font-family="sans-serif" font-size="14" font-weight="bold" lengthAdjust="spacing" textLength="111" x="34" y="548.5332">progettorubrica</text></g><!--cluster controllers--><g id="cluster_controllers"><path d="M56.5,576 L134.5,576 A3.75,3.75 0 0 1 137,578.5 L144,599.6094 L779.5,599.6094 A2.5,2.5 0 0 1 782,602.1094 L782,839.5 A2.5,2.5 0 0 1 779.5,842 L56.5,842 A2.5,2.5 0 0 1 54,839.5 L54,578.5 A2.5,2.5 0 0 1 56.5,576 " fill="none" style="stroke:#000000;stroke-width:1.5;"/><line style="stroke:#000000;stroke-width:1.5;" x1="54" x2="144" y1="599.6094" y2="599.6094"/><text fill="#000000" font-family="sans-serif" font-size="14" font-weight="bold" lengthAdjust="spacing" textLength="77" x="58" y="592.5332">controllers</text></g><!--cluster models--><g id="cluster_models"><path d="M79.5,866 L131.5,866 A3.75,3.75 0 0 1 134,868.5 L141,889.6094 L471.5,889.6094 A2.5,2.5 0 0 1 474,892.1094 L474,1129.5 A2.5,2.5 0 0 1 471.5,1132 L79.5,1132 A2.5,2.5 0 0 1 77,1129.5 L77,868.5 A2.5,2.5 0 0 1 79.5,866 " fill="none" style="stroke:#000000;stroke-width:1.5;"/><line style="stroke:#000000;stroke-width:1.5;" x1="77" x2="141" y1="889.6094" y2="889.6094"/><text fill="#000000" font-family="sans-serif" font-size="14" font-weight="bold" lengthAdjust="spacing" textLength="51" x="81" y="882.5332">models</text></g><!--cluster services--><g id="cluster_services"><path d="M101,1156 L163,1156 A3.75,3.75 0 0 1 165.5,1158.5 L172.5,1179.6094 L223,1179.6094 A2.5,2.5 0 0 1 225.5,1182.1094 L225.5,1336.5 A2.5,2.5 0 0 1 223,1339 L101,1339 A2.5,2.5 0 0 1 98.5,1336.5 L98.5,1158.5 A2.5,2.5 0 0 1 101,1156 " fill="none" style="stroke:#000000;stroke-width:1.5;"/><line style="stroke:#000000;stroke-width:1.5;" x1="98.5" x2="172.5" y1="1179.6094" y2="1179.6094"/><text fill="#000000" font-family="sans-serif" font-size="14" font-weight="bold" lengthAdjust="spacing" textLength="61" x="102.5" y="1172.5332">services</text></g><!--cluster Test Packages--><g id="cluster_Test Packages"><path d="M52.5,6 L154.5,6 A3.75,3.75 0 0 1 157,8.5 L164,29.6094 L481,29.6094 A2.5,2.5 0 0 1 483.5,32.1094 L483.5,461.5 A2.5,2.5 0 0 1 481,464 L52.5,464 A2.5,2.5 0 0 1 50,461.5 L50,8.5 A2.5,2.5 0 0 1 52.5,6 " fill="none" style="stroke:#000000;stroke-width:1.5;"/><line style="stroke:#000000;stroke-width:1.5;" x1="50" x2="164" y1="29.6094" y2="29.6094"/><text fill="#000000" font-family="sans-serif" font-size="14" font-weight="bold" lengthAdjust="spacing" textLength="101" x="54" y="22.5332">Test Packages</text></g><!--cluster models--><g id="cluster_models"><path d="M76.5,50 L128.5,50 A3.75,3.75 0 0 1 131,52.5 L138,73.6094 L457,73.6094 A2.5,2.5 0 0 1 459.5,76.1094 L459.5,230.5 A2.5,2.5 0 0 1 457,233 L76.5,233 A2.5,2.5 0 0 1 74,230.5 L74,52.5 A2.5,2.5 0 0 1 76.5,50 " fill="none" style="stroke:#000000;stroke-width:1.5;"/><line style="stroke:#000000;stroke-width:1.5;" x1="74" x2="138" y1="73.6094" y2="73.6094"/><text fill="#000000" font-family="sans-serif" font-size="14" font-weight="bold" lengthAdjust="spacing" textLength="51" x="78" y="66.5332">models</text></g><!--cluster services--><g id="cluster_services"><path d="M87,257 L149,257 A3.75,3.75 0 0 1 151.5,259.5 L158.5,280.6094 L237,280.6094 A2.5,2.5 0 0 1 239.5,283.1094 L239.5,437.5 A2.5,2.5 0 0 1 237,440 L87,440 A2.5,2.5 0 0 1 84.5,437.5 L84.5,259.5 A2.5,2.5 0 0 1 87,257 " fill="none" style="stroke:#000000;stroke-width:1.5;"/><line style="stroke:#000000;stroke-width:1.5;" x1="84.5" x2="158.5" y1="280.6094" y2="280.6094"/><text fill="#000000" font-family="sans-serif" font-size="14" font-weight="bold" lengthAdjust="spacing" textLength="61" x="88.5" y="273.5332">services</text></g><!--class AddressBookMain--><g id="elem_AddressBookMain"><rect codeLine="4" fill="#F1F1F1" height="48" id="AddressBookMain" rx="2.5" ry="2.5" style="stroke:#181818;stroke-width:0.5;" width="146" x="89" y="1358"/><ellipse cx="104" cy="1374" fill="#ADD1B2" rx="11" ry="11" style="stroke:#181818;stroke-width:1.0;"/><path d="M106.7656,1369.875 Q106.9219,1369.6563 107.1094,1369.5469 Q107.2969,1369.4375 107.5156,1369.4375 Q107.8906,1369.4375 108.125,1369.7031 Q108.3594,1369.9531 108.3594,1370.5625 L108.3594,1372.0156 Q108.3594,1372.625 108.125,1372.8906 Q107.8906,1373.1563 107.5156,1373.1563 Q107.1719,1373.1563 106.9688,1372.9531 Q106.7656,1372.7656 106.6563,1372.25 Q106.6094,1371.8906 106.4219,1371.7031 Q106.0938,1371.3281 105.4844,1371.1094 Q104.875,1370.8906 104.25,1370.8906 Q103.4844,1370.8906 102.8438,1371.2188 Q102.2188,1371.5469 101.7188,1372.2969 Q101.2344,1373.0469 101.2344,1374.0781 L101.2344,1375.1719 Q101.2344,1376.4063 102.125,1377.2344 Q103.0156,1378.0469 104.6094,1378.0469 Q105.5469,1378.0469 106.2031,1377.7969 Q106.5938,1377.6406 107.0156,1377.2031 Q107.2813,1376.9375 107.4219,1376.8594 Q107.5781,1376.7813 107.7813,1376.7813 Q108.1094,1376.7813 108.3594,1377.0469 Q108.625,1377.2969 108.625,1377.6406 Q108.625,1377.9844 108.2813,1378.3906 Q107.7813,1378.9688 106.9844,1379.2969 Q105.9063,1379.75 104.6094,1379.75 Q103.0938,1379.75 101.8906,1379.125 Q100.9063,1378.625 100.2188,1377.5625 Q99.5313,1376.4844 99.5313,1375.2031 L99.5313,1374.0469 Q99.5313,1372.7188 100.1406,1371.5781 Q100.7656,1370.4219 101.8594,1369.8125 Q102.9531,1369.1875 104.1875,1369.1875 Q104.9219,1369.1875 105.5625,1369.3594 Q106.2188,1369.5156 106.7656,1369.875 Z " fill="#000000"/><text fill="#000000" font-family="sans-serif" font-size="14" lengthAdjust="spacing" textLength="114" x="118" y="1379.7285">AddressBookMain</text><line style="stroke:#181818;stroke-width:0.5;" x1="90" x2="234" y1="1390" y2="1390"/><line style="stroke:#181818;stroke-width:0.5;" x1="90" x2="234" y1="1398" y2="1398"/></g><!--class ConfigPopupController--><g id="elem_ConfigPopupController"><rect codeLine="7" fill="#F1F1F1" height="48" id="ConfigPopupController" rx="2.5" ry="2.5" style="stroke:#181818;stroke-width:0.5;" width="176" x="74" y="778"/><ellipse cx="89" cy="794" fill="#ADD1B2" rx="11" ry="11" style="stroke:#181818;stroke-width:1.0;"/><path d="M91.7656,789.875 Q91.9219,789.6563 92.1094,789.5469 Q92.2969,789.4375 92.5156,789.4375 Q92.8906,789.4375 93.125,789.7031 Q93.3594,789.9531 93.3594,790.5625 L93.3594,792.0156 Q93.3594,792.625 93.125,792.8906 Q92.8906,793.1563 92.5156,793.1563 Q92.1719,793.1563 91.9688,792.9531 Q91.7656,792.7656 91.6563,792.25 Q91.6094,791.8906 91.4219,791.7031 Q91.0938,791.3281 90.4844,791.1094 Q89.875,790.8906 89.25,790.8906 Q88.4844,790.8906 87.8438,791.2188 Q87.2188,791.5469 86.7188,792.2969 Q86.2344,793.0469 86.2344,794.0781 L86.2344,795.1719 Q86.2344,796.4063 87.125,797.2344 Q88.0156,798.0469 89.6094,798.0469 Q90.5469,798.0469 91.2031,797.7969 Q91.5938,797.6406 92.0156,797.2031 Q92.2813,796.9375 92.4219,796.8594 Q92.5781,796.7813 92.7813,796.7813 Q93.1094,796.7813 93.3594,797.0469 Q93.625,797.2969 93.625,797.6406 Q93.625,797.9844 93.2813,798.3906 Q92.7813,798.9688 91.9844,799.2969 Q90.9063,799.75 89.6094,799.75 Q88.0938,799.75 86.8906,799.125 Q85.9063,798.625 85.2188,797.5625 Q84.5313,796.4844 84.5313,795.2031 L84.5313,794.0469 Q84.5313,792.7188 85.1406,791.5781 Q85.7656,790.4219 86.8594,789.8125 Q87.9531,789.1875 89.1875,789.1875 Q89.9219,789.1875 90.5625,789.3594 Q91.2188,789.5156 91.7656,789.875 Z " fill="#000000"/><text fill="#000000" font-family="sans-serif" font-size="14" lengthAdjust="spacing" textLength="144" x="103" y="799.7285">ConfigPopupController</text><line style="stroke:#181818;stroke-width:0.5;" x1="75" x2="249" y1="810" y2="810"/><line style="stroke:#181818;stroke-width:0.5;" x1="75" x2="249" y1="818" y2="818"/></g><!--class ConfirmPopupController--><g id="elem_ConfirmPopupController"><rect codeLine="8" fill="#F1F1F1" height="48" id="ConfirmPopupController" rx="2.5" ry="2.5" style="stroke:#181818;stroke-width:0.5;" width="184" x="70" y="695"/><ellipse cx="85" cy="711" fill="#ADD1B2" rx="11" ry="11" style="stroke:#181818;stroke-width:1.0;"/><path d="M87.7656,706.875 Q87.9219,706.6563 88.1094,706.5469 Q88.2969,706.4375 88.5156,706.4375 Q88.8906,706.4375 89.125,706.7031 Q89.3594,706.9531 89.3594,707.5625 L89.3594,709.0156 Q89.3594,709.625 89.125,709.8906 Q88.8906,710.1563 88.5156,710.1563 Q88.1719,710.1563 87.9688,709.9531 Q87.7656,709.7656 87.6563,709.25 Q87.6094,708.8906 87.4219,708.7031 Q87.0938,708.3281 86.4844,708.1094 Q85.875,707.8906 85.25,707.8906 Q84.4844,707.8906 83.8438,708.2188 Q83.2188,708.5469 82.7188,709.2969 Q82.2344,710.0469 82.2344,711.0781 L82.2344,712.1719 Q82.2344,713.4063 83.125,714.2344 Q84.0156,715.0469 85.6094,715.0469 Q86.5469,715.0469 87.2031,714.7969 Q87.5938,714.6406 88.0156,714.2031 Q88.2813,713.9375 88.4219,713.8594 Q88.5781,713.7813 88.7813,713.7813 Q89.1094,713.7813 89.3594,714.0469 Q89.625,714.2969 89.625,714.6406 Q89.625,714.9844 89.2813,715.3906 Q88.7813,715.9688 87.9844,716.2969 Q86.9063,716.75 85.6094,716.75 Q84.0938,716.75 82.8906,716.125 Q81.9063,715.625 81.2188,714.5625 Q80.5313,713.4844 80.5313,712.2031 L80.5313,711.0469 Q80.5313,709.7188 81.1406,708.5781 Q81.7656,707.4219 82.8594,706.8125 Q83.9531,706.1875 85.1875,706.1875 Q85.9219,706.1875 86.5625,706.3594 Q87.2188,706.5156 87.7656,706.875 Z " fill="#000000"/><text fill="#000000" font-family="sans-serif" font-size="14" lengthAdjust="spacing" textLength="152" x="99" y="716.7285">ConfirmPopupController</text><line style="stroke:#181818;stroke-width:0.5;" x1="71" x2="253" y1="727" y2="727"/><line style="stroke:#181818;stroke-width:0.5;" x1="71" x2="253" y1="735" y2="735"/></g><!--class ExportPopupController--><g id="elem_ExportPopupController"><rect codeLine="9" fill="#F1F1F1" height="48" id="ExportPopupController" rx="2.5" ry="2.5" style="stroke:#181818;stroke-width:0.5;" width="175" x="74.5" y="612"/><ellipse cx="89.5" cy="628" fill="#ADD1B2" rx="11" ry="11" style="stroke:#181818;stroke-width:1.0;"/><path d="M92.2656,623.875 Q92.4219,623.6563 92.6094,623.5469 Q92.7969,623.4375 93.0156,623.4375 Q93.3906,623.4375 93.625,623.7031 Q93.8594,623.9531 93.8594,624.5625 L93.8594,626.0156 Q93.8594,626.625 93.625,626.8906 Q93.3906,627.1563 93.0156,627.1563 Q92.6719,627.1563 92.4688,626.9531 Q92.2656,626.7656 92.1563,626.25 Q92.1094,625.8906 91.9219,625.7031 Q91.5938,625.3281 90.9844,625.1094 Q90.375,624.8906 89.75,624.8906 Q88.9844,624.8906 88.3438,625.2188 Q87.7188,625.5469 87.2188,626.2969 Q86.7344,627.0469 86.7344,628.0781 L86.7344,629.1719 Q86.7344,630.4063 87.625,631.2344 Q88.5156,632.0469 90.1094,632.0469 Q91.0469,632.0469 91.7031,631.7969 Q92.0938,631.6406 92.5156,631.2031 Q92.7813,630.9375 92.9219,630.8594 Q93.0781,630.7813 93.2813,630.7813 Q93.6094,630.7813 93.8594,631.0469 Q94.125,631.2969 94.125,631.6406 Q94.125,631.9844 93.7813,632.3906 Q93.2813,632.9688 92.4844,633.2969 Q91.4063,633.75 90.1094,633.75 Q88.5938,633.75 87.3906,633.125 Q86.4063,632.625 85.7188,631.5625 Q85.0313,630.4844 85.0313,629.2031 L85.0313,628.0469 Q85.0313,626.7188 85.6406,625.5781 Q86.2656,624.4219 87.3594,623.8125 Q88.4531,623.1875 89.6875,623.1875 Q90.4219,623.1875 91.0625,623.3594 Q91.7188,623.5156 92.2656,623.875 Z " fill="#000000"/><text fill="#000000" font-family="sans-serif" font-size="14" lengthAdjust="spacing" textLength="143" x="103.5" y="633.7285">ExportPopupController</text><line style="stroke:#181818;stroke-width:0.5;" x1="75.5" x2="248.5" y1="644" y2="644"/><line style="stroke:#181818;stroke-width:0.5;" x1="75.5" x2="248.5" y1="652" y2="652"/></g><!--class ImagePopupController--><g id="elem_ImagePopupController"><rect codeLine="10" fill="#F1F1F1" height="48" id="ImagePopupController" rx="2.5" ry="2.5" style="stroke:#181818;stroke-width:0.5;" width="173" x="314.5" y="778"/><ellipse cx="329.5" cy="794" fill="#ADD1B2" rx="11" ry="11" style="stroke:#181818;stroke-width:1.0;"/><path d="M332.2656,789.875 Q332.4219,789.6563 332.6094,789.5469 Q332.7969,789.4375 333.0156,789.4375 Q333.3906,789.4375 333.625,789.7031 Q333.8594,789.9531 333.8594,790.5625 L333.8594,792.0156 Q333.8594,792.625 333.625,792.8906 Q333.3906,793.1563 333.0156,793.1563 Q332.6719,793.1563 332.4688,792.9531 Q332.2656,792.7656 332.1563,792.25 Q332.1094,791.8906 331.9219,791.7031 Q331.5938,791.3281 330.9844,791.1094 Q330.375,790.8906 329.75,790.8906 Q328.9844,790.8906 328.3438,791.2188 Q327.7188,791.5469 327.2188,792.2969 Q326.7344,793.0469 326.7344,794.0781 L326.7344,795.1719 Q326.7344,796.4063 327.625,797.2344 Q328.5156,798.0469 330.1094,798.0469 Q331.0469,798.0469 331.7031,797.7969 Q332.0938,797.6406 332.5156,797.2031 Q332.7813,796.9375 332.9219,796.8594 Q333.0781,796.7813 333.2813,796.7813 Q333.6094,796.7813 333.8594,797.0469 Q334.125,797.2969 334.125,797.6406 Q334.125,797.9844 333.7813,798.3906 Q333.2813,798.9688 332.4844,799.2969 Q331.4063,799.75 330.1094,799.75 Q328.5938,799.75 327.3906,799.125 Q326.4063,798.625 325.7188,797.5625 Q325.0313,796.4844 325.0313,795.2031 L325.0313,794.0469 Q325.0313,792.7188 325.6406,791.5781 Q326.2656,790.4219 327.3594,789.8125 Q328.4531,789.1875 329.6875,789.1875 Q330.4219,789.1875 331.0625,789.3594 Q331.7188,789.5156 332.2656,789.875 Z " fill="#000000"/><text fill="#000000" font-family="sans-serif" font-size="14" lengthAdjust="spacing" textLength="141" x="343.5" y="799.7285">ImagePopupController</text><line style="stroke:#181818;stroke-width:0.5;" x1="315.5" x2="486.5" y1="810" y2="810"/><line style="stroke:#181818;stroke-width:0.5;" x1="315.5" x2="486.5" y1="818" y2="818"/></g><!--class ImportPopupController--><g id="elem_ImportPopupController"><rect codeLine="11" fill="#F1F1F1" height="48" id="ImportPopupController" rx="2.5" ry="2.5" style="stroke:#181818;stroke-width:0.5;" width="174" x="314" y="695"/><ellipse cx="329" cy="711" fill="#ADD1B2" rx="11" ry="11" style="stroke:#181818;stroke-width:1.0;"/><path d="M331.7656,706.875 Q331.9219,706.6563 332.1094,706.5469 Q332.2969,706.4375 332.5156,706.4375 Q332.8906,706.4375 333.125,706.7031 Q333.3594,706.9531 333.3594,707.5625 L333.3594,709.0156 Q333.3594,709.625 333.125,709.8906 Q332.8906,710.1563 332.5156,710.1563 Q332.1719,710.1563 331.9688,709.9531 Q331.7656,709.7656 331.6563,709.25 Q331.6094,708.8906 331.4219,708.7031 Q331.0938,708.3281 330.4844,708.1094 Q329.875,707.8906 329.25,707.8906 Q328.4844,707.8906 327.8438,708.2188 Q327.2188,708.5469 326.7188,709.2969 Q326.2344,710.0469 326.2344,711.0781 L326.2344,712.1719 Q326.2344,713.4063 327.125,714.2344 Q328.0156,715.0469 329.6094,715.0469 Q330.5469,715.0469 331.2031,714.7969 Q331.5938,714.6406 332.0156,714.2031 Q332.2813,713.9375 332.4219,713.8594 Q332.5781,713.7813 332.7813,713.7813 Q333.1094,713.7813 333.3594,714.0469 Q333.625,714.2969 333.625,714.6406 Q333.625,714.9844 333.2813,715.3906 Q332.7813,715.9688 331.9844,716.2969 Q330.9063,716.75 329.6094,716.75 Q328.0938,716.75 326.8906,716.125 Q325.9063,715.625 325.2188,714.5625 Q324.5313,713.4844 324.5313,712.2031 L324.5313,711.0469 Q324.5313,709.7188 325.1406,708.5781 Q325.7656,707.4219 326.8594,706.8125 Q327.9531,706.1875 329.1875,706.1875 Q329.9219,706.1875 330.5625,706.3594 Q331.2188,706.5156 331.7656,706.875 Z " fill="#000000"/><text fill="#000000" font-family="sans-serif" font-size="14" lengthAdjust="spacing" textLength="142" x="343" y="716.7285">ImportPopupController</text><line style="stroke:#181818;stroke-width:0.5;" x1="315" x2="487" y1="727" y2="727"/><line style="stroke:#181818;stroke-width:0.5;" x1="315" x2="487" y1="735" y2="735"/></g><!--class MainController--><g id="elem_MainController"><rect codeLine="12" fill="#F1F1F1" height="48" id="MainController" rx="2.5" ry="2.5" style="stroke:#181818;stroke-width:0.5;" width="124" x="339" y="612"/><ellipse cx="354" cy="628" fill="#ADD1B2" rx="11" ry="11" style="stroke:#181818;stroke-width:1.0;"/><path d="M356.7656,623.875 Q356.9219,623.6563 357.1094,623.5469 Q357.2969,623.4375 357.5156,623.4375 Q357.8906,623.4375 358.125,623.7031 Q358.3594,623.9531 358.3594,624.5625 L358.3594,626.0156 Q358.3594,626.625 358.125,626.8906 Q357.8906,627.1563 357.5156,627.1563 Q357.1719,627.1563 356.9688,626.9531 Q356.7656,626.7656 356.6563,626.25 Q356.6094,625.8906 356.4219,625.7031 Q356.0938,625.3281 355.4844,625.1094 Q354.875,624.8906 354.25,624.8906 Q353.4844,624.8906 352.8438,625.2188 Q352.2188,625.5469 351.7188,626.2969 Q351.2344,627.0469 351.2344,628.0781 L351.2344,629.1719 Q351.2344,630.4063 352.125,631.2344 Q353.0156,632.0469 354.6094,632.0469 Q355.5469,632.0469 356.2031,631.7969 Q356.5938,631.6406 357.0156,631.2031 Q357.2813,630.9375 357.4219,630.8594 Q357.5781,630.7813 357.7813,630.7813 Q358.1094,630.7813 358.3594,631.0469 Q358.625,631.2969 358.625,631.6406 Q358.625,631.9844 358.2813,632.3906 Q357.7813,632.9688 356.9844,633.2969 Q355.9063,633.75 354.6094,633.75 Q353.0938,633.75 351.8906,633.125 Q350.9063,632.625 350.2188,631.5625 Q349.5313,630.4844 349.5313,629.2031 L349.5313,628.0469 Q349.5313,626.7188 350.1406,625.5781 Q350.7656,624.4219 351.8594,623.8125 Q352.9531,623.1875 354.1875,623.1875 Q354.9219,623.1875 355.5625,623.3594 Q356.2188,623.5156 356.7656,623.875 Z " fill="#000000"/><text fill="#000000" font-family="sans-serif" font-size="14" lengthAdjust="spacing" textLength="92" x="368" y="633.7285">MainController</text><line style="stroke:#181818;stroke-width:0.5;" x1="340" x2="462" y1="644" y2="644"/><line style="stroke:#181818;stroke-width:0.5;" x1="340" x2="462" y1="652" y2="652"/></g><!--class ManageTagsPopupController--><g id="elem_ManageTagsPopupController"><rect codeLine="13" fill="#F1F1F1" height="48" id="ManageTagsPopupController" rx="2.5" ry="2.5" style="stroke:#181818;stroke-width:0.5;" width="218" x="548" y="778"/><ellipse cx="563" cy="794" fill="#ADD1B2" rx="11" ry="11" style="stroke:#181818;stroke-width:1.0;"/><path d="M565.7656,789.875 Q565.9219,789.6563 566.1094,789.5469 Q566.2969,789.4375 566.5156,789.4375 Q566.8906,789.4375 567.125,789.7031 Q567.3594,789.9531 567.3594,790.5625 L567.3594,792.0156 Q567.3594,792.625 567.125,792.8906 Q566.8906,793.1563 566.5156,793.1563 Q566.1719,793.1563 565.9688,792.9531 Q565.7656,792.7656 565.6563,792.25 Q565.6094,791.8906 565.4219,791.7031 Q565.0938,791.3281 564.4844,791.1094 Q563.875,790.8906 563.25,790.8906 Q562.4844,790.8906 561.8438,791.2188 Q561.2188,791.5469 560.7188,792.2969 Q560.2344,793.0469 560.2344,794.0781 L560.2344,795.1719 Q560.2344,796.4063 561.125,797.2344 Q562.0156,798.0469 563.6094,798.0469 Q564.5469,798.0469 565.2031,797.7969 Q565.5938,797.6406 566.0156,797.2031 Q566.2813,796.9375 566.4219,796.8594 Q566.5781,796.7813 566.7813,796.7813 Q567.1094,796.7813 567.3594,797.0469 Q567.625,797.2969 567.625,797.6406 Q567.625,797.9844 567.2813,798.3906 Q566.7813,798.9688 565.9844,799.2969 Q564.9063,799.75 563.6094,799.75 Q562.0938,799.75 560.8906,799.125 Q559.9063,798.625 559.2188,797.5625 Q558.5313,796.4844 558.5313,795.2031 L558.5313,794.0469 Q558.5313,792.7188 559.1406,791.5781 Q559.7656,790.4219 560.8594,789.8125 Q561.9531,789.1875 563.1875,789.1875 Q563.9219,789.1875 564.5625,789.3594 Q565.2188,789.5156 565.7656,789.875 Z " fill="#000000"/><text fill="#000000" font-family="sans-serif" font-size="14" lengthAdjust="spacing" textLength="186" x="577" y="799.7285">ManageTagsPopupController</text><line style="stroke:#181818;stroke-width:0.5;" x1="549" x2="765" y1="810" y2="810"/><line style="stroke:#181818;stroke-width:0.5;" x1="549" x2="765" y1="818" y2="818"/></g><!--class AddressBook--><g id="elem_AddressBook"><rect codeLine="17" fill="#F1F1F1" height="48" id="AddressBook" rx="2.5" ry="2.5" style="stroke:#181818;stroke-width:0.5;" width="116" x="104" y="1068"/><ellipse cx="119" cy="1084" fill="#ADD1B2" rx="11" ry="11" style="stroke:#181818;stroke-width:1.0;"/><path d="M121.7656,1079.875 Q121.9219,1079.6563 122.1094,1079.5469 Q122.2969,1079.4375 122.5156,1079.4375 Q122.8906,1079.4375 123.125,1079.7031 Q123.3594,1079.9531 123.3594,1080.5625 L123.3594,1082.0156 Q123.3594,1082.625 123.125,1082.8906 Q122.8906,1083.1563 122.5156,1083.1563 Q122.1719,1083.1563 121.9688,1082.9531 Q121.7656,1082.7656 121.6563,1082.25 Q121.6094,1081.8906 121.4219,1081.7031 Q121.0938,1081.3281 120.4844,1081.1094 Q119.875,1080.8906 119.25,1080.8906 Q118.4844,1080.8906 117.8438,1081.2188 Q117.2188,1081.5469 116.7188,1082.2969 Q116.2344,1083.0469 116.2344,1084.0781 L116.2344,1085.1719 Q116.2344,1086.4063 117.125,1087.2344 Q118.0156,1088.0469 119.6094,1088.0469 Q120.5469,1088.0469 121.2031,1087.7969 Q121.5938,1087.6406 122.0156,1087.2031 Q122.2813,1086.9375 122.4219,1086.8594 Q122.5781,1086.7813 122.7813,1086.7813 Q123.1094,1086.7813 123.3594,1087.0469 Q123.625,1087.2969 123.625,1087.6406 Q123.625,1087.9844 123.2813,1088.3906 Q122.7813,1088.9688 121.9844,1089.2969 Q120.9063,1089.75 119.6094,1089.75 Q118.0938,1089.75 116.8906,1089.125 Q115.9063,1088.625 115.2188,1087.5625 Q114.5313,1086.4844 114.5313,1085.2031 L114.5313,1084.0469 Q114.5313,1082.7188 115.1406,1081.5781 Q115.7656,1080.4219 116.8594,1079.8125 Q117.9531,1079.1875 119.1875,1079.1875 Q119.9219,1079.1875 120.5625,1079.3594 Q121.2188,1079.5156 121.7656,1079.875 Z " fill="#000000"/><text fill="#000000" font-family="sans-serif" font-size="14" lengthAdjust="spacing" textLength="84" x="133" y="1089.7285">AddressBook</text><line style="stroke:#181818;stroke-width:0.5;" x1="105" x2="219" y1="1100" y2="1100"/><line style="stroke:#181818;stroke-width:0.5;" x1="105" x2="219" y1="1108" y2="1108"/></g><!--class Contact--><g id="elem_Contact"><rect codeLine="18" fill="#F1F1F1" height="48" id="Contact" rx="2.5" ry="2.5" style="stroke:#181818;stroke-width:0.5;" width="81" x="121.5" y="985"/><ellipse cx="136.5" cy="1001" fill="#ADD1B2" rx="11" ry="11" style="stroke:#181818;stroke-width:1.0;"/><path d="M139.2656,996.875 Q139.4219,996.6563 139.6094,996.5469 Q139.7969,996.4375 140.0156,996.4375 Q140.3906,996.4375 140.625,996.7031 Q140.8594,996.9531 140.8594,997.5625 L140.8594,999.0156 Q140.8594,999.625 140.625,999.8906 Q140.3906,1000.1563 140.0156,1000.1563 Q139.6719,1000.1563 139.4688,999.9531 Q139.2656,999.7656 139.1563,999.25 Q139.1094,998.8906 138.9219,998.7031 Q138.5938,998.3281 137.9844,998.1094 Q137.375,997.8906 136.75,997.8906 Q135.9844,997.8906 135.3438,998.2188 Q134.7188,998.5469 134.2188,999.2969 Q133.7344,1000.0469 133.7344,1001.0781 L133.7344,1002.1719 Q133.7344,1003.4063 134.625,1004.2344 Q135.5156,1005.0469 137.1094,1005.0469 Q138.0469,1005.0469 138.7031,1004.7969 Q139.0938,1004.6406 139.5156,1004.2031 Q139.7813,1003.9375 139.9219,1003.8594 Q140.0781,1003.7813 140.2813,1003.7813 Q140.6094,1003.7813 140.8594,1004.0469 Q141.125,1004.2969 141.125,1004.6406 Q141.125,1004.9844 140.7813,1005.3906 Q140.2813,1005.9688 139.4844,1006.2969 Q138.4063,1006.75 137.1094,1006.75 Q135.5938,1006.75 134.3906,1006.125 Q133.4063,1005.625 132.7188,1004.5625 Q132.0313,1003.4844 132.0313,1002.2031 L132.0313,1001.0469 Q132.0313,999.7188 132.6406,998.5781 Q133.2656,997.4219 134.3594,996.8125 Q135.4531,996.1875 136.6875,996.1875 Q137.4219,996.1875 138.0625,996.3594 Q138.7188,996.5156 139.2656,996.875 Z " fill="#000000"/><text fill="#000000" font-family="sans-serif" font-size="14" lengthAdjust="spacing" textLength="49" x="150.5" y="1006.7285">Contact</text><line style="stroke:#181818;stroke-width:0.5;" x1="122.5" x2="201.5" y1="1017" y2="1017"/><line style="stroke:#181818;stroke-width:0.5;" x1="122.5" x2="201.5" y1="1025" y2="1025"/></g><!--class ContactManager--><g id="elem_ContactManager"><rect codeLine="19" fill="#F1F1F1" height="48" id="ContactManager" rx="2.5" ry="2.5" style="stroke:#181818;stroke-width:0.5;" width="138" x="93" y="902"/><ellipse cx="108" cy="918" fill="#B4A7E5" rx="11" ry="11" style="stroke:#181818;stroke-width:1.0;"/><path d="M108.9531,914.6406 L108.9531,921.2969 L110.6719,921.2969 Q111.2813,921.2969 111.5469,921.5313 Q111.8125,921.7656 111.8125,922.1563 Q111.8125,922.5313 111.5469,922.7656 Q111.2813,923 110.6719,923 L105.5313,923 Q104.9219,923 104.6563,922.7656 Q104.3906,922.5313 104.3906,922.1406 Q104.3906,921.7656 104.6563,921.5313 Q104.9219,921.2969 105.5313,921.2969 L107.25,921.2969 L107.25,914.6406 L105.5313,914.6406 Q104.9219,914.6406 104.6563,914.4063 Q104.3906,914.1719 104.3906,913.7813 Q104.3906,913.4063 104.6563,913.1719 Q104.9219,912.9375 105.5313,912.9375 L110.6719,912.9375 Q111.2813,912.9375 111.5469,913.1719 Q111.8125,913.4063 111.8125,913.7813 Q111.8125,914.1719 111.5469,914.4063 Q111.2813,914.6406 110.6719,914.6406 L108.9531,914.6406 Z " fill="#000000"/><text fill="#000000" font-family="sans-serif" font-size="14" font-style="italic" lengthAdjust="spacing" textLength="106" x="122" y="923.7285">ContactManager</text><line style="stroke:#181818;stroke-width:0.5;" x1="94" x2="230" y1="934" y2="934"/><line style="stroke:#181818;stroke-width:0.5;" x1="94" x2="230" y1="942" y2="942"/></g><!--class Tag--><g id="elem_Tag"><rect codeLine="20" fill="#F1F1F1" height="48" id="Tag" rx="2.5" ry="2.5" style="stroke:#181818;stroke-width:0.5;" width="57" x="372.5" y="1068"/><ellipse cx="387.5" cy="1084" fill="#ADD1B2" rx="11" ry="11" style="stroke:#181818;stroke-width:1.0;"/><path d="M390.2656,1079.875 Q390.4219,1079.6563 390.6094,1079.5469 Q390.7969,1079.4375 391.0156,1079.4375 Q391.3906,1079.4375 391.625,1079.7031 Q391.8594,1079.9531 391.8594,1080.5625 L391.8594,1082.0156 Q391.8594,1082.625 391.625,1082.8906 Q391.3906,1083.1563 391.0156,1083.1563 Q390.6719,1083.1563 390.4688,1082.9531 Q390.2656,1082.7656 390.1563,1082.25 Q390.1094,1081.8906 389.9219,1081.7031 Q389.5938,1081.3281 388.9844,1081.1094 Q388.375,1080.8906 387.75,1080.8906 Q386.9844,1080.8906 386.3438,1081.2188 Q385.7188,1081.5469 385.2188,1082.2969 Q384.7344,1083.0469 384.7344,1084.0781 L384.7344,1085.1719 Q384.7344,1086.4063 385.625,1087.2344 Q386.5156,1088.0469 388.1094,1088.0469 Q389.0469,1088.0469 389.7031,1087.7969 Q390.0938,1087.6406 390.5156,1087.2031 Q390.7813,1086.9375 390.9219,1086.8594 Q391.0781,1086.7813 391.2813,1086.7813 Q391.6094,1086.7813 391.8594,1087.0469 Q392.125,1087.2969 392.125,1087.6406 Q392.125,1087.9844 391.7813,1088.3906 Q391.2813,1088.9688 390.4844,1089.2969 Q389.4063,1089.75 388.1094,1089.75 Q386.5938,1089.75 385.3906,1089.125 Q384.4063,1088.625 383.7188,1087.5625 Q383.0313,1086.4844 383.0313,1085.2031 L383.0313,1084.0469 Q383.0313,1082.7188 383.6406,1081.5781 Q384.2656,1080.4219 385.3594,1079.8125 Q386.4531,1079.1875 387.6875,1079.1875 Q388.4219,1079.1875 389.0625,1079.3594 Q389.7188,1079.5156 390.2656,1079.875 Z " fill="#000000"/><text fill="#000000" font-family="sans-serif" font-size="14" lengthAdjust="spacing" textLength="25" x="401.5" y="1089.7285">Tag</text><line style="stroke:#181818;stroke-width:0.5;" x1="373.5" x2="428.5" y1="1100" y2="1100"/><line style="stroke:#181818;stroke-width:0.5;" x1="373.5" x2="428.5" y1="1108" y2="1108"/></g><!--class TagManager--><g id="elem_TagManager"><rect codeLine="21" fill="#F1F1F1" height="48" id="TagManager" rx="2.5" ry="2.5" style="stroke:#181818;stroke-width:0.5;" width="114" x="344" y="985"/><ellipse cx="359" cy="1001" fill="#B4A7E5" rx="11" ry="11" style="stroke:#181818;stroke-width:1.0;"/><path d="M359.9531,997.6406 L359.9531,1004.2969 L361.6719,1004.2969 Q362.2813,1004.2969 362.5469,1004.5313 Q362.8125,1004.7656 362.8125,1005.1563 Q362.8125,1005.5313 362.5469,1005.7656 Q362.2813,1006 361.6719,1006 L356.5313,1006 Q355.9219,1006 355.6563,1005.7656 Q355.3906,1005.5313 355.3906,1005.1406 Q355.3906,1004.7656 355.6563,1004.5313 Q355.9219,1004.2969 356.5313,1004.2969 L358.25,1004.2969 L358.25,997.6406 L356.5313,997.6406 Q355.9219,997.6406 355.6563,997.4063 Q355.3906,997.1719 355.3906,996.7813 Q355.3906,996.4063 355.6563,996.1719 Q355.9219,995.9375 356.5313,995.9375 L361.6719,995.9375 Q362.2813,995.9375 362.5469,996.1719 Q362.8125,996.4063 362.8125,996.7813 Q362.8125,997.1719 362.5469,997.4063 Q362.2813,997.6406 361.6719,997.6406 L359.9531,997.6406 Z " fill="#000000"/><text fill="#000000" font-family="sans-serif" font-size="14" font-style="italic" lengthAdjust="spacing" textLength="82" x="373" y="1006.7285">TagManager</text><line style="stroke:#181818;stroke-width:0.5;" x1="345" x2="457" y1="1017" y2="1017"/><line style="stroke:#181818;stroke-width:0.5;" x1="345" x2="457" y1="1025" y2="1025"/></g><!--class Converter--><g id="elem_Converter"><rect codeLine="25" fill="#F1F1F1" height="48" id="Converter" rx="2.5" ry="2.5" style="stroke:#181818;stroke-width:0.5;" width="95" x="114.5" y="1192"/><ellipse cx="129.5" cy="1208" fill="#ADD1B2" rx="11" ry="11" style="stroke:#181818;stroke-width:1.0;"/><path d="M132.2656,1203.875 Q132.4219,1203.6563 132.6094,1203.5469 Q132.7969,1203.4375 133.0156,1203.4375 Q133.3906,1203.4375 133.625,1203.7031 Q133.8594,1203.9531 133.8594,1204.5625 L133.8594,1206.0156 Q133.8594,1206.625 133.625,1206.8906 Q133.3906,1207.1563 133.0156,1207.1563 Q132.6719,1207.1563 132.4688,1206.9531 Q132.2656,1206.7656 132.1563,1206.25 Q132.1094,1205.8906 131.9219,1205.7031 Q131.5938,1205.3281 130.9844,1205.1094 Q130.375,1204.8906 129.75,1204.8906 Q128.9844,1204.8906 128.3438,1205.2188 Q127.7188,1205.5469 127.2188,1206.2969 Q126.7344,1207.0469 126.7344,1208.0781 L126.7344,1209.1719 Q126.7344,1210.4063 127.625,1211.2344 Q128.5156,1212.0469 130.1094,1212.0469 Q131.0469,1212.0469 131.7031,1211.7969 Q132.0938,1211.6406 132.5156,1211.2031 Q132.7813,1210.9375 132.9219,1210.8594 Q133.0781,1210.7813 133.2813,1210.7813 Q133.6094,1210.7813 133.8594,1211.0469 Q134.125,1211.2969 134.125,1211.6406 Q134.125,1211.9844 133.7813,1212.3906 Q133.2813,1212.9688 132.4844,1213.2969 Q131.4063,1213.75 130.1094,1213.75 Q128.5938,1213.75 127.3906,1213.125 Q126.4063,1212.625 125.7188,1211.5625 Q125.0313,1210.4844 125.0313,1209.2031 L125.0313,1208.0469 Q125.0313,1206.7188 125.6406,1205.5781 Q126.2656,1204.4219 127.3594,1203.8125 Q128.4531,1203.1875 129.6875,1203.1875 Q130.4219,1203.1875 131.0625,1203.3594 Q131.7188,1203.5156 132.2656,1203.875 Z " fill="#000000"/><text fill="#000000" font-family="sans-serif" font-size="14" lengthAdjust="spacing" textLength="63" x="143.5" y="1213.7285">Converter</text><line style="stroke:#181818;stroke-width:0.5;" x1="115.5" x2="208.5" y1="1224" y2="1224"/><line style="stroke:#181818;stroke-width:0.5;" x1="115.5" x2="208.5" y1="1232" y2="1232"/></g><!--class Database--><g id="elem_Database"><rect codeLine="26" fill="#F1F1F1" height="48" id="Database" rx="2.5" ry="2.5" style="stroke:#181818;stroke-width:0.5;" width="93" x="115.5" y="1275"/><ellipse cx="130.5" cy="1291" fill="#ADD1B2" rx="11" ry="11" style="stroke:#181818;stroke-width:1.0;"/><path d="M133.2656,1286.875 Q133.4219,1286.6563 133.6094,1286.5469 Q133.7969,1286.4375 134.0156,1286.4375 Q134.3906,1286.4375 134.625,1286.7031 Q134.8594,1286.9531 134.8594,1287.5625 L134.8594,1289.0156 Q134.8594,1289.625 134.625,1289.8906 Q134.3906,1290.1563 134.0156,1290.1563 Q133.6719,1290.1563 133.4688,1289.9531 Q133.2656,1289.7656 133.1563,1289.25 Q133.1094,1288.8906 132.9219,1288.7031 Q132.5938,1288.3281 131.9844,1288.1094 Q131.375,1287.8906 130.75,1287.8906 Q129.9844,1287.8906 129.3438,1288.2188 Q128.7188,1288.5469 128.2188,1289.2969 Q127.7344,1290.0469 127.7344,1291.0781 L127.7344,1292.1719 Q127.7344,1293.4063 128.625,1294.2344 Q129.5156,1295.0469 131.1094,1295.0469 Q132.0469,1295.0469 132.7031,1294.7969 Q133.0938,1294.6406 133.5156,1294.2031 Q133.7813,1293.9375 133.9219,1293.8594 Q134.0781,1293.7813 134.2813,1293.7813 Q134.6094,1293.7813 134.8594,1294.0469 Q135.125,1294.2969 135.125,1294.6406 Q135.125,1294.9844 134.7813,1295.3906 Q134.2813,1295.9688 133.4844,1296.2969 Q132.4063,1296.75 131.1094,1296.75 Q129.5938,1296.75 128.3906,1296.125 Q127.4063,1295.625 126.7188,1294.5625 Q126.0313,1293.4844 126.0313,1292.2031 L126.0313,1291.0469 Q126.0313,1289.7188 126.6406,1288.5781 Q127.2656,1287.4219 128.3594,1286.8125 Q129.4531,1286.1875 130.6875,1286.1875 Q131.4219,1286.1875 132.0625,1286.3594 Q132.7188,1286.5156 133.2656,1286.875 Z " fill="#000000"/><text fill="#000000" font-family="sans-serif" font-size="14" lengthAdjust="spacing" textLength="61" x="144.5" y="1296.7285">Database</text><line style="stroke:#181818;stroke-width:0.5;" x1="116.5" x2="207.5" y1="1307" y2="1307"/><line style="stroke:#181818;stroke-width:0.5;" x1="116.5" x2="207.5" y1="1315" y2="1315"/></g><!--class AddressBookTest--><g id="elem_AddressBookTest"><rect codeLine="32" fill="#F1F1F1" height="48" id="AddressBookTest" rx="2.5" ry="2.5" style="stroke:#181818;stroke-width:0.5;" width="144" x="90" y="169"/><ellipse cx="105" cy="185" fill="#ADD1B2" rx="11" ry="11" style="stroke:#181818;stroke-width:1.0;"/><path d="M107.7656,180.875 Q107.9219,180.6563 108.1094,180.5469 Q108.2969,180.4375 108.5156,180.4375 Q108.8906,180.4375 109.125,180.7031 Q109.3594,180.9531 109.3594,181.5625 L109.3594,183.0156 Q109.3594,183.625 109.125,183.8906 Q108.8906,184.1563 108.5156,184.1563 Q108.1719,184.1563 107.9688,183.9531 Q107.7656,183.7656 107.6563,183.25 Q107.6094,182.8906 107.4219,182.7031 Q107.0938,182.3281 106.4844,182.1094 Q105.875,181.8906 105.25,181.8906 Q104.4844,181.8906 103.8438,182.2188 Q103.2188,182.5469 102.7188,183.2969 Q102.2344,184.0469 102.2344,185.0781 L102.2344,186.1719 Q102.2344,187.4063 103.125,188.2344 Q104.0156,189.0469 105.6094,189.0469 Q106.5469,189.0469 107.2031,188.7969 Q107.5938,188.6406 108.0156,188.2031 Q108.2813,187.9375 108.4219,187.8594 Q108.5781,187.7813 108.7813,187.7813 Q109.1094,187.7813 109.3594,188.0469 Q109.625,188.2969 109.625,188.6406 Q109.625,188.9844 109.2813,189.3906 Q108.7813,189.9688 107.9844,190.2969 Q106.9063,190.75 105.6094,190.75 Q104.0938,190.75 102.8906,190.125 Q101.9063,189.625 101.2188,188.5625 Q100.5313,187.4844 100.5313,186.2031 L100.5313,185.0469 Q100.5313,183.7188 101.1406,182.5781 Q101.7656,181.4219 102.8594,180.8125 Q103.9531,180.1875 105.1875,180.1875 Q105.9219,180.1875 106.5625,180.3594 Q107.2188,180.5156 107.7656,180.875 Z " fill="#000000"/><text fill="#000000" font-family="sans-serif" font-size="14" lengthAdjust="spacing" textLength="112" x="119" y="190.7285">AddressBookTest</text><line style="stroke:#181818;stroke-width:0.5;" x1="91" x2="233" y1="201" y2="201"/><line style="stroke:#181818;stroke-width:0.5;" x1="91" x2="233" y1="209" y2="209"/></g><!--class ContactTest--><g id="elem_ContactTest"><rect codeLine="33" fill="#F1F1F1" height="48" id="ContactTest" rx="2.5" ry="2.5" style="stroke:#181818;stroke-width:0.5;" width="109" x="107.5" y="86"/><ellipse cx="122.5" cy="102" fill="#ADD1B2" rx="11" ry="11" style="stroke:#181818;stroke-width:1.0;"/><path d="M125.2656,97.875 Q125.4219,97.6563 125.6094,97.5469 Q125.7969,97.4375 126.0156,97.4375 Q126.3906,97.4375 126.625,97.7031 Q126.8594,97.9531 126.8594,98.5625 L126.8594,100.0156 Q126.8594,100.625 126.625,100.8906 Q126.3906,101.1563 126.0156,101.1563 Q125.6719,101.1563 125.4688,100.9531 Q125.2656,100.7656 125.1563,100.25 Q125.1094,99.8906 124.9219,99.7031 Q124.5938,99.3281 123.9844,99.1094 Q123.375,98.8906 122.75,98.8906 Q121.9844,98.8906 121.3438,99.2188 Q120.7188,99.5469 120.2188,100.2969 Q119.7344,101.0469 119.7344,102.0781 L119.7344,103.1719 Q119.7344,104.4063 120.625,105.2344 Q121.5156,106.0469 123.1094,106.0469 Q124.0469,106.0469 124.7031,105.7969 Q125.0938,105.6406 125.5156,105.2031 Q125.7813,104.9375 125.9219,104.8594 Q126.0781,104.7813 126.2813,104.7813 Q126.6094,104.7813 126.8594,105.0469 Q127.125,105.2969 127.125,105.6406 Q127.125,105.9844 126.7813,106.3906 Q126.2813,106.9688 125.4844,107.2969 Q124.4063,107.75 123.1094,107.75 Q121.5938,107.75 120.3906,107.125 Q119.4063,106.625 118.7188,105.5625 Q118.0313,104.4844 118.0313,103.2031 L118.0313,102.0469 Q118.0313,100.7188 118.6406,99.5781 Q119.2656,98.4219 120.3594,97.8125 Q121.4531,97.1875 122.6875,97.1875 Q123.4219,97.1875 124.0625,97.3594 Q124.7188,97.5156 125.2656,97.875 Z " fill="#000000"/><text fill="#000000" font-family="sans-serif" font-size="14" lengthAdjust="spacing" textLength="77" x="136.5" y="107.7285">ContactTest</text><line style="stroke:#181818;stroke-width:0.5;" x1="108.5" x2="215.5" y1="118" y2="118"/><line style="stroke:#181818;stroke-width:0.5;" x1="108.5" x2="215.5" y1="126" y2="126"/></g><!--class TagTest--><g id="elem_TagTest"><rect codeLine="34" fill="#F1F1F1" height="48" id="TagTest" rx="2.5" ry="2.5" style="stroke:#181818;stroke-width:0.5;" width="85" x="358.5" y="169"/><ellipse cx="373.5" cy="185" fill="#ADD1B2" rx="11" ry="11" style="stroke:#181818;stroke-width:1.0;"/><path d="M376.2656,180.875 Q376.4219,180.6563 376.6094,180.5469 Q376.7969,180.4375 377.0156,180.4375 Q377.3906,180.4375 377.625,180.7031 Q377.8594,180.9531 377.8594,181.5625 L377.8594,183.0156 Q377.8594,183.625 377.625,183.8906 Q377.3906,184.1563 377.0156,184.1563 Q376.6719,184.1563 376.4688,183.9531 Q376.2656,183.7656 376.1563,183.25 Q376.1094,182.8906 375.9219,182.7031 Q375.5938,182.3281 374.9844,182.1094 Q374.375,181.8906 373.75,181.8906 Q372.9844,181.8906 372.3438,182.2188 Q371.7188,182.5469 371.2188,183.2969 Q370.7344,184.0469 370.7344,185.0781 L370.7344,186.1719 Q370.7344,187.4063 371.625,188.2344 Q372.5156,189.0469 374.1094,189.0469 Q375.0469,189.0469 375.7031,188.7969 Q376.0938,188.6406 376.5156,188.2031 Q376.7813,187.9375 376.9219,187.8594 Q377.0781,187.7813 377.2813,187.7813 Q377.6094,187.7813 377.8594,188.0469 Q378.125,188.2969 378.125,188.6406 Q378.125,188.9844 377.7813,189.3906 Q377.2813,189.9688 376.4844,190.2969 Q375.4063,190.75 374.1094,190.75 Q372.5938,190.75 371.3906,190.125 Q370.4063,189.625 369.7188,188.5625 Q369.0313,187.4844 369.0313,186.2031 L369.0313,185.0469 Q369.0313,183.7188 369.6406,182.5781 Q370.2656,181.4219 371.3594,180.8125 Q372.4531,180.1875 373.6875,180.1875 Q374.4219,180.1875 375.0625,180.3594 Q375.7188,180.5156 376.2656,180.875 Z " fill="#000000"/><text fill="#000000" font-family="sans-serif" font-size="14" lengthAdjust="spacing" textLength="53" x="387.5" y="190.7285">TagTest</text><line style="stroke:#181818;stroke-width:0.5;" x1="359.5" x2="442.5" y1="201" y2="201"/><line style="stroke:#181818;stroke-width:0.5;" x1="359.5" x2="442.5" y1="209" y2="209"/></g><!--class ConverterTest--><g id="elem_ConverterTest"><rect codeLine="38" fill="#F1F1F1" height="48" id="ConverterTest" rx="2.5" ry="2.5" style="stroke:#181818;stroke-width:0.5;" width="123" x="100.5" y="293"/><ellipse cx="115.5" cy="309" fill="#ADD1B2" rx="11" ry="11" style="stroke:#181818;stroke-width:1.0;"/><path d="M118.2656,304.875 Q118.4219,304.6563 118.6094,304.5469 Q118.7969,304.4375 119.0156,304.4375 Q119.3906,304.4375 119.625,304.7031 Q119.8594,304.9531 119.8594,305.5625 L119.8594,307.0156 Q119.8594,307.625 119.625,307.8906 Q119.3906,308.1563 119.0156,308.1563 Q118.6719,308.1563 118.4688,307.9531 Q118.2656,307.7656 118.1563,307.25 Q118.1094,306.8906 117.9219,306.7031 Q117.5938,306.3281 116.9844,306.1094 Q116.375,305.8906 115.75,305.8906 Q114.9844,305.8906 114.3438,306.2188 Q113.7188,306.5469 113.2188,307.2969 Q112.7344,308.0469 112.7344,309.0781 L112.7344,310.1719 Q112.7344,311.4063 113.625,312.2344 Q114.5156,313.0469 116.1094,313.0469 Q117.0469,313.0469 117.7031,312.7969 Q118.0938,312.6406 118.5156,312.2031 Q118.7813,311.9375 118.9219,311.8594 Q119.0781,311.7813 119.2813,311.7813 Q119.6094,311.7813 119.8594,312.0469 Q120.125,312.2969 120.125,312.6406 Q120.125,312.9844 119.7813,313.3906 Q119.2813,313.9688 118.4844,314.2969 Q117.4063,314.75 116.1094,314.75 Q114.5938,314.75 113.3906,314.125 Q112.4063,313.625 111.7188,312.5625 Q111.0313,311.4844 111.0313,310.2031 L111.0313,309.0469 Q111.0313,307.7188 111.6406,306.5781 Q112.2656,305.4219 113.3594,304.8125 Q114.4531,304.1875 115.6875,304.1875 Q116.4219,304.1875 117.0625,304.3594 Q117.7188,304.5156 118.2656,304.875 Z " fill="#000000"/><text fill="#000000" font-family="sans-serif" font-size="14" lengthAdjust="spacing" textLength="91" x="129.5" y="314.7285">ConverterTest</text><line style="stroke:#181818;stroke-width:0.5;" x1="101.5" x2="222.5" y1="325" y2="325"/><line style="stroke:#181818;stroke-width:0.5;" x1="101.5" x2="222.5" y1="333" y2="333"/></g><!--class DatabaseTest--><g id="elem_DatabaseTest"><rect codeLine="39" fill="#F1F1F1" height="48" id="DatabaseTest" rx="2.5" ry="2.5" style="stroke:#181818;stroke-width:0.5;" width="121" x="101.5" y="376"/><ellipse cx="116.5" cy="392" fill="#ADD1B2" rx="11" ry="11" style="stroke:#181818;stroke-width:1.0;"/><path d="M119.2656,387.875 Q119.4219,387.6563 119.6094,387.5469 Q119.7969,387.4375 120.0156,387.4375 Q120.3906,387.4375 120.625,387.7031 Q120.8594,387.9531 120.8594,388.5625 L120.8594,390.0156 Q120.8594,390.625 120.625,390.8906 Q120.3906,391.1563 120.0156,391.1563 Q119.6719,391.1563 119.4688,390.9531 Q119.2656,390.7656 119.1563,390.25 Q119.1094,389.8906 118.9219,389.7031 Q118.5938,389.3281 117.9844,389.1094 Q117.375,388.8906 116.75,388.8906 Q115.9844,388.8906 115.3438,389.2188 Q114.7188,389.5469 114.2188,390.2969 Q113.7344,391.0469 113.7344,392.0781 L113.7344,393.1719 Q113.7344,394.4063 114.625,395.2344 Q115.5156,396.0469 117.1094,396.0469 Q118.0469,396.0469 118.7031,395.7969 Q119.0938,395.6406 119.5156,395.2031 Q119.7813,394.9375 119.9219,394.8594 Q120.0781,394.7813 120.2813,394.7813 Q120.6094,394.7813 120.8594,395.0469 Q121.125,395.2969 121.125,395.6406 Q121.125,395.9844 120.7813,396.3906 Q120.2813,396.9688 119.4844,397.2969 Q118.4063,397.75 117.1094,397.75 Q115.5938,397.75 114.3906,397.125 Q113.4063,396.625 112.7188,395.5625 Q112.0313,394.4844 112.0313,393.2031 L112.0313,392.0469 Q112.0313,390.7188 112.6406,389.5781 Q113.2656,388.4219 114.3594,387.8125 Q115.4531,387.1875 116.6875,387.1875 Q117.4219,387.1875 118.0625,387.3594 Q118.7188,387.5156 119.2656,387.875 Z " fill="#000000"/><text fill="#000000" font-family="sans-serif" font-size="14" lengthAdjust="spacing" textLength="89" x="130.5" y="397.7285">DatabaseTest</text><line style="stroke:#181818;stroke-width:0.5;" x1="102.5" x2="221.5" y1="408" y2="408"/><line style="stroke:#181818;stroke-width:0.5;" x1="102.5" x2="221.5" y1="416" y2="416"/></g><!--SRC=[dL91JiCm4Bpd5LOVWCGJe73WWDH3Fx1rDiQguxLsDnKIojznL6AYr4e5ldbdTdPsx82T6YN3tdseQJsZLK-nQHBOCpWqEyT3IlJua9WSgX8F9_OMTkQhCVdO02BcgMqPHPw9pk_WS_i45GbBKPb2G9QvxRTrJx7pxa1fIFl2gt6utoQzVYPYtUQyzTdGFSfzcMd73J3c8KTmKXCPLzdqr6AenB98z3OC1QkbwgCYTs1nHgu6rhQoeKfBhYxfQtU2VF4MwyzsGTQRCI-WS0B17xbnyPEEA6eErrjH_4iGaq0zZ0gIDolLVwnLKPnNMyYEtm00]--></g></svg>