<svg xmlns="http://www.w3.org/2000/svg" xmlns:xlink="http://www.w3.org/1999/xlink" contentStyleType="text/css" height="869px" preserveAspectRatio="none" style="width:981px;height:869px;background:#FFFFFF;" version="1.1" viewBox="0 0 981 869" width="981px" zoomAndPan="magnify"><defs/><g><rect fill="#FFFFFF" height="29.1328" style="stroke:#181818;stroke-width:1;" width="10" x="249.2813" y="112.4297"/><rect fill="#FFFFFF" height="69.2656" style="stroke:#181818;stroke-width:1;" width="10" x="496.6572" y="219.9922"/><rect fill="#FFFFFF" height="32.1328" style="stroke:#181818;stroke-width:1;" width="10" x="501.6572" y="257.125"/><rect fill="#FFFFFF" height="377.0938" style="stroke:#181818;stroke-width:1;" width="10" x="496.6572" y="379.6563"/><rect fill="#FFFFFF" height="30" style="stroke:#181818;stroke-width:1;" width="10" x="658.1348" y="413.7891"/><rect fill="#FFFFFF" height="30" style="stroke:#181818;stroke-width:1;" width="10" x="658.1348" y="472.9219"/><rect fill="#FFFFFF" height="224.6953" style="stroke:#181818;stroke-width:1;" width="10" x="658.1348" y="532.0547"/><rect fill="#FFFFFF" height="28" style="stroke:#181818;stroke-width:1;" width="10" x="663.1348" y="728.75"/><rect fill="#FFFFFF" height="32.1328" style="stroke:#181818;stroke-width:1;" width="10" x="774.9146" y="257.125"/><rect fill="#FFFFFF" height="30" style="stroke:#181818;stroke-width:1;" width="10" x="872.23" y="602.4844"/><rect fill="#FFFFFF" height="30" style="stroke:#181818;stroke-width:1;" width="10" x="872.23" y="661.6172"/><rect fill="none" height="467.4922" style="stroke:#000000;stroke-width:1.5;" width="924.145" x="10" y="304.2578"/><line style="stroke:#181818;stroke-width:0.5;stroke-dasharray:5.0,5.0;" x1="46" x2="46" y1="81.2969" y2="788.75"/><line style="stroke:#181818;stroke-width:0.5;stroke-dasharray:5.0,5.0;" x1="253.4697" x2="253.4697" y1="81.2969" y2="788.75"/><line style="stroke:#181818;stroke-width:0.5;stroke-dasharray:5.0,5.0;" x1="501.2695" x2="501.2695" y1="151.0781" y2="788.75"/><line style="stroke:#181818;stroke-width:0.5;stroke-dasharray:5.0,5.0;" x1="663.0449" x2="663.0449" y1="81.2969" y2="788.75"/><line style="stroke:#181818;stroke-width:0.5;stroke-dasharray:5.0,5.0;" x1="779.5142" x2="779.5142" y1="81.2969" y2="788.75"/><line style="stroke:#181818;stroke-width:0.5;stroke-dasharray:5.0,5.0;" x1="876.3149" x2="876.3149" y1="570.7031" y2="788.75"/><text fill="#000000" font-family="sans-serif" font-size="14" lengthAdjust="spacing" textLength="47.3252" x="20" y="77.9951">Utente</text><ellipse cx="46.6626" cy="13.5" fill="#E2E2F0" rx="8" ry="8" style="stroke:#181818;stroke-width:0.5;"/><path d="M46.6626,21.5 L46.6626,48.5 M33.6626,29.5 L59.6626,29.5 M46.6626,48.5 L33.6626,63.5 M46.6626,48.5 L59.6626,63.5 " fill="none" style="stroke:#181818;stroke-width:0.5;"/><text fill="#000000" font-family="sans-serif" font-size="14" lengthAdjust="spacing" textLength="47.3252" x="20" y="800.7451">Utente</text><ellipse cx="46.6626" cy="812.5469" fill="#E2E2F0" rx="8" ry="8" style="stroke:#181818;stroke-width:0.5;"/><path d="M46.6626,820.5469 L46.6626,847.5469 M33.6626,828.5469 L59.6626,828.5469 M46.6626,847.5469 L33.6626,862.5469 M46.6626,847.5469 L59.6626,862.5469 " fill="none" style="stroke:#181818;stroke-width:0.5;"/><rect fill="#E2E2F0" height="30.2969" rx="2.5" ry="2.5" style="stroke:#181818;stroke-width:0.5;" width="129.623" x="189.4697" y="50"/><text fill="#000000" font-family="sans-serif" font-size="14" lengthAdjust="spacing" textLength="115.623" x="196.4697" y="69.9951">a MainController</text><rect fill="#E2E2F0" height="30.2969" rx="2.5" ry="2.5" style="stroke:#181818;stroke-width:0.5;" width="129.623" x="189.4697" y="787.75"/><text fill="#000000" font-family="sans-serif" font-size="14" lengthAdjust="spacing" textLength="115.623" x="196.4697" y="807.7451">a MainController</text><rect fill="#E2E2F0" height="30.2969" rx="2.5" ry="2.5" style="stroke:#181818;stroke-width:0.5;" width="184.7754" x="409.2695" y="787.75"/><text fill="#000000" font-family="sans-serif" font-size="14" lengthAdjust="spacing" textLength="170.7754" x="416.2695" y="807.7451">a ConfigPopupController</text><rect fill="#E2E2F0" height="30.2969" rx="2.5" ry="2.5" style="stroke:#181818;stroke-width:0.5;" width="118.1797" x="604.0449" y="50"/><text fill="#000000" font-family="sans-serif" font-size="14" lengthAdjust="spacing" textLength="104.1797" x="611.0449" y="69.9951">a AddressBook</text><rect fill="#E2E2F0" height="30.2969" rx="2.5" ry="2.5" style="stroke:#181818;stroke-width:0.5;" width="118.1797" x="604.0449" y="787.75"/><text fill="#000000" font-family="sans-serif" font-size="14" lengthAdjust="spacing" textLength="104.1797" x="611.0449" y="807.7451">a AddressBook</text><rect fill="#E2E2F0" height="30.2969" rx="2.5" ry="2.5" style="stroke:#181818;stroke-width:0.5;" width="80.8008" x="739.5142" y="50"/><text fill="#000000" font-family="sans-serif" font-size="14" lengthAdjust="spacing" textLength="66.8008" x="746.5142" y="69.9951">Database</text><rect fill="#E2E2F0" height="30.2969" rx="2.5" ry="2.5" style="stroke:#181818;stroke-width:0.5;" width="80.8008" x="739.5142" y="787.75"/><text fill="#000000" font-family="sans-serif" font-size="14" lengthAdjust="spacing" textLength="66.8008" x="746.5142" y="807.7451">Database</text><rect fill="#E2E2F0" height="30.2969" rx="2.5" ry="2.5" style="stroke:#181818;stroke-width:0.5;" width="93.8301" x="830.3149" y="787.75"/><text fill="#000000" font-family="sans-serif" font-size="14" lengthAdjust="spacing" textLength="79.8301" x="837.3149" y="807.7451">a Database</text><rect fill="#FFFFFF" height="29.1328" style="stroke:#181818;stroke-width:1;" width="10" x="249.2813" y="112.4297"/><rect fill="#FFFFFF" height="69.2656" style="stroke:#181818;stroke-width:1;" width="10" x="496.6572" y="219.9922"/><rect fill="#FFFFFF" height="32.1328" style="stroke:#181818;stroke-width:1;" width="10" x="501.6572" y="257.125"/><rect fill="#FFFFFF" height="377.0938" style="stroke:#181818;stroke-width:1;" width="10" x="496.6572" y="379.6563"/><rect fill="#FFFFFF" height="30" style="stroke:#181818;stroke-width:1;" width="10" x="658.1348" y="413.7891"/><rect fill="#FFFFFF" height="30" style="stroke:#181818;stroke-width:1;" width="10" x="658.1348" y="472.9219"/><rect fill="#FFFFFF" height="224.6953" style="stroke:#181818;stroke-width:1;" width="10" x="658.1348" y="532.0547"/><rect fill="#FFFFFF" height="28" style="stroke:#181818;stroke-width:1;" width="10" x="663.1348" y="728.75"/><rect fill="#FFFFFF" height="32.1328" style="stroke:#181818;stroke-width:1;" width="10" x="774.9146" y="257.125"/><rect fill="#FFFFFF" height="30" style="stroke:#181818;stroke-width:1;" width="10" x="872.23" y="602.4844"/><rect fill="#FFFFFF" height="30" style="stroke:#181818;stroke-width:1;" width="10" x="872.23" y="661.6172"/><polygon fill="#181818" points="237.2813,108.4297,247.2813,112.4297,237.2813,116.4297,241.2813,112.4297" style="stroke:#181818;stroke-width:1;"/><line style="stroke:#181818;stroke-width:1;" x1="46.6626" x2="243.2813" y1="112.4297" y2="112.4297"/><text fill="#000000" font-family="sans-serif" font-size="13" lengthAdjust="spacing" textLength="183.6187" x="53.6626" y="107.3638">nel men&#249; file clicca "Config"</text><polygon fill="#181818" points="397.2695,137.5625,407.2695,141.5625,397.2695,145.5625,401.2695,141.5625" style="stroke:#181818;stroke-width:1;"/><line style="stroke:#181818;stroke-width:1;" x1="254.2813" x2="403.2695" y1="141.5625" y2="141.5625"/><text fill="#000000" font-family="sans-serif" font-size="13" lengthAdjust="spacing" textLength="125.9883" x="261.2813" y="136.4966">showConfigPopup()</text><rect fill="#E2E2F0" height="30.2969" rx="2.5" ry="2.5" style="stroke:#181818;stroke-width:0.5;" width="184.7754" x="409.2695" y="120.4297"/><text fill="#000000" font-family="sans-serif" font-size="14" lengthAdjust="spacing" textLength="170.7754" x="416.2695" y="140.4248">a ConfigPopupController</text><polygon fill="#181818" points="489.6572,178.8594,499.6572,182.8594,489.6572,186.8594,493.6572,182.8594" style="stroke:#181818;stroke-width:1;"/><line style="stroke:#181818;stroke-width:1;" x1="46.6626" x2="495.6572" y1="182.8594" y2="182.8594"/><text fill="#000000" font-family="sans-serif" font-size="13" lengthAdjust="spacing" textLength="293.9536" x="53.6626" y="177.7935">inserisce URL del database e clicca "Verifica"</text><line style="stroke:#181818;stroke-width:1;" x1="501.6572" x2="548.6572" y1="206.9922" y2="206.9922"/><line style="stroke:#181818;stroke-width:1;" x1="548.6572" x2="548.6572" y1="206.9922" y2="219.9922"/><line style="stroke:#181818;stroke-width:1;" x1="507.6572" x2="548.6572" y1="219.9922" y2="219.9922"/><polygon fill="#181818" points="517.6572,215.9922,507.6572,219.9922,517.6572,223.9922,513.6572,219.9922" style="stroke:#181818;stroke-width:1;"/><text fill="#000000" font-family="sans-serif" font-size="13" lengthAdjust="spacing" textLength="64.4541" x="513.6572" y="201.9263">onVerify()</text><polygon fill="#181818" points="762.9146,253.125,772.9146,257.125,762.9146,261.125,766.9146,257.125" style="stroke:#181818;stroke-width:1;"/><line style="stroke:#181818;stroke-width:1;" x1="511.6572" x2="768.9146" y1="257.125" y2="257.125"/><text fill="#000000" font-family="sans-serif" font-size="13" lengthAdjust="spacing" textLength="144.5869" x="518.6572" y="252.0591">verifyDBUrl(String url)</text><path d="M789,237.9922 L789,262.9922 L974,262.9922 L974,247.9922 L964,237.9922 L789,237.9922 " fill="#FEFFDD" style="stroke:#181818;stroke-width:0.5;"/><path d="M964,237.9922 L964,247.9922 L974,247.9922 L964,237.9922 " fill="#FEFFDD" style="stroke:#181818;stroke-width:0.5;"/><text fill="#000000" font-family="sans-serif" font-size="13" lengthAdjust="spacing" textLength="164.3853" x="795" y="255.0591">Questo metodo &#232; statico.</text><polygon fill="#181818" points="512.6572,285.2578,502.6572,289.2578,512.6572,293.2578,508.6572,289.2578" style="stroke:#181818;stroke-width:1;"/><line style="stroke:#181818;stroke-width:1;stroke-dasharray:2.0,2.0;" x1="506.6572" x2="778.9146" y1="289.2578" y2="289.2578"/><text fill="#000000" font-family="sans-serif" font-size="13" lengthAdjust="spacing" textLength="51.9746" x="518.6572" y="284.1919">boolean</text><path d="M10,304.2578 L74.4429,304.2578 L74.4429,311.3906 L64.4429,321.3906 L10,321.3906 L10,304.2578 " fill="#EEEEEE" style="stroke:#000000;stroke-width:1.5;"/><rect fill="none" height="467.4922" style="stroke:#000000;stroke-width:1.5;" width="924.145" x="10" y="304.2578"/><text fill="#000000" font-family="sans-serif" font-size="13" font-weight="bold" lengthAdjust="spacing" textLength="19.4429" x="25" y="317.3247">alt</text><text fill="#000000" font-family="sans-serif" font-size="11" font-weight="bold" lengthAdjust="spacing" textLength="101.605" x="89.4429" y="316.4683">["L'url &#232; valido"]</text><polygon fill="#181818" points="489.6572,338.5234,499.6572,342.5234,489.6572,346.5234,493.6572,342.5234" style="stroke:#181818;stroke-width:1;"/><line style="stroke:#181818;stroke-width:1;" x1="46.6626" x2="495.6572" y1="342.5234" y2="342.5234"/><text fill="#000000" font-family="sans-serif" font-size="13" lengthAdjust="spacing" textLength="116.543" x="53.6626" y="337.4575">clicca "Conferma"</text><line style="stroke:#181818;stroke-width:1;" x1="501.6572" x2="548.6572" y1="366.6563" y2="366.6563"/><line style="stroke:#181818;stroke-width:1;" x1="548.6572" x2="548.6572" y1="366.6563" y2="379.6563"/><line style="stroke:#181818;stroke-width:1;" x1="507.6572" x2="548.6572" y1="379.6563" y2="379.6563"/><polygon fill="#181818" points="517.6572,375.6563,507.6572,379.6563,517.6572,383.6563,513.6572,379.6563" style="stroke:#181818;stroke-width:1;"/><text fill="#000000" font-family="sans-serif" font-size="13" lengthAdjust="spacing" textLength="77.8032" x="513.6572" y="361.5903">onConfirm()</text><polygon fill="#181818" points="646.1348,409.7891,656.1348,413.7891,646.1348,417.7891,650.1348,413.7891" style="stroke:#181818;stroke-width:1;"/><line style="stroke:#181818;stroke-width:1;" x1="506.6572" x2="652.1348" y1="413.7891" y2="413.7891"/><text fill="#000000" font-family="sans-serif" font-size="13" lengthAdjust="spacing" textLength="127.5371" x="513.6572" y="408.7231">setDBUrl(String url)</text><polygon fill="#181818" points="646.1348,468.9219,656.1348,472.9219,646.1348,476.9219,650.1348,472.9219" style="stroke:#181818;stroke-width:1;"/><line style="stroke:#181818;stroke-width:1;" x1="506.6572" x2="652.1348" y1="472.9219" y2="472.9219"/><text fill="#000000" font-family="sans-serif" font-size="13" lengthAdjust="spacing" textLength="82.2847" x="513.6572" y="467.856">saveConfig()</text><polygon fill="#181818" points="646.1348,528.0547,656.1348,532.0547,646.1348,536.0547,650.1348,532.0547" style="stroke:#181818;stroke-width:1;"/><line style="stroke:#181818;stroke-width:1;" x1="506.6572" x2="652.1348" y1="532.0547" y2="532.0547"/><text fill="#000000" font-family="sans-serif" font-size="13" lengthAdjust="spacing" textLength="49.6323" x="513.6572" y="526.9888">initDB()</text><polygon fill="#181818" points="818.3149,557.1875,828.3149,561.1875,818.3149,565.1875,822.3149,561.1875" style="stroke:#181818;stroke-width:1;"/><line style="stroke:#181818;stroke-width:1;" x1="668.1348" x2="824.3149" y1="561.1875" y2="561.1875"/><text fill="#000000" font-family="sans-serif" font-size="13" lengthAdjust="spacing" textLength="132.2979" x="675.1348" y="556.1216">Database(String url)</text><rect fill="#E2E2F0" height="30.2969" rx="2.5" ry="2.5" style="stroke:#181818;stroke-width:0.5;" width="93.8301" x="830.3149" y="540.0547"/><text fill="#000000" font-family="sans-serif" font-size="14" lengthAdjust="spacing" textLength="79.8301" x="837.3149" y="560.0498">a Database</text><line style="stroke:#181818;stroke-width:1;" x1="870.23" x2="860.23" y1="602.4844" y2="598.4844"/><line style="stroke:#181818;stroke-width:1;" x1="668.1348" x2="871.23" y1="602.4844" y2="602.4844"/><text fill="#000000" font-family="sans-serif" font-size="13" lengthAdjust="spacing" textLength="152.0708" x="675.1348" y="597.4185">insertManyContacts(...)</text><line style="stroke:#181818;stroke-width:1;" x1="870.23" x2="860.23" y1="661.6172" y2="657.6172"/><line style="stroke:#181818;stroke-width:1;" x1="668.1348" x2="871.23" y1="661.6172" y2="661.6172"/><text fill="#000000" font-family="sans-serif" font-size="13" lengthAdjust="spacing" textLength="125.6519" x="675.1348" y="656.5513">insertManyTags(...)</text><line style="stroke:#181818;stroke-width:1;" x1="673.1348" x2="715.1348" y1="720.75" y2="720.75"/><line style="stroke:#181818;stroke-width:1;" x1="715.1348" x2="715.1348" y1="720.75" y2="733.75"/><line style="stroke:#181818;stroke-width:1;" x1="674.1348" x2="715.1348" y1="733.75" y2="733.75"/><polygon fill="#181818" points="684.1348,729.75,674.1348,733.75,684.1348,737.75,680.1348,733.75" style="stroke:#181818;stroke-width:1;"/><text fill="#000000" font-family="sans-serif" font-size="13" lengthAdjust="spacing" textLength="82.7798" x="680.1348" y="715.6841">removeOBJ()</text><path d="M515,708.1172 L515,733.1172 L652,733.1172 L652,718.1172 L642,708.1172 L515,708.1172 " fill="#FEFFDD" style="stroke:#181818;stroke-width:0.5;"/><path d="M642,708.1172 L642,718.1172 L652,718.1172 L642,708.1172 " fill="#FEFFDD" style="stroke:#181818;stroke-width:0.5;"/><text fill="#000000" font-family="sans-serif" font-size="13" lengthAdjust="spacing" textLength="116.6001" x="521" y="725.1841">Rimuove Data.bin</text><line style="stroke:#A80036;stroke-width:2;" x1="492.6572" x2="510.6572" y1="754.75" y2="772.75"/><line style="stroke:#A80036;stroke-width:2;" x1="492.6572" x2="510.6572" y1="772.75" y2="754.75"/><!--SRC=[dPJ1Rjim38RlUWh2bwK5wWVeOS2odeOMsxfbfrveYKc5oQ8XoHxoHdk5dVjYe-J4irsqs9ORfUydVr9qK2SEi4la4m56w5M78LbjE_G9AeGxjFuz-nJOEGfLPbgzXWJOsyCdxlfknUhk6VpEc40nRfc_5mIR9N632HkCL2wZMSiNrqQf7gxUYYMu1ayEMl9Fls1l7O5sLck4QZHNATJ93YXjYd_XHINcuF9IbF6HVynws5meGtEyFzFNO7saOACcsDtVWf6IvcG8_fJy9iZUQgnK5arQzkNYAFcdx7b09oWQOOP2t6ntmMs-f63z0VhWBfHdWOCzF2O5yllSKqmixIOs34y_8IQKAN6jo1l8yBB45CX0fSxLvAbXTeH-th0WioYhLo4wUOdRD-8hLnxGMSDLiJKRr7py55eSWTKyoj13AmF9buiYCngR_4QKdazbeP95ol7CxEbaaGO76fzwypzowwtOU44gX71ctAdpdYxyJjZ30vZpDgKxzCVytKY-kAdhUfNTh7sPL_9ynSE_vZYr5gZbWJvkF_prOCfEEjgFAtblsruIbCRhnlfoE6tZ2obMcpKUHVa7EPPOvBy1]--></g></svg>