<?xml version="1.0" encoding="us-ascii" standalone="no"?><svg xmlns="http://www.w3.org/2000/svg" xmlns:xlink="http://www.w3.org/1999/xlink" contentStyleType="text/css" height="1066px" preserveAspectRatio="none" style="width:793px;height:1066px;background:#FFFFFF;" version="1.1" viewBox="0 0 793 1066" width="793px" zoomAndPan="magnify"><defs/><g><rect fill="#FFFFFF" height="108.3125" style="stroke:#181818;stroke-width:1.0;" width="10" x="398.5" y="165.5703"/><rect fill="#FFFFFF" height="32.6094" style="stroke:#181818;stroke-width:1.0;" width="10" x="403.5" y="210.9219"/><rect fill="#FFFFFF" height="35.3516" style="stroke:#181818;stroke-width:1.0;" width="10" x="398.5" y="367.9375"/><rect fill="#FFFFFF" height="28" style="stroke:#181818;stroke-width:1.0;" width="10" x="398.5" y="497.3438"/><rect fill="#FFFFFF" height="96.0547" style="stroke:#181818;stroke-width:1.0;" width="10" x="398.5" y="640.3984"/><rect fill="#FFFFFF" height="126.4063" style="stroke:#181818;stroke-width:1.0;" width="10" x="398.5" y="820.9922"/><rect fill="#FFFFFF" height="32.6094" style="stroke:#181818;stroke-width:1.0;" width="10" x="627.5" y="210.9219"/><rect fill="none" height="258.4609" style="stroke:#000000;stroke-width:1.5;" width="642.5" x="10" y="288.8828"/><rect fill="none" height="122.0547" style="stroke:#000000;stroke-width:1.5;" width="622.5" x="20" y="418.2891"/><rect fill="none" height="406.3125" style="stroke:#000000;stroke-width:1.5;" width="766.5" x="20" y="561.3438"/><line style="stroke:#181818;stroke-width:0.5;stroke-dasharray:5.0,5.0;" x1="53" x2="53" y1="82.6094" y2="984.6563"/><line style="stroke:#181818;stroke-width:0.5;stroke-dasharray:5.0,5.0;" x1="403.5" x2="403.5" y1="123.9141" y2="984.6563"/><line style="stroke:#181818;stroke-width:0.5;stroke-dasharray:5.0,5.0;" x1="632.5" x2="632.5" y1="209.875" y2="984.6563"/><line style="stroke:#181818;stroke-width:0.5;stroke-dasharray:5.0,5.0;" x1="738.5" x2="738.5" y1="956.3516" y2="984.6563"/><text fill="#000000" font-family="sans-serif" font-size="14" lengthAdjust="spacing" textLength="41" x="30" y="79.5332">Utente</text><ellipse cx="53.5" cy="13.5" fill="#E2E2F0" rx="8" ry="8" style="stroke:#181818;stroke-width:0.5;"/><path d="M53.5,21.5 L53.5,48.5 M40.5,29.5 L66.5,29.5 M53.5,48.5 L40.5,63.5 M53.5,48.5 L66.5,63.5 " fill="none" style="stroke:#181818;stroke-width:0.5;"/><text fill="#000000" font-family="sans-serif" font-size="14" lengthAdjust="spacing" textLength="41" x="30" y="998.1895">Utente</text><ellipse cx="53.5" cy="1009.7656" fill="#E2E2F0" rx="8" ry="8" style="stroke:#181818;stroke-width:0.5;"/><path d="M53.5,1017.7656 L53.5,1044.7656 M40.5,1025.7656 L66.5,1025.7656 M53.5,1044.7656 L40.5,1059.7656 M53.5,1044.7656 L66.5,1059.7656 " fill="none" style="stroke:#181818;stroke-width:0.5;"/><rect fill="#E2E2F0" height="31.6094" rx="2.5" ry="2.5" style="stroke:#181818;stroke-width:0.5;" width="118" x="344.5" y="983.6563"/><text fill="#000000" font-family="sans-serif" font-size="14" lengthAdjust="spacing" textLength="104" x="351.5" y="1005.1895">a MainController</text><rect fill="#E2E2F0" height="31.6094" rx="2.5" ry="2.5" style="stroke:#181818;stroke-width:0.5;" width="118" x="573.5" y="983.6563"/><text fill="#000000" font-family="sans-serif" font-size="14" lengthAdjust="spacing" textLength="104" x="580.5" y="1005.1895">an AddressBook</text><rect fill="#E2E2F0" height="31.6094" rx="2.5" ry="2.5" style="stroke:#181818;stroke-width:0.5;" width="75" x="701.5" y="983.6563"/><text fill="#000000" font-family="sans-serif" font-size="14" lengthAdjust="spacing" textLength="61" x="708.5" y="1005.1895">a Contact</text><rect fill="#FFFFFF" height="108.3125" style="stroke:#181818;stroke-width:1.0;" width="10" x="398.5" y="165.5703"/><rect fill="#FFFFFF" height="32.6094" style="stroke:#181818;stroke-width:1.0;" width="10" x="403.5" y="210.9219"/><rect fill="#FFFFFF" height="35.3516" style="stroke:#181818;stroke-width:1.0;" width="10" x="398.5" y="367.9375"/><rect fill="#FFFFFF" height="28" style="stroke:#181818;stroke-width:1.0;" width="10" x="398.5" y="497.3438"/><rect fill="#FFFFFF" height="96.0547" style="stroke:#181818;stroke-width:1.0;" width="10" x="398.5" y="640.3984"/><rect fill="#FFFFFF" height="126.4063" style="stroke:#181818;stroke-width:1.0;" width="10" x="398.5" y="820.9922"/><rect fill="#FFFFFF" height="32.6094" style="stroke:#181818;stroke-width:1.0;" width="10" x="627.5" y="210.9219"/><polygon fill="#181818" points="332.5,110.9609,342.5,114.9609,332.5,118.9609,336.5,114.9609" style="stroke:#181818;stroke-width:1.0;"/><line style="stroke:#181818;stroke-width:1.0;" x1="53.5" x2="338.5" y1="114.9609" y2="114.9609"/><text fill="#000000" font-family="sans-serif" font-size="13" lengthAdjust="spacing" textLength="70" x="60.5" y="110.1045">Apre rubrica</text><rect fill="#E2E2F0" height="31.6094" rx="2.5" ry="2.5" style="stroke:#181818;stroke-width:0.5;" width="118" x="344.5" y="92.6094"/><text fill="#000000" font-family="sans-serif" font-size="14" lengthAdjust="spacing" textLength="104" x="351.5" y="114.1426">a MainController</text><line style="stroke:#181818;stroke-width:1.0;" x1="403.5" x2="450.5" y1="152.5703" y2="152.5703"/><line style="stroke:#181818;stroke-width:1.0;" x1="450.5" x2="450.5" y1="152.5703" y2="165.5703"/><line style="stroke:#181818;stroke-width:1.0;" x1="409.5" x2="450.5" y1="165.5703" y2="165.5703"/><polygon fill="#181818" points="419.5,161.5703,409.5,165.5703,419.5,169.5703,415.5,165.5703" style="stroke:#181818;stroke-width:1.0;"/><text fill="#000000" font-family="sans-serif" font-size="13" lengthAdjust="spacing" textLength="67" x="415.5" y="147.7139">initialize(...)</text><polygon fill="#181818" points="561.5,196.9219,571.5,200.9219,561.5,204.9219,565.5,200.9219" style="stroke:#181818;stroke-width:1.0;"/><line style="stroke:#181818;stroke-width:1.0;" x1="408.5" x2="567.5" y1="200.9219" y2="200.9219"/><text fill="#000000" font-family="sans-serif" font-size="13" lengthAdjust="spacing" textLength="75" x="415.5" y="196.0654">getInstance()</text><rect fill="#E2E2F0" height="31.6094" rx="2.5" ry="2.5" style="stroke:#181818;stroke-width:0.5;" width="118" x="573.5" y="178.5703"/><text fill="#000000" font-family="sans-serif" font-size="14" lengthAdjust="spacing" textLength="104" x="580.5" y="200.1035">an AddressBook</text><polygon fill="#181818" points="419.5,239.5313,409.5,243.5313,419.5,247.5313,415.5,243.5313" style="stroke:#181818;stroke-width:1.0;"/><line style="stroke:#181818;stroke-width:1.0;stroke-dasharray:2.0,2.0;" x1="413.5" x2="631.5" y1="243.5313" y2="243.5313"/><text fill="#000000" font-family="sans-serif" font-size="13" lengthAdjust="spacing" textLength="92" x="425.5" y="238.6748">lista dei contatti</text><polygon fill="#181818" points="64.5,269.8828,54.5,273.8828,64.5,277.8828,60.5,273.8828" style="stroke:#181818;stroke-width:1.0;"/><line style="stroke:#181818;stroke-width:1.0;stroke-dasharray:2.0,2.0;" x1="58.5" x2="402.5" y1="273.8828" y2="273.8828"/><text fill="#000000" font-family="sans-serif" font-size="13" lengthAdjust="spacing" textLength="150" x="70.5" y="269.0264">mostra la lista dei contatti</text><path d="M10,288.8828 L83,288.8828 L83,297.2344 L73,307.2344 L10,307.2344 L10,288.8828 " fill="#EEEEEE" style="stroke:#000000;stroke-width:1.5;"/><rect fill="none" height="258.4609" style="stroke:#000000;stroke-width:1.5;" width="642.5" x="10" y="288.8828"/><text fill="#000000" font-family="sans-serif" font-size="13" font-weight="bold" lengthAdjust="spacing" textLength="28" x="25" y="303.3779">loop</text><text fill="#000000" font-family="sans-serif" font-size="11" font-weight="bold" lengthAdjust="spacing" textLength="401" x="98" y="302.3018">[Utente digita nel TextField searchField una sottostringa o sceglie un tag]</text><polygon fill="#181818" points="391.5,325.5859,401.5,329.5859,391.5,333.5859,395.5,329.5859" style="stroke:#181818;stroke-width:1.0;"/><line style="stroke:#181818;stroke-width:1.0;" x1="53.5" x2="397.5" y1="329.5859" y2="329.5859"/><text fill="#000000" font-family="sans-serif" font-size="13" lengthAdjust="spacing" textLength="251" x="60.5" y="324.7295">Digita una sottostringa nella barra di ricerca</text><line style="stroke:#181818;stroke-width:1.0;" x1="403.5" x2="450.5" y1="354.9375" y2="354.9375"/><line style="stroke:#181818;stroke-width:1.0;" x1="450.5" x2="450.5" y1="354.9375" y2="367.9375"/><line style="stroke:#181818;stroke-width:1.0;" x1="409.5" x2="450.5" y1="367.9375" y2="367.9375"/><polygon fill="#181818" points="419.5,363.9375,409.5,367.9375,419.5,371.9375,415.5,367.9375" style="stroke:#181818;stroke-width:1.0;"/><text fill="#000000" font-family="sans-serif" font-size="13" lengthAdjust="spacing" textLength="118" x="415.5" y="350.0811">searchFieldBinding()</text><polygon fill="#181818" points="64.5,399.2891,54.5,403.2891,64.5,407.2891,60.5,403.2891" style="stroke:#181818;stroke-width:1.0;"/><line style="stroke:#181818;stroke-width:1.0;stroke-dasharray:2.0,2.0;" x1="58.5" x2="402.5" y1="403.2891" y2="403.2891"/><text fill="#000000" font-family="sans-serif" font-size="13" lengthAdjust="spacing" textLength="321" x="70.5" y="398.4326">Restituisce i contatti che rispecchiano i criteri di ricerca</text><path d="M20,418.2891 L101,418.2891 L101,426.6406 L91,436.6406 L20,436.6406 L20,418.2891 " fill="#EEEEEE" style="stroke:#000000;stroke-width:1.5;"/><rect fill="none" height="122.0547" style="stroke:#000000;stroke-width:1.5;" width="622.5" x="20" y="418.2891"/><text fill="#000000" font-family="sans-serif" font-size="13" font-weight="bold" lengthAdjust="spacing" textLength="36" x="35" y="432.7842">break</text><text fill="#000000" font-family="sans-serif" font-size="11" font-weight="bold" lengthAdjust="spacing" textLength="210" x="116" y="431.708">[Quando l'utente clicca su un contatto]</text><polygon fill="#181818" points="391.5,454.9922,401.5,458.9922,391.5,462.9922,395.5,458.9922" style="stroke:#181818;stroke-width:1.0;"/><line style="stroke:#181818;stroke-width:1.0;" x1="53.5" x2="397.5" y1="458.9922" y2="458.9922"/><text fill="#000000" font-family="sans-serif" font-size="13" lengthAdjust="spacing" textLength="121" x="60.5" y="454.1357">clicca su un contatto</text><line style="stroke:#181818;stroke-width:1.0;" x1="408.5" x2="450.5" y1="489.3438" y2="489.3438"/><line style="stroke:#181818;stroke-width:1.0;" x1="450.5" x2="450.5" y1="489.3438" y2="502.3438"/><line style="stroke:#181818;stroke-width:1.0;" x1="409.5" x2="450.5" y1="502.3438" y2="502.3438"/><polygon fill="#181818" points="419.5,498.3438,409.5,502.3438,419.5,506.3438,415.5,502.3438" style="stroke:#181818;stroke-width:1.0;"/><text fill="#000000" font-family="sans-serif" font-size="13" lengthAdjust="spacing" textLength="215" x="415.5" y="484.4873">onContactClicked(MouseEvent event)</text><path d="M20,561.3438 L81,561.3438 L81,569.6953 L71,579.6953 L20,579.6953 L20,561.3438 " fill="#EEEEEE" style="stroke:#000000;stroke-width:1.5;"/><rect fill="none" height="406.3125" style="stroke:#000000;stroke-width:1.5;" width="766.5" x="20" y="561.3438"/><text fill="#000000" font-family="sans-serif" font-size="13" font-weight="bold" lengthAdjust="spacing" textLength="16" x="35" y="575.8389">alt</text><text fill="#000000" font-family="sans-serif" font-size="11" font-weight="bold" lengthAdjust="spacing" textLength="146" x="96" y="574.7627">[utente clicca su "Elimina"]</text><polygon fill="#181818" points="391.5,598.0469,401.5,602.0469,391.5,606.0469,395.5,602.0469" style="stroke:#181818;stroke-width:1.0;"/><line style="stroke:#181818;stroke-width:1.0;" x1="53.5" x2="397.5" y1="602.0469" y2="602.0469"/><text fill="#000000" font-family="sans-serif" font-size="13" lengthAdjust="spacing" textLength="149" x="60.5" y="597.1904">utente clicca su "Elimina"</text><line style="stroke:#181818;stroke-width:1.0;" x1="403.5" x2="450.5" y1="627.3984" y2="627.3984"/><line style="stroke:#181818;stroke-width:1.0;" x1="450.5" x2="450.5" y1="627.3984" y2="640.3984"/><line style="stroke:#181818;stroke-width:1.0;" x1="409.5" x2="450.5" y1="640.3984" y2="640.3984"/><polygon fill="#181818" points="419.5,636.3984,409.5,640.3984,419.5,644.3984,415.5,640.3984" style="stroke:#181818;stroke-width:1.0;"/><text fill="#000000" font-family="sans-serif" font-size="13" lengthAdjust="spacing" textLength="125" x="415.5" y="622.542">onRemoveContact(...)</text><polygon fill="#181818" points="64.5,671.75,54.5,675.75,64.5,679.75,60.5,675.75" style="stroke:#181818;stroke-width:1.0;"/><line style="stroke:#181818;stroke-width:1.0;" x1="58.5" x2="397.5" y1="675.75" y2="675.75"/><text fill="#000000" font-family="sans-serif" font-size="13" lengthAdjust="spacing" textLength="190" x="70.5" y="670.8936">mostra la schermata di conferma</text><polygon fill="#181818" points="386.5,702.1016,396.5,706.1016,386.5,710.1016,390.5,706.1016" style="stroke:#181818;stroke-width:1.0;"/><line style="stroke:#181818;stroke-width:1.0;" x1="53.5" x2="392.5" y1="706.1016" y2="706.1016"/><text fill="#000000" font-family="sans-serif" font-size="13" lengthAdjust="spacing" textLength="125" x="60.5" y="701.2451">conferma l'operazione</text><polygon fill="#181818" points="620.5,732.4531,630.5,736.4531,620.5,740.4531,624.5,736.4531" style="stroke:#181818;stroke-width:1.0;"/><line style="stroke:#181818;stroke-width:1.0;" x1="403.5" x2="626.5" y1="736.4531" y2="736.4531"/><text fill="#000000" font-family="sans-serif" font-size="13" lengthAdjust="spacing" textLength="150" x="410.5" y="731.5967">removeContact(Contact c)</text><line style="stroke:#000000;stroke-width:1.0;stroke-dasharray:2.0,2.0;" x1="20" x2="786.5" y1="745.4531" y2="745.4531"/><text fill="#000000" font-family="sans-serif" font-size="11" font-weight="bold" lengthAdjust="spacing" textLength="153" x="25" y="756.8721">[utente clicca su "Modifica"]</text><polygon fill="#181818" points="391.5,778.6406,401.5,782.6406,391.5,786.6406,395.5,782.6406" style="stroke:#181818;stroke-width:1.0;"/><line style="stroke:#181818;stroke-width:1.0;" x1="53.5" x2="397.5" y1="782.6406" y2="782.6406"/><text fill="#000000" font-family="sans-serif" font-size="13" lengthAdjust="spacing" textLength="154" x="60.5" y="777.7842">utente clicca su "Modifica"</text><line style="stroke:#181818;stroke-width:1.0;" x1="403.5" x2="450.5" y1="807.9922" y2="807.9922"/><line style="stroke:#181818;stroke-width:1.0;" x1="450.5" x2="450.5" y1="807.9922" y2="820.9922"/><line style="stroke:#181818;stroke-width:1.0;" x1="409.5" x2="450.5" y1="820.9922" y2="820.9922"/><polygon fill="#181818" points="419.5,816.9922,409.5,820.9922,419.5,824.9922,415.5,820.9922" style="stroke:#181818;stroke-width:1.0;"/><text fill="#000000" font-family="sans-serif" font-size="13" lengthAdjust="spacing" textLength="117" x="415.5" y="803.1357">onModifyContact(...)</text><polygon fill="#181818" points="64.5,852.3438,54.5,856.3438,64.5,860.3438,60.5,856.3438" style="stroke:#181818;stroke-width:1.0;"/><line style="stroke:#181818;stroke-width:1.0;" x1="58.5" x2="397.5" y1="856.3438" y2="856.3438"/><text fill="#000000" font-family="sans-serif" font-size="13" lengthAdjust="spacing" textLength="146" x="70.5" y="851.4873">rende modificabili i campi</text><polygon fill="#181818" points="386.5,882.6953,396.5,886.6953,386.5,890.6953,390.5,886.6953" style="stroke:#181818;stroke-width:1.0;"/><line style="stroke:#181818;stroke-width:1.0;" x1="53.5" x2="392.5" y1="886.6953" y2="886.6953"/><text fill="#000000" font-family="sans-serif" font-size="13" lengthAdjust="spacing" textLength="146" x="60.5" y="881.8389">modifica qualsiasi campo</text><polygon fill="#181818" points="386.5,913.0469,396.5,917.0469,386.5,921.0469,390.5,917.0469" style="stroke:#181818;stroke-width:1.0;"/><line style="stroke:#181818;stroke-width:1.0;" x1="53.5" x2="392.5" y1="917.0469" y2="917.0469"/><text fill="#000000" font-family="sans-serif" font-size="13" lengthAdjust="spacing" textLength="79" x="60.5" y="912.1904">clicca "Salva"</text><polygon fill="#181818" points="689.5,943.3984,699.5,947.3984,689.5,951.3984,693.5,947.3984" style="stroke:#181818;stroke-width:1.0;"/><line style="stroke:#181818;stroke-width:1.0;" x1="403.5" x2="695.5" y1="947.3984" y2="947.3984"/><text fill="#000000" font-family="sans-serif" font-size="13" lengthAdjust="spacing" textLength="109" x="410.5" y="942.542">modifica il contatto</text><rect fill="#E2E2F0" height="31.6094" rx="2.5" ry="2.5" style="stroke:#181818;stroke-width:0.5;" width="75" x="701.5" y="925.0469"/><text fill="#000000" font-family="sans-serif" font-size="14" lengthAdjust="spacing" textLength="61" x="708.5" y="946.5801">a Contact</text><!--SRC=[ZLJBRXin3BphAmXVQWU8Fy270acQ0ZtuqBJz0Ax4E8IrqbQYZ3PVNsftRQ_NWL43VYmv96T6bD5AJF1BA0W1PYYcmoHikSCWi43O8eUd62H5xoajAgQrC4C5U70kKSwFCUvx33Pp3DGkQALFMsCAt7-khUxkO0CFNI98fKbiqMXmI6s00mkZvtTQhjVhbT5wFg1IhHm6d4xgM-n8leKi62mj9q1ifaL6qVV7vfuL3euORAKcmiRH53nvqZPrd9OMhMnZbeJWyNOFusFiZkOwth520tduIN_aAvDta0cJVHj-bu2GeqZjpM67425RsdacJO7Wpe2-oicRBqF3gpATeCGQJChGCQYbbDJLMZnnTZBvaOFJIdMjOgO676j6sI-KXQMmqeApOB1lUdQSExBsZJ74caiib7W-_zBU6caIuHw-5mmkWlzK1g-iPsjLLgdAnpcnnrzQS1itKHl3k7rFMh4djzp6akdveDE0wkVgL3LdUCtRK73zUnP6Bt0bOF7ikUM02tEcVGDqmVc5sdYWaVdL1HYnb_kOzJ1IYz8VlJhoMfyceuyXzJfsbF2TOw3pJTf0kfWvVeDTpSMIp_I1a6rq_AgN-BRSC-f2Rn_- -nzwaxgleR5Bmvxhpc7RyMJiCGs_2_hCc0T8D5Vxi_Y1_d0YC_ubdShPdrVhWqNu1m00]--></g></svg>