<svg xmlns="http://www.w3.org/2000/svg" xmlns:xlink="http://www.w3.org/1999/xlink" contentStyleType="text/css" height="780px" preserveAspectRatio="none" style="width:891px;height:780px;background:#FFFFFF;" version="1.1" viewBox="0 0 891 780" width="891px" zoomAndPan="magnify"><defs/><g><rect fill="#FFFFFF" height="73.4297" style="stroke:#181818;stroke-width:1;" width="10" x="326.2256" y="122.4297"/><rect fill="#FFFFFF" height="453.0547" style="stroke:#181818;stroke-width:1;" width="10" x="326.2256" y="237.1563"/><rect fill="#FFFFFF" height="29.1328" style="stroke:#181818;stroke-width:1;" width="10" x="331.2256" y="390.8203"/><rect fill="#FFFFFF" height="71.2656" style="stroke:#181818;stroke-width:1;" width="10" x="677.7417" y="461.25"/><rect fill="none" height="187.9609" style="stroke:#000000;stroke-width:1.5;" width="835.1167" x="10" y="352.5547"/><line style="stroke:#181818;stroke-width:0.5;stroke-dasharray:5.0,5.0;" x1="46" x2="46" y1="81.2969" y2="699.2109"/><line style="stroke:#181818;stroke-width:0.5;stroke-dasharray:5.0,5.0;" x1="330.4141" x2="330.4141" y1="121.9453" y2="699.2109"/><line style="stroke:#181818;stroke-width:0.5;stroke-dasharray:5.0,5.0;" x1="523.3525" x2="523.3525" y1="205.375" y2="699.2109"/><line style="stroke:#181818;stroke-width:0.5;stroke-dasharray:5.0,5.0;" x1="682.4053" x2="682.4053" y1="429.4688" y2="699.2109"/><line style="stroke:#181818;stroke-width:0.5;stroke-dasharray:5.0,5.0;" x1="844.3677" x2="844.3677" y1="649.4297" y2="699.2109"/><text fill="#000000" font-family="sans-serif" font-size="14" lengthAdjust="spacing" textLength="47.3252" x="20" y="77.9951">Utente</text><ellipse cx="46.6626" cy="13.5" fill="#E2E2F0" rx="8" ry="8" style="stroke:#181818;stroke-width:0.5;"/><path d="M46.6626,21.5 L46.6626,48.5 M33.6626,29.5 L59.6626,29.5 M46.6626,48.5 L33.6626,63.5 M46.6626,48.5 L59.6626,63.5 " fill="none" style="stroke:#181818;stroke-width:0.5;"/><text fill="#000000" font-family="sans-serif" font-size="14" lengthAdjust="spacing" textLength="47.3252" x="20" y="711.2061">Utente</text><ellipse cx="46.6626" cy="723.0078" fill="#E2E2F0" rx="8" ry="8" style="stroke:#181818;stroke-width:0.5;"/><path d="M46.6626,731.0078 L46.6626,758.0078 M33.6626,739.0078 L59.6626,739.0078 M46.6626,758.0078 L33.6626,773.0078 M46.6626,758.0078 L59.6626,773.0078 " fill="none" style="stroke:#181818;stroke-width:0.5;"/><rect fill="#E2E2F0" height="30.2969" rx="2.5" ry="2.5" style="stroke:#181818;stroke-width:0.5;" width="129.623" x="266.4141" y="698.2109"/><text fill="#000000" font-family="sans-serif" font-size="14" lengthAdjust="spacing" textLength="115.623" x="273.4141" y="718.2061">a MainController</text><rect fill="#E2E2F0" height="30.2969" rx="2.5" ry="2.5" style="stroke:#181818;stroke-width:0.5;" width="127.0527" x="460.3525" y="698.2109"/><text fill="#000000" font-family="sans-serif" font-size="14" lengthAdjust="spacing" textLength="113.0527" x="467.3525" y="718.2061">an AddressBook</text><rect fill="#E2E2F0" height="30.2969" rx="2.5" ry="2.5" style="stroke:#181818;stroke-width:0.5;" width="170.6729" x="597.4053" y="698.2109"/><text fill="#000000" font-family="sans-serif" font-size="14" lengthAdjust="spacing" textLength="156.6729" x="604.4053" y="718.2061">ImagePopupController</text><rect fill="#E2E2F0" height="30.2969" rx="2.5" ry="2.5" style="stroke:#181818;stroke-width:0.5;" width="81.498" x="804.3677" y="698.2109"/><text fill="#000000" font-family="sans-serif" font-size="14" lengthAdjust="spacing" textLength="67.498" x="811.3677" y="718.2061">a Contact</text><rect fill="#FFFFFF" height="73.4297" style="stroke:#181818;stroke-width:1;" width="10" x="326.2256" y="122.4297"/><rect fill="#FFFFFF" height="453.0547" style="stroke:#181818;stroke-width:1;" width="10" x="326.2256" y="237.1563"/><rect fill="#FFFFFF" height="29.1328" style="stroke:#181818;stroke-width:1;" width="10" x="331.2256" y="390.8203"/><rect fill="#FFFFFF" height="71.2656" style="stroke:#181818;stroke-width:1;" width="10" x="677.7417" y="461.25"/><polygon fill="#181818" points="254.4141,108.4297,264.4141,112.4297,254.4141,116.4297,258.4141,112.4297" style="stroke:#181818;stroke-width:1;"/><line style="stroke:#181818;stroke-width:1;" x1="46.6626" x2="260.4141" y1="112.4297" y2="112.4297"/><text fill="#000000" font-family="sans-serif" font-size="13" lengthAdjust="spacing" textLength="80.5264" x="53.6626" y="107.3638">Apre rubrica</text><rect fill="#E2E2F0" height="30.2969" rx="2.5" ry="2.5" style="stroke:#181818;stroke-width:0.5;" width="129.623" x="266.4141" y="91.2969"/><text fill="#000000" font-family="sans-serif" font-size="14" lengthAdjust="spacing" textLength="115.623" x="273.4141" y="111.292">a MainController</text><line style="stroke:#181818;stroke-width:1;" x1="336.2256" x2="378.2256" y1="153.7266" y2="153.7266"/><line style="stroke:#181818;stroke-width:1;" x1="378.2256" x2="378.2256" y1="153.7266" y2="166.7266"/><line style="stroke:#181818;stroke-width:1;" x1="337.2256" x2="378.2256" y1="166.7266" y2="166.7266"/><polygon fill="#181818" points="347.2256,162.7266,337.2256,166.7266,347.2256,170.7266,343.2256,166.7266" style="stroke:#181818;stroke-width:1;"/><text fill="#000000" font-family="sans-serif" font-size="13" lengthAdjust="spacing" textLength="76.9463" x="343.2256" y="148.6606">Initialize(...)</text><polygon fill="#181818" points="448.3525,191.8594,458.3525,195.8594,448.3525,199.8594,452.3525,195.8594" style="stroke:#181818;stroke-width:1;"/><line style="stroke:#181818;stroke-width:1;" x1="331.2256" x2="454.3525" y1="195.8594" y2="195.8594"/><text fill="#000000" font-family="sans-serif" font-size="13" lengthAdjust="spacing" textLength="86.7852" x="338.2256" y="190.7935">getInstance()</text><rect fill="#E2E2F0" height="30.2969" rx="2.5" ry="2.5" style="stroke:#181818;stroke-width:0.5;" width="127.0527" x="460.3525" y="174.7266"/><text fill="#000000" font-family="sans-serif" font-size="14" lengthAdjust="spacing" textLength="113.0527" x="467.3525" y="194.7217">an AddressBook</text><polygon fill="#181818" points="314.2256,233.1563,324.2256,237.1563,314.2256,241.1563,318.2256,237.1563" style="stroke:#181818;stroke-width:1;"/><line style="stroke:#181818;stroke-width:1;" x1="46.6626" x2="320.2256" y1="237.1563" y2="237.1563"/><text fill="#000000" font-family="sans-serif" font-size="13" lengthAdjust="spacing" textLength="207.8286" x="53.6626" y="232.0903">clicca "+" o "Aggiungi contatto"</text><line style="stroke:#181818;stroke-width:1;" x1="336.2256" x2="378.2256" y1="266.2891" y2="266.2891"/><line style="stroke:#181818;stroke-width:1;" x1="378.2256" x2="378.2256" y1="266.2891" y2="279.2891"/><line style="stroke:#181818;stroke-width:1;" x1="337.2256" x2="378.2256" y1="279.2891" y2="279.2891"/><polygon fill="#181818" points="347.2256,275.2891,337.2256,279.2891,347.2256,283.2891,343.2256,279.2891" style="stroke:#181818;stroke-width:1;"/><text fill="#000000" font-family="sans-serif" font-size="13" lengthAdjust="spacing" textLength="158.6533" x="343.2256" y="261.2231">onAddButtonPressed(...)</text><polygon fill="#181818" points="57.6626,304.4219,47.6626,308.4219,57.6626,312.4219,53.6626,308.4219" style="stroke:#181818;stroke-width:1;"/><line style="stroke:#181818;stroke-width:1;stroke-dasharray:2.0,2.0;" x1="51.6626" x2="325.2256" y1="308.4219" y2="308.4219"/><text fill="#000000" font-family="sans-serif" font-size="13" lengthAdjust="spacing" textLength="255.563" x="63.6626" y="303.356">mostra schermata di aggiunta contatto</text><polygon fill="#181818" points="314.2256,333.5547,324.2256,337.5547,314.2256,341.5547,318.2256,337.5547" style="stroke:#181818;stroke-width:1;"/><line style="stroke:#181818;stroke-width:1;" x1="46.6626" x2="320.2256" y1="337.5547" y2="337.5547"/><text fill="#000000" font-family="sans-serif" font-size="13" lengthAdjust="spacing" textLength="191.6929" x="53.6626" y="332.4888">inserisce i campi del contatto</text><path d="M10,352.5547 L74.4429,352.5547 L74.4429,359.6875 L64.4429,369.6875 L10,369.6875 L10,352.5547 " fill="#EEEEEE" style="stroke:#000000;stroke-width:1.5;"/><rect fill="none" height="187.9609" style="stroke:#000000;stroke-width:1.5;" width="835.1167" x="10" y="352.5547"/><text fill="#000000" font-family="sans-serif" font-size="13" font-weight="bold" lengthAdjust="spacing" textLength="19.4429" x="25" y="365.6216">alt</text><text fill="#000000" font-family="sans-serif" font-size="11" font-weight="bold" lengthAdjust="spacing" textLength="179.6792" x="89.4429" y="364.7651">[utente clicca sull'immagine]</text><polygon fill="#181818" points="319.2256,386.8203,329.2256,390.8203,319.2256,394.8203,323.2256,390.8203" style="stroke:#181818;stroke-width:1;"/><line style="stroke:#181818;stroke-width:1;" x1="46.6626" x2="325.2256" y1="390.8203" y2="390.8203"/><text fill="#000000" font-family="sans-serif" font-size="13" lengthAdjust="spacing" textLength="131.5806" x="53.6626" y="385.7544">clicca sull'immagine</text><polygon fill="#181818" points="585.4053,415.9531,595.4053,419.9531,585.4053,423.9531,589.4053,419.9531" style="stroke:#181818;stroke-width:1;"/><line style="stroke:#181818;stroke-width:1;" x1="336.2256" x2="591.4053" y1="419.9531" y2="419.9531"/><text fill="#000000" font-family="sans-serif" font-size="13" lengthAdjust="spacing" textLength="137.3887" x="343.2256" y="414.8872">showImagePopup(...)</text><rect fill="#E2E2F0" height="30.2969" rx="2.5" ry="2.5" style="stroke:#181818;stroke-width:0.5;" width="170.6729" x="597.4053" y="398.8203"/><text fill="#000000" font-family="sans-serif" font-size="14" lengthAdjust="spacing" textLength="156.6729" x="604.4053" y="418.8154">ImagePopupController</text><polygon fill="#181818" points="665.7417,457.25,675.7417,461.25,665.7417,465.25,669.7417,461.25" style="stroke:#181818;stroke-width:1;"/><line style="stroke:#181818;stroke-width:1;" x1="46.6626" x2="671.7417" y1="461.25" y2="461.25"/><text fill="#000000" font-family="sans-serif" font-size="13" lengthAdjust="spacing" textLength="134.583" x="53.6626" y="456.1841">sceglie un'immagine</text><line style="stroke:#181818;stroke-width:1;" x1="687.7417" x2="729.7417" y1="490.3828" y2="490.3828"/><line style="stroke:#181818;stroke-width:1;" x1="729.7417" x2="729.7417" y1="490.3828" y2="503.3828"/><line style="stroke:#181818;stroke-width:1;" x1="688.7417" x2="729.7417" y1="503.3828" y2="503.3828"/><polygon fill="#181818" points="698.7417,499.3828,688.7417,503.3828,698.7417,507.3828,694.7417,503.3828" style="stroke:#181818;stroke-width:1;"/><text fill="#000000" font-family="sans-serif" font-size="13" lengthAdjust="spacing" textLength="128.375" x="694.7417" y="485.3169">carica un'immagine</text><polygon fill="#181818" points="670.7417,528.5156,680.7417,532.5156,670.7417,536.5156,674.7417,532.5156" style="stroke:#181818;stroke-width:1;"/><line style="stroke:#181818;stroke-width:1;" x1="336.2256" x2="676.7417" y1="532.5156" y2="532.5156"/><text fill="#000000" font-family="sans-serif" font-size="13" lengthAdjust="spacing" textLength="128.5591" x="343.2256" y="527.4497">getSelectedImage()</text><line style="stroke:#A80036;stroke-width:2;" x1="673.7417" x2="691.7417" y1="523.5156" y2="541.5156"/><line style="stroke:#A80036;stroke-width:2;" x1="673.7417" x2="691.7417" y1="541.5156" y2="523.5156"/><polygon fill="#181818" points="314.2256,564.6484,324.2256,568.6484,314.2256,572.6484,318.2256,568.6484" style="stroke:#181818;stroke-width:1;"/><line style="stroke:#181818;stroke-width:1;" x1="46.6626" x2="320.2256" y1="568.6484" y2="568.6484"/><text fill="#000000" font-family="sans-serif" font-size="13" lengthAdjust="spacing" textLength="88.2134" x="53.6626" y="563.5825">clicca "Salva"</text><line style="stroke:#181818;stroke-width:1;" x1="336.2256" x2="378.2256" y1="597.7813" y2="597.7813"/><line style="stroke:#181818;stroke-width:1;" x1="378.2256" x2="378.2256" y1="597.7813" y2="610.7813"/><line style="stroke:#181818;stroke-width:1;" x1="337.2256" x2="378.2256" y1="610.7813" y2="610.7813"/><polygon fill="#181818" points="347.2256,606.7813,337.2256,610.7813,347.2256,614.7813,343.2256,610.7813" style="stroke:#181818;stroke-width:1;"/><text fill="#000000" font-family="sans-serif" font-size="13" lengthAdjust="spacing" textLength="121.2212" x="343.2256" y="592.7153">onSaveContact(...)</text><polygon fill="#181818" points="792.3677,635.9141,802.3677,639.9141,792.3677,643.9141,796.3677,639.9141" style="stroke:#181818;stroke-width:1;"/><line style="stroke:#181818;stroke-width:1;" x1="336.2256" x2="798.3677" y1="639.9141" y2="639.9141"/><text fill="#000000" font-family="sans-serif" font-size="13" lengthAdjust="spacing" textLength="98.4966" x="343.2256" y="634.8481">crea il contatto</text><rect fill="#E2E2F0" height="30.2969" rx="2.5" ry="2.5" style="stroke:#181818;stroke-width:0.5;" width="81.498" x="804.3677" y="618.7813"/><text fill="#000000" font-family="sans-serif" font-size="14" lengthAdjust="spacing" textLength="67.498" x="811.3677" y="638.7764">a Contact</text><polygon fill="#181818" points="511.8789,677.2109,521.8789,681.2109,511.8789,685.2109,515.8789,681.2109" style="stroke:#181818;stroke-width:1;"/><line style="stroke:#181818;stroke-width:1;" x1="336.2256" x2="517.8789" y1="681.2109" y2="681.2109"/><text fill="#000000" font-family="sans-serif" font-size="13" lengthAdjust="spacing" textLength="147.0498" x="343.2256" y="676.145">addContact(Contact c)</text><!--SRC=[TP9DRi9038NtEOKrcm9LEG2BIj0LYqf8g0Sm7YjOdSn4yqFLdhupII0XfOieaVp5VdxFID5v-8Xi8mC6I01LYpuAIOisWa9uHx5lpaRlZ66l2jNGdBAmrTfp23ldFZi6JpDcts3D1zUcTjPDMfhFB0HIxCfKLGbUNilGrGesi6qzWqydBuHLXkI2MNkHb9-Usy3UIXGqyiEBzNgz74fPKzUYvhYt8Q8bNYmhpPCkux0D01aXGb3F2XoeRLrBihK05NKnElNlU6Up7RkK6Niehh0UPMGcPQHn8Ng4G6Vs3KO4BO3TXFnzdJ0H8pQmbq0CMG0shO1cCu8LcWYfpt6G7P8nJz9asyNofDF3yjI2Vf4SI-zMEBklCRn-aNlFqfNFC75jX27P1xrBqWMxqOGbnJkucPHpJaSsJ95r9w0BAzlclhjMR7NrTozrH7D1TH_74Iyy7DNq88ODoJE2JDoydSi6KElhZyCRQFaB]--></g></svg>