<?xml version="1.0" encoding="us-ascii" standalone="no"?><svg xmlns="http://www.w3.org/2000/svg" xmlns:xlink="http://www.w3.org/1999/xlink" contentStyleType="text/css" height="833px" preserveAspectRatio="none" style="width:773px;height:833px;background:#FFFFFF;" version="1.1" viewBox="0 0 773 833" width="773px" zoomAndPan="magnify"><defs/><g><rect fill="#FFFFFF" height="35.3516" style="stroke:#181818;stroke-width:1.0;" width="10" x="290.5" y="165.5703"/><rect fill="#FFFFFF" height="35.3516" style="stroke:#181818;stroke-width:1.0;" width="10" x="290.5" y="281.8828"/><rect fill="#FFFFFF" height="30.3516" style="stroke:#181818;stroke-width:1.0;" width="10" x="290.5" y="403.2891"/><rect fill="#FFFFFF" height="107.9609" style="stroke:#181818;stroke-width:1.0;" width="10" x="290.5" y="625.6563"/><rect fill="#FFFFFF" height="30" style="stroke:#181818;stroke-width:1.0;" width="10" x="453.5" y="703.6172"/><rect fill="#FFFFFF" height="35.3516" style="stroke:#181818;stroke-width:1.0;" width="10" x="600" y="514.6016"/><rect fill="none" height="195.3672" style="stroke:#000000;stroke-width:1.5;" width="730" x="10" y="362.5859"/><line style="stroke:#181818;stroke-width:0.5;stroke-dasharray:5.0,5.0;" x1="43" x2="43" y1="82.6094" y2="751.6172"/><line style="stroke:#181818;stroke-width:0.5;stroke-dasharray:5.0,5.0;" x1="295.5" x2="295.5" y1="123.9141" y2="751.6172"/><line style="stroke:#181818;stroke-width:0.5;stroke-dasharray:5.0,5.0;" x1="458.5" x2="458.5" y1="209.875" y2="751.6172"/><line style="stroke:#181818;stroke-width:0.5;stroke-dasharray:5.0,5.0;" x1="604.5" x2="604.5" y1="442.5938" y2="751.6172"/><line style="stroke:#181818;stroke-width:0.5;stroke-dasharray:5.0,5.0;" x1="729.5" x2="729.5" y1="669.9609" y2="751.6172"/><text fill="#000000" font-family="sans-serif" font-size="14" lengthAdjust="spacing" textLength="41" x="20" y="79.5332">Utente</text><ellipse cx="43.5" cy="13.5" fill="#E2E2F0" rx="8" ry="8" style="stroke:#181818;stroke-width:0.5;"/><path d="M43.5,21.5 L43.5,48.5 M30.5,29.5 L56.5,29.5 M43.5,48.5 L30.5,63.5 M43.5,48.5 L56.5,63.5 " fill="none" style="stroke:#181818;stroke-width:0.5;"/><text fill="#000000" font-family="sans-serif" font-size="14" lengthAdjust="spacing" textLength="41" x="20" y="765.1504">Utente</text><ellipse cx="43.5" cy="776.7266" fill="#E2E2F0" rx="8" ry="8" style="stroke:#181818;stroke-width:0.5;"/><path d="M43.5,784.7266 L43.5,811.7266 M30.5,792.7266 L56.5,792.7266 M43.5,811.7266 L30.5,826.7266 M43.5,811.7266 L56.5,826.7266 " fill="none" style="stroke:#181818;stroke-width:0.5;"/><rect fill="#E2E2F0" height="31.6094" rx="2.5" ry="2.5" style="stroke:#181818;stroke-width:0.5;" width="118" x="236.5" y="750.6172"/><text fill="#000000" font-family="sans-serif" font-size="14" lengthAdjust="spacing" textLength="104" x="243.5" y="772.1504">a MainController</text><rect fill="#E2E2F0" height="31.6094" rx="2.5" ry="2.5" style="stroke:#181818;stroke-width:0.5;" width="118" x="399.5" y="750.6172"/><text fill="#000000" font-family="sans-serif" font-size="14" lengthAdjust="spacing" textLength="104" x="406.5" y="772.1504">an AddressBook</text><rect fill="#E2E2F0" height="31.6094" rx="2.5" ry="2.5" style="stroke:#181818;stroke-width:0.5;" width="155" x="527.5" y="750.6172"/><text fill="#000000" font-family="sans-serif" font-size="14" lengthAdjust="spacing" textLength="141" x="534.5" y="772.1504">ImagePopupController</text><rect fill="#E2E2F0" height="31.6094" rx="2.5" ry="2.5" style="stroke:#181818;stroke-width:0.5;" width="75" x="692.5" y="750.6172"/><text fill="#000000" font-family="sans-serif" font-size="14" lengthAdjust="spacing" textLength="61" x="699.5" y="772.1504">a Contact</text><rect fill="#FFFFFF" height="35.3516" style="stroke:#181818;stroke-width:1.0;" width="10" x="290.5" y="165.5703"/><rect fill="#FFFFFF" height="35.3516" style="stroke:#181818;stroke-width:1.0;" width="10" x="290.5" y="281.8828"/><rect fill="#FFFFFF" height="30.3516" style="stroke:#181818;stroke-width:1.0;" width="10" x="290.5" y="403.2891"/><rect fill="#FFFFFF" height="107.9609" style="stroke:#181818;stroke-width:1.0;" width="10" x="290.5" y="625.6563"/><rect fill="#FFFFFF" height="30" style="stroke:#181818;stroke-width:1.0;" width="10" x="453.5" y="703.6172"/><rect fill="#FFFFFF" height="35.3516" style="stroke:#181818;stroke-width:1.0;" width="10" x="600" y="514.6016"/><polygon fill="#181818" points="224.5,110.9609,234.5,114.9609,224.5,118.9609,228.5,114.9609" style="stroke:#181818;stroke-width:1.0;"/><line style="stroke:#181818;stroke-width:1.0;" x1="43.5" x2="230.5" y1="114.9609" y2="114.9609"/><text fill="#000000" font-family="sans-serif" font-size="13" lengthAdjust="spacing" textLength="70" x="50.5" y="110.1045">Apre rubrica</text><rect fill="#E2E2F0" height="31.6094" rx="2.5" ry="2.5" style="stroke:#181818;stroke-width:0.5;" width="118" x="236.5" y="92.6094"/><text fill="#000000" font-family="sans-serif" font-size="14" lengthAdjust="spacing" textLength="104" x="243.5" y="114.1426">a MainController</text><line style="stroke:#181818;stroke-width:1.0;" x1="295.5" x2="342.5" y1="152.5703" y2="152.5703"/><line style="stroke:#181818;stroke-width:1.0;" x1="342.5" x2="342.5" y1="152.5703" y2="165.5703"/><line style="stroke:#181818;stroke-width:1.0;" x1="301.5" x2="342.5" y1="165.5703" y2="165.5703"/><polygon fill="#181818" points="311.5,161.5703,301.5,165.5703,311.5,169.5703,307.5,165.5703" style="stroke:#181818;stroke-width:1.0;"/><text fill="#000000" font-family="sans-serif" font-size="13" lengthAdjust="spacing" textLength="67" x="307.5" y="147.7139">Initialize(...)</text><polygon fill="#181818" points="387.5,196.9219,397.5,200.9219,387.5,204.9219,391.5,200.9219" style="stroke:#181818;stroke-width:1.0;"/><line style="stroke:#181818;stroke-width:1.0;" x1="295.5" x2="393.5" y1="200.9219" y2="200.9219"/><text fill="#000000" font-family="sans-serif" font-size="13" lengthAdjust="spacing" textLength="75" x="302.5" y="196.0654">getInstance()</text><rect fill="#E2E2F0" height="31.6094" rx="2.5" ry="2.5" style="stroke:#181818;stroke-width:0.5;" width="118" x="399.5" y="178.5703"/><text fill="#000000" font-family="sans-serif" font-size="14" lengthAdjust="spacing" textLength="104" x="406.5" y="200.1035">an AddressBook</text><polygon fill="#181818" points="283.5,239.5313,293.5,243.5313,283.5,247.5313,287.5,243.5313" style="stroke:#181818;stroke-width:1.0;"/><line style="stroke:#181818;stroke-width:1.0;" x1="43.5" x2="289.5" y1="243.5313" y2="243.5313"/><text fill="#000000" font-family="sans-serif" font-size="13" lengthAdjust="spacing" textLength="182" x="50.5" y="238.6748">clicca "+" o "Aggiungi contatto"</text><line style="stroke:#181818;stroke-width:1.0;" x1="295.5" x2="342.5" y1="268.8828" y2="268.8828"/><line style="stroke:#181818;stroke-width:1.0;" x1="342.5" x2="342.5" y1="268.8828" y2="281.8828"/><line style="stroke:#181818;stroke-width:1.0;" x1="301.5" x2="342.5" y1="281.8828" y2="281.8828"/><polygon fill="#181818" points="311.5,277.8828,301.5,281.8828,311.5,285.8828,307.5,281.8828" style="stroke:#181818;stroke-width:1.0;"/><text fill="#000000" font-family="sans-serif" font-size="13" lengthAdjust="spacing" textLength="143" x="307.5" y="264.0264">onAddButtonPressed(...)</text><polygon fill="#181818" points="54.5,313.2344,44.5,317.2344,54.5,321.2344,50.5,317.2344" style="stroke:#181818;stroke-width:1.0;"/><line style="stroke:#181818;stroke-width:1.0;stroke-dasharray:2.0,2.0;" x1="48.5" x2="294.5" y1="317.2344" y2="317.2344"/><text fill="#000000" font-family="sans-serif" font-size="13" lengthAdjust="spacing" textLength="223" x="60.5" y="312.3779">mostra schermata di aggiunta contatto</text><polygon fill="#181818" points="283.5,343.5859,293.5,347.5859,283.5,351.5859,287.5,347.5859" style="stroke:#181818;stroke-width:1.0;"/><line style="stroke:#181818;stroke-width:1.0;" x1="43.5" x2="289.5" y1="347.5859" y2="347.5859"/><text fill="#000000" font-family="sans-serif" font-size="13" lengthAdjust="spacing" textLength="170" x="50.5" y="342.7295">inserisce i campi del contatto</text><path d="M10,362.5859 L71,362.5859 L71,370.9375 L61,380.9375 L10,380.9375 L10,362.5859 " fill="#EEEEEE" style="stroke:#000000;stroke-width:1.5;"/><rect fill="none" height="195.3672" style="stroke:#000000;stroke-width:1.5;" width="730" x="10" y="362.5859"/><text fill="#000000" font-family="sans-serif" font-size="13" font-weight="bold" lengthAdjust="spacing" textLength="16" x="25" y="377.0811">alt</text><text fill="#000000" font-family="sans-serif" font-size="11" font-weight="bold" lengthAdjust="spacing" textLength="158" x="86" y="376.0049">[utente clicca sull'immagine]</text><polygon fill="#181818" points="278.5,399.2891,288.5,403.2891,278.5,407.2891,282.5,403.2891" style="stroke:#181818;stroke-width:1.0;"/><line style="stroke:#181818;stroke-width:1.0;" x1="43.5" x2="284.5" y1="403.2891" y2="403.2891"/><text fill="#000000" font-family="sans-serif" font-size="13" lengthAdjust="spacing" textLength="198" x="50.5" y="398.4326">clicca sull'immagine per cambiarla</text><polygon fill="#181818" points="515.5,429.6406,525.5,433.6406,515.5,437.6406,519.5,433.6406" style="stroke:#181818;stroke-width:1.0;"/><line style="stroke:#181818;stroke-width:1.0;" x1="295.5" x2="521.5" y1="433.6406" y2="433.6406"/><text fill="#000000" font-family="sans-serif" font-size="13" lengthAdjust="spacing" textLength="122" x="302.5" y="428.7842">showImagePopup(...)</text><rect fill="#E2E2F0" height="31.6094" rx="2.5" ry="2.5" style="stroke:#181818;stroke-width:0.5;" width="155" x="527.5" y="411.2891"/><text fill="#000000" font-family="sans-serif" font-size="14" lengthAdjust="spacing" textLength="141" x="534.5" y="432.8223">ImagePopupController</text><polygon fill="#181818" points="593,472.25,603,476.25,593,480.25,597,476.25" style="stroke:#181818;stroke-width:1.0;"/><line style="stroke:#181818;stroke-width:1.0;" x1="43.5" x2="599" y1="476.25" y2="476.25"/><text fill="#000000" font-family="sans-serif" font-size="13" lengthAdjust="spacing" textLength="117" x="50.5" y="471.3936">sceglie un'immagine</text><line style="stroke:#181818;stroke-width:1.0;" x1="605" x2="652" y1="501.6016" y2="501.6016"/><line style="stroke:#181818;stroke-width:1.0;" x1="652" x2="652" y1="501.6016" y2="514.6016"/><line style="stroke:#181818;stroke-width:1.0;" x1="611" x2="652" y1="514.6016" y2="514.6016"/><polygon fill="#181818" points="621,510.6016,611,514.6016,621,518.6016,617,514.6016" style="stroke:#181818;stroke-width:1.0;"/><text fill="#000000" font-family="sans-serif" font-size="13" lengthAdjust="spacing" textLength="111" x="617" y="496.7451">carica un'immagine</text><polygon fill="#181818" points="593,545.9531,603,549.9531,593,553.9531,597,549.9531" style="stroke:#181818;stroke-width:1.0;"/><line style="stroke:#181818;stroke-width:1.0;" x1="295.5" x2="599" y1="549.9531" y2="549.9531"/><text fill="#000000" font-family="sans-serif" font-size="13" lengthAdjust="spacing" textLength="112" x="302.5" y="545.0967">getSelectedImage()</text><line style="stroke:#A80036;stroke-width:2.0;" x1="596" x2="614" y1="540.9531" y2="558.9531"/><line style="stroke:#A80036;stroke-width:2.0;" x1="596" x2="614" y1="558.9531" y2="540.9531"/><polygon fill="#181818" points="283.5,583.3047,293.5,587.3047,283.5,591.3047,287.5,587.3047" style="stroke:#181818;stroke-width:1.0;"/><line style="stroke:#181818;stroke-width:1.0;" x1="43.5" x2="289.5" y1="587.3047" y2="587.3047"/><text fill="#000000" font-family="sans-serif" font-size="13" lengthAdjust="spacing" textLength="79" x="50.5" y="582.4482">clicca "Salva"</text><line style="stroke:#181818;stroke-width:1.0;" x1="295.5" x2="342.5" y1="612.6563" y2="612.6563"/><line style="stroke:#181818;stroke-width:1.0;" x1="342.5" x2="342.5" y1="612.6563" y2="625.6563"/><line style="stroke:#181818;stroke-width:1.0;" x1="301.5" x2="342.5" y1="625.6563" y2="625.6563"/><polygon fill="#181818" points="311.5,621.6563,301.5,625.6563,311.5,629.6563,307.5,625.6563" style="stroke:#181818;stroke-width:1.0;"/><text fill="#000000" font-family="sans-serif" font-size="13" lengthAdjust="spacing" textLength="107" x="307.5" y="607.7998">onSaveContact(...)</text><polygon fill="#181818" points="680.5,657.0078,690.5,661.0078,680.5,665.0078,684.5,661.0078" style="stroke:#181818;stroke-width:1.0;"/><line style="stroke:#181818;stroke-width:1.0;" x1="300.5" x2="686.5" y1="661.0078" y2="661.0078"/><text fill="#000000" font-family="sans-serif" font-size="13" lengthAdjust="spacing" textLength="86" x="307.5" y="656.1514">crea il contatto</text><rect fill="#E2E2F0" height="31.6094" rx="2.5" ry="2.5" style="stroke:#181818;stroke-width:0.5;" width="75" x="692.5" y="638.6563"/><text fill="#000000" font-family="sans-serif" font-size="14" lengthAdjust="spacing" textLength="61" x="699.5" y="660.1895">a Contact</text><polygon fill="#181818" points="441.5,699.6172,451.5,703.6172,441.5,707.6172,445.5,703.6172" style="stroke:#181818;stroke-width:1.0;"/><line style="stroke:#181818;stroke-width:1.0;" x1="300.5" x2="447.5" y1="703.6172" y2="703.6172"/><text fill="#000000" font-family="sans-serif" font-size="13" lengthAdjust="spacing" textLength="130" x="307.5" y="698.7607">addContact(Contact c)</text><!--SRC=[TLAxRiCm3Dpz5OIN9YcQ3_1G8EcKeK20e1z0KuH3L9OCFLAqNr_9TcB7RIRBukdko2DIi0u-0fl0W1uYGD6X2qBIeGbG8hoZc3ThWhDQioipggKboi1EASVUxwtzx35OBp275Xi-sYvs2pRfQAcP4KYXBrDHH7XvpQAR3LImwno3YxKJmY9T3gKA3aQ2e9OVNcststMHtii5KrlPxO1BddgAXiF1-826UBKk5C-WarW5G5g84Chd4YoKkwQHQ1e1okv2iELStfeqWNrCr-QO1y7gWOtq82PyQtrm29xEx5eC24e0UuLqlYeil4tMn7XsueaXsS6s4r2ifsS5wW1nI7LimaUjdwHD8OZX6TD_PUZOPTfQq6cSjp1sd28R9kdFzciATkZu7yyPdy34ZHQ6Q2OZkN834EPGx-etghmbxGoRCZonPWgiUWDza6cazhk7ib75toxB4-eBBd8xuON7XNkuEMExv1X1PeE-xLK5gDILPVm2pRYmdW_c_Y_h_080]--></g></svg>