<?xml version="1.0" encoding="us-ascii" standalone="no"?><svg xmlns="http://www.w3.org/2000/svg" xmlns:xlink="http://www.w3.org/1999/xlink" contentStyleType="text/css" height="891px" preserveAspectRatio="none" style="width:940px;height:891px;background:#FFFFFF;" version="1.1" viewBox="0 0 940 891" width="940px" zoomAndPan="magnify"><defs/><g><rect fill="#FFFFFF" height="30.3516" style="stroke:#181818;stroke-width:1.0;" width="10" x="272.5" y="114.9609"/><rect fill="#FFFFFF" height="71.7031" style="stroke:#181818;stroke-width:1.0;" width="10" x="497.5" y="226.2734"/><rect fill="#FFFFFF" height="33.3516" style="stroke:#181818;stroke-width:1.0;" width="10" x="502.5" y="264.625"/><rect fill="#FFFFFF" height="385.7188" style="stroke:#181818;stroke-width:1.0;" width="10" x="497.5" y="392.0313"/><rect fill="#FFFFFF" height="30" style="stroke:#181818;stroke-width:1.0;" width="10" x="647.5" y="427.3828"/><rect fill="#FFFFFF" height="30" style="stroke:#181818;stroke-width:1.0;" width="10" x="647.5" y="487.7344"/><rect fill="#FFFFFF" height="229.6641" style="stroke:#181818;stroke-width:1.0;" width="10" x="647.5" y="548.0859"/><rect fill="#FFFFFF" height="28" style="stroke:#181818;stroke-width:1.0;" width="10" x="652.5" y="749.75"/><rect fill="#FFFFFF" height="33.3516" style="stroke:#181818;stroke-width:1.0;" width="10" x="750" y="264.625"/><rect fill="#FFFFFF" height="30" style="stroke:#181818;stroke-width:1.0;" width="10" x="841" y="621.0469"/><rect fill="#FFFFFF" height="30" style="stroke:#181818;stroke-width:1.0;" width="10" x="841" y="681.3984"/><rect fill="none" height="479.7734" style="stroke:#000000;stroke-width:1.5;" width="889.5" x="10" y="312.9766"/><line style="stroke:#181818;stroke-width:0.5;stroke-dasharray:5.0,5.0;" x1="43" x2="43" y1="82.6094" y2="809.75"/><line style="stroke:#181818;stroke-width:0.5;stroke-dasharray:5.0,5.0;" x1="277.5" x2="277.5" y1="82.6094" y2="809.75"/><line style="stroke:#181818;stroke-width:0.5;stroke-dasharray:5.0,5.0;" x1="502.5" x2="502.5" y1="154.2656" y2="809.75"/><line style="stroke:#181818;stroke-width:0.5;stroke-dasharray:5.0,5.0;" x1="652.5" x2="652.5" y1="82.6094" y2="809.75"/><line style="stroke:#181818;stroke-width:0.5;stroke-dasharray:5.0,5.0;" x1="754.5" x2="754.5" y1="82.6094" y2="809.75"/><line style="stroke:#181818;stroke-width:0.5;stroke-dasharray:5.0,5.0;" x1="845.5" x2="845.5" y1="587.3906" y2="809.75"/><text fill="#000000" font-family="sans-serif" font-size="14" lengthAdjust="spacing" textLength="41" x="20" y="79.5332">Utente</text><ellipse cx="43.5" cy="13.5" fill="#E2E2F0" rx="8" ry="8" style="stroke:#181818;stroke-width:0.5;"/><path d="M43.5,21.5 L43.5,48.5 M30.5,29.5 L56.5,29.5 M43.5,48.5 L30.5,63.5 M43.5,48.5 L56.5,63.5 " fill="none" style="stroke:#181818;stroke-width:0.5;"/><text fill="#000000" font-family="sans-serif" font-size="14" lengthAdjust="spacing" textLength="41" x="20" y="823.2832">Utente</text><ellipse cx="43.5" cy="834.8594" fill="#E2E2F0" rx="8" ry="8" style="stroke:#181818;stroke-width:0.5;"/><path d="M43.5,842.8594 L43.5,869.8594 M30.5,850.8594 L56.5,850.8594 M43.5,869.8594 L30.5,884.8594 M43.5,869.8594 L56.5,884.8594 " fill="none" style="stroke:#181818;stroke-width:0.5;"/><rect fill="#E2E2F0" height="31.6094" rx="2.5" ry="2.5" style="stroke:#181818;stroke-width:0.5;" width="118" x="218.5" y="50"/><text fill="#000000" font-family="sans-serif" font-size="14" lengthAdjust="spacing" textLength="104" x="225.5" y="71.5332">a MainController</text><rect fill="#E2E2F0" height="31.6094" rx="2.5" ry="2.5" style="stroke:#181818;stroke-width:0.5;" width="118" x="218.5" y="808.75"/><text fill="#000000" font-family="sans-serif" font-size="14" lengthAdjust="spacing" textLength="104" x="225.5" y="830.2832">a MainController</text><rect fill="#E2E2F0" height="31.6094" rx="2.5" ry="2.5" style="stroke:#181818;stroke-width:0.5;" width="170" x="417.5" y="808.75"/><text fill="#000000" font-family="sans-serif" font-size="14" lengthAdjust="spacing" textLength="156" x="424.5" y="830.2832">a ConfigPopupController</text><rect fill="#E2E2F0" height="31.6094" rx="2.5" ry="2.5" style="stroke:#181818;stroke-width:0.5;" width="110" x="597.5" y="50"/><text fill="#000000" font-family="sans-serif" font-size="14" lengthAdjust="spacing" textLength="96" x="604.5" y="71.5332">a AddressBook</text><rect fill="#E2E2F0" height="31.6094" rx="2.5" ry="2.5" style="stroke:#181818;stroke-width:0.5;" width="110" x="597.5" y="808.75"/><text fill="#000000" font-family="sans-serif" font-size="14" lengthAdjust="spacing" textLength="96" x="604.5" y="830.2832">a AddressBook</text><rect fill="#E2E2F0" height="31.6094" rx="2.5" ry="2.5" style="stroke:#181818;stroke-width:0.5;" width="75" x="717.5" y="50"/><text fill="#000000" font-family="sans-serif" font-size="14" lengthAdjust="spacing" textLength="61" x="724.5" y="71.5332">Database</text><rect fill="#E2E2F0" height="31.6094" rx="2.5" ry="2.5" style="stroke:#181818;stroke-width:0.5;" width="75" x="717.5" y="808.75"/><text fill="#000000" font-family="sans-serif" font-size="14" lengthAdjust="spacing" textLength="61" x="724.5" y="830.2832">Database</text><rect fill="#E2E2F0" height="31.6094" rx="2.5" ry="2.5" style="stroke:#181818;stroke-width:0.5;" width="87" x="802.5" y="808.75"/><text fill="#000000" font-family="sans-serif" font-size="14" lengthAdjust="spacing" textLength="73" x="809.5" y="830.2832">a Database</text><rect fill="#FFFFFF" height="30.3516" style="stroke:#181818;stroke-width:1.0;" width="10" x="272.5" y="114.9609"/><rect fill="#FFFFFF" height="71.7031" style="stroke:#181818;stroke-width:1.0;" width="10" x="497.5" y="226.2734"/><rect fill="#FFFFFF" height="33.3516" style="stroke:#181818;stroke-width:1.0;" width="10" x="502.5" y="264.625"/><rect fill="#FFFFFF" height="385.7188" style="stroke:#181818;stroke-width:1.0;" width="10" x="497.5" y="392.0313"/><rect fill="#FFFFFF" height="30" style="stroke:#181818;stroke-width:1.0;" width="10" x="647.5" y="427.3828"/><rect fill="#FFFFFF" height="30" style="stroke:#181818;stroke-width:1.0;" width="10" x="647.5" y="487.7344"/><rect fill="#FFFFFF" height="229.6641" style="stroke:#181818;stroke-width:1.0;" width="10" x="647.5" y="548.0859"/><rect fill="#FFFFFF" height="28" style="stroke:#181818;stroke-width:1.0;" width="10" x="652.5" y="749.75"/><rect fill="#FFFFFF" height="33.3516" style="stroke:#181818;stroke-width:1.0;" width="10" x="750" y="264.625"/><rect fill="#FFFFFF" height="30" style="stroke:#181818;stroke-width:1.0;" width="10" x="841" y="621.0469"/><rect fill="#FFFFFF" height="30" style="stroke:#181818;stroke-width:1.0;" width="10" x="841" y="681.3984"/><polygon fill="#181818" points="260.5,110.9609,270.5,114.9609,260.5,118.9609,264.5,114.9609" style="stroke:#181818;stroke-width:1.0;"/><line style="stroke:#181818;stroke-width:1.0;" x1="43.5" x2="266.5" y1="114.9609" y2="114.9609"/><text fill="#000000" font-family="sans-serif" font-size="13" lengthAdjust="spacing" textLength="210" x="50.5" y="110.1045">nel men&#249; file clicca "Configurazione"</text><polygon fill="#181818" points="405.5,141.3125,415.5,145.3125,405.5,149.3125,409.5,145.3125" style="stroke:#181818;stroke-width:1.0;"/><line style="stroke:#181818;stroke-width:1.0;" x1="277.5" x2="411.5" y1="145.3125" y2="145.3125"/><text fill="#000000" font-family="sans-serif" font-size="13" lengthAdjust="spacing" textLength="111" x="284.5" y="140.4561">showConfigPopup()</text><rect fill="#E2E2F0" height="31.6094" rx="2.5" ry="2.5" style="stroke:#181818;stroke-width:0.5;" width="170" x="417.5" y="122.9609"/><text fill="#000000" font-family="sans-serif" font-size="14" lengthAdjust="spacing" textLength="156" x="424.5" y="144.4941">a ConfigPopupController</text><polygon fill="#181818" points="490.5,183.9219,500.5,187.9219,490.5,191.9219,494.5,187.9219" style="stroke:#181818;stroke-width:1.0;"/><line style="stroke:#181818;stroke-width:1.0;" x1="43.5" x2="496.5" y1="187.9219" y2="187.9219"/><text fill="#000000" font-family="sans-serif" font-size="13" lengthAdjust="spacing" textLength="265" x="50.5" y="183.0654">inserisce URL del database e clicca "Verifica"</text><line style="stroke:#181818;stroke-width:1.0;" x1="502.5" x2="549.5" y1="213.2734" y2="213.2734"/><line style="stroke:#181818;stroke-width:1.0;" x1="549.5" x2="549.5" y1="213.2734" y2="226.2734"/><line style="stroke:#181818;stroke-width:1.0;" x1="508.5" x2="549.5" y1="226.2734" y2="226.2734"/><polygon fill="#181818" points="518.5,222.2734,508.5,226.2734,518.5,230.2734,514.5,226.2734" style="stroke:#181818;stroke-width:1.0;"/><text fill="#000000" font-family="sans-serif" font-size="13" lengthAdjust="spacing" textLength="55" x="514.5" y="208.417">onVerify()</text><polygon fill="#181818" points="738,260.625,748,264.625,738,268.625,742,264.625" style="stroke:#181818;stroke-width:1.0;"/><line style="stroke:#181818;stroke-width:1.0;" x1="512.5" x2="744" y1="264.625" y2="264.625"/><text fill="#000000" font-family="sans-serif" font-size="13" lengthAdjust="spacing" textLength="123" x="519.5" y="259.7686">verifyDBUrl(String url)</text><path d="M765,244.2734 L765,270.2734 L933,270.2734 L933,254.2734 L923,244.2734 L765,244.2734 " fill="#FEFFDD" style="stroke:#181818;stroke-width:0.5;"/><path d="M923,244.2734 L923,254.2734 L933,254.2734 L923,244.2734 " fill="#FEFFDD" style="stroke:#181818;stroke-width:0.5;"/><text fill="#000000" font-family="sans-serif" font-size="13" lengthAdjust="spacing" textLength="147" x="771" y="262.7686">Questo metodo &#232; statico.</text><polygon fill="#181818" points="513.5,293.9766,503.5,297.9766,513.5,301.9766,509.5,297.9766" style="stroke:#181818;stroke-width:1.0;"/><line style="stroke:#181818;stroke-width:1.0;stroke-dasharray:2.0,2.0;" x1="507.5" x2="754" y1="297.9766" y2="297.9766"/><text fill="#000000" font-family="sans-serif" font-size="13" lengthAdjust="spacing" textLength="45" x="519.5" y="293.1201">boolean</text><path d="M10,312.9766 L71,312.9766 L71,321.3281 L61,331.3281 L10,331.3281 L10,312.9766 " fill="#EEEEEE" style="stroke:#000000;stroke-width:1.5;"/><rect fill="none" height="479.7734" style="stroke:#000000;stroke-width:1.5;" width="889.5" x="10" y="312.9766"/><text fill="#000000" font-family="sans-serif" font-size="13" font-weight="bold" lengthAdjust="spacing" textLength="16" x="25" y="327.4717">alt</text><text fill="#000000" font-family="sans-serif" font-size="11" font-weight="bold" lengthAdjust="spacing" textLength="88" x="86" y="326.3955">["L'url &#232; valido"]</text><polygon fill="#181818" points="490.5,349.6797,500.5,353.6797,490.5,357.6797,494.5,353.6797" style="stroke:#181818;stroke-width:1.0;"/><line style="stroke:#181818;stroke-width:1.0;" x1="43.5" x2="496.5" y1="353.6797" y2="353.6797"/><text fill="#000000" font-family="sans-serif" font-size="13" lengthAdjust="spacing" textLength="103" x="50.5" y="348.8232">clicca "Conferma"</text><line style="stroke:#181818;stroke-width:1.0;" x1="502.5" x2="549.5" y1="379.0313" y2="379.0313"/><line style="stroke:#181818;stroke-width:1.0;" x1="549.5" x2="549.5" y1="379.0313" y2="392.0313"/><line style="stroke:#181818;stroke-width:1.0;" x1="508.5" x2="549.5" y1="392.0313" y2="392.0313"/><polygon fill="#181818" points="518.5,388.0313,508.5,392.0313,518.5,396.0313,514.5,392.0313" style="stroke:#181818;stroke-width:1.0;"/><text fill="#000000" font-family="sans-serif" font-size="13" lengthAdjust="spacing" textLength="66" x="514.5" y="374.1748">onConfirm()</text><polygon fill="#181818" points="635.5,423.3828,645.5,427.3828,635.5,431.3828,639.5,427.3828" style="stroke:#181818;stroke-width:1.0;"/><line style="stroke:#181818;stroke-width:1.0;" x1="507.5" x2="641.5" y1="427.3828" y2="427.3828"/><text fill="#000000" font-family="sans-serif" font-size="13" lengthAdjust="spacing" textLength="112" x="514.5" y="422.5264">setDBUrl(String url)</text><polygon fill="#181818" points="635.5,483.7344,645.5,487.7344,635.5,491.7344,639.5,487.7344" style="stroke:#181818;stroke-width:1.0;"/><line style="stroke:#181818;stroke-width:1.0;" x1="507.5" x2="641.5" y1="487.7344" y2="487.7344"/><text fill="#000000" font-family="sans-serif" font-size="13" lengthAdjust="spacing" textLength="70" x="514.5" y="482.8779">saveConfig()</text><polygon fill="#181818" points="635.5,544.0859,645.5,548.0859,635.5,552.0859,639.5,548.0859" style="stroke:#181818;stroke-width:1.0;"/><line style="stroke:#181818;stroke-width:1.0;" x1="507.5" x2="641.5" y1="548.0859" y2="548.0859"/><text fill="#000000" font-family="sans-serif" font-size="13" lengthAdjust="spacing" textLength="43" x="514.5" y="543.2295">initDB()</text><polygon fill="#181818" points="790.5,574.4375,800.5,578.4375,790.5,582.4375,794.5,578.4375" style="stroke:#181818;stroke-width:1.0;"/><line style="stroke:#181818;stroke-width:1.0;" x1="657.5" x2="796.5" y1="578.4375" y2="578.4375"/><text fill="#000000" font-family="sans-serif" font-size="13" lengthAdjust="spacing" textLength="115" x="664.5" y="573.5811">Database(String url)</text><rect fill="#E2E2F0" height="31.6094" rx="2.5" ry="2.5" style="stroke:#181818;stroke-width:0.5;" width="87" x="802.5" y="556.0859"/><text fill="#000000" font-family="sans-serif" font-size="14" lengthAdjust="spacing" textLength="73" x="809.5" y="577.6191">a Database</text><line style="stroke:#181818;stroke-width:1.0;" x1="839" x2="829" y1="621.0469" y2="617.0469"/><line style="stroke:#181818;stroke-width:1.0;" x1="657.5" x2="840" y1="621.0469" y2="621.0469"/><text fill="#000000" font-family="sans-serif" font-size="13" lengthAdjust="spacing" textLength="136" x="664.5" y="616.1904">insertManyContacts(...)</text><line style="stroke:#181818;stroke-width:1.0;" x1="839" x2="829" y1="681.3984" y2="677.3984"/><line style="stroke:#181818;stroke-width:1.0;" x1="657.5" x2="840" y1="681.3984" y2="681.3984"/><text fill="#000000" font-family="sans-serif" font-size="13" lengthAdjust="spacing" textLength="112" x="664.5" y="676.542">insertManyTags(...)</text><line style="stroke:#181818;stroke-width:1.0;" x1="662.5" x2="704.5" y1="741.75" y2="741.75"/><line style="stroke:#181818;stroke-width:1.0;" x1="704.5" x2="704.5" y1="741.75" y2="754.75"/><line style="stroke:#181818;stroke-width:1.0;" x1="663.5" x2="704.5" y1="754.75" y2="754.75"/><polygon fill="#181818" points="673.5,750.75,663.5,754.75,673.5,758.75,669.5,754.75" style="stroke:#181818;stroke-width:1.0;"/><text fill="#000000" font-family="sans-serif" font-size="13" lengthAdjust="spacing" textLength="74" x="669.5" y="736.8936">removeOBJ()</text><path d="M520,727.8984 L520,753.8984 L642,753.8984 L642,737.8984 L632,727.8984 L520,727.8984 " fill="#FEFFDD" style="stroke:#181818;stroke-width:0.5;"/><path d="M632,727.8984 L632,737.8984 L642,737.8984 L632,727.8984 " fill="#FEFFDD" style="stroke:#181818;stroke-width:0.5;"/><text fill="#000000" font-family="sans-serif" font-size="13" lengthAdjust="spacing" textLength="101" x="526" y="746.3936">Rimuove Data.bin</text><line style="stroke:#A80036;stroke-width:2.0;" x1="493.5" x2="511.5" y1="775.75" y2="793.75"/><line style="stroke:#A80036;stroke-width:2.0;" x1="493.5" x2="511.5" y1="793.75" y2="775.75"/><!--SRC=[dPJ1RjGm48RlVefHBcmhDG_G0n9BJwWLK5XElKpisQs5uubi9sXv8bw1Sr-CiRCRabH5mDx6_lwPVyQJHPqum2wHJmGOeLSTXcIrxT0dg13kqFgtx5DWvoXKcMdr6X9WRmyVkEkx5QkxP_0ROmB5k6N-MX1ibiGD9cmmKhcCPYrVN1kbUhXwBPRW6ZmvQCa__OIzTGJQMQqHgj5S7_2xPK-LGftiWDAkz24wKOj9kBoK3F6HlyrwsLmeGtEyFzFNO7saOACcsDtVWf7IvcGCVfV-8iZUQgnK5arQzkNYAFcdx7bG9oWQOOP2t6ntmMq-fM3z0VhWBfHdWOCzF2O5yllOKqmiRISs34y_82QKQN6jo1l8yBB45CXWfSxLvAbXTeH-th0WioYhLo4wUP7RL-8hLnxGMSDLiJKRrFmPABGu0gjvbA67LWQIBnT5PZGs-OqeFP_AGYKBbUEPsTF98WqED3xrvd_arbknyO9K2E7Ck5FdVLtudR271p3dRKftw8_v-v5ySLFNzIgxMVioVyZp6G__ckFKMg2M1tg_VVVNWoaxwMW_hkIzRNj9K1gl6-lBuRIDBwHORTPu5EMVv5XYaVy2]--></g></svg>