<?xml version="1.0" encoding="us-ascii" standalone="no"?><svg xmlns="http://www.w3.org/2000/svg" xmlns:xlink="http://www.w3.org/1999/xlink" contentStyleType="text/css" height="621px" preserveAspectRatio="none" style="width:665px;height:621px;background:#FFFFFF;" version="1.1" viewBox="0 0 665 621" width="665px" zoomAndPan="magnify"><defs/><g><rect fill="#FFFFFF" height="328.7969" style="stroke:#181818;stroke-width:1.0;" width="10" x="280.5" y="166.1641"/><rect fill="#FFFFFF" height="144.7031" style="stroke:#181818;stroke-width:1.0;" width="10" x="285.5" y="247.7188"/><rect fill="#FFFFFF" height="28" style="stroke:#181818;stroke-width:1.0;" width="10" x="290.5" y="291.0703"/><rect fill="#FFFFFF" height="28" style="stroke:#181818;stroke-width:1.0;" width="10" x="290.5" y="364.4219"/><rect fill="#FFFFFF" height="30" style="stroke:#181818;stroke-width:1.0;" width="10" x="285.5" y="464.9609"/><rect fill="#FFFFFF" height="30" style="stroke:#181818;stroke-width:1.0;" width="10" x="516.5" y="464.9609"/><rect fill="none" height="323.2969" style="stroke:#000000;stroke-width:1.5;" width="438" x="220.5" y="199.0156"/><line style="stroke:#181818;stroke-width:0.5;stroke-dasharray:5.0,5.0;" x1="28" x2="28" y1="82.6094" y2="539.3125"/><line style="stroke:#181818;stroke-width:0.5;stroke-dasharray:5.0,5.0;" x1="285.5" x2="285.5" y1="82.6094" y2="539.3125"/><line style="stroke:#181818;stroke-width:0.5;stroke-dasharray:5.0,5.0;" x1="521" x2="521" y1="82.6094" y2="539.3125"/><text fill="#000000" font-family="sans-serif" font-size="14" lengthAdjust="spacing" textLength="41" x="5" y="79.5332">Utente</text><ellipse cx="28.5" cy="13.5" fill="#E2E2F0" rx="8" ry="8" style="stroke:#181818;stroke-width:0.5;"/><path d="M28.5,21.5 L28.5,48.5 M15.5,29.5 L41.5,29.5 M28.5,48.5 L15.5,63.5 M28.5,48.5 L41.5,63.5 " fill="none" style="stroke:#181818;stroke-width:0.5;"/><text fill="#000000" font-family="sans-serif" font-size="14" lengthAdjust="spacing" textLength="41" x="5" y="552.8457">Utente</text><ellipse cx="28.5" cy="564.4219" fill="#E2E2F0" rx="8" ry="8" style="stroke:#181818;stroke-width:0.5;"/><path d="M28.5,572.4219 L28.5,599.4219 M15.5,580.4219 L41.5,580.4219 M28.5,599.4219 L15.5,614.4219 M28.5,599.4219 L41.5,614.4219 " fill="none" style="stroke:#181818;stroke-width:0.5;"/><rect fill="#E2E2F0" height="31.6094" rx="2.5" ry="2.5" style="stroke:#181818;stroke-width:0.5;" width="110" x="230.5" y="50"/><text fill="#000000" font-family="sans-serif" font-size="14" lengthAdjust="spacing" textLength="96" x="237.5" y="71.5332">a AddressBook</text><rect fill="#E2E2F0" height="31.6094" rx="2.5" ry="2.5" style="stroke:#181818;stroke-width:0.5;" width="110" x="230.5" y="538.3125"/><text fill="#000000" font-family="sans-serif" font-size="14" lengthAdjust="spacing" textLength="96" x="237.5" y="559.8457">a AddressBook</text><rect fill="#E2E2F0" height="31.6094" rx="2.5" ry="2.5" style="stroke:#181818;stroke-width:0.5;" width="87" x="478" y="50"/><text fill="#000000" font-family="sans-serif" font-size="14" lengthAdjust="spacing" textLength="73" x="485" y="71.5332">a Database</text><rect fill="#E2E2F0" height="31.6094" rx="2.5" ry="2.5" style="stroke:#181818;stroke-width:0.5;" width="87" x="478" y="538.3125"/><text fill="#000000" font-family="sans-serif" font-size="14" lengthAdjust="spacing" textLength="73" x="485" y="559.8457">a Database</text><rect fill="#FFFFFF" height="328.7969" style="stroke:#181818;stroke-width:1.0;" width="10" x="280.5" y="166.1641"/><rect fill="#FFFFFF" height="144.7031" style="stroke:#181818;stroke-width:1.0;" width="10" x="285.5" y="247.7188"/><rect fill="#FFFFFF" height="28" style="stroke:#181818;stroke-width:1.0;" width="10" x="290.5" y="291.0703"/><rect fill="#FFFFFF" height="28" style="stroke:#181818;stroke-width:1.0;" width="10" x="290.5" y="364.4219"/><rect fill="#FFFFFF" height="30" style="stroke:#181818;stroke-width:1.0;" width="10" x="285.5" y="464.9609"/><rect fill="#FFFFFF" height="30" style="stroke:#181818;stroke-width:1.0;" width="10" x="516.5" y="464.9609"/><polygon fill="#181818" points="273.5,110.9609,283.5,114.9609,273.5,118.9609,277.5,114.9609" style="stroke:#181818;stroke-width:1.0;"/><line style="stroke:#181818;stroke-width:1.0;" x1="28.5" x2="279.5" y1="114.9609" y2="114.9609"/><text fill="#000000" font-family="sans-serif" font-size="13" lengthAdjust="spacing" textLength="233" x="35.5" y="110.1045">aggiunge/modifica/elimina contatto o tag</text><line style="stroke:#181818;stroke-width:1.0;" x1="285.5" x2="332.5" y1="153.1641" y2="153.1641"/><line style="stroke:#181818;stroke-width:1.0;" x1="332.5" x2="332.5" y1="153.1641" y2="166.1641"/><line style="stroke:#181818;stroke-width:1.0;" x1="291.5" x2="332.5" y1="166.1641" y2="166.1641"/><polygon fill="#181818" points="301.5,162.1641,291.5,166.1641,301.5,170.1641,297.5,166.1641" style="stroke:#181818;stroke-width:1.0;"/><text fill="#000000" font-family="sans-serif" font-size="13" lengthAdjust="spacing" textLength="152" x="297.5" y="148.3076">metodo di modifica rubrica</text><path d="M461,127.9609 L461,186.9609 L568,186.9609 L568,137.9609 L558,127.9609 L461,127.9609 " fill="#FEFFDD" style="stroke:#181818;stroke-width:0.5;"/><path d="M558,127.9609 L558,137.9609 L568,137.9609 L558,127.9609 " fill="#FEFFDD" style="stroke:#181818;stroke-width:0.5;"/><text fill="#000000" font-family="sans-serif" font-size="13" lengthAdjust="spacing" textLength="67" x="467" y="146.4561">ad esempio</text><text fill="#000000" font-family="sans-serif" font-size="13" lengthAdjust="spacing" textLength="86" x="467" y="162.8076">addContact(...)</text><text fill="#000000" font-family="sans-serif" font-size="13" lengthAdjust="spacing" textLength="82" x="467" y="179.1592">removeTag(...)</text><path d="M220.5,199.0156 L281.5,199.0156 L281.5,207.3672 L271.5,217.3672 L220.5,217.3672 L220.5,199.0156 " fill="#EEEEEE" style="stroke:#000000;stroke-width:1.5;"/><rect fill="none" height="323.2969" style="stroke:#000000;stroke-width:1.5;" width="438" x="220.5" y="199.0156"/><text fill="#000000" font-family="sans-serif" font-size="13" font-weight="bold" lengthAdjust="spacing" textLength="16" x="235.5" y="213.5107">alt</text><text fill="#000000" font-family="sans-serif" font-size="11" font-weight="bold" lengthAdjust="spacing" textLength="197" x="296.5" y="212.4346">[non esiste un DB per il salvataggio]</text><line style="stroke:#181818;stroke-width:1.0;" x1="290.5" x2="337.5" y1="234.7188" y2="234.7188"/><line style="stroke:#181818;stroke-width:1.0;" x1="337.5" x2="337.5" y1="234.7188" y2="247.7188"/><line style="stroke:#181818;stroke-width:1.0;" x1="296.5" x2="337.5" y1="247.7188" y2="247.7188"/><polygon fill="#181818" points="306.5,243.7188,296.5,247.7188,306.5,251.7188,302.5,247.7188" style="stroke:#181818;stroke-width:1.0;"/><text fill="#000000" font-family="sans-serif" font-size="13" lengthAdjust="spacing" textLength="59" x="302.5" y="229.8623">saveOBJ()</text><line style="stroke:#181818;stroke-width:1.0;" x1="300.5" x2="342.5" y1="283.0703" y2="283.0703"/><line style="stroke:#181818;stroke-width:1.0;" x1="342.5" x2="342.5" y1="283.0703" y2="296.0703"/><line style="stroke:#181818;stroke-width:1.0;" x1="301.5" x2="342.5" y1="296.0703" y2="296.0703"/><polygon fill="#181818" points="311.5,292.0703,301.5,296.0703,311.5,300.0703,307.5,296.0703" style="stroke:#181818;stroke-width:1.0;"/><text fill="#000000" font-family="sans-serif" font-size="13" lengthAdjust="spacing" textLength="207" x="307.5" y="278.2139">Salvataggio lista contatti in Data.bin</text><line style="stroke:#181818;stroke-width:1.0;" x1="300.5" x2="342.5" y1="356.4219" y2="356.4219"/><line style="stroke:#181818;stroke-width:1.0;" x1="342.5" x2="342.5" y1="356.4219" y2="369.4219"/><line style="stroke:#181818;stroke-width:1.0;" x1="301.5" x2="342.5" y1="369.4219" y2="369.4219"/><polygon fill="#181818" points="311.5,365.4219,301.5,369.4219,311.5,373.4219,307.5,369.4219" style="stroke:#181818;stroke-width:1.0;"/><text fill="#000000" font-family="sans-serif" font-size="13" lengthAdjust="spacing" textLength="189" x="307.5" y="351.5654">Salvataggio lista tags in Data.bin</text><line style="stroke:#000000;stroke-width:1.0;stroke-dasharray:2.0,2.0;" x1="220.5" x2="658.5" y1="408.4219" y2="408.4219"/><text fill="#000000" font-family="sans-serif" font-size="11" font-weight="bold" lengthAdjust="spacing" textLength="173" x="225.5" y="419.8408">[esiste un DB per il salvataggio]</text><line style="stroke:#181818;stroke-width:1.0;" x1="514.5" x2="504.5" y1="464.9609" y2="460.9609"/><line style="stroke:#181818;stroke-width:1.0;" x1="295.5" x2="515.5" y1="464.9609" y2="464.9609"/><text fill="#000000" font-family="sans-serif" font-size="13" lengthAdjust="spacing" textLength="132" x="302.5" y="460.1045">metodo aggiornamento</text><path d="M531,428.2578 L531,487.2578 L653,487.2578 L653,438.2578 L643,428.2578 L531,428.2578 " fill="#FEFFDD" style="stroke:#181818;stroke-width:0.5;"/><path d="M643,428.2578 L643,438.2578 L653,438.2578 L643,428.2578 " fill="#FEFFDD" style="stroke:#181818;stroke-width:0.5;"/><text fill="#000000" font-family="sans-serif" font-size="13" lengthAdjust="spacing" textLength="67" x="537" y="446.7529">ad esempio</text><text fill="#000000" font-family="sans-serif" font-size="13" lengthAdjust="spacing" textLength="101" x="537" y="463.1045">upsertContact(...)</text><text fill="#000000" font-family="sans-serif" font-size="13" lengthAdjust="spacing" textLength="82" x="537" y="479.4561">removeTag(...)</text><!--SRC=[bLAnJiD03DtlAwmkj0Ffpe14wOI4682jYvCpmUh5ZkwSVZzEK6bJ8L6cE_lUU_Qp3nlJ3Ez6OWHOO0WtFMRZXdiKWmN2Cx8ygbZMb2WlHb3NX0lGGuoPIjcexYS4rfU8BHhMM6XwZY4CS7llCBW3R5iUfALrfv4_kC4r9UvO41elYsOA2ePj20u_aZeoZGgHuSY2FDJPpo3gLZAtdnOm0XNgUbQ_nj45DhQigceLCdLwe3TilqEI22CnE80FE0wZzeB9F2ikmiLJWy1s0prbu0G5a-F6vlMyiO87UjayBLSpfJF0wua7oML_R3AmJ6EgQfOPEzBLMXwKAtNcKQ1Kw2gZknt4qmQcV1Ri_0SfpChzleYXBvJjVxk8vyt6Ftn835y0]--></g></svg>