<?xml version="1.0" encoding="us-ascii" standalone="no"?><svg xmlns="http://www.w3.org/2000/svg" xmlns:xlink="http://www.w3.org/1999/xlink" contentStyleType="text/css" height="862px" preserveAspectRatio="none" style="width:645px;height:862px;background:#FFFFFF;" version="1.1" viewBox="0 0 645 862" width="645px" zoomAndPan="magnify"><defs/><g><rect fill="#FFFFFF" height="597.2734" style="stroke:#181818;stroke-width:1.0;" width="10" x="202.5" y="165.5703"/><rect fill="#FFFFFF" height="521.5703" style="stroke:#181818;stroke-width:1.0;" width="10" x="207.5" y="210.9219"/><rect fill="#FFFFFF" height="480.9609" style="stroke:#181818;stroke-width:1.0;" width="10" x="387.5" y="251.5313"/><rect fill="#FFFFFF" height="28" style="stroke:#181818;stroke-width:1.0;" width="10" x="392.5" y="294.8828"/><rect fill="#FFFFFF" height="28" style="stroke:#181818;stroke-width:1.0;" width="10" x="392.5" y="393.5859"/><rect fill="#FFFFFF" height="35.3516" style="stroke:#181818;stroke-width:1.0;" width="10" x="392.5" y="482.7734"/><rect fill="#FFFFFF" height="126.4063" style="stroke:#181818;stroke-width:1.0;" width="10" x="392.5" y="568.7344"/><rect fill="#FFFFFF" height="30.3516" style="stroke:#181818;stroke-width:1.0;" width="10" x="397.5" y="604.0859"/><rect fill="#FFFFFF" height="30.3516" style="stroke:#181818;stroke-width:1.0;" width="10" x="397.5" y="664.7891"/><rect fill="#FFFFFF" height="30.3516" style="stroke:#181818;stroke-width:1.0;" width="10" x="580" y="604.0859"/><rect fill="#FFFFFF" height="30.3516" style="stroke:#181818;stroke-width:1.0;" width="10" x="580" y="664.7891"/><rect fill="none" height="358.2578" style="stroke:#000000;stroke-width:1.5;" width="311" x="327.5" y="344.8828"/><line style="stroke:#181818;stroke-width:0.5;stroke-dasharray:5.0,5.0;" x1="28" x2="28" y1="82.6094" y2="780.8438"/><line style="stroke:#181818;stroke-width:0.5;stroke-dasharray:5.0,5.0;" x1="207.5" x2="207.5" y1="123.9141" y2="780.8438"/><line style="stroke:#181818;stroke-width:0.5;stroke-dasharray:5.0,5.0;" x1="392.5" x2="392.5" y1="209.875" y2="780.8438"/><line style="stroke:#181818;stroke-width:0.5;stroke-dasharray:5.0,5.0;" x1="584.5" x2="584.5" y1="527.0781" y2="780.8438"/><text fill="#000000" font-family="sans-serif" font-size="14" lengthAdjust="spacing" textLength="41" x="5" y="79.5332">Utente</text><ellipse cx="28.5" cy="13.5" fill="#E2E2F0" rx="8" ry="8" style="stroke:#181818;stroke-width:0.5;"/><path d="M28.5,21.5 L28.5,48.5 M15.5,29.5 L41.5,29.5 M28.5,48.5 L15.5,63.5 M28.5,48.5 L41.5,63.5 " fill="none" style="stroke:#181818;stroke-width:0.5;"/><text fill="#000000" font-family="sans-serif" font-size="14" lengthAdjust="spacing" textLength="41" x="5" y="794.377">Utente</text><ellipse cx="28.5" cy="805.9531" fill="#E2E2F0" rx="8" ry="8" style="stroke:#181818;stroke-width:0.5;"/><path d="M28.5,813.9531 L28.5,840.9531 M15.5,821.9531 L41.5,821.9531 M28.5,840.9531 L15.5,855.9531 M28.5,840.9531 L41.5,855.9531 " fill="none" style="stroke:#181818;stroke-width:0.5;"/><rect fill="#E2E2F0" height="31.6094" rx="2.5" ry="2.5" style="stroke:#181818;stroke-width:0.5;" width="118" x="148.5" y="779.8438"/><text fill="#000000" font-family="sans-serif" font-size="14" lengthAdjust="spacing" textLength="104" x="155.5" y="801.377">a MainController</text><rect fill="#E2E2F0" height="31.6094" rx="2.5" ry="2.5" style="stroke:#181818;stroke-width:0.5;" width="110" x="337.5" y="779.8438"/><text fill="#000000" font-family="sans-serif" font-size="14" lengthAdjust="spacing" textLength="96" x="344.5" y="801.377">a AddressBook</text><rect fill="#E2E2F0" height="31.6094" rx="2.5" ry="2.5" style="stroke:#181818;stroke-width:0.5;" width="87" x="541.5" y="779.8438"/><text fill="#000000" font-family="sans-serif" font-size="14" lengthAdjust="spacing" textLength="73" x="548.5" y="801.377">a Database</text><rect fill="#FFFFFF" height="597.2734" style="stroke:#181818;stroke-width:1.0;" width="10" x="202.5" y="165.5703"/><rect fill="#FFFFFF" height="521.5703" style="stroke:#181818;stroke-width:1.0;" width="10" x="207.5" y="210.9219"/><rect fill="#FFFFFF" height="480.9609" style="stroke:#181818;stroke-width:1.0;" width="10" x="387.5" y="251.5313"/><rect fill="#FFFFFF" height="28" style="stroke:#181818;stroke-width:1.0;" width="10" x="392.5" y="294.8828"/><rect fill="#FFFFFF" height="28" style="stroke:#181818;stroke-width:1.0;" width="10" x="392.5" y="393.5859"/><rect fill="#FFFFFF" height="35.3516" style="stroke:#181818;stroke-width:1.0;" width="10" x="392.5" y="482.7734"/><rect fill="#FFFFFF" height="126.4063" style="stroke:#181818;stroke-width:1.0;" width="10" x="392.5" y="568.7344"/><rect fill="#FFFFFF" height="30.3516" style="stroke:#181818;stroke-width:1.0;" width="10" x="397.5" y="604.0859"/><rect fill="#FFFFFF" height="30.3516" style="stroke:#181818;stroke-width:1.0;" width="10" x="397.5" y="664.7891"/><rect fill="#FFFFFF" height="30.3516" style="stroke:#181818;stroke-width:1.0;" width="10" x="580" y="604.0859"/><rect fill="#FFFFFF" height="30.3516" style="stroke:#181818;stroke-width:1.0;" width="10" x="580" y="664.7891"/><polygon fill="#181818" points="136.5,110.9609,146.5,114.9609,136.5,118.9609,140.5,114.9609" style="stroke:#181818;stroke-width:1.0;"/><line style="stroke:#181818;stroke-width:1.0;" x1="28.5" x2="142.5" y1="114.9609" y2="114.9609"/><text fill="#000000" font-family="sans-serif" font-size="13" lengthAdjust="spacing" textLength="68" x="35.5" y="110.1045">apre rubrica</text><rect fill="#E2E2F0" height="31.6094" rx="2.5" ry="2.5" style="stroke:#181818;stroke-width:0.5;" width="118" x="148.5" y="92.6094"/><text fill="#000000" font-family="sans-serif" font-size="14" lengthAdjust="spacing" textLength="104" x="155.5" y="114.1426">a MainController</text><line style="stroke:#181818;stroke-width:1.0;" x1="207.5" x2="254.5" y1="152.5703" y2="152.5703"/><line style="stroke:#181818;stroke-width:1.0;" x1="254.5" x2="254.5" y1="152.5703" y2="165.5703"/><line style="stroke:#181818;stroke-width:1.0;" x1="213.5" x2="254.5" y1="165.5703" y2="165.5703"/><polygon fill="#181818" points="223.5,161.5703,213.5,165.5703,223.5,169.5703,219.5,165.5703" style="stroke:#181818;stroke-width:1.0;"/><text fill="#000000" font-family="sans-serif" font-size="13" lengthAdjust="spacing" textLength="67" x="219.5" y="147.7139">initialize(...)</text><polygon fill="#181818" points="325.5,196.9219,335.5,200.9219,325.5,204.9219,329.5,200.9219" style="stroke:#181818;stroke-width:1.0;"/><line style="stroke:#181818;stroke-width:1.0;" x1="212.5" x2="331.5" y1="200.9219" y2="200.9219"/><text fill="#000000" font-family="sans-serif" font-size="13" lengthAdjust="spacing" textLength="75" x="219.5" y="196.0654">getInstance()</text><rect fill="#E2E2F0" height="31.6094" rx="2.5" ry="2.5" style="stroke:#181818;stroke-width:0.5;" width="110" x="337.5" y="178.5703"/><text fill="#000000" font-family="sans-serif" font-size="14" lengthAdjust="spacing" textLength="96" x="344.5" y="200.1035">a AddressBook</text><line style="stroke:#181818;stroke-width:1.0;" x1="392.5" x2="439.5" y1="238.5313" y2="238.5313"/><line style="stroke:#181818;stroke-width:1.0;" x1="439.5" x2="439.5" y1="238.5313" y2="251.5313"/><line style="stroke:#181818;stroke-width:1.0;" x1="398.5" x2="439.5" y1="251.5313" y2="251.5313"/><polygon fill="#181818" points="408.5,247.5313,398.5,251.5313,408.5,255.5313,404.5,251.5313" style="stroke:#181818;stroke-width:1.0;"/><text fill="#000000" font-family="sans-serif" font-size="13" lengthAdjust="spacing" textLength="86" x="404.5" y="233.6748">AddressBook()</text><line style="stroke:#181818;stroke-width:1.0;" x1="402.5" x2="444.5" y1="286.8828" y2="286.8828"/><line style="stroke:#181818;stroke-width:1.0;" x1="444.5" x2="444.5" y1="286.8828" y2="299.8828"/><line style="stroke:#181818;stroke-width:1.0;" x1="403.5" x2="444.5" y1="299.8828" y2="299.8828"/><polygon fill="#181818" points="413.5,295.8828,403.5,299.8828,413.5,303.8828,409.5,299.8828" style="stroke:#181818;stroke-width:1.0;"/><text fill="#000000" font-family="sans-serif" font-size="13" lengthAdjust="spacing" textLength="68" x="409.5" y="282.0264">loadConfig()</text><path d="M327.5,344.8828 L388.5,344.8828 L388.5,353.2344 L378.5,363.2344 L327.5,363.2344 L327.5,344.8828 " fill="#EEEEEE" style="stroke:#000000;stroke-width:1.5;"/><rect fill="none" height="358.2578" style="stroke:#000000;stroke-width:1.5;" width="311" x="327.5" y="344.8828"/><text fill="#000000" font-family="sans-serif" font-size="13" font-weight="bold" lengthAdjust="spacing" textLength="16" x="342.5" y="359.3779">alt</text><text fill="#000000" font-family="sans-serif" font-size="11" font-weight="bold" lengthAdjust="spacing" textLength="218" x="403.5" y="358.3018">[utente non ha specificato il link per DB]</text><line style="stroke:#181818;stroke-width:1.0;" x1="402.5" x2="444.5" y1="385.5859" y2="385.5859"/><line style="stroke:#181818;stroke-width:1.0;" x1="444.5" x2="444.5" y1="385.5859" y2="398.5859"/><line style="stroke:#181818;stroke-width:1.0;" x1="403.5" x2="444.5" y1="398.5859" y2="398.5859"/><polygon fill="#181818" points="413.5,394.5859,403.5,398.5859,413.5,402.5859,409.5,398.5859" style="stroke:#181818;stroke-width:1.0;"/><text fill="#000000" font-family="sans-serif" font-size="13" lengthAdjust="spacing" textLength="57" x="409.5" y="380.7295">loadOBJ()</text><line style="stroke:#000000;stroke-width:1.0;stroke-dasharray:2.0,2.0;" x1="327.5" x2="638.5" y1="437.5859" y2="437.5859"/><text fill="#000000" font-family="sans-serif" font-size="11" font-weight="bold" lengthAdjust="spacing" textLength="194" x="332.5" y="449.0049">[utente ha specificato il link per DB]</text><line style="stroke:#181818;stroke-width:1.0;" x1="397.5" x2="444.5" y1="469.7734" y2="469.7734"/><line style="stroke:#181818;stroke-width:1.0;" x1="444.5" x2="444.5" y1="469.7734" y2="482.7734"/><line style="stroke:#181818;stroke-width:1.0;" x1="403.5" x2="444.5" y1="482.7734" y2="482.7734"/><polygon fill="#181818" points="413.5,478.7734,403.5,482.7734,413.5,486.7734,409.5,482.7734" style="stroke:#181818;stroke-width:1.0;"/><text fill="#000000" font-family="sans-serif" font-size="13" lengthAdjust="spacing" textLength="43" x="409.5" y="464.917">initDB()</text><polygon fill="#181818" points="529.5,514.125,539.5,518.125,529.5,522.125,533.5,518.125" style="stroke:#181818;stroke-width:1.0;"/><line style="stroke:#181818;stroke-width:1.0;" x1="397.5" x2="535.5" y1="518.125" y2="518.125"/><text fill="#000000" font-family="sans-serif" font-size="13" lengthAdjust="spacing" textLength="115" x="404.5" y="513.2686">Database(String url)</text><rect fill="#E2E2F0" height="31.6094" rx="2.5" ry="2.5" style="stroke:#181818;stroke-width:0.5;" width="87" x="541.5" y="495.7734"/><text fill="#000000" font-family="sans-serif" font-size="14" lengthAdjust="spacing" textLength="73" x="548.5" y="517.3066">a Database</text><line style="stroke:#181818;stroke-width:1.0;" x1="397.5" x2="444.5" y1="555.7344" y2="555.7344"/><line style="stroke:#181818;stroke-width:1.0;" x1="444.5" x2="444.5" y1="555.7344" y2="568.7344"/><line style="stroke:#181818;stroke-width:1.0;" x1="403.5" x2="444.5" y1="568.7344" y2="568.7344"/><polygon fill="#181818" points="413.5,564.7344,403.5,568.7344,413.5,572.7344,409.5,568.7344" style="stroke:#181818;stroke-width:1.0;"/><text fill="#000000" font-family="sans-serif" font-size="13" lengthAdjust="spacing" textLength="80" x="409.5" y="550.8779">loadFromDB()</text><polygon fill="#181818" points="568,600.0859,578,604.0859,568,608.0859,572,604.0859" style="stroke:#181818;stroke-width:1.0;"/><line style="stroke:#181818;stroke-width:1.0;" x1="407.5" x2="574" y1="604.0859" y2="604.0859"/><text fill="#000000" font-family="sans-serif" font-size="13" lengthAdjust="spacing" textLength="93" x="414.5" y="599.2295">getAllContacts()</text><polygon fill="#181818" points="413.5,630.4375,403.5,634.4375,413.5,638.4375,409.5,634.4375" style="stroke:#181818;stroke-width:1.0;"/><line style="stroke:#181818;stroke-width:1.0;stroke-dasharray:2.0,2.0;" x1="407.5" x2="584" y1="634.4375" y2="634.4375"/><text fill="#000000" font-family="sans-serif" font-size="13" lengthAdjust="spacing" textLength="147" x="419.5" y="629.5811">restituisce contatti da DB</text><polygon fill="#181818" points="568,660.7891,578,664.7891,568,668.7891,572,664.7891" style="stroke:#181818;stroke-width:1.0;"/><line style="stroke:#181818;stroke-width:1.0;" x1="407.5" x2="574" y1="664.7891" y2="664.7891"/><text fill="#000000" font-family="sans-serif" font-size="13" lengthAdjust="spacing" textLength="69" x="414.5" y="659.9326">getAllTags()</text><polygon fill="#181818" points="408.5,691.1406,398.5,695.1406,408.5,699.1406,404.5,695.1406" style="stroke:#181818;stroke-width:1.0;"/><line style="stroke:#181818;stroke-width:1.0;stroke-dasharray:2.0,2.0;" x1="402.5" x2="584" y1="695.1406" y2="695.1406"/><text fill="#000000" font-family="sans-serif" font-size="13" lengthAdjust="spacing" textLength="129" x="414.5" y="690.2842">restituisce tags da DB</text><polygon fill="#181818" points="223.5,728.4922,213.5,732.4922,223.5,736.4922,219.5,732.4922" style="stroke:#181818;stroke-width:1.0;"/><line style="stroke:#181818;stroke-width:1.0;stroke-dasharray:2.0,2.0;" x1="217.5" x2="391.5" y1="732.4922" y2="732.4922"/><text fill="#000000" font-family="sans-serif" font-size="13" lengthAdjust="spacing" textLength="146" x="229.5" y="727.6357">lista dei contatti e dei tag</text><polygon fill="#181818" points="39.5,758.8438,29.5,762.8438,39.5,766.8438,35.5,762.8438" style="stroke:#181818;stroke-width:1.0;"/><line style="stroke:#181818;stroke-width:1.0;" x1="33.5" x2="206.5" y1="762.8438" y2="762.8438"/><text fill="#000000" font-family="sans-serif" font-size="13" lengthAdjust="spacing" textLength="150" x="45.5" y="757.9873">mostra la lista dei contatti</text><!--SRC=[ZPB1Ri8m38RlVGgB4o310t2OH8ScCMdQOTi3k8dfB49I9UuEU_gvZIhQmgOTM__-_F-EqKY8y27aXG0Jj4M3KTXmWrvWWV22x1-3bnYSexZeD1Sp5-sjZPHI6SAvLs0rLnnGiC94VTaMHGkR1mN1UWqxm2OInBQARB3Gdxcq0_OiZ8w_QRdTRbS56k4lLAFg8CkmoeIQvEYJe3UqdEfKaNMxiSknICsELIwWrS0dhcSYIzCM9z3clVdWuHCXDMJuf1aa03jmxC_GK8H3EUU_biz_myab6kZ_9dVhEfGpSAxRlARX5PPl4jdNq4QtAcw2JRq-nN3vbTflVkzSTo5QJsEPdGQ4pK3LHn2MbfCXC5sZ28F5Bit8Yhtlwphp7UiqjpLglZzFjEbsrlG1xCrAoDiyVxXCntfiO8cl0QZ_LFwuMGzmYifdsohY4f9418TtO3F43m00]--></g></svg>