<?xml version="1.0" encoding="us-ascii" standalone="no"?><svg xmlns="http://www.w3.org/2000/svg" xmlns:xlink="http://www.w3.org/1999/xlink" contentStyleType="text/css" height="892px" preserveAspectRatio="none" style="width:716px;height:892px;background:#FFFFFF;" version="1.1" viewBox="0 0 716 892" width="716px" zoomAndPan="magnify"><defs/><g><rect fill="#FFFFFF" height="77.9609" style="stroke:#181818;stroke-width:1.0;" width="10" x="254.5" y="165.5703"/><rect fill="#FFFFFF" height="32.6094" style="stroke:#181818;stroke-width:1.0;" width="10" x="259.5" y="210.9219"/><rect fill="#FFFFFF" height="30.3516" style="stroke:#181818;stroke-width:1.0;" width="10" x="254.5" y="273.8828"/><rect fill="#FFFFFF" height="28" style="stroke:#181818;stroke-width:1.0;" width="10" x="492" y="354.8438"/><rect fill="#FFFFFF" height="28" style="stroke:#181818;stroke-width:1.0;" width="10" x="492" y="458.5469"/><rect fill="#FFFFFF" height="28" style="stroke:#181818;stroke-width:1.0;" width="10" x="492" y="557.25"/><rect fill="#FFFFFF" height="20" style="stroke:#181818;stroke-width:1.0;" width="10" x="492" y="646.4375"/><rect fill="#FFFFFF" height="65.7031" style="stroke:#181818;stroke-width:1.0;" width="10" x="492" y="727.1406"/><rect fill="#FFFFFF" height="32.6094" style="stroke:#181818;stroke-width:1.0;" width="10" x="646.5" y="210.9219"/><rect fill="none" height="150.8906" style="stroke:#000000;stroke-width:1.5;" width="247" x="401.5" y="508.5469"/><line style="stroke:#181818;stroke-width:0.5;stroke-dasharray:5.0,5.0;" x1="28" x2="28" y1="82.6094" y2="810.8438"/><line style="stroke:#181818;stroke-width:0.5;stroke-dasharray:5.0,5.0;" x1="259.5" x2="259.5" y1="123.9141" y2="810.8438"/><line style="stroke:#181818;stroke-width:0.5;stroke-dasharray:5.0,5.0;" x1="496.5" x2="496.5" y1="313.1875" y2="810.8438"/><line style="stroke:#181818;stroke-width:0.5;stroke-dasharray:5.0,5.0;" x1="651.5" x2="651.5" y1="209.875" y2="810.8438"/><text fill="#000000" font-family="sans-serif" font-size="14" lengthAdjust="spacing" textLength="41" x="5" y="79.5332">Utente</text><ellipse cx="28.5" cy="13.5" fill="#E2E2F0" rx="8" ry="8" style="stroke:#181818;stroke-width:0.5;"/><path d="M28.5,21.5 L28.5,48.5 M15.5,29.5 L41.5,29.5 M28.5,48.5 L15.5,63.5 M28.5,48.5 L41.5,63.5 " fill="none" style="stroke:#181818;stroke-width:0.5;"/><text fill="#000000" font-family="sans-serif" font-size="14" lengthAdjust="spacing" textLength="41" x="5" y="824.377">Utente</text><ellipse cx="28.5" cy="835.9531" fill="#E2E2F0" rx="8" ry="8" style="stroke:#181818;stroke-width:0.5;"/><path d="M28.5,843.9531 L28.5,870.9531 M15.5,851.9531 L41.5,851.9531 M28.5,870.9531 L15.5,885.9531 M28.5,870.9531 L41.5,885.9531 " fill="none" style="stroke:#181818;stroke-width:0.5;"/><rect fill="#E2E2F0" height="31.6094" rx="2.5" ry="2.5" style="stroke:#181818;stroke-width:0.5;" width="118" x="200.5" y="809.8438"/><text fill="#000000" font-family="sans-serif" font-size="14" lengthAdjust="spacing" textLength="104" x="207.5" y="831.377">a MainController</text><rect fill="#E2E2F0" height="31.6094" rx="2.5" ry="2.5" style="stroke:#181818;stroke-width:0.5;" width="171" x="411.5" y="809.8438"/><text fill="#000000" font-family="sans-serif" font-size="14" lengthAdjust="spacing" textLength="157" x="418.5" y="831.377">an ImportPopupContoller</text><rect fill="#E2E2F0" height="31.6094" rx="2.5" ry="2.5" style="stroke:#181818;stroke-width:0.5;" width="118" x="592.5" y="809.8438"/><text fill="#000000" font-family="sans-serif" font-size="14" lengthAdjust="spacing" textLength="104" x="599.5" y="831.377">an AddressBook</text><rect fill="#FFFFFF" height="77.9609" style="stroke:#181818;stroke-width:1.0;" width="10" x="254.5" y="165.5703"/><rect fill="#FFFFFF" height="32.6094" style="stroke:#181818;stroke-width:1.0;" width="10" x="259.5" y="210.9219"/><rect fill="#FFFFFF" height="30.3516" style="stroke:#181818;stroke-width:1.0;" width="10" x="254.5" y="273.8828"/><rect fill="#FFFFFF" height="28" style="stroke:#181818;stroke-width:1.0;" width="10" x="492" y="354.8438"/><rect fill="#FFFFFF" height="28" style="stroke:#181818;stroke-width:1.0;" width="10" x="492" y="458.5469"/><rect fill="#FFFFFF" height="28" style="stroke:#181818;stroke-width:1.0;" width="10" x="492" y="557.25"/><rect fill="#FFFFFF" height="20" style="stroke:#181818;stroke-width:1.0;" width="10" x="492" y="646.4375"/><rect fill="#FFFFFF" height="65.7031" style="stroke:#181818;stroke-width:1.0;" width="10" x="492" y="727.1406"/><rect fill="#FFFFFF" height="32.6094" style="stroke:#181818;stroke-width:1.0;" width="10" x="646.5" y="210.9219"/><polygon fill="#181818" points="188.5,110.9609,198.5,114.9609,188.5,118.9609,192.5,114.9609" style="stroke:#181818;stroke-width:1.0;"/><line style="stroke:#181818;stroke-width:1.0;" x1="28.5" x2="194.5" y1="114.9609" y2="114.9609"/><text fill="#000000" font-family="sans-serif" font-size="13" lengthAdjust="spacing" textLength="70" x="35.5" y="110.1045">Apre rubrica</text><rect fill="#E2E2F0" height="31.6094" rx="2.5" ry="2.5" style="stroke:#181818;stroke-width:0.5;" width="118" x="200.5" y="92.6094"/><text fill="#000000" font-family="sans-serif" font-size="14" lengthAdjust="spacing" textLength="104" x="207.5" y="114.1426">a MainController</text><line style="stroke:#181818;stroke-width:1.0;" x1="259.5" x2="306.5" y1="152.5703" y2="152.5703"/><line style="stroke:#181818;stroke-width:1.0;" x1="306.5" x2="306.5" y1="152.5703" y2="165.5703"/><line style="stroke:#181818;stroke-width:1.0;" x1="265.5" x2="306.5" y1="165.5703" y2="165.5703"/><polygon fill="#181818" points="275.5,161.5703,265.5,165.5703,275.5,169.5703,271.5,165.5703" style="stroke:#181818;stroke-width:1.0;"/><text fill="#000000" font-family="sans-serif" font-size="13" lengthAdjust="spacing" textLength="67" x="271.5" y="147.7139">initialize(...)</text><polygon fill="#181818" points="580.5,196.9219,590.5,200.9219,580.5,204.9219,584.5,200.9219" style="stroke:#181818;stroke-width:1.0;"/><line style="stroke:#181818;stroke-width:1.0;" x1="264.5" x2="586.5" y1="200.9219" y2="200.9219"/><text fill="#000000" font-family="sans-serif" font-size="13" lengthAdjust="spacing" textLength="75" x="271.5" y="196.0654">getInstance()</text><rect fill="#E2E2F0" height="31.6094" rx="2.5" ry="2.5" style="stroke:#181818;stroke-width:0.5;" width="118" x="592.5" y="178.5703"/><text fill="#000000" font-family="sans-serif" font-size="14" lengthAdjust="spacing" textLength="104" x="599.5" y="200.1035">an AddressBook</text><polygon fill="#181818" points="270.5,239.5313,260.5,243.5313,270.5,247.5313,266.5,243.5313" style="stroke:#181818;stroke-width:1.0;"/><line style="stroke:#181818;stroke-width:1.0;stroke-dasharray:2.0,2.0;" x1="264.5" x2="650.5" y1="243.5313" y2="243.5313"/><text fill="#000000" font-family="sans-serif" font-size="13" lengthAdjust="spacing" textLength="92" x="276.5" y="238.6748">lista dei contatti</text><polygon fill="#181818" points="242.5,269.8828,252.5,273.8828,242.5,277.8828,246.5,273.8828" style="stroke:#181818;stroke-width:1.0;"/><line style="stroke:#181818;stroke-width:1.0;" x1="28.5" x2="248.5" y1="273.8828" y2="273.8828"/><text fill="#000000" font-family="sans-serif" font-size="13" lengthAdjust="spacing" textLength="207" x="35.5" y="269.0264">Clicca "Importa" dal men&#249; a tendina</text><polygon fill="#181818" points="399.5,300.2344,409.5,304.2344,399.5,308.2344,403.5,304.2344" style="stroke:#181818;stroke-width:1.0;"/><line style="stroke:#181818;stroke-width:1.0;" x1="259.5" x2="405.5" y1="304.2344" y2="304.2344"/><text fill="#000000" font-family="sans-serif" font-size="13" lengthAdjust="spacing" textLength="123" x="266.5" y="299.3779">showImportPopup(...)</text><rect fill="#E2E2F0" height="31.6094" rx="2.5" ry="2.5" style="stroke:#181818;stroke-width:0.5;" width="171" x="411.5" y="281.8828"/><text fill="#000000" font-family="sans-serif" font-size="14" lengthAdjust="spacing" textLength="157" x="418.5" y="303.416">an ImportPopupContoller</text><line style="stroke:#181818;stroke-width:1.0;" x1="502" x2="544" y1="346.8438" y2="346.8438"/><line style="stroke:#181818;stroke-width:1.0;" x1="544" x2="544" y1="346.8438" y2="359.8438"/><line style="stroke:#181818;stroke-width:1.0;" x1="503" x2="544" y1="359.8438" y2="359.8438"/><polygon fill="#181818" points="513,355.8438,503,359.8438,513,363.8438,509,359.8438" style="stroke:#181818;stroke-width:1.0;"/><text fill="#000000" font-family="sans-serif" font-size="13" lengthAdjust="spacing" textLength="67" x="509" y="341.9873">initialize(...)</text><polygon fill="#181818" points="485,416.1953,495,420.1953,485,424.1953,489,420.1953" style="stroke:#181818;stroke-width:1.0;"/><line style="stroke:#181818;stroke-width:1.0;" x1="28.5" x2="491" y1="420.1953" y2="420.1953"/><text fill="#000000" font-family="sans-serif" font-size="13" lengthAdjust="spacing" textLength="204" x="35.5" y="415.3389">Inserisce percorso file .csv o .vCard</text><line style="stroke:#181818;stroke-width:1.0;" x1="502" x2="544" y1="450.5469" y2="450.5469"/><line style="stroke:#181818;stroke-width:1.0;" x1="544" x2="544" y1="450.5469" y2="463.5469"/><line style="stroke:#181818;stroke-width:1.0;" x1="503" x2="544" y1="463.5469" y2="463.5469"/><polygon fill="#181818" points="513,459.5469,503,463.5469,513,467.5469,509,463.5469" style="stroke:#181818;stroke-width:1.0;"/><text fill="#000000" font-family="sans-serif" font-size="13" lengthAdjust="spacing" textLength="89" x="509" y="445.6904">choosePath(...)</text><path d="M401.5,508.5469 L462.5,508.5469 L462.5,516.8984 L452.5,526.8984 L401.5,526.8984 L401.5,508.5469 " fill="#EEEEEE" style="stroke:#000000;stroke-width:1.5;"/><rect fill="none" height="150.8906" style="stroke:#000000;stroke-width:1.5;" width="247" x="401.5" y="508.5469"/><text fill="#000000" font-family="sans-serif" font-size="13" font-weight="bold" lengthAdjust="spacing" textLength="16" x="416.5" y="523.042">alt</text><text fill="#000000" font-family="sans-serif" font-size="11" font-weight="bold" lengthAdjust="spacing" textLength="166" x="477.5" y="521.9658">[Il file scelto &#232; in formato .csv]</text><line style="stroke:#181818;stroke-width:1.0;" x1="502" x2="544" y1="549.25" y2="549.25"/><line style="stroke:#181818;stroke-width:1.0;" x1="544" x2="544" y1="549.25" y2="562.25"/><line style="stroke:#181818;stroke-width:1.0;" x1="503" x2="544" y1="562.25" y2="562.25"/><polygon fill="#181818" points="513,558.25,503,562.25,513,566.25,509,562.25" style="stroke:#181818;stroke-width:1.0;"/><text fill="#000000" font-family="sans-serif" font-size="13" lengthAdjust="spacing" textLength="115" x="509" y="544.3936">checkCSVFormat();</text><line style="stroke:#000000;stroke-width:1.0;stroke-dasharray:2.0,2.0;" x1="401.5" x2="648.5" y1="601.25" y2="601.25"/><text fill="#000000" font-family="sans-serif" font-size="11" font-weight="bold" lengthAdjust="spacing" textLength="181" x="406.5" y="612.6689">[Il file scelto &#232; in formato .VCard]</text><line style="stroke:#181818;stroke-width:1.0;" x1="497" x2="544" y1="633.4375" y2="633.4375"/><line style="stroke:#181818;stroke-width:1.0;" x1="544" x2="544" y1="633.4375" y2="646.4375"/><line style="stroke:#181818;stroke-width:1.0;" x1="503" x2="544" y1="646.4375" y2="646.4375"/><polygon fill="#181818" points="513,642.4375,503,646.4375,513,650.4375,509,646.4375" style="stroke:#181818;stroke-width:1.0;"/><text fill="#000000" font-family="sans-serif" font-size="13" lengthAdjust="spacing" textLength="124" x="509" y="628.5811">checkVCardFormat();</text><polygon fill="#181818" points="485,684.7891,495,688.7891,485,692.7891,489,688.7891" style="stroke:#181818;stroke-width:1.0;"/><line style="stroke:#181818;stroke-width:1.0;" x1="28.5" x2="491" y1="688.7891" y2="688.7891"/><text fill="#000000" font-family="sans-serif" font-size="13" lengthAdjust="spacing" textLength="196" x="35.5" y="683.9326">Utente clicca il pulsante "Importa"</text><line style="stroke:#181818;stroke-width:1.0;" x1="497" x2="544" y1="714.1406" y2="714.1406"/><line style="stroke:#181818;stroke-width:1.0;" x1="544" x2="544" y1="714.1406" y2="727.1406"/><line style="stroke:#181818;stroke-width:1.0;" x1="503" x2="544" y1="727.1406" y2="727.1406"/><polygon fill="#181818" points="513,723.1406,503,727.1406,513,731.1406,509,727.1406" style="stroke:#181818;stroke-width:1.0;"/><text fill="#000000" font-family="sans-serif" font-size="13" lengthAdjust="spacing" textLength="70" x="509" y="709.2842">onImport(...)</text><polygon fill="#181818" points="639.5,758.4922,649.5,762.4922,639.5,766.4922,643.5,762.4922" style="stroke:#181818;stroke-width:1.0;"/><line style="stroke:#181818;stroke-width:1.0;" x1="502" x2="645.5" y1="762.4922" y2="762.4922"/><text fill="#000000" font-family="sans-serif" font-size="13" lengthAdjust="spacing" textLength="86" x="509" y="757.6357">Importa rubrica</text><polygon fill="#181818" points="39.5,788.8438,29.5,792.8438,39.5,796.8438,35.5,792.8438" style="stroke:#181818;stroke-width:1.0;"/><line style="stroke:#181818;stroke-width:1.0;stroke-dasharray:2.0,2.0;" x1="33.5" x2="496" y1="792.8438" y2="792.8438"/><text fill="#000000" font-family="sans-serif" font-size="13" lengthAdjust="spacing" textLength="214" x="45.5" y="787.9873">mostra la lista dei contatti aggiornata</text><line style="stroke:#A80036;stroke-width:2.0;" x1="488" x2="506" y1="783.8438" y2="801.8438"/><line style="stroke:#A80036;stroke-width:2.0;" x1="488" x2="506" y1="801.8438" y2="783.8438"/><!--SRC=[XLD1RkCm3Bpx5KHEQO7w0LbWWJR00ZaKAB3OtXcPJOZAeY3HARelwXTwxiUMjjpMJhFDJHI7CwEHX4ubmH-be0IOeQiY9cN74OF20k4MEQmbQ1BlAIrwJEkEG04sRPIaTnAxs8C_iHo_Wg-R9b7EDoAF0mQtLTN1rKyZXijBMC5rJ0IfsoPsMDbcQQs00okZvx-qhElweaAdV40pRev676uBnOvq4x9YSBIS04rgEcJegtTopmQ7XXYSdG1LkMfe2fvKHZFlVVXVmTgpSmYB4Wake44FBOMtLq2md1iEE3DHZ5jGnNdUozCapdBIkLgF7KU-2QMFVZBNbztdcAL3YRCZY9ISf2pmm9wWTla00lLXZQcPAxczIAOxrFq99VGA6ryuZDMhmDkBcOC7IIrQrHCV-pcY9_Uu_dt_QnXONloO2v3FT4RXVl1yLcE0_KUbiWlw9hNnexXon-mXTZvZl_LnttD12MN_H68ZpjxWQlm_-FxeeJIjsrcpbQm9mUE9Dmgusx6aW8h7jXkoCNaUrly0]--></g></svg>