<?xml version="1.0" encoding="us-ascii" standalone="no"?><svg xmlns="http://www.w3.org/2000/svg" xmlns:xlink="http://www.w3.org/1999/xlink" contentStyleType="text/css" height="905px" preserveAspectRatio="none" style="width:571px;height:905px;background:#FFFFFF;" version="1.1" viewBox="0 0 571 905" width="571px" zoomAndPan="magnify"><defs/><g><rect fill="#FFFFFF" height="28" style="stroke:#181818;stroke-width:1.0;" width="10" x="179.5" y="165.5703"/><rect fill="#FFFFFF" height="30.3516" style="stroke:#181818;stroke-width:1.0;" width="10" x="179.5" y="230.9219"/><rect fill="#FFFFFF" height="28" style="stroke:#181818;stroke-width:1.0;" width="10" x="422" y="311.8828"/><rect fill="#FFFFFF" height="35.3516" style="stroke:#181818;stroke-width:1.0;" width="10" x="422" y="385.2344"/><rect fill="#FFFFFF" height="28" style="stroke:#181818;stroke-width:1.0;" width="10" x="422" y="458.9375"/><rect fill="#FFFFFF" height="236.2422" style="stroke:#181818;stroke-width:1.0;" width="10" x="422" y="562.6406"/><rect fill="#FFFFFF" height="28" style="stroke:#181818;stroke-width:1.0;" width="10" x="427" y="631.3438"/><rect fill="#FFFFFF" height="28" style="stroke:#181818;stroke-width:1.0;" width="10" x="427" y="720.5313"/><rect fill="none" height="180.8906" style="stroke:#000000;stroke-width:1.5;" width="235.5" x="328.5" y="582.6406"/><line style="stroke:#181818;stroke-width:0.5;stroke-dasharray:5.0,5.0;" x1="28" x2="28" y1="82.6094" y2="823.8828"/><line style="stroke:#181818;stroke-width:0.5;stroke-dasharray:5.0,5.0;" x1="184.5" x2="184.5" y1="123.9141" y2="823.8828"/><line style="stroke:#181818;stroke-width:0.5;stroke-dasharray:5.0,5.0;" x1="426.5" x2="426.5" y1="270.2266" y2="823.8828"/><text fill="#000000" font-family="sans-serif" font-size="14" lengthAdjust="spacing" textLength="41" x="5" y="79.5332">Utente</text><ellipse cx="28.5" cy="13.5" fill="#E2E2F0" rx="8" ry="8" style="stroke:#181818;stroke-width:0.5;"/><path d="M28.5,21.5 L28.5,48.5 M15.5,29.5 L41.5,29.5 M28.5,48.5 L15.5,63.5 M28.5,48.5 L41.5,63.5 " fill="none" style="stroke:#181818;stroke-width:0.5;"/><text fill="#000000" font-family="sans-serif" font-size="14" lengthAdjust="spacing" textLength="41" x="5" y="837.416">Utente</text><ellipse cx="28.5" cy="848.9922" fill="#E2E2F0" rx="8" ry="8" style="stroke:#181818;stroke-width:0.5;"/><path d="M28.5,856.9922 L28.5,883.9922 M15.5,864.9922 L41.5,864.9922 M28.5,883.9922 L15.5,898.9922 M28.5,883.9922 L41.5,898.9922 " fill="none" style="stroke:#181818;stroke-width:0.5;"/><rect fill="#E2E2F0" height="31.6094" rx="2.5" ry="2.5" style="stroke:#181818;stroke-width:0.5;" width="118" x="125.5" y="822.8828"/><text fill="#000000" font-family="sans-serif" font-size="14" lengthAdjust="spacing" textLength="104" x="132.5" y="844.416">a MainController</text><rect fill="#E2E2F0" height="31.6094" rx="2.5" ry="2.5" style="stroke:#181818;stroke-width:0.5;" width="177" x="338.5" y="822.8828"/><text fill="#000000" font-family="sans-serif" font-size="14" lengthAdjust="spacing" textLength="163" x="345.5" y="844.416">an ExportPopupController</text><rect fill="#FFFFFF" height="28" style="stroke:#181818;stroke-width:1.0;" width="10" x="179.5" y="165.5703"/><rect fill="#FFFFFF" height="30.3516" style="stroke:#181818;stroke-width:1.0;" width="10" x="179.5" y="230.9219"/><rect fill="#FFFFFF" height="28" style="stroke:#181818;stroke-width:1.0;" width="10" x="422" y="311.8828"/><rect fill="#FFFFFF" height="35.3516" style="stroke:#181818;stroke-width:1.0;" width="10" x="422" y="385.2344"/><rect fill="#FFFFFF" height="28" style="stroke:#181818;stroke-width:1.0;" width="10" x="422" y="458.9375"/><rect fill="#FFFFFF" height="236.2422" style="stroke:#181818;stroke-width:1.0;" width="10" x="422" y="562.6406"/><rect fill="#FFFFFF" height="28" style="stroke:#181818;stroke-width:1.0;" width="10" x="427" y="631.3438"/><rect fill="#FFFFFF" height="28" style="stroke:#181818;stroke-width:1.0;" width="10" x="427" y="720.5313"/><polygon fill="#181818" points="113.5,110.9609,123.5,114.9609,113.5,118.9609,117.5,114.9609" style="stroke:#181818;stroke-width:1.0;"/><line style="stroke:#181818;stroke-width:1.0;" x1="28.5" x2="119.5" y1="114.9609" y2="114.9609"/><text fill="#000000" font-family="sans-serif" font-size="13" lengthAdjust="spacing" textLength="73" x="35.5" y="110.1045">apre Rubrica</text><rect fill="#E2E2F0" height="31.6094" rx="2.5" ry="2.5" style="stroke:#181818;stroke-width:0.5;" width="118" x="125.5" y="92.6094"/><text fill="#000000" font-family="sans-serif" font-size="14" lengthAdjust="spacing" textLength="104" x="132.5" y="114.1426">a MainController</text><line style="stroke:#181818;stroke-width:1.0;" x1="189.5" x2="231.5" y1="157.5703" y2="157.5703"/><line style="stroke:#181818;stroke-width:1.0;" x1="231.5" x2="231.5" y1="157.5703" y2="170.5703"/><line style="stroke:#181818;stroke-width:1.0;" x1="190.5" x2="231.5" y1="170.5703" y2="170.5703"/><polygon fill="#181818" points="200.5,166.5703,190.5,170.5703,200.5,174.5703,196.5,170.5703" style="stroke:#181818;stroke-width:1.0;"/><text fill="#000000" font-family="sans-serif" font-size="13" lengthAdjust="spacing" textLength="67" x="196.5" y="152.7139">initialize(...)</text><polygon fill="#181818" points="167.5,226.9219,177.5,230.9219,167.5,234.9219,171.5,230.9219" style="stroke:#181818;stroke-width:1.0;"/><line style="stroke:#181818;stroke-width:1.0;" x1="28.5" x2="173.5" y1="230.9219" y2="230.9219"/><text fill="#000000" font-family="sans-serif" font-size="13" lengthAdjust="spacing" textLength="93" x="35.5" y="226.0654">clicca "Esporta"</text><polygon fill="#181818" points="326.5,257.2734,336.5,261.2734,326.5,265.2734,330.5,261.2734" style="stroke:#181818;stroke-width:1.0;"/><line style="stroke:#181818;stroke-width:1.0;" x1="184.5" x2="332.5" y1="261.2734" y2="261.2734"/><text fill="#000000" font-family="sans-serif" font-size="13" lengthAdjust="spacing" textLength="125" x="191.5" y="256.417">showExportPopup(...)</text><rect fill="#E2E2F0" height="31.6094" rx="2.5" ry="2.5" style="stroke:#181818;stroke-width:0.5;" width="177" x="338.5" y="238.9219"/><text fill="#000000" font-family="sans-serif" font-size="14" lengthAdjust="spacing" textLength="163" x="345.5" y="260.4551">an ExportPopupController</text><line style="stroke:#181818;stroke-width:1.0;" x1="432" x2="474" y1="303.8828" y2="303.8828"/><line style="stroke:#181818;stroke-width:1.0;" x1="474" x2="474" y1="303.8828" y2="316.8828"/><line style="stroke:#181818;stroke-width:1.0;" x1="433" x2="474" y1="316.8828" y2="316.8828"/><polygon fill="#181818" points="443,312.8828,433,316.8828,443,320.8828,439,316.8828" style="stroke:#181818;stroke-width:1.0;"/><text fill="#000000" font-family="sans-serif" font-size="13" lengthAdjust="spacing" textLength="67" x="439" y="299.0264">initialize(...)</text><line style="stroke:#181818;stroke-width:1.0;" x1="427" x2="474" y1="372.2344" y2="372.2344"/><line style="stroke:#181818;stroke-width:1.0;" x1="474" x2="474" y1="372.2344" y2="385.2344"/><line style="stroke:#181818;stroke-width:1.0;" x1="433" x2="474" y1="385.2344" y2="385.2344"/><polygon fill="#181818" points="443,381.2344,433,385.2344,443,389.2344,439,385.2344" style="stroke:#181818;stroke-width:1.0;"/><text fill="#000000" font-family="sans-serif" font-size="13" lengthAdjust="spacing" textLength="89" x="439" y="367.3779">choosePath(...)</text><polygon fill="#181818" points="415,416.5859,425,420.5859,415,424.5859,419,420.5859" style="stroke:#181818;stroke-width:1.0;"/><line style="stroke:#181818;stroke-width:1.0;" x1="28.5" x2="421" y1="420.5859" y2="420.5859"/><text fill="#000000" font-family="sans-serif" font-size="13" lengthAdjust="spacing" textLength="136" x="35.5" y="415.7295">sceglie percorso del file</text><line style="stroke:#181818;stroke-width:1.0;" x1="432" x2="474" y1="450.9375" y2="450.9375"/><line style="stroke:#181818;stroke-width:1.0;" x1="474" x2="474" y1="450.9375" y2="463.9375"/><line style="stroke:#181818;stroke-width:1.0;" x1="433" x2="474" y1="463.9375" y2="463.9375"/><polygon fill="#181818" points="443,459.9375,433,463.9375,443,467.9375,439,463.9375" style="stroke:#181818;stroke-width:1.0;"/><text fill="#000000" font-family="sans-serif" font-size="13" lengthAdjust="spacing" textLength="120" x="439" y="446.0811">genera file .csv o .vcf</text><polygon fill="#181818" points="415,520.2891,425,524.2891,415,528.2891,419,524.2891" style="stroke:#181818;stroke-width:1.0;"/><line style="stroke:#181818;stroke-width:1.0;" x1="28.5" x2="421" y1="524.2891" y2="524.2891"/><text fill="#000000" font-family="sans-serif" font-size="13" lengthAdjust="spacing" textLength="167" x="35.5" y="519.4326">clicca sul pulsante "Esporta"</text><line style="stroke:#181818;stroke-width:1.0;" x1="427" x2="474" y1="549.6406" y2="549.6406"/><line style="stroke:#181818;stroke-width:1.0;" x1="474" x2="474" y1="549.6406" y2="562.6406"/><line style="stroke:#181818;stroke-width:1.0;" x1="433" x2="474" y1="562.6406" y2="562.6406"/><polygon fill="#181818" points="443,558.6406,433,562.6406,443,566.6406,439,562.6406" style="stroke:#181818;stroke-width:1.0;"/><text fill="#000000" font-family="sans-serif" font-size="13" lengthAdjust="spacing" textLength="72" x="439" y="544.7842">onExport(...)</text><path d="M328.5,582.6406 L389.5,582.6406 L389.5,590.9922 L379.5,600.9922 L328.5,600.9922 L328.5,582.6406 " fill="#EEEEEE" style="stroke:#000000;stroke-width:1.5;"/><rect fill="none" height="180.8906" style="stroke:#000000;stroke-width:1.5;" width="235.5" x="328.5" y="582.6406"/><text fill="#000000" font-family="sans-serif" font-size="13" font-weight="bold" lengthAdjust="spacing" textLength="16" x="343.5" y="597.1357">alt</text><text fill="#000000" font-family="sans-serif" font-size="11" font-weight="bold" lengthAdjust="spacing" textLength="122" x="404.5" y="596.0596">[utente ha scelto .csv]</text><line style="stroke:#181818;stroke-width:1.0;" x1="437" x2="479" y1="623.3438" y2="623.3438"/><line style="stroke:#181818;stroke-width:1.0;" x1="479" x2="479" y1="623.3438" y2="636.3438"/><line style="stroke:#181818;stroke-width:1.0;" x1="438" x2="479" y1="636.3438" y2="636.3438"/><polygon fill="#181818" points="448,632.3438,438,636.3438,448,640.3438,444,636.3438" style="stroke:#181818;stroke-width:1.0;"/><text fill="#000000" font-family="sans-serif" font-size="13" lengthAdjust="spacing" textLength="99" x="444" y="618.4873">onExportCSV(...)</text><line style="stroke:#000000;stroke-width:1.0;stroke-dasharray:2.0,2.0;" x1="328.5" x2="564" y1="675.3438" y2="675.3438"/><text fill="#000000" font-family="sans-serif" font-size="11" font-weight="bold" lengthAdjust="spacing" textLength="119" x="333.5" y="686.7627">[utente ha scelto .vcf]</text><line style="stroke:#181818;stroke-width:1.0;" x1="437" x2="479" y1="712.5313" y2="712.5313"/><line style="stroke:#181818;stroke-width:1.0;" x1="479" x2="479" y1="712.5313" y2="725.5313"/><line style="stroke:#181818;stroke-width:1.0;" x1="438" x2="479" y1="725.5313" y2="725.5313"/><polygon fill="#181818" points="448,721.5313,438,725.5313,448,729.5313,444,725.5313" style="stroke:#181818;stroke-width:1.0;"/><text fill="#000000" font-family="sans-serif" font-size="13" lengthAdjust="spacing" textLength="108" x="444" y="707.6748">onExportVCard(...)</text><line style="stroke:#181818;stroke-width:1.0;" x1="432" x2="474" y1="797.8828" y2="797.8828"/><line style="stroke:#181818;stroke-width:1.0;" x1="474" x2="474" y1="797.8828" y2="810.8828"/><line style="stroke:#181818;stroke-width:1.0;" x1="427" x2="474" y1="810.8828" y2="810.8828"/><polygon fill="#181818" points="437,806.8828,427,810.8828,437,814.8828,433,810.8828" style="stroke:#181818;stroke-width:1.0;"/><text fill="#000000" font-family="sans-serif" font-size="13" lengthAdjust="spacing" textLength="49" x="439" y="793.0264">salva file</text><line style="stroke:#A80036;stroke-width:2.0;" x1="418" x2="436" y1="796.8828" y2="814.8828"/><line style="stroke:#A80036;stroke-width:2.0;" x1="418" x2="436" y1="814.8828" y2="796.8828"/><!--SRC=[ZLBDQeGm4Bxx58EdTg4-W8TUnEE2j7JlqpYx1ePCIABzUVgQpPPL2RR79Dy_GHN4mLiW4wYmw89Msg89K28SKPj6J732JAu4z71iDY03xQSL5pgnezs0swufYYGDJyyp5mu7g06j8tWPtvrMMCoNwQa6RNJGoFgR7gggUYnG1JtXp9rDUrgULferADPA8PIjZqcmN36JmHmbcVj1FXQ9azDQFM9lb9rGiTo25uyheXf4F7KOXWpnNY21lQ8BQm9BJedp0Zqnd3NJhiM533cyug1IVWA1QbBdtOnRvzjsVcIm8tkCZ_SXLtPYqd2PFiW1ngGyO6p3GQwHyWhDw-dlDOazPKHZmQpegK7N_qFMz6k-HvxmTsm__z-l3Eq7]--></g></svg>