<?xml version="1.0" encoding="us-ascii" standalone="no"?><svg xmlns="http://www.w3.org/2000/svg" xmlns:xlink="http://www.w3.org/1999/xlink" contentStyleType="text/css" height="1288px" preserveAspectRatio="none" style="width:1485px;height:1288px;background:#FFFFFF;" version="1.1" viewBox="0 0 1485 1288" width="1485px" zoomAndPan="magnify"><defs/><g><!--class Contact--><g id="elem_Contact"><rect codeLine="6" fill="#F1F1F1" height="171.2656" id="Contact" rx="2.5" ry="2.5" style="stroke:#181818;stroke-width:0.5;" width="179" x="137" y="1002"/><ellipse cx="197.75" cy="1018" fill="#ADD1B2" rx="11" ry="11" style="stroke:#181818;stroke-width:1.0;"/><path d="M200.5156,1013.875 Q200.6719,1013.6563 200.8594,1013.5469 Q201.0469,1013.4375 201.2656,1013.4375 Q201.6406,1013.4375 201.875,1013.7031 Q202.1094,1013.9531 202.1094,1014.5625 L202.1094,1016.0156 Q202.1094,1016.625 201.875,1016.8906 Q201.6406,1017.1563 201.2656,1017.1563 Q200.9219,1017.1563 200.7188,1016.9531 Q200.5156,1016.7656 200.4063,1016.25 Q200.3594,1015.8906 200.1719,1015.7031 Q199.8438,1015.3281 199.2344,1015.1094 Q198.625,1014.8906 198,1014.8906 Q197.2344,1014.8906 196.5938,1015.2188 Q195.9688,1015.5469 195.4688,1016.2969 Q194.9844,1017.0469 194.9844,1018.0781 L194.9844,1019.1719 Q194.9844,1020.4063 195.875,1021.2344 Q196.7656,1022.0469 198.3594,1022.0469 Q199.2969,1022.0469 199.9531,1021.7969 Q200.3438,1021.6406 200.7656,1021.2031 Q201.0313,1020.9375 201.1719,1020.8594 Q201.3281,1020.7813 201.5313,1020.7813 Q201.8594,1020.7813 202.1094,1021.0469 Q202.375,1021.2969 202.375,1021.6406 Q202.375,1021.9844 202.0313,1022.3906 Q201.5313,1022.9688 200.7344,1023.2969 Q199.6563,1023.75 198.3594,1023.75 Q196.8438,1023.75 195.6406,1023.125 Q194.6563,1022.625 193.9688,1021.5625 Q193.2813,1020.4844 193.2813,1019.2031 L193.2813,1018.0469 Q193.2813,1016.7188 193.8906,1015.5781 Q194.5156,1014.4219 195.6094,1013.8125 Q196.7031,1013.1875 197.9375,1013.1875 Q198.6719,1013.1875 199.3125,1013.3594 Q199.9688,1013.5156 200.5156,1013.875 Z " fill="#000000"/><text fill="#000000" font-family="sans-serif" font-size="14" lengthAdjust="spacing" textLength="49" x="218.25" y="1023.7285">Contact</text><line style="stroke:#181818;stroke-width:0.5;" x1="138" x2="315" y1="1034" y2="1034"/><rect fill="none" height="6" style="stroke:#C82930;stroke-width:1.0;" width="6" x="145" y="1045.3047"/><text fill="#000000" font-family="sans-serif" font-size="14" lengthAdjust="spacing" textLength="76" x="157" y="1052.5332">String name</text><rect fill="none" height="6" style="stroke:#C82930;stroke-width:1.0;" width="6" x="145" y="1062.9141"/><text fill="#000000" font-family="sans-serif" font-size="14" lengthAdjust="spacing" textLength="96" x="157" y="1070.1426">String surname</text><rect fill="none" height="6" style="stroke:#C82930;stroke-width:1.0;" width="6" x="145" y="1080.5234"/><text fill="#000000" font-family="sans-serif" font-size="14" lengthAdjust="spacing" textLength="104" x="157" y="1087.752">String[] numbers</text><rect fill="none" height="6" style="stroke:#C82930;stroke-width:1.0;" width="6" x="145" y="1098.1328"/><text fill="#000000" font-family="sans-serif" font-size="14" lengthAdjust="spacing" textLength="89" x="157" y="1105.3613">String[] emails</text><rect fill="none" height="6" style="stroke:#C82930;stroke-width:1.0;" width="6" x="145" y="1115.7422"/><text fill="#000000" font-family="sans-serif" font-size="14" lengthAdjust="spacing" textLength="123" x="157" y="1122.9707">Byte[] profilePicture</text><rect fill="none" height="6" style="stroke:#C82930;stroke-width:1.0;" width="6" x="145" y="1133.3516"/><text fill="#000000" font-family="sans-serif" font-size="14" lengthAdjust="spacing" textLength="153" x="157" y="1140.5801">Set&lt;Integer&gt; tagIndexes</text><rect fill="none" height="6" style="stroke:#C82930;stroke-width:1.0;" width="6" x="145" y="1150.9609"/><text fill="#000000" font-family="sans-serif" font-size="14" lengthAdjust="spacing" textLength="30" x="157" y="1158.1895">int id</text><line style="stroke:#181818;stroke-width:0.5;" x1="138" x2="315" y1="1165.2656" y2="1165.2656"/></g><!--class AddressBook--><g id="elem_AddressBook"><rect codeLine="16" fill="#F1F1F1" height="241.7031" id="AddressBook" rx="2.5" ry="2.5" style="stroke:#181818;stroke-width:0.5;" width="243" x="7" y="326"/><ellipse cx="82.25" cy="342" fill="#ADD1B2" rx="11" ry="11" style="stroke:#181818;stroke-width:1.0;"/><path d="M85.0156,337.875 Q85.1719,337.6563 85.3594,337.5469 Q85.5469,337.4375 85.7656,337.4375 Q86.1406,337.4375 86.375,337.7031 Q86.6094,337.9531 86.6094,338.5625 L86.6094,340.0156 Q86.6094,340.625 86.375,340.8906 Q86.1406,341.1563 85.7656,341.1563 Q85.4219,341.1563 85.2188,340.9531 Q85.0156,340.7656 84.9063,340.25 Q84.8594,339.8906 84.6719,339.7031 Q84.3438,339.3281 83.7344,339.1094 Q83.125,338.8906 82.5,338.8906 Q81.7344,338.8906 81.0938,339.2188 Q80.4688,339.5469 79.9688,340.2969 Q79.4844,341.0469 79.4844,342.0781 L79.4844,343.1719 Q79.4844,344.4063 80.375,345.2344 Q81.2656,346.0469 82.8594,346.0469 Q83.7969,346.0469 84.4531,345.7969 Q84.8438,345.6406 85.2656,345.2031 Q85.5313,344.9375 85.6719,344.8594 Q85.8281,344.7813 86.0313,344.7813 Q86.3594,344.7813 86.6094,345.0469 Q86.875,345.2969 86.875,345.6406 Q86.875,345.9844 86.5313,346.3906 Q86.0313,346.9688 85.2344,347.2969 Q84.1563,347.75 82.8594,347.75 Q81.3438,347.75 80.1406,347.125 Q79.1563,346.625 78.4688,345.5625 Q77.7813,344.4844 77.7813,343.2031 L77.7813,342.0469 Q77.7813,340.7188 78.3906,339.5781 Q79.0156,338.4219 80.1094,337.8125 Q81.2031,337.1875 82.4375,337.1875 Q83.1719,337.1875 83.8125,337.3594 Q84.4688,337.5156 85.0156,337.875 Z " fill="#000000"/><text fill="#000000" font-family="sans-serif" font-size="14" lengthAdjust="spacing" textLength="84" x="102.75" y="347.7285">AddressBook</text><line style="stroke:#181818;stroke-width:0.5;" x1="8" x2="249" y1="358" y2="358"/><rect fill="none" height="6" style="stroke:#C82930;stroke-width:1.0;" width="6" x="15" y="369.3047"/><text fill="#000000" font-family="sans-serif" font-size="14" lengthAdjust="spacing" text-decoration="underline" textLength="141" x="27" y="376.5332">AddressBook instance</text><rect fill="none" height="6" style="stroke:#C82930;stroke-width:1.0;" width="6" x="15" y="386.9141"/><text fill="#000000" font-family="sans-serif" font-size="14" lengthAdjust="spacing" textLength="217" x="27" y="394.1426">ObservableList&lt;Contact&gt; contacts</text><rect fill="none" height="6" style="stroke:#C82930;stroke-width:1.0;" width="6" x="15" y="404.5234"/><text fill="#000000" font-family="sans-serif" font-size="14" lengthAdjust="spacing" textLength="178" x="27" y="411.752">ObservableSet&lt;String&gt; tags</text><rect fill="none" height="6" style="stroke:#C82930;stroke-width:1.0;" width="6" x="15" y="422.1328"/><text fill="#000000" font-family="sans-serif" font-size="14" lengthAdjust="spacing" textLength="74" x="27" y="429.3613">String dbUrl</text><rect fill="none" height="6" style="stroke:#C82930;stroke-width:1.0;" width="6" x="15" y="439.7422"/><text fill="#000000" font-family="sans-serif" font-size="14" lengthAdjust="spacing" textLength="81" x="27" y="446.9707">Database db</text><line style="stroke:#181818;stroke-width:0.5;" x1="8" x2="249" y1="454.0469" y2="454.0469"/><ellipse cx="18" cy="468.3516" fill="#84BE84" rx="3" ry="3" style="stroke:#038048;stroke-width:1.0;"/><text fill="#000000" font-family="sans-serif" font-size="14" lengthAdjust="spacing" textLength="111" x="27" y="472.5801">void saveConfig()</text><ellipse cx="18" cy="485.9609" fill="#84BE84" rx="3" ry="3" style="stroke:#038048;stroke-width:1.0;"/><text fill="#000000" font-family="sans-serif" font-size="14" lengthAdjust="spacing" textLength="108" x="27" y="490.1895">void loadConfig()</text><ellipse cx="18" cy="503.5703" fill="#84BE84" rx="3" ry="3" style="stroke:#038048;stroke-width:1.0;"/><text fill="#000000" font-family="sans-serif" font-size="14" lengthAdjust="spacing" textLength="96" x="27" y="507.7988">void saveOBJ()</text><ellipse cx="18" cy="521.1797" fill="#84BE84" rx="3" ry="3" style="stroke:#038048;stroke-width:1.0;"/><text fill="#000000" font-family="sans-serif" font-size="14" lengthAdjust="spacing" textLength="151" x="27" y="525.4082">AddressBook loadOBJ()</text><ellipse cx="18" cy="538.7891" fill="#84BE84" rx="3" ry="3" style="stroke:#038048;stroke-width:1.0;"/><text fill="#000000" font-family="sans-serif" font-size="14" lengthAdjust="spacing" textLength="106" x="27" y="543.0176">void saveToDB()</text><ellipse cx="18" cy="556.3984" fill="#84BE84" rx="3" ry="3" style="stroke:#038048;stroke-width:1.0;"/><text fill="#000000" font-family="sans-serif" font-size="14" lengthAdjust="spacing" textLength="177" x="27" y="560.627">AddressBook loadFromDB()</text></g><!--class MainController--><g id="elem_MainController"><rect codeLine="31" fill="#F1F1F1" height="259.3125" id="MainController" rx="2.5" ry="2.5" style="stroke:#181818;stroke-width:0.5;" width="222" x="899.5" y="7"/><ellipse cx="960.25" cy="23" fill="#ADD1B2" rx="11" ry="11" style="stroke:#181818;stroke-width:1.0;"/><path d="M963.0156,18.875 Q963.1719,18.6563 963.3594,18.5469 Q963.5469,18.4375 963.7656,18.4375 Q964.1406,18.4375 964.375,18.7031 Q964.6094,18.9531 964.6094,19.5625 L964.6094,21.0156 Q964.6094,21.625 964.375,21.8906 Q964.1406,22.1563 963.7656,22.1563 Q963.4219,22.1563 963.2188,21.9531 Q963.0156,21.7656 962.9063,21.25 Q962.8594,20.8906 962.6719,20.7031 Q962.3438,20.3281 961.7344,20.1094 Q961.125,19.8906 960.5,19.8906 Q959.7344,19.8906 959.0938,20.2188 Q958.4688,20.5469 957.9688,21.2969 Q957.4844,22.0469 957.4844,23.0781 L957.4844,24.1719 Q957.4844,25.4063 958.375,26.2344 Q959.2656,27.0469 960.8594,27.0469 Q961.7969,27.0469 962.4531,26.7969 Q962.8438,26.6406 963.2656,26.2031 Q963.5313,25.9375 963.6719,25.8594 Q963.8281,25.7813 964.0313,25.7813 Q964.3594,25.7813 964.6094,26.0469 Q964.875,26.2969 964.875,26.6406 Q964.875,26.9844 964.5313,27.3906 Q964.0313,27.9688 963.2344,28.2969 Q962.1563,28.75 960.8594,28.75 Q959.3438,28.75 958.1406,28.125 Q957.1563,27.625 956.4688,26.5625 Q955.7813,25.4844 955.7813,24.2031 L955.7813,23.0469 Q955.7813,21.7188 956.3906,20.5781 Q957.0156,19.4219 958.1094,18.8125 Q959.2031,18.1875 960.4375,18.1875 Q961.1719,18.1875 961.8125,18.3594 Q962.4688,18.5156 963.0156,18.875 Z " fill="#000000"/><text fill="#000000" font-family="sans-serif" font-size="14" lengthAdjust="spacing" textLength="92" x="980.75" y="28.7285">MainController</text><line style="stroke:#181818;stroke-width:0.5;" x1="900.5" x2="1120.5" y1="39" y2="39"/><rect fill="none" height="6" style="stroke:#C82930;stroke-width:1.0;" width="6" x="907.5" y="50.3047"/><text fill="#000000" font-family="sans-serif" font-size="14" lengthAdjust="spacing" textLength="171" x="919.5" y="57.5332">AddressBook addressBook</text><line style="stroke:#181818;stroke-width:0.5;" x1="900.5" x2="1120.5" y1="64.6094" y2="64.6094"/><rect fill="#F24D5C" height="6" style="stroke:#C82930;stroke-width:1.0;" width="6" x="907.5" y="75.9141"/><text fill="#000000" font-family="sans-serif" font-size="14" lengthAdjust="spacing" textLength="130" x="919.5" y="83.1426">void onAddContact()</text><rect fill="#F24D5C" height="6" style="stroke:#C82930;stroke-width:1.0;" width="6" x="907.5" y="93.5234"/><text fill="#000000" font-family="sans-serif" font-size="14" lengthAdjust="spacing" textLength="151" x="919.5" y="100.752">void onContactClicked()</text><rect fill="#F24D5C" height="6" style="stroke:#C82930;stroke-width:1.0;" width="6" x="907.5" y="111.1328"/><text fill="#000000" font-family="sans-serif" font-size="14" lengthAdjust="spacing" textLength="137" x="919.5" y="118.3613">void onSaveContact()</text><rect fill="#F24D5C" height="6" style="stroke:#C82930;stroke-width:1.0;" width="6" x="907.5" y="128.7422"/><text fill="#000000" font-family="sans-serif" font-size="14" lengthAdjust="spacing" textLength="146" x="919.5" y="135.9707">void onModifyContact()</text><rect fill="#F24D5C" height="6" style="stroke:#C82930;stroke-width:1.0;" width="6" x="907.5" y="146.3516"/><text fill="#000000" font-family="sans-serif" font-size="14" lengthAdjust="spacing" textLength="157" x="919.5" y="153.5801">void onRemoveContact()</text><rect fill="#F24D5C" height="6" style="stroke:#C82930;stroke-width:1.0;" width="6" x="907.5" y="163.9609"/><text fill="#000000" font-family="sans-serif" font-size="14" lengthAdjust="spacing" textLength="100" x="919.5" y="171.1895">void onCancel()</text><rect fill="#F24D5C" height="6" style="stroke:#C82930;stroke-width:1.0;" width="6" x="907.5" y="181.5703"/><text fill="#000000" font-family="sans-serif" font-size="14" lengthAdjust="spacing" textLength="152" x="919.5" y="188.7988">void showImportPopup()</text><rect fill="#F24D5C" height="6" style="stroke:#C82930;stroke-width:1.0;" width="6" x="907.5" y="199.1797"/><text fill="#000000" font-family="sans-serif" font-size="14" lengthAdjust="spacing" textLength="153" x="919.5" y="206.4082">void showExportPopup()</text><rect fill="#F24D5C" height="6" style="stroke:#C82930;stroke-width:1.0;" width="6" x="907.5" y="216.7891"/><text fill="#000000" font-family="sans-serif" font-size="14" lengthAdjust="spacing" textLength="154" x="919.5" y="224.0176">void showConfigPopup()</text><rect fill="#F24D5C" height="6" style="stroke:#C82930;stroke-width:1.0;" width="6" x="907.5" y="234.3984"/><text fill="#000000" font-family="sans-serif" font-size="14" lengthAdjust="spacing" textLength="151" x="919.5" y="241.627">void showImagePopup()</text><rect fill="#F24D5C" height="6" style="stroke:#C82930;stroke-width:1.0;" width="6" x="907.5" y="252.0078"/><text fill="#000000" font-family="sans-serif" font-size="14" lengthAdjust="spacing" textLength="196" x="919.5" y="259.2363">void showManageTagsPopup()</text></g><!--class Converter--><g id="elem_Converter"><rect codeLine="47" fill="#F1F1F1" height="118.4375" id="Converter" rx="2.5" ry="2.5" style="stroke:#181818;stroke-width:0.5;" width="243" x="823" y="824"/><ellipse cx="908.75" cy="840" fill="#ADD1B2" rx="11" ry="11" style="stroke:#181818;stroke-width:1.0;"/><path d="M911.5156,835.875 Q911.6719,835.6563 911.8594,835.5469 Q912.0469,835.4375 912.2656,835.4375 Q912.6406,835.4375 912.875,835.7031 Q913.1094,835.9531 913.1094,836.5625 L913.1094,838.0156 Q913.1094,838.625 912.875,838.8906 Q912.6406,839.1563 912.2656,839.1563 Q911.9219,839.1563 911.7188,838.9531 Q911.5156,838.7656 911.4063,838.25 Q911.3594,837.8906 911.1719,837.7031 Q910.8438,837.3281 910.2344,837.1094 Q909.625,836.8906 909,836.8906 Q908.2344,836.8906 907.5938,837.2188 Q906.9688,837.5469 906.4688,838.2969 Q905.9844,839.0469 905.9844,840.0781 L905.9844,841.1719 Q905.9844,842.4063 906.875,843.2344 Q907.7656,844.0469 909.3594,844.0469 Q910.2969,844.0469 910.9531,843.7969 Q911.3438,843.6406 911.7656,843.2031 Q912.0313,842.9375 912.1719,842.8594 Q912.3281,842.7813 912.5313,842.7813 Q912.8594,842.7813 913.1094,843.0469 Q913.375,843.2969 913.375,843.6406 Q913.375,843.9844 913.0313,844.3906 Q912.5313,844.9688 911.7344,845.2969 Q910.6563,845.75 909.3594,845.75 Q907.8438,845.75 906.6406,845.125 Q905.6563,844.625 904.9688,843.5625 Q904.2813,842.4844 904.2813,841.2031 L904.2813,840.0469 Q904.2813,838.7188 904.8906,837.5781 Q905.5156,836.4219 906.6094,835.8125 Q907.7031,835.1875 908.9375,835.1875 Q909.6719,835.1875 910.3125,835.3594 Q910.9688,835.5156 911.5156,835.875 Z " fill="#000000"/><text fill="#000000" font-family="sans-serif" font-size="14" lengthAdjust="spacing" textLength="63" x="929.25" y="845.7285">Converter</text><line style="stroke:#181818;stroke-width:0.5;" x1="824" x2="1065" y1="856" y2="856"/><line style="stroke:#181818;stroke-width:0.5;" x1="824" x2="1065" y1="864" y2="864"/><ellipse cx="834" cy="878.3047" fill="#84BE84" rx="3" ry="3" style="stroke:#038048;stroke-width:1.0;"/><text fill="#000000" font-family="sans-serif" font-size="14" lengthAdjust="spacing" text-decoration="underline" textLength="205" x="843" y="882.5332">Collection&lt;Contact&gt; parseCSV()</text><ellipse cx="834" cy="895.9141" fill="#84BE84" rx="3" ry="3" style="stroke:#038048;stroke-width:1.0;"/><text fill="#000000" font-family="sans-serif" font-size="14" lengthAdjust="spacing" text-decoration="underline" textLength="217" x="843" y="900.1426">Collection&lt;Contact&gt; parseVCard()</text><ellipse cx="834" cy="913.5234" fill="#84BE84" rx="3" ry="3" style="stroke:#038048;stroke-width:1.0;"/><text fill="#000000" font-family="sans-serif" font-size="14" lengthAdjust="spacing" text-decoration="underline" textLength="124" x="843" y="917.752">void onExportCSV()</text><ellipse cx="834" cy="931.1328" fill="#84BE84" rx="3" ry="3" style="stroke:#038048;stroke-width:1.0;"/><text fill="#000000" font-family="sans-serif" font-size="14" lengthAdjust="spacing" text-decoration="underline" textLength="136" x="843" y="935.3613">void onExportVCard()</text></g><!--class ImportPopupController--><g id="elem_ImportPopupController"><rect codeLine="54" fill="#F1F1F1" height="83.2188" id="ImportPopupController" rx="2.5" ry="2.5" style="stroke:#181818;stroke-width:0.5;" width="237" x="1030" y="405.5"/><ellipse cx="1073.35" cy="421.5" fill="#ADD1B2" rx="11" ry="11" style="stroke:#181818;stroke-width:1.0;"/><path d="M1076.1156,417.375 Q1076.2719,417.1563 1076.4594,417.0469 Q1076.6469,416.9375 1076.8656,416.9375 Q1077.2406,416.9375 1077.475,417.2031 Q1077.7094,417.4531 1077.7094,418.0625 L1077.7094,419.5156 Q1077.7094,420.125 1077.475,420.3906 Q1077.2406,420.6563 1076.8656,420.6563 Q1076.5219,420.6563 1076.3188,420.4531 Q1076.1156,420.2656 1076.0063,419.75 Q1075.9594,419.3906 1075.7719,419.2031 Q1075.4438,418.8281 1074.8344,418.6094 Q1074.225,418.3906 1073.6,418.3906 Q1072.8344,418.3906 1072.1938,418.7188 Q1071.5688,419.0469 1071.0688,419.7969 Q1070.5844,420.5469 1070.5844,421.5781 L1070.5844,422.6719 Q1070.5844,423.9063 1071.475,424.7344 Q1072.3656,425.5469 1073.9594,425.5469 Q1074.8969,425.5469 1075.5531,425.2969 Q1075.9438,425.1406 1076.3656,424.7031 Q1076.6313,424.4375 1076.7719,424.3594 Q1076.9281,424.2813 1077.1313,424.2813 Q1077.4594,424.2813 1077.7094,424.5469 Q1077.975,424.7969 1077.975,425.1406 Q1077.975,425.4844 1077.6313,425.8906 Q1077.1313,426.4688 1076.3344,426.7969 Q1075.2563,427.25 1073.9594,427.25 Q1072.4438,427.25 1071.2406,426.625 Q1070.2563,426.125 1069.5688,425.0625 Q1068.8813,423.9844 1068.8813,422.7031 L1068.8813,421.5469 Q1068.8813,420.2188 1069.4906,419.0781 Q1070.1156,417.9219 1071.2094,417.3125 Q1072.3031,416.6875 1073.5375,416.6875 Q1074.2719,416.6875 1074.9125,416.8594 Q1075.5688,417.0156 1076.1156,417.375 Z " fill="#000000"/><text fill="#000000" font-family="sans-serif" font-size="14" lengthAdjust="spacing" textLength="142" x="1093.65" y="427.2285">ImportPopupController</text><line style="stroke:#181818;stroke-width:0.5;" x1="1031" x2="1266" y1="437.5" y2="437.5"/><rect fill="none" height="6" style="stroke:#C82930;stroke-width:1.0;" width="6" x="1038" y="448.8047"/><text fill="#000000" font-family="sans-serif" font-size="14" lengthAdjust="spacing" textLength="211" x="1050" y="456.0332">ContactManager contactManager</text><line style="stroke:#181818;stroke-width:0.5;" x1="1031" x2="1266" y1="463.1094" y2="463.1094"/><rect fill="#F24D5C" height="6" style="stroke:#C82930;stroke-width:1.0;" width="6" x="1038" y="474.4141"/><text fill="#000000" font-family="sans-serif" font-size="14" lengthAdjust="spacing" textLength="95" x="1050" y="481.6426">void onImport()</text></g><!--class ExportPopupController--><g id="elem_ExportPopupController"><rect codeLine="59" fill="#F1F1F1" height="100.8281" id="ExportPopupController" rx="2.5" ry="2.5" style="stroke:#181818;stroke-width:0.5;" width="237" x="758" y="396.5"/><ellipse cx="800.9" cy="412.5" fill="#ADD1B2" rx="11" ry="11" style="stroke:#181818;stroke-width:1.0;"/><path d="M803.6656,408.375 Q803.8219,408.1563 804.0094,408.0469 Q804.1969,407.9375 804.4156,407.9375 Q804.7906,407.9375 805.025,408.2031 Q805.2594,408.4531 805.2594,409.0625 L805.2594,410.5156 Q805.2594,411.125 805.025,411.3906 Q804.7906,411.6563 804.4156,411.6563 Q804.0719,411.6563 803.8688,411.4531 Q803.6656,411.2656 803.5563,410.75 Q803.5094,410.3906 803.3219,410.2031 Q802.9938,409.8281 802.3844,409.6094 Q801.775,409.3906 801.15,409.3906 Q800.3844,409.3906 799.7438,409.7188 Q799.1188,410.0469 798.6188,410.7969 Q798.1344,411.5469 798.1344,412.5781 L798.1344,413.6719 Q798.1344,414.9063 799.025,415.7344 Q799.9156,416.5469 801.5094,416.5469 Q802.4469,416.5469 803.1031,416.2969 Q803.4938,416.1406 803.9156,415.7031 Q804.1813,415.4375 804.3219,415.3594 Q804.4781,415.2813 804.6813,415.2813 Q805.0094,415.2813 805.2594,415.5469 Q805.525,415.7969 805.525,416.1406 Q805.525,416.4844 805.1813,416.8906 Q804.6813,417.4688 803.8844,417.7969 Q802.8063,418.25 801.5094,418.25 Q799.9938,418.25 798.7906,417.625 Q797.8063,417.125 797.1188,416.0625 Q796.4313,414.9844 796.4313,413.7031 L796.4313,412.5469 Q796.4313,411.2188 797.0406,410.0781 Q797.6656,408.9219 798.7594,408.3125 Q799.8531,407.6875 801.0875,407.6875 Q801.8219,407.6875 802.4625,407.8594 Q803.1188,408.0156 803.6656,408.375 Z " fill="#000000"/><text fill="#000000" font-family="sans-serif" font-size="14" lengthAdjust="spacing" textLength="143" x="821.1" y="418.2285">ExportPopupController</text><line style="stroke:#181818;stroke-width:0.5;" x1="759" x2="994" y1="428.5" y2="428.5"/><rect fill="none" height="6" style="stroke:#C82930;stroke-width:1.0;" width="6" x="766" y="439.8047"/><text fill="#000000" font-family="sans-serif" font-size="14" lengthAdjust="spacing" textLength="211" x="778" y="447.0332">ContactManager contactManager</text><rect fill="none" height="6" style="stroke:#C82930;stroke-width:1.0;" width="6" x="766" y="457.4141"/><text fill="#000000" font-family="sans-serif" font-size="14" lengthAdjust="spacing" textLength="161" x="778" y="464.6426">TagManager tagManager</text><line style="stroke:#181818;stroke-width:0.5;" x1="759" x2="994" y1="471.7188" y2="471.7188"/><rect fill="#F24D5C" height="6" style="stroke:#C82930;stroke-width:1.0;" width="6" x="766" y="483.0234"/><text fill="#000000" font-family="sans-serif" font-size="14" lengthAdjust="spacing" textLength="96" x="778" y="490.252">void onExport()</text></g><!--class ManageTagsPopupController--><g id="elem_ManageTagsPopupController"><rect codeLine="65" fill="#F1F1F1" height="118.4375" id="ManageTagsPopupController" rx="2.5" ry="2.5" style="stroke:#181818;stroke-width:0.5;" width="218" x="285.5" y="388"/><ellipse cx="300.5" cy="404" fill="#ADD1B2" rx="11" ry="11" style="stroke:#181818;stroke-width:1.0;"/><path d="M303.2656,399.875 Q303.4219,399.6563 303.6094,399.5469 Q303.7969,399.4375 304.0156,399.4375 Q304.3906,399.4375 304.625,399.7031 Q304.8594,399.9531 304.8594,400.5625 L304.8594,402.0156 Q304.8594,402.625 304.625,402.8906 Q304.3906,403.1563 304.0156,403.1563 Q303.6719,403.1563 303.4688,402.9531 Q303.2656,402.7656 303.1563,402.25 Q303.1094,401.8906 302.9219,401.7031 Q302.5938,401.3281 301.9844,401.1094 Q301.375,400.8906 300.75,400.8906 Q299.9844,400.8906 299.3438,401.2188 Q298.7188,401.5469 298.2188,402.2969 Q297.7344,403.0469 297.7344,404.0781 L297.7344,405.1719 Q297.7344,406.4063 298.625,407.2344 Q299.5156,408.0469 301.1094,408.0469 Q302.0469,408.0469 302.7031,407.7969 Q303.0938,407.6406 303.5156,407.2031 Q303.7813,406.9375 303.9219,406.8594 Q304.0781,406.7813 304.2813,406.7813 Q304.6094,406.7813 304.8594,407.0469 Q305.125,407.2969 305.125,407.6406 Q305.125,407.9844 304.7813,408.3906 Q304.2813,408.9688 303.4844,409.2969 Q302.4063,409.75 301.1094,409.75 Q299.5938,409.75 298.3906,409.125 Q297.4063,408.625 296.7188,407.5625 Q296.0313,406.4844 296.0313,405.2031 L296.0313,404.0469 Q296.0313,402.7188 296.6406,401.5781 Q297.2656,400.4219 298.3594,399.8125 Q299.4531,399.1875 300.6875,399.1875 Q301.4219,399.1875 302.0625,399.3594 Q302.7188,399.5156 303.2656,399.875 Z " fill="#000000"/><text fill="#000000" font-family="sans-serif" font-size="14" lengthAdjust="spacing" textLength="186" x="314.5" y="409.7285">ManageTagsPopupController</text><line style="stroke:#181818;stroke-width:0.5;" x1="286.5" x2="502.5" y1="420" y2="420"/><rect fill="none" height="6" style="stroke:#C82930;stroke-width:1.0;" width="6" x="293.5" y="431.3047"/><text fill="#000000" font-family="sans-serif" font-size="14" lengthAdjust="spacing" textLength="161" x="305.5" y="438.5332">TagManager tagManager</text><line style="stroke:#181818;stroke-width:0.5;" x1="286.5" x2="502.5" y1="445.6094" y2="445.6094"/><rect fill="#F24D5C" height="6" style="stroke:#C82930;stroke-width:1.0;" width="6" x="293.5" y="456.9141"/><text fill="#000000" font-family="sans-serif" font-size="14" lengthAdjust="spacing" textLength="81" x="305.5" y="464.1426">void onAdd()</text><rect fill="#F24D5C" height="6" style="stroke:#C82930;stroke-width:1.0;" width="6" x="293.5" y="474.5234"/><text fill="#000000" font-family="sans-serif" font-size="14" lengthAdjust="spacing" textLength="101" x="305.5" y="481.752">void onUpdate()</text><rect fill="#F24D5C" height="6" style="stroke:#C82930;stroke-width:1.0;" width="6" x="293.5" y="492.1328"/><text fill="#000000" font-family="sans-serif" font-size="14" lengthAdjust="spacing" textLength="97" x="305.5" y="499.3613">void onDelete()</text></g><!--class ImagePopupController--><g id="elem_ImagePopupController"><rect codeLine="72" fill="#F1F1F1" height="65.6094" id="ImagePopupController" rx="2.5" ry="2.5" style="stroke:#181818;stroke-width:0.5;" width="176" x="1302.5" y="414"/><ellipse cx="1318.85" cy="430" fill="#ADD1B2" rx="11" ry="11" style="stroke:#181818;stroke-width:1.0;"/><path d="M1321.6156,425.875 Q1321.7719,425.6563 1321.9594,425.5469 Q1322.1469,425.4375 1322.3656,425.4375 Q1322.7406,425.4375 1322.975,425.7031 Q1323.2094,425.9531 1323.2094,426.5625 L1323.2094,428.0156 Q1323.2094,428.625 1322.975,428.8906 Q1322.7406,429.1563 1322.3656,429.1563 Q1322.0219,429.1563 1321.8188,428.9531 Q1321.6156,428.7656 1321.5063,428.25 Q1321.4594,427.8906 1321.2719,427.7031 Q1320.9438,427.3281 1320.3344,427.1094 Q1319.725,426.8906 1319.1,426.8906 Q1318.3344,426.8906 1317.6938,427.2188 Q1317.0688,427.5469 1316.5688,428.2969 Q1316.0844,429.0469 1316.0844,430.0781 L1316.0844,431.1719 Q1316.0844,432.4063 1316.975,433.2344 Q1317.8656,434.0469 1319.4594,434.0469 Q1320.3969,434.0469 1321.0531,433.7969 Q1321.4438,433.6406 1321.8656,433.2031 Q1322.1313,432.9375 1322.2719,432.8594 Q1322.4281,432.7813 1322.6313,432.7813 Q1322.9594,432.7813 1323.2094,433.0469 Q1323.475,433.2969 1323.475,433.6406 Q1323.475,433.9844 1323.1313,434.3906 Q1322.6313,434.9688 1321.8344,435.2969 Q1320.7563,435.75 1319.4594,435.75 Q1317.9438,435.75 1316.7406,435.125 Q1315.7563,434.625 1315.0688,433.5625 Q1314.3813,432.4844 1314.3813,431.2031 L1314.3813,430.0469 Q1314.3813,428.7188 1314.9906,427.5781 Q1315.6156,426.4219 1316.7094,425.8125 Q1317.8031,425.1875 1319.0375,425.1875 Q1319.7719,425.1875 1320.4125,425.3594 Q1321.0688,425.5156 1321.6156,425.875 Z " fill="#000000"/><text fill="#000000" font-family="sans-serif" font-size="14" lengthAdjust="spacing" textLength="141" x="1333.15" y="435.7285">ImagePopupController</text><line style="stroke:#181818;stroke-width:0.5;" x1="1303.5" x2="1477.5" y1="446" y2="446"/><line style="stroke:#181818;stroke-width:0.5;" x1="1303.5" x2="1477.5" y1="454" y2="454"/><ellipse cx="1313.5" cy="468.3047" fill="#84BE84" rx="3" ry="3" style="stroke:#038048;stroke-width:1.0;"/><text fill="#000000" font-family="sans-serif" font-size="14" lengthAdjust="spacing" textLength="150" x="1322.5" y="472.5332">File getSelectedImage()</text></g><!--class ConfirmPopupController--><g id="elem_ConfirmPopupController"><rect codeLine="76" fill="#F1F1F1" height="83.2188" id="ConfirmPopupController" rx="2.5" ry="2.5" style="stroke:#181818;stroke-width:0.5;" width="184" x="538.5" y="405.5"/><ellipse cx="553.5" cy="421.5" fill="#ADD1B2" rx="11" ry="11" style="stroke:#181818;stroke-width:1.0;"/><path d="M556.2656,417.375 Q556.4219,417.1563 556.6094,417.0469 Q556.7969,416.9375 557.0156,416.9375 Q557.3906,416.9375 557.625,417.2031 Q557.8594,417.4531 557.8594,418.0625 L557.8594,419.5156 Q557.8594,420.125 557.625,420.3906 Q557.3906,420.6563 557.0156,420.6563 Q556.6719,420.6563 556.4688,420.4531 Q556.2656,420.2656 556.1563,419.75 Q556.1094,419.3906 555.9219,419.2031 Q555.5938,418.8281 554.9844,418.6094 Q554.375,418.3906 553.75,418.3906 Q552.9844,418.3906 552.3438,418.7188 Q551.7188,419.0469 551.2188,419.7969 Q550.7344,420.5469 550.7344,421.5781 L550.7344,422.6719 Q550.7344,423.9063 551.625,424.7344 Q552.5156,425.5469 554.1094,425.5469 Q555.0469,425.5469 555.7031,425.2969 Q556.0938,425.1406 556.5156,424.7031 Q556.7813,424.4375 556.9219,424.3594 Q557.0781,424.2813 557.2813,424.2813 Q557.6094,424.2813 557.8594,424.5469 Q558.125,424.7969 558.125,425.1406 Q558.125,425.4844 557.7813,425.8906 Q557.2813,426.4688 556.4844,426.7969 Q555.4063,427.25 554.1094,427.25 Q552.5938,427.25 551.3906,426.625 Q550.4063,426.125 549.7188,425.0625 Q549.0313,423.9844 549.0313,422.7031 L549.0313,421.5469 Q549.0313,420.2188 549.6406,419.0781 Q550.2656,417.9219 551.3594,417.3125 Q552.4531,416.6875 553.6875,416.6875 Q554.4219,416.6875 555.0625,416.8594 Q555.7188,417.0156 556.2656,417.375 Z " fill="#000000"/><text fill="#000000" font-family="sans-serif" font-size="14" lengthAdjust="spacing" textLength="152" x="567.5" y="427.2285">ConfirmPopupController</text><line style="stroke:#181818;stroke-width:0.5;" x1="539.5" x2="721.5" y1="437.5" y2="437.5"/><line style="stroke:#181818;stroke-width:0.5;" x1="539.5" x2="721.5" y1="445.5" y2="445.5"/><ellipse cx="549.5" cy="459.8047" fill="#84BE84" rx="3" ry="3" style="stroke:#038048;stroke-width:1.0;"/><text fill="#000000" font-family="sans-serif" font-size="14" lengthAdjust="spacing" textLength="75" x="558.5" y="464.0332">onConfirm()</text><ellipse cx="549.5" cy="477.4141" fill="#84BE84" rx="3" ry="3" style="stroke:#038048;stroke-width:1.0;"/><text fill="#000000" font-family="sans-serif" font-size="14" lengthAdjust="spacing" textLength="70" x="558.5" y="481.6426">onCancel()</text></g><!--class ConfigPopupController--><g id="elem_ConfigPopupController"><rect codeLine="81" fill="#F1F1F1" height="100.8281" id="ConfigPopupController" rx="2.5" ry="2.5" style="stroke:#181818;stroke-width:0.5;" width="197" x="30" y="86"/><ellipse cx="54.45" cy="102" fill="#ADD1B2" rx="11" ry="11" style="stroke:#181818;stroke-width:1.0;"/><path d="M57.2156,97.875 Q57.3719,97.6563 57.5594,97.5469 Q57.7469,97.4375 57.9656,97.4375 Q58.3406,97.4375 58.575,97.7031 Q58.8094,97.9531 58.8094,98.5625 L58.8094,100.0156 Q58.8094,100.625 58.575,100.8906 Q58.3406,101.1563 57.9656,101.1563 Q57.6219,101.1563 57.4188,100.9531 Q57.2156,100.7656 57.1063,100.25 Q57.0594,99.8906 56.8719,99.7031 Q56.5438,99.3281 55.9344,99.1094 Q55.325,98.8906 54.7,98.8906 Q53.9344,98.8906 53.2938,99.2188 Q52.6688,99.5469 52.1688,100.2969 Q51.6844,101.0469 51.6844,102.0781 L51.6844,103.1719 Q51.6844,104.4063 52.575,105.2344 Q53.4656,106.0469 55.0594,106.0469 Q55.9969,106.0469 56.6531,105.7969 Q57.0438,105.6406 57.4656,105.2031 Q57.7313,104.9375 57.8719,104.8594 Q58.0281,104.7813 58.2313,104.7813 Q58.5594,104.7813 58.8094,105.0469 Q59.075,105.2969 59.075,105.6406 Q59.075,105.9844 58.7313,106.3906 Q58.2313,106.9688 57.4344,107.2969 Q56.3563,107.75 55.0594,107.75 Q53.5438,107.75 52.3406,107.125 Q51.3563,106.625 50.6688,105.5625 Q49.9813,104.4844 49.9813,103.2031 L49.9813,102.0469 Q49.9813,100.7188 50.5906,99.5781 Q51.2156,98.4219 52.3094,97.8125 Q53.4031,97.1875 54.6375,97.1875 Q55.3719,97.1875 56.0125,97.3594 Q56.6688,97.5156 57.2156,97.875 Z " fill="#000000"/><text fill="#000000" font-family="sans-serif" font-size="14" lengthAdjust="spacing" textLength="144" x="70.55" y="107.7285">ConfigPopupController</text><line style="stroke:#181818;stroke-width:0.5;" x1="31" x2="226" y1="118" y2="118"/><rect fill="none" height="6" style="stroke:#C82930;stroke-width:1.0;" width="6" x="38" y="129.3047"/><text fill="#000000" font-family="sans-serif" font-size="14" lengthAdjust="spacing" textLength="171" x="50" y="136.5332">AddressBook addressBook</text><line style="stroke:#181818;stroke-width:0.5;" x1="31" x2="226" y1="143.6094" y2="143.6094"/><rect fill="#F24D5C" height="6" style="stroke:#C82930;stroke-width:1.0;" width="6" x="38" y="154.9141"/><text fill="#000000" font-family="sans-serif" font-size="14" lengthAdjust="spacing" textLength="92" x="50" y="162.1426">void onVerify()</text><rect fill="#F24D5C" height="6" style="stroke:#C82930;stroke-width:1.0;" width="6" x="38" y="172.5234"/><text fill="#000000" font-family="sans-serif" font-size="14" lengthAdjust="spacing" textLength="105" x="50" y="179.752">void onConfirm()</text></g><!--class Tag--><g id="elem_Tag"><rect codeLine="88" fill="#F1F1F1" height="83.2188" id="Tag" rx="2.5" ry="2.5" style="stroke:#181818;stroke-width:0.5;" width="138" x="14.5" y="841.5"/><ellipse cx="66.75" cy="857.5" fill="#ADD1B2" rx="11" ry="11" style="stroke:#181818;stroke-width:1.0;"/><path d="M69.5156,853.375 Q69.6719,853.1563 69.8594,853.0469 Q70.0469,852.9375 70.2656,852.9375 Q70.6406,852.9375 70.875,853.2031 Q71.1094,853.4531 71.1094,854.0625 L71.1094,855.5156 Q71.1094,856.125 70.875,856.3906 Q70.6406,856.6563 70.2656,856.6563 Q69.9219,856.6563 69.7188,856.4531 Q69.5156,856.2656 69.4063,855.75 Q69.3594,855.3906 69.1719,855.2031 Q68.8438,854.8281 68.2344,854.6094 Q67.625,854.3906 67,854.3906 Q66.2344,854.3906 65.5938,854.7188 Q64.9688,855.0469 64.4688,855.7969 Q63.9844,856.5469 63.9844,857.5781 L63.9844,858.6719 Q63.9844,859.9063 64.875,860.7344 Q65.7656,861.5469 67.3594,861.5469 Q68.2969,861.5469 68.9531,861.2969 Q69.3438,861.1406 69.7656,860.7031 Q70.0313,860.4375 70.1719,860.3594 Q70.3281,860.2813 70.5313,860.2813 Q70.8594,860.2813 71.1094,860.5469 Q71.375,860.7969 71.375,861.1406 Q71.375,861.4844 71.0313,861.8906 Q70.5313,862.4688 69.7344,862.7969 Q68.6563,863.25 67.3594,863.25 Q65.8438,863.25 64.6406,862.625 Q63.6563,862.125 62.9688,861.0625 Q62.2813,859.9844 62.2813,858.7031 L62.2813,857.5469 Q62.2813,856.2188 62.8906,855.0781 Q63.5156,853.9219 64.6094,853.3125 Q65.7031,852.6875 66.9375,852.6875 Q67.6719,852.6875 68.3125,852.8594 Q68.9688,853.0156 69.5156,853.375 Z " fill="#000000"/><text fill="#000000" font-family="sans-serif" font-size="14" lengthAdjust="spacing" textLength="25" x="87.25" y="863.2285">Tag</text><line style="stroke:#181818;stroke-width:0.5;" x1="15.5" x2="151.5" y1="873.5" y2="873.5"/><rect fill="none" height="6" style="stroke:#C82930;stroke-width:1.0;" width="6" x="22.5" y="884.8047"/><text fill="#000000" font-family="sans-serif" font-size="14" lengthAdjust="spacing" textLength="60" x="34.5" y="892.0332">final int id</text><rect fill="none" height="6" style="stroke:#C82930;stroke-width:1.0;" width="6" x="22.5" y="902.4141"/><text fill="#000000" font-family="sans-serif" font-size="14" lengthAdjust="spacing" textLength="112" x="34.5" y="909.6426">String descrizione</text><line style="stroke:#181818;stroke-width:0.5;" x1="15.5" x2="151.5" y1="916.7188" y2="916.7188"/></g><!--class Database--><g id="elem_Database"><rect codeLine="93" fill="#F1F1F1" height="136.0469" id="Database" rx="2.5" ry="2.5" style="stroke:#181818;stroke-width:0.5;" width="258" x="258.5" y="628"/><ellipse cx="352.75" cy="644" fill="#ADD1B2" rx="11" ry="11" style="stroke:#181818;stroke-width:1.0;"/><path d="M355.5156,639.875 Q355.6719,639.6563 355.8594,639.5469 Q356.0469,639.4375 356.2656,639.4375 Q356.6406,639.4375 356.875,639.7031 Q357.1094,639.9531 357.1094,640.5625 L357.1094,642.0156 Q357.1094,642.625 356.875,642.8906 Q356.6406,643.1563 356.2656,643.1563 Q355.9219,643.1563 355.7188,642.9531 Q355.5156,642.7656 355.4063,642.25 Q355.3594,641.8906 355.1719,641.7031 Q354.8438,641.3281 354.2344,641.1094 Q353.625,640.8906 353,640.8906 Q352.2344,640.8906 351.5938,641.2188 Q350.9688,641.5469 350.4688,642.2969 Q349.9844,643.0469 349.9844,644.0781 L349.9844,645.1719 Q349.9844,646.4063 350.875,647.2344 Q351.7656,648.0469 353.3594,648.0469 Q354.2969,648.0469 354.9531,647.7969 Q355.3438,647.6406 355.7656,647.2031 Q356.0313,646.9375 356.1719,646.8594 Q356.3281,646.7813 356.5313,646.7813 Q356.8594,646.7813 357.1094,647.0469 Q357.375,647.2969 357.375,647.6406 Q357.375,647.9844 357.0313,648.3906 Q356.5313,648.9688 355.7344,649.2969 Q354.6563,649.75 353.3594,649.75 Q351.8438,649.75 350.6406,649.125 Q349.6563,648.625 348.9688,647.5625 Q348.2813,646.4844 348.2813,645.2031 L348.2813,644.0469 Q348.2813,642.7188 348.8906,641.5781 Q349.5156,640.4219 350.6094,639.8125 Q351.7031,639.1875 352.9375,639.1875 Q353.6719,639.1875 354.3125,639.3594 Q354.9688,639.5156 355.5156,639.875 Z " fill="#000000"/><text fill="#000000" font-family="sans-serif" font-size="14" lengthAdjust="spacing" textLength="61" x="373.25" y="649.7285">Database</text><line style="stroke:#181818;stroke-width:0.5;" x1="259.5" x2="515.5" y1="660" y2="660"/><line style="stroke:#181818;stroke-width:0.5;" x1="259.5" x2="515.5" y1="668" y2="668"/><ellipse cx="269.5" cy="682.3047" fill="#84BE84" rx="3" ry="3" style="stroke:#038048;stroke-width:1.0;"/><text fill="#000000" font-family="sans-serif" font-size="14" lengthAdjust="spacing" text-decoration="underline" textLength="192" x="278.5" y="686.5332">boolean verifyDBUrl(String url)</text><ellipse cx="269.5" cy="699.9141" fill="#84BE84" rx="3" ry="3" style="stroke:#038048;stroke-width:1.0;"/><text fill="#000000" font-family="sans-serif" font-size="14" lengthAdjust="spacing" textLength="184" x="278.5" y="704.1426">void insertContact(Contact c)</text><ellipse cx="269.5" cy="717.5234" fill="#84BE84" rx="3" ry="3" style="stroke:#038048;stroke-width:1.0;"/><text fill="#000000" font-family="sans-serif" font-size="14" lengthAdjust="spacing" textLength="161" x="278.5" y="721.752">void removeTag(Tag tag)</text><ellipse cx="269.5" cy="735.1328" fill="#84BE84" rx="3" ry="3" style="stroke:#038048;stroke-width:1.0;"/><text fill="#000000" font-family="sans-serif" font-size="14" lengthAdjust="spacing" textLength="232" x="278.5" y="739.3613">Collection&lt;Contact&gt; getAllContacts()</text><ellipse cx="269.5" cy="752.7422" fill="#84BE84" rx="3" ry="3" style="stroke:#038048;stroke-width:1.0;"/><text fill="#000000" font-family="sans-serif" font-size="14" lengthAdjust="spacing" textLength="184" x="278.5" y="756.9707">Collection&lt;Tag&gt; getAllTags()</text></g><!--class Serializable--><g id="elem_Serializable"><rect codeLine="102" fill="#F1F1F1" height="48" id="Serializable" rx="2.5" ry="2.5" style="stroke:#181818;stroke-width:0.5;" width="105" x="102" y="1233"/><ellipse cx="117" cy="1249" fill="#B4A7E5" rx="11" ry="11" style="stroke:#181818;stroke-width:1.0;"/><path d="M117.9531,1245.6406 L117.9531,1252.2969 L119.6719,1252.2969 Q120.2813,1252.2969 120.5469,1252.5313 Q120.8125,1252.7656 120.8125,1253.1563 Q120.8125,1253.5313 120.5469,1253.7656 Q120.2813,1254 119.6719,1254 L114.5313,1254 Q113.9219,1254 113.6563,1253.7656 Q113.3906,1253.5313 113.3906,1253.1406 Q113.3906,1252.7656 113.6563,1252.5313 Q113.9219,1252.2969 114.5313,1252.2969 L116.25,1252.2969 L116.25,1245.6406 L114.5313,1245.6406 Q113.9219,1245.6406 113.6563,1245.4063 Q113.3906,1245.1719 113.3906,1244.7813 Q113.3906,1244.4063 113.6563,1244.1719 Q113.9219,1243.9375 114.5313,1243.9375 L119.6719,1243.9375 Q120.2813,1243.9375 120.5469,1244.1719 Q120.8125,1244.4063 120.8125,1244.7813 Q120.8125,1245.1719 120.5469,1245.4063 Q120.2813,1245.6406 119.6719,1245.6406 L117.9531,1245.6406 Z " fill="#000000"/><text fill="#000000" font-family="sans-serif" font-size="14" font-style="italic" lengthAdjust="spacing" textLength="73" x="131" y="1254.7285">Serializable</text><line style="stroke:#181818;stroke-width:0.5;" x1="103" x2="206" y1="1265" y2="1265"/><line style="stroke:#181818;stroke-width:0.5;" x1="103" x2="206" y1="1273" y2="1273"/></g><!--class TagManager--><g id="elem_TagManager"><rect codeLine="104" fill="#F1F1F1" height="48" id="TagManager" rx="2.5" ry="2.5" style="stroke:#181818;stroke-width:0.5;" width="114" x="551.5" y="672"/><ellipse cx="566.5" cy="688" fill="#B4A7E5" rx="11" ry="11" style="stroke:#181818;stroke-width:1.0;"/><path d="M567.4531,684.6406 L567.4531,691.2969 L569.1719,691.2969 Q569.7813,691.2969 570.0469,691.5313 Q570.3125,691.7656 570.3125,692.1563 Q570.3125,692.5313 570.0469,692.7656 Q569.7813,693 569.1719,693 L564.0313,693 Q563.4219,693 563.1563,692.7656 Q562.8906,692.5313 562.8906,692.1406 Q562.8906,691.7656 563.1563,691.5313 Q563.4219,691.2969 564.0313,691.2969 L565.75,691.2969 L565.75,684.6406 L564.0313,684.6406 Q563.4219,684.6406 563.1563,684.4063 Q562.8906,684.1719 562.8906,683.7813 Q562.8906,683.4063 563.1563,683.1719 Q563.4219,682.9375 564.0313,682.9375 L569.1719,682.9375 Q569.7813,682.9375 570.0469,683.1719 Q570.3125,683.4063 570.3125,683.7813 Q570.3125,684.1719 570.0469,684.4063 Q569.7813,684.6406 569.1719,684.6406 L567.4531,684.6406 Z " fill="#000000"/><text fill="#000000" font-family="sans-serif" font-size="14" font-style="italic" lengthAdjust="spacing" textLength="82" x="580.5" y="693.7285">TagManager</text><line style="stroke:#181818;stroke-width:0.5;" x1="552.5" x2="664.5" y1="704" y2="704"/><line style="stroke:#181818;stroke-width:0.5;" x1="552.5" x2="664.5" y1="712" y2="712"/></g><!--class ContactManager--><g id="elem_ContactManager"><rect codeLine="107" fill="#F1F1F1" height="48" id="ContactManager" rx="2.5" ry="2.5" style="stroke:#181818;stroke-width:0.5;" width="138" x="753.5" y="672"/><ellipse cx="768.5" cy="688" fill="#B4A7E5" rx="11" ry="11" style="stroke:#181818;stroke-width:1.0;"/><path d="M769.4531,684.6406 L769.4531,691.2969 L771.1719,691.2969 Q771.7813,691.2969 772.0469,691.5313 Q772.3125,691.7656 772.3125,692.1563 Q772.3125,692.5313 772.0469,692.7656 Q771.7813,693 771.1719,693 L766.0313,693 Q765.4219,693 765.1563,692.7656 Q764.8906,692.5313 764.8906,692.1406 Q764.8906,691.7656 765.1563,691.5313 Q765.4219,691.2969 766.0313,691.2969 L767.75,691.2969 L767.75,684.6406 L766.0313,684.6406 Q765.4219,684.6406 765.1563,684.4063 Q764.8906,684.1719 764.8906,683.7813 Q764.8906,683.4063 765.1563,683.1719 Q765.4219,682.9375 766.0313,682.9375 L771.1719,682.9375 Q771.7813,682.9375 772.0469,683.1719 Q772.3125,683.4063 772.3125,683.7813 Q772.3125,684.1719 772.0469,684.4063 Q771.7813,684.6406 771.1719,684.6406 L769.4531,684.6406 Z " fill="#000000"/><text fill="#000000" font-family="sans-serif" font-size="14" font-style="italic" lengthAdjust="spacing" textLength="106" x="782.5" y="693.7285">ContactManager</text><line style="stroke:#181818;stroke-width:0.5;" x1="754.5" x2="890.5" y1="704" y2="704"/><line style="stroke:#181818;stroke-width:0.5;" x1="754.5" x2="890.5" y1="712" y2="712"/></g><!--link Contact to Serializable--><g id="link_Contact_Serializable"><path codeLine="111" d="M172,1173.24 C172,1195.08 172,1198.84 172,1214.7 " fill="none" id="Contact-to-Serializable" style="stroke:#181818;stroke-width:1.0;stroke-dasharray:7.0,7.0;"/><polygon fill="none" points="172,1232.7,178,1214.7,166,1214.7,172,1232.7" style="stroke:#181818;stroke-width:1.0;"/></g><!--link Tag to Serializable--><g id="link_Tag_Serializable"><path codeLine="113" d="M119.5,924.81 C119.5,1003.35 119.5,1152.59 119.5,1214.92 " fill="none" id="Tag-to-Serializable" style="stroke:#181818;stroke-width:1.0;stroke-dasharray:7.0,7.0;"/><polygon fill="none" points="119.5,1232.92,125.5,1214.92,113.5,1214.92,119.5,1232.92" style="stroke:#181818;stroke-width:1.0;"/></g><!--reverse link AddressBook to Contact--><g id="link_AddressBook_Contact"><path codeLine="115" d="M201.25,580.23 C201.25,706.8 201.25,890.09 201.25,1001.61 " fill="none" id="AddressBook-backto-Contact" style="stroke:#181818;stroke-width:1.0;"/><polygon fill="none" points="201.25,568.23,197.25,574.23,201.25,580.23,205.25,574.23,201.25,568.23" style="stroke:#181818;stroke-width:1.0;"/><text fill="#000000" font-family="sans-serif" font-size="13" lengthAdjust="spacing" textLength="7" x="198.2535" y="589.215">1</text><text fill="#000000" font-family="sans-serif" font-size="13" lengthAdjust="spacing" textLength="20" x="178.2207" y="991.0401">0..*</text></g><!--reverse link AddressBook to Database--><g id="link_AddressBook_Database"><path codeLine="116" d="M262.21,553 C275.31,553 272,553 272,553 C272,553 272,591.02 272,627.85 " fill="none" id="AddressBook-backto-Database" style="stroke:#181818;stroke-width:1.0;"/><polygon fill="#181818" points="250.21,553,256.21,557,262.21,553,256.21,549,250.21,553" style="stroke:#181818;stroke-width:1.0;"/><text fill="#000000" font-family="sans-serif" font-size="13" lengthAdjust="spacing" textLength="7" x="257.84" y="556.4867">1</text><text fill="#000000" font-family="sans-serif" font-size="13" lengthAdjust="spacing" textLength="22" x="236.1641" y="617.0329">0..1</text></g><!--reverse link AddressBook to Tag--><g id="link_AddressBook_Tag"><path codeLine="117" d="M83.5,580.16 C83.5,671.38 83.5,779 83.5,841.25 " fill="none" id="AddressBook-backto-Tag" style="stroke:#181818;stroke-width:1.0;"/><polygon fill="none" points="83.5,568.16,79.5,574.16,83.5,580.16,87.5,574.16,83.5,568.16" style="stroke:#181818;stroke-width:1.0;"/><text fill="#000000" font-family="sans-serif" font-size="13" lengthAdjust="spacing" textLength="7" x="73.6961" y="589.1409">1</text><text fill="#000000" font-family="sans-serif" font-size="13" lengthAdjust="spacing" textLength="20" x="61.8438" y="830.5163">0..*</text></g><!--link AddressBook to TagManager--><g id="link_AddressBook_TagManager"><path codeLine="118" d="M250.09,537 C383.82,537 580,537 580,537 C580,537 580,609.37 580,653.85 " fill="none" id="AddressBook-to-TagManager" style="stroke:#181818;stroke-width:1.0;stroke-dasharray:7.0,7.0;"/><polygon fill="none" points="580,671.85,586,653.85,574,653.85,580,671.85" style="stroke:#181818;stroke-width:1.0;"/></g><!--link AddressBook to ContactManager--><g id="link_AddressBook_ContactManager"><path codeLine="119" d="M250.17,522 C444.3,522 802.5,522 802.5,522 C802.5,522 802.5,606 802.5,653.81 " fill="none" id="AddressBook-to-ContactManager" style="stroke:#181818;stroke-width:1.0;stroke-dasharray:7.0,7.0;"/><polygon fill="none" points="802.5,671.81,808.5,653.81,796.5,653.81,802.5,671.81" style="stroke:#181818;stroke-width:1.0;"/></g><!--reverse link MainController to AddressBook--><g id="link_MainController_AddressBook"><path codeLine="121" d="M887.48,214 C673.85,214 238.5,214 238.5,214 C238.5,214 238.5,269.11 238.5,325.72 " fill="none" id="MainController-backto-AddressBook" style="stroke:#181818;stroke-width:1.0;"/><polygon fill="none" points="899.48,214,893.48,210,887.48,214,893.48,218,899.48,214" style="stroke:#181818;stroke-width:1.0;"/><text fill="#000000" font-family="sans-serif" font-size="13" lengthAdjust="spacing" textLength="7" x="884.4278" y="216.3832">1</text><text fill="#000000" font-family="sans-serif" font-size="13" lengthAdjust="spacing" textLength="7" x="238.3227" y="314.9539">1</text></g><!--link MainController to ImagePopupController--><g id="link_MainController_ImagePopupController"><path codeLine="122" d="M1121.69,137 C1233.83,137 1390.5,137 1390.5,137 C1390.5,137 1390.5,327.85 1390.5,407.82 " fill="none" id="MainController-to-ImagePopupController" style="stroke:#181818;stroke-width:1.0;stroke-dasharray:7.0,7.0;"/><polygon fill="#181818" points="1390.5,413.82,1394.5,404.82,1390.5,408.82,1386.5,404.82,1390.5,413.82" style="stroke:#181818;stroke-width:1.0;"/></g><!--link MainController to ConfirmPopupController--><g id="link_MainController_ConfirmPopupController"><path codeLine="123" d="M899.31,240 C787.17,240 630.5,240 630.5,240 C630.5,240 630.5,338.62 630.5,399.11 " fill="none" id="MainController-to-ConfirmPopupController" style="stroke:#181818;stroke-width:1.0;stroke-dasharray:7.0,7.0;"/><polygon fill="#181818" points="630.5,405.11,634.5,396.11,630.5,400.11,626.5,396.11,630.5,405.11" style="stroke:#181818;stroke-width:1.0;"/></g><!--link MainController to Converter--><g id="link_MainController_Converter"><path codeLine="124" d="M1012.5,266.1 C1012.5,429.56 1012.5,697.74 1012.5,817.74 " fill="none" id="MainController-to-Converter" style="stroke:#181818;stroke-width:1.0;stroke-dasharray:7.0,7.0;"/><polygon fill="#181818" points="1012.5,823.74,1016.5,814.74,1012.5,818.74,1008.5,814.74,1012.5,823.74" style="stroke:#181818;stroke-width:1.0;"/></g><!--link Converter to Contact--><g id="link_Converter_Contact"><path codeLine="126" d="M822.8,934 C632.81,934 287.25,934 287.25,934 C287.25,934 287.25,960.61 287.25,995.77 " fill="none" id="Converter-to-Contact" style="stroke:#181818;stroke-width:1.0;stroke-dasharray:7.0,7.0;"/><polygon fill="#181818" points="287.25,1001.77,291.25,992.77,287.25,996.77,283.25,992.77,287.25,1001.77" style="stroke:#181818;stroke-width:1.0;"/></g><!--reverse link ImportPopupController to ContactManager--><g id="link_ImportPopupController_ContactManager"><path codeLine="128" d="M1042,500.68 C1042,571.56 1042,696 1042,696 C1042,696 955.99,696 891.65,696 " fill="none" id="ImportPopupController-backto-ContactManager" style="stroke:#181818;stroke-width:1.0;"/><polygon fill="none" points="1042,488.68,1038,494.68,1042,500.68,1046,494.68,1042,488.68" style="stroke:#181818;stroke-width:1.0;"/><text fill="#000000" font-family="sans-serif" font-size="13" lengthAdjust="spacing" textLength="7" x="1017.4688" y="510.1035">1</text><text fill="#000000" font-family="sans-serif" font-size="13" lengthAdjust="spacing" textLength="7" x="899.5961" y="692.6393">1</text></g><!--link ImportPopupController to Converter--><g id="link_ImportPopupController_Converter"><path codeLine="129" d="M1054,488.81 C1054,566.71 1054,728.27 1054,817.78 " fill="none" id="ImportPopupController-to-Converter" style="stroke:#181818;stroke-width:1.0;stroke-dasharray:7.0,7.0;"/><polygon fill="#181818" points="1054,823.78,1058,814.78,1054,818.78,1050,814.78,1054,823.78" style="stroke:#181818;stroke-width:1.0;"/></g><!--reverse link ExportPopupController to ContactManager--><g id="link_ExportPopupController_ContactManager"><path codeLine="131" d="M847,509.69 C847,562.73 847,631.74 847,671.81 " fill="none" id="ExportPopupController-backto-ContactManager" style="stroke:#181818;stroke-width:1.0;"/><polygon fill="none" points="847,497.69,843,503.69,847,509.69,851,503.69,847,497.69" style="stroke:#181818;stroke-width:1.0;"/><text fill="#000000" font-family="sans-serif" font-size="13" lengthAdjust="spacing" textLength="7" x="835.7719" y="518.7383">1</text><text fill="#000000" font-family="sans-serif" font-size="13" lengthAdjust="spacing" textLength="7" x="845.3813" y="661.1015">1</text></g><!--reverse link ExportPopupController to TagManager--><g id="link_ExportPopupController_TagManager"><path codeLine="132" d="M745.8,493 C685.58,493 637,493 637,493 C637,493 637,618.14 637,671.92 " fill="none" id="ExportPopupController-backto-TagManager" style="stroke:#181818;stroke-width:1.0;"/><polygon fill="none" points="757.8,493,751.8,489,745.8,493,751.8,497,757.8,493" style="stroke:#181818;stroke-width:1.0;"/><text fill="#000000" font-family="sans-serif" font-size="13" lengthAdjust="spacing" textLength="7" x="742.9716" y="492.9463">1</text><text fill="#000000" font-family="sans-serif" font-size="13" lengthAdjust="spacing" textLength="7" x="636.4063" y="661.2397">1</text></g><!--link ExportPopupController to Converter--><g id="link_ExportPopupController_Converter"><path codeLine="133" d="M943.25,497.87 C943.25,579.07 943.25,731.6 943.25,817.78 " fill="none" id="ExportPopupController-to-Converter" style="stroke:#181818;stroke-width:1.0;stroke-dasharray:7.0,7.0;"/><polygon fill="#181818" points="943.25,823.78,947.25,814.78,943.25,818.78,939.25,814.78,943.25,823.78" style="stroke:#181818;stroke-width:1.0;"/></g><!--link ManageTagsPopupController to ConfirmPopupController--><g id="link_ManageTagsPopupController_ConfirmPopupController"><path codeLine="135" d="M503.52,447 C515.11,447 520.82,447 532.2,447 " fill="none" id="ManageTagsPopupController-to-ConfirmPopupController" style="stroke:#181818;stroke-width:1.0;stroke-dasharray:7.0,7.0;"/><polygon fill="#181818" points="538.2,447,529.2,443,533.2,447,529.2,451,538.2,447" style="stroke:#181818;stroke-width:1.0;"/></g><!--reverse link ManageTagsPopupController to TagManager--><g id="link_ManageTagsPopupController_TagManager"><path codeLine="136" d="M515.69,502 C568.45,502 608.5,502 608.5,502 C608.5,502 608.5,619.82 608.5,671.82 " fill="none" id="ManageTagsPopupController-backto-TagManager" style="stroke:#181818;stroke-width:1.0;"/><polygon fill="none" points="503.69,502,509.69,506,515.69,502,509.69,498,503.69,502" style="stroke:#181818;stroke-width:1.0;"/><text fill="#000000" font-family="sans-serif" font-size="13" lengthAdjust="spacing" textLength="7" x="511.6135" y="502.7968">1</text><text fill="#000000" font-family="sans-serif" font-size="13" lengthAdjust="spacing" textLength="7" x="600.6031" y="661.114">1</text></g><!--reverse link ConfigPopupController to AddressBook--><g id="link_ConfigPopupController_AddressBook"><path codeLine="138" d="M128.5,199.08 C128.5,236.63 128.5,277.46 128.5,325.7 " fill="none" id="ConfigPopupController-backto-AddressBook" style="stroke:#181818;stroke-width:1.0;"/><polygon fill="none" points="128.5,187.08,124.5,193.08,128.5,199.08,132.5,193.08,128.5,187.08" style="stroke:#181818;stroke-width:1.0;"/><text fill="#000000" font-family="sans-serif" font-size="13" lengthAdjust="spacing" textLength="7" x="121.0297" y="208.482">1</text><text fill="#000000" font-family="sans-serif" font-size="13" lengthAdjust="spacing" textLength="7" x="121.2867" y="315.3357">1</text></g><!--link Database to Converter--><g id="link_Database_Converter"><path codeLine="140" d="M516.79,742 C655.85,742 857.25,742 857.25,742 C857.25,742 857.25,779.08 857.25,817.61 " fill="none" id="Database-to-Converter" style="stroke:#181818;stroke-width:1.0;stroke-dasharray:7.0,7.0;"/><polygon fill="#181818" points="857.25,823.61,861.25,814.61,857.25,818.61,853.25,814.61,857.25,823.61" style="stroke:#181818;stroke-width:1.0;"/></g><!--SRC=[dLR9Rjim4BtpAuXSuYQ8qTu30xRi02wo8KvpQD43BOqL8XHfaBIRfVdtaf98KHBb1DN5qhpP-6QXrHFbMo99WHdbe5-sW8NKZm8TCzXeh0MMD7_KEACIKaq5HmWTd_GUd5nELwibxYCePKGfd0YkIQhn6yBcESChBIdFCIS5uBP8xMHV-kitvhjY3L9rnL0GofnqzgB1oBPIR2Y3MvhgdGHd0VfyoJNa82TOatp9CtW6XLqWoZMc6Nf7TSRJB9EWr4o89v_rcz94q_Iz1L9kf3nrSMxM2kIUh1bSKgNFwuDFS5gzg9wQJQmwJfbN-uGuM_-Gh1RDYIPhei08KIawnNj1Cwp87aoS3Sr7Nq8v4oIBoQt-pUox5uQdiJOXvWtknNmsQ74XHM5XYpOKNX7AxVcbO0oaPp4q9iqxgk4oek16g-QkZkgHMfmmcZv1raLN5HanmokHqStB07W7XHYqJ6o1MLkg7iMVPR4rut8hjhjj7rmy7m2hkWo0ouBaC81T4Mx0UzCeJi7pRNpkGMfFzMdJi8ajGJd0JKUQkLUGh1vyLJ_MVaY8pFhwDKlLWQCUMnhEYqyye37IBtKArS6b6wJwirsdob7eEYZ2VxesL3jS-zTss2f86BPJfKZeJxWr8z1jn1_RZ6ZeIkV0e9G6ZBeEweK-nHTcEU8Sz0fibI4hbJkDjA6o6B8lHz0g-3e74z9saWyT_tDBu06acTZ80gYZ-s26JUzwGpbXRf-tboceLD9NqzVGcFgjsXkQjH0C2CVxCelvp6pYKUrf9rbhGvfBm4oUsnxkjajREhBSC2RJaStM5DsXiN4pvPaoLd-gKKJLE75gjiyi6pX-EI-lxnTt5zCaMSGkQ4CKo0r9mLoHaX96N-sjX09vqAflbhS6wSnFYSOok5jSJdykRwwZ_n0SM-Fntqad1qjKH1mspz6t8opEpl3Hr_7uvCXbr5CvgLNCgolu8JScS0ikasXuw6Dj9X3gt7tUlVaDRBjgu_4aEhenlVYG3cXMzm92pHLH0oLPABw0mwGxvuiRT8B5T-y1hnyR12M8AtTI6Dx3XnWSiXd81CLNtL3DaTyuxMJ_0G00]--></g></svg>