<svg xmlns="http://www.w3.org/2000/svg" xmlns:xlink="http://www.w3.org/1999/xlink" contentStyleType="text/css" height="858px" preserveAspectRatio="none" style="width:1717px;height:858px;background:#FFFFFF;" version="1.1" viewBox="0 0 1717 858" width="1717px" zoomAndPan="magnify"><defs/><g><!--class Contact--><g id="elem_Contact"><rect codeLine="6" fill="#F1F1F1" height="145.7813" id="Contact" rx="2.5" ry="2.5" style="stroke:#181818;stroke-width:0.5;" width="204.9102" x="523.57" y="597.83"/><ellipse cx="594.5407" cy="613.83" fill="#ADD1B2" rx="11" ry="11" style="stroke:#181818;stroke-width:1;"/><path d="M597.5095,619.4706 Q596.9313,619.7675 596.2907,619.9081 Q595.6501,620.0644 594.947,620.0644 Q592.447,620.0644 591.1188,618.4238 Q589.8063,616.7675 589.8063,613.6425 Q589.8063,610.5175 591.1188,608.8613 Q592.447,607.205 594.947,607.205 Q595.6501,607.205 596.2907,607.3613 Q596.947,607.5175 597.5095,607.8144 L597.5095,610.5331 Q596.8845,609.955 596.2907,609.6894 Q595.697,609.4081 595.072,609.4081 Q593.7282,609.4081 593.0407,610.4863 Q592.3532,611.5488 592.3532,613.6425 Q592.3532,615.7363 593.0407,616.8144 Q593.7282,617.8769 595.072,617.8769 Q595.697,617.8769 596.2907,617.6113 Q596.8845,617.33 597.5095,616.7519 L597.5095,619.4706 Z " fill="#000000"/><text fill="#000000" font-family="sans-serif" font-size="14" lengthAdjust="spacing" textLength="54.4688" x="615.0407" y="618.6767">Contact</text><line style="stroke:#181818;stroke-width:0.5;" x1="524.57" x2="727.4802" y1="629.83" y2="629.83"/><rect fill="none" height="6" style="stroke:#C82930;stroke-width:1;" width="6" x="531.57" y="640.4784"/><text fill="#000000" font-family="sans-serif" font-size="14" lengthAdjust="spacing" textLength="85.9346" x="543.57" y="646.8251">String name</text><rect fill="none" height="6" style="stroke:#C82930;stroke-width:1;" width="6" x="531.57" y="656.7753"/><text fill="#000000" font-family="sans-serif" font-size="14" lengthAdjust="spacing" textLength="107.8574" x="543.57" y="663.122">String surname</text><rect fill="none" height="6" style="stroke:#C82930;stroke-width:1;" width="6" x="531.57" y="673.0722"/><text fill="#000000" font-family="sans-serif" font-size="14" lengthAdjust="spacing" textLength="119.0889" x="543.57" y="679.4189">String[] numbers</text><rect fill="none" height="6" style="stroke:#C82930;stroke-width:1;" width="6" x="531.57" y="689.3691"/><text fill="#000000" font-family="sans-serif" font-size="14" lengthAdjust="spacing" textLength="103.0586" x="543.57" y="695.7157">String[] emails</text><rect fill="none" height="6" style="stroke:#C82930;stroke-width:1;" width="6" x="531.57" y="705.6659"/><text fill="#000000" font-family="sans-serif" font-size="14" lengthAdjust="spacing" textLength="139.9385" x="543.57" y="712.0126">byte[] profilePicture</text><rect fill="none" height="6" style="stroke:#C82930;stroke-width:1;" width="6" x="531.57" y="721.9628"/><text fill="#000000" font-family="sans-serif" font-size="14" lengthAdjust="spacing" textLength="178.9102" x="543.57" y="728.3095">Set&lt;Integer&gt; tagIndexes</text><line style="stroke:#181818;stroke-width:0.5;" x1="524.57" x2="727.4802" y1="735.6113" y2="735.6113"/></g><!--class AddressBook--><g id="elem_AddressBook"><rect codeLine="15" fill="#F1F1F1" height="227.2656" id="AddressBook" rx="2.5" ry="2.5" style="stroke:#181818;stroke-width:0.5;" width="272.3604" x="702.84" y="310.56"/><ellipse cx="789.195" cy="326.56" fill="#ADD1B2" rx="11" ry="11" style="stroke:#181818;stroke-width:1;"/><path d="M792.1637,332.2006 Q791.5856,332.4975 790.945,332.6381 Q790.3044,332.7944 789.6012,332.7944 Q787.1012,332.7944 785.7731,331.1538 Q784.4606,329.4975 784.4606,326.3725 Q784.4606,323.2475 785.7731,321.5913 Q787.1012,319.935 789.6012,319.935 Q790.3044,319.935 790.945,320.0913 Q791.6012,320.2475 792.1637,320.5444 L792.1637,323.2631 Q791.5387,322.685 790.945,322.4194 Q790.3512,322.1381 789.7262,322.1381 Q788.3825,322.1381 787.695,323.2163 Q787.0075,324.2788 787.0075,326.3725 Q787.0075,328.4663 787.695,329.5444 Q788.3825,330.6069 789.7262,330.6069 Q790.3512,330.6069 790.945,330.3413 Q791.5387,330.06 792.1637,329.4819 L792.1637,332.2006 Z " fill="#000000"/><text fill="#000000" font-family="sans-serif" font-size="14" lengthAdjust="spacing" textLength="91.1504" x="809.695" y="331.4067">AddressBook</text><line style="stroke:#181818;stroke-width:0.5;" x1="703.84" x2="974.2004" y1="342.56" y2="342.56"/><rect fill="none" height="6" style="stroke:#C82930;stroke-width:1;" width="6" x="710.84" y="353.2084"/><text fill="#000000" font-family="sans-serif" font-size="14" lengthAdjust="spacing" text-decoration="underline" textLength="154.9092" x="722.84" y="359.5551">AddressBook instance</text><rect fill="none" height="6" style="stroke:#C82930;stroke-width:1;" width="6" x="710.84" y="369.5053"/><text fill="#000000" font-family="sans-serif" font-size="14" lengthAdjust="spacing" textLength="246.3604" x="722.84" y="375.852">ObservableList&lt;Contact&gt; contacts</text><rect fill="none" height="6" style="stroke:#C82930;stroke-width:1;" width="6" x="710.84" y="385.8022"/><text fill="#000000" font-family="sans-serif" font-size="14" lengthAdjust="spacing" textLength="202.7539" x="722.84" y="392.1489">ObservableSet&lt;String&gt; tags</text><rect fill="none" height="6" style="stroke:#C82930;stroke-width:1;" width="6" x="710.84" y="402.0991"/><text fill="#000000" font-family="sans-serif" font-size="14" lengthAdjust="spacing" textLength="83.8975" x="722.84" y="408.4457">String dbUrl</text><rect fill="none" height="6" style="stroke:#C82930;stroke-width:1;" width="6" x="710.84" y="418.3959"/><text fill="#000000" font-family="sans-serif" font-size="14" lengthAdjust="spacing" textLength="89.0244" x="722.84" y="424.7426">Database db</text><line style="stroke:#181818;stroke-width:0.5;" x1="703.84" x2="974.2004" y1="432.0444" y2="432.0444"/><ellipse cx="713.84" cy="445.6928" fill="#84BE84" rx="3" ry="3" style="stroke:#038048;stroke-width:1;"/><text fill="#000000" font-family="sans-serif" font-size="14" lengthAdjust="spacing" textLength="122.6914" x="722.84" y="449.0395">void saveConfig()</text><ellipse cx="713.84" cy="461.9897" fill="#84BE84" rx="3" ry="3" style="stroke:#038048;stroke-width:1;"/><text fill="#000000" font-family="sans-serif" font-size="14" lengthAdjust="spacing" textLength="119.8408" x="722.84" y="465.3364">void loadConfig()</text><ellipse cx="713.84" cy="478.2866" fill="#84BE84" rx="3" ry="3" style="stroke:#038048;stroke-width:1;"/><text fill="#000000" font-family="sans-serif" font-size="14" lengthAdjust="spacing" textLength="102.5254" x="722.84" y="481.6332">void saveOBJ()</text><ellipse cx="713.84" cy="494.5834" fill="#84BE84" rx="3" ry="3" style="stroke:#038048;stroke-width:1;"/><text fill="#000000" font-family="sans-serif" font-size="14" lengthAdjust="spacing" textLength="161.1982" x="722.84" y="497.9301">AddressBook loadOBJ()</text><ellipse cx="713.84" cy="510.8803" fill="#84BE84" rx="3" ry="3" style="stroke:#038048;stroke-width:1;"/><text fill="#000000" font-family="sans-serif" font-size="14" lengthAdjust="spacing" textLength="115.2744" x="722.84" y="514.227">void saveToDB()</text><ellipse cx="713.84" cy="527.1772" fill="#84BE84" rx="3" ry="3" style="stroke:#038048;stroke-width:1;"/><text fill="#000000" font-family="sans-serif" font-size="14" lengthAdjust="spacing" textLength="192.8418" x="722.84" y="530.5239">AddressBook loadFromDB()</text></g><!--class MainController--><g id="elem_MainController"><rect codeLine="30" fill="#F1F1F1" height="243.5625" id="MainController" rx="2.5" ry="2.5" style="stroke:#181818;stroke-width:0.5;" width="239.7598" x="977.14" y="7"/><ellipse cx="1041.473" cy="23" fill="#ADD1B2" rx="11" ry="11" style="stroke:#181818;stroke-width:1;"/><path d="M1044.4418,28.6406 Q1043.8636,28.9375 1043.223,29.0781 Q1042.5824,29.2344 1041.8793,29.2344 Q1039.3793,29.2344 1038.0511,27.5938 Q1036.7386,25.9375 1036.7386,22.8125 Q1036.7386,19.6875 1038.0511,18.0313 Q1039.3793,16.375 1041.8793,16.375 Q1042.5824,16.375 1043.223,16.5313 Q1043.8793,16.6875 1044.4418,16.9844 L1044.4418,19.7031 Q1043.8168,19.125 1043.223,18.8594 Q1042.6293,18.5781 1042.0043,18.5781 Q1040.6605,18.5781 1039.973,19.6563 Q1039.2855,20.7188 1039.2855,22.8125 Q1039.2855,24.9063 1039.973,25.9844 Q1040.6605,27.0469 1042.0043,27.0469 Q1042.6293,27.0469 1043.223,26.7813 Q1043.8168,26.5 1044.4418,25.9219 L1044.4418,28.6406 Z " fill="#000000"/><text fill="#000000" font-family="sans-serif" font-size="14" lengthAdjust="spacing" textLength="102.5938" x="1061.973" y="27.8467">MainController</text><line style="stroke:#181818;stroke-width:0.5;" x1="978.14" x2="1215.8998" y1="39" y2="39"/><rect fill="none" height="6" style="stroke:#C82930;stroke-width:1;" width="6" x="985.14" y="49.6484"/><text fill="#000000" font-family="sans-serif" font-size="14" lengthAdjust="spacing" textLength="185.7529" x="997.14" y="55.9951">AddressBook addressBook</text><line style="stroke:#181818;stroke-width:0.5;" x1="978.14" x2="1215.8998" y1="63.2969" y2="63.2969"/><rect fill="#F24D5C" height="6" style="stroke:#C82930;stroke-width:1;" width="6" x="985.14" y="73.9453"/><text fill="#000000" font-family="sans-serif" font-size="14" lengthAdjust="spacing" textLength="144.2588" x="997.14" y="80.292">void onAddContact()</text><rect fill="#F24D5C" height="6" style="stroke:#C82930;stroke-width:1;" width="6" x="985.14" y="90.2422"/><text fill="#000000" font-family="sans-serif" font-size="14" lengthAdjust="spacing" textLength="167.7676" x="997.14" y="96.5889">void onContactClicked()</text><rect fill="#F24D5C" height="6" style="stroke:#C82930;stroke-width:1;" width="6" x="985.14" y="106.5391"/><text fill="#000000" font-family="sans-serif" font-size="14" lengthAdjust="spacing" textLength="151.2725" x="997.14" y="112.8857">void onSaveContact()</text><rect fill="#F24D5C" height="6" style="stroke:#C82930;stroke-width:1;" width="6" x="985.14" y="122.8359"/><text fill="#000000" font-family="sans-serif" font-size="14" lengthAdjust="spacing" textLength="163.543" x="997.14" y="129.1826">void onModifyContact()</text><rect fill="#F24D5C" height="6" style="stroke:#C82930;stroke-width:1;" width="6" x="985.14" y="139.1328"/><text fill="#000000" font-family="sans-serif" font-size="14" lengthAdjust="spacing" textLength="174.3506" x="997.14" y="145.4795">void onRemoveContact()</text><rect fill="#F24D5C" height="6" style="stroke:#C82930;stroke-width:1;" width="6" x="985.14" y="155.4297"/><text fill="#000000" font-family="sans-serif" font-size="14" lengthAdjust="spacing" textLength="109.8672" x="997.14" y="161.7764">void onCancel()</text><rect fill="#F24D5C" height="6" style="stroke:#C82930;stroke-width:1;" width="6" x="985.14" y="171.7266"/><text fill="#000000" font-family="sans-serif" font-size="14" lengthAdjust="spacing" textLength="171.3018" x="997.14" y="178.0732">void showImportPopup()</text><rect fill="#F24D5C" height="6" style="stroke:#C82930;stroke-width:1;" width="6" x="985.14" y="188.0234"/><text fill="#000000" font-family="sans-serif" font-size="14" lengthAdjust="spacing" textLength="170.666" x="997.14" y="194.3701">void showExportPopup()</text><rect fill="#F24D5C" height="6" style="stroke:#C82930;stroke-width:1;" width="6" x="985.14" y="204.3203"/><text fill="#000000" font-family="sans-serif" font-size="14" lengthAdjust="spacing" textLength="169.7568" x="997.14" y="210.667">void showConfigPopup()</text><rect fill="#F24D5C" height="6" style="stroke:#C82930;stroke-width:1;" width="6" x="985.14" y="220.6172"/><text fill="#000000" font-family="sans-serif" font-size="14" lengthAdjust="spacing" textLength="168.6836" x="997.14" y="226.9639">void showImagePopup()</text><rect fill="#F24D5C" height="6" style="stroke:#C82930;stroke-width:1;" width="6" x="985.14" y="236.9141"/><text fill="#000000" font-family="sans-serif" font-size="14" lengthAdjust="spacing" textLength="213.7598" x="997.14" y="243.2607">void showManageTagsPopup()</text></g><!--class ImportPopupController--><g id="elem_ImportPopupController"><rect codeLine="46" fill="#F1F1F1" height="80.5938" id="ImportPopupController" rx="2.5" ry="2.5" style="stroke:#181818;stroke-width:0.5;" width="260.042" x="7" y="383.9"/><ellipse cx="53.1255" cy="399.9" fill="#ADD1B2" rx="11" ry="11" style="stroke:#181818;stroke-width:1;"/><path d="M56.0942,405.5406 Q55.5161,405.8375 54.8755,405.9781 Q54.2349,406.1344 53.5317,406.1344 Q51.0317,406.1344 49.7036,404.4938 Q48.3911,402.8375 48.3911,399.7125 Q48.3911,396.5875 49.7036,394.9313 Q51.0317,393.275 53.5317,393.275 Q54.2349,393.275 54.8755,393.4313 Q55.5317,393.5875 56.0942,393.8844 L56.0942,396.6031 Q55.4692,396.025 54.8755,395.7594 Q54.2817,395.4781 53.6567,395.4781 Q52.313,395.4781 51.6255,396.5563 Q50.938,397.6188 50.938,399.7125 Q50.938,401.8063 51.6255,402.8844 Q52.313,403.9469 53.6567,403.9469 Q54.2817,403.9469 54.8755,403.6813 Q55.4692,403.4 56.0942,402.8219 L56.0942,405.5406 Z " fill="#000000"/><text fill="#000000" font-family="sans-serif" font-size="14" lengthAdjust="spacing" textLength="159.291" x="73.6255" y="404.7467">ImportPopupController</text><line style="stroke:#181818;stroke-width:0.5;" x1="8" x2="266.042" y1="415.9" y2="415.9"/><rect fill="none" height="6" style="stroke:#C82930;stroke-width:1;" width="6" x="15" y="426.5484"/><text fill="#000000" font-family="sans-serif" font-size="14" lengthAdjust="spacing" textLength="234.042" x="27" y="432.8951">ContactManager contactManager</text><line style="stroke:#181818;stroke-width:0.5;" x1="8" x2="266.042" y1="440.1969" y2="440.1969"/><rect fill="#F24D5C" height="6" style="stroke:#C82930;stroke-width:1;" width="6" x="15" y="450.8453"/><text fill="#000000" font-family="sans-serif" font-size="14" lengthAdjust="spacing" textLength="108.9033" x="27" y="457.192">void onImport()</text></g><!--class ExportPopupController--><g id="elem_ExportPopupController"><rect codeLine="51" fill="#F1F1F1" height="80.5938" id="ExportPopupController" rx="2.5" ry="2.5" style="stroke:#181818;stroke-width:0.5;" width="260.042" x="302" y="383.9"/><ellipse cx="348.4434" cy="399.9" fill="#ADD1B2" rx="11" ry="11" style="stroke:#181818;stroke-width:1;"/><path d="M351.4121,405.5406 Q350.834,405.8375 350.1934,405.9781 Q349.5527,406.1344 348.8496,406.1344 Q346.3496,406.1344 345.0215,404.4938 Q343.709,402.8375 343.709,399.7125 Q343.709,396.5875 345.0215,394.9313 Q346.3496,393.275 348.8496,393.275 Q349.5527,393.275 350.1934,393.4313 Q350.8496,393.5875 351.4121,393.8844 L351.4121,396.6031 Q350.7871,396.025 350.1934,395.7594 Q349.5996,395.4781 348.9746,395.4781 Q347.6309,395.4781 346.9434,396.5563 Q346.2559,397.6188 346.2559,399.7125 Q346.2559,401.8063 346.9434,402.8844 Q347.6309,403.9469 348.9746,403.9469 Q349.5996,403.9469 350.1934,403.6813 Q350.7871,403.4 351.4121,402.8219 L351.4121,405.5406 Z " fill="#000000"/><text fill="#000000" font-family="sans-serif" font-size="14" lengthAdjust="spacing" textLength="158.6553" x="368.9434" y="404.7467">ExportPopupController</text><line style="stroke:#181818;stroke-width:0.5;" x1="303" x2="561.042" y1="415.9" y2="415.9"/><rect fill="none" height="6" style="stroke:#C82930;stroke-width:1;" width="6" x="310" y="426.5484"/><text fill="#000000" font-family="sans-serif" font-size="14" lengthAdjust="spacing" textLength="234.042" x="322" y="432.8951">ContactManager contactManager</text><line style="stroke:#181818;stroke-width:0.5;" x1="303" x2="561.042" y1="440.1969" y2="440.1969"/><rect fill="#F24D5C" height="6" style="stroke:#C82930;stroke-width:1;" width="6" x="310" y="450.8453"/><text fill="#000000" font-family="sans-serif" font-size="14" lengthAdjust="spacing" textLength="108.2676" x="322" y="457.192">void onExport()</text></g><!--class ManageTagsPopupController--><g id="elem_ManageTagsPopupController"><rect codeLine="56" fill="#F1F1F1" height="113.1875" id="ManageTagsPopupController" rx="2.5" ry="2.5" style="stroke:#181818;stroke-width:0.5;" width="233.749" x="1252.15" y="72.19"/><ellipse cx="1267.15" cy="88.19" fill="#ADD1B2" rx="11" ry="11" style="stroke:#181818;stroke-width:1;"/><path d="M1270.1188,93.8306 Q1269.5406,94.1275 1268.9,94.2681 Q1268.2594,94.4244 1267.5563,94.4244 Q1265.0563,94.4244 1263.7281,92.7838 Q1262.4156,91.1275 1262.4156,88.0025 Q1262.4156,84.8775 1263.7281,83.2213 Q1265.0563,81.565 1267.5563,81.565 Q1268.2594,81.565 1268.9,81.7213 Q1269.5563,81.8775 1270.1188,82.1744 L1270.1188,84.8931 Q1269.4938,84.315 1268.9,84.0494 Q1268.3063,83.7681 1267.6813,83.7681 Q1266.3375,83.7681 1265.65,84.8463 Q1264.9625,85.9088 1264.9625,88.0025 Q1264.9625,90.0963 1265.65,91.1744 Q1266.3375,92.2369 1267.6813,92.2369 Q1268.3063,92.2369 1268.9,91.9713 Q1269.4938,91.69 1270.1188,91.1119 L1270.1188,93.8306 Z " fill="#000000"/><text fill="#000000" font-family="sans-serif" font-size="14" lengthAdjust="spacing" textLength="201.749" x="1281.15" y="93.0367">ManageTagsPopupController</text><line style="stroke:#181818;stroke-width:0.5;" x1="1253.15" x2="1484.899" y1="104.19" y2="104.19"/><rect fill="none" height="6" style="stroke:#C82930;stroke-width:1;" width="6" x="1260.15" y="114.8384"/><text fill="#000000" font-family="sans-serif" font-size="14" lengthAdjust="spacing" textLength="176.1553" x="1272.15" y="121.1851">TagManager tagManager</text><line style="stroke:#181818;stroke-width:0.5;" x1="1253.15" x2="1484.899" y1="128.4869" y2="128.4869"/><rect fill="#F24D5C" height="6" style="stroke:#C82930;stroke-width:1;" width="6" x="1260.15" y="139.1353"/><text fill="#000000" font-family="sans-serif" font-size="14" lengthAdjust="spacing" textLength="89.79" x="1272.15" y="145.482">void onAdd()</text><rect fill="#F24D5C" height="6" style="stroke:#C82930;stroke-width:1;" width="6" x="1260.15" y="155.4322"/><text fill="#000000" font-family="sans-serif" font-size="14" lengthAdjust="spacing" textLength="113.1416" x="1272.15" y="161.7789">void onUpdate()</text><rect fill="#F24D5C" height="6" style="stroke:#C82930;stroke-width:1;" width="6" x="1260.15" y="171.7291"/><text fill="#000000" font-family="sans-serif" font-size="14" lengthAdjust="spacing" textLength="108.4385" x="1272.15" y="178.0757">void onDelete()</text></g><!--class ImagePopupController--><g id="elem_ImagePopupController"><rect codeLine="63" fill="#F1F1F1" height="64.2969" id="ImagePopupController" rx="2.5" ry="2.5" style="stroke:#181818;stroke-width:0.5;" width="193.3438" x="1010.35" y="392.05"/><ellipse cx="1027.4519" cy="408.05" fill="#ADD1B2" rx="11" ry="11" style="stroke:#181818;stroke-width:1;"/><path d="M1030.4207,413.6906 Q1029.8425,413.9875 1029.2019,414.1281 Q1028.5613,414.2844 1027.8582,414.2844 Q1025.3582,414.2844 1024.03,412.6438 Q1022.7175,410.9875 1022.7175,407.8625 Q1022.7175,404.7375 1024.03,403.0813 Q1025.3582,401.425 1027.8582,401.425 Q1028.5613,401.425 1029.2019,401.5813 Q1029.8582,401.7375 1030.4207,402.0344 L1030.4207,404.7531 Q1029.7957,404.175 1029.2019,403.9094 Q1028.6082,403.6281 1027.9832,403.6281 Q1026.6394,403.6281 1025.9519,404.7063 Q1025.2644,405.7688 1025.2644,407.8625 Q1025.2644,409.9563 1025.9519,411.0344 Q1026.6394,412.0969 1027.9832,412.0969 Q1028.6082,412.0969 1029.2019,411.8313 Q1029.7957,411.55 1030.4207,410.9719 L1030.4207,413.6906 Z " fill="#000000"/><text fill="#000000" font-family="sans-serif" font-size="14" lengthAdjust="spacing" textLength="156.6729" x="1041.919" y="412.8967">ImagePopupController</text><line style="stroke:#181818;stroke-width:0.5;" x1="1011.35" x2="1202.6938" y1="424.05" y2="424.05"/><line style="stroke:#181818;stroke-width:0.5;" x1="1011.35" x2="1202.6938" y1="432.05" y2="432.05"/><ellipse cx="1021.35" cy="445.6984" fill="#84BE84" rx="3" ry="3" style="stroke:#038048;stroke-width:1;"/><text fill="#000000" font-family="sans-serif" font-size="14" lengthAdjust="spacing" textLength="167.3438" x="1030.35" y="449.0451">File getSelectedImage()</text></g><!--class ConfirmPopupController--><g id="elem_ConfirmPopupController"><rect codeLine="67" fill="#F1F1F1" height="80.5938" id="ConfirmPopupController" rx="2.5" ry="2.5" style="stroke:#181818;stroke-width:0.5;" width="200.2529" x="1258.89" y="383.9"/><ellipse cx="1273.89" cy="399.9" fill="#ADD1B2" rx="11" ry="11" style="stroke:#181818;stroke-width:1;"/><path d="M1276.8588,405.5406 Q1276.2806,405.8375 1275.64,405.9781 Q1274.9994,406.1344 1274.2963,406.1344 Q1271.7963,406.1344 1270.4681,404.4938 Q1269.1556,402.8375 1269.1556,399.7125 Q1269.1556,396.5875 1270.4681,394.9313 Q1271.7963,393.275 1274.2963,393.275 Q1274.9994,393.275 1275.64,393.4313 Q1276.2963,393.5875 1276.8588,393.8844 L1276.8588,396.6031 Q1276.2338,396.025 1275.64,395.7594 Q1275.0463,395.4781 1274.4213,395.4781 Q1273.0775,395.4781 1272.39,396.5563 Q1271.7025,397.6188 1271.7025,399.7125 Q1271.7025,401.8063 1272.39,402.8844 Q1273.0775,403.9469 1274.4213,403.9469 Q1275.0463,403.9469 1275.64,403.6813 Q1276.2338,403.4 1276.8588,402.8219 L1276.8588,405.5406 Z " fill="#000000"/><text fill="#000000" font-family="sans-serif" font-size="14" lengthAdjust="spacing" textLength="168.2529" x="1287.89" y="404.7467">ConfirmPopupController</text><line style="stroke:#181818;stroke-width:0.5;" x1="1259.89" x2="1458.1429" y1="415.9" y2="415.9"/><line style="stroke:#181818;stroke-width:0.5;" x1="1259.89" x2="1458.1429" y1="423.9" y2="423.9"/><text fill="#000000" font-family="sans-serif" font-size="14" lengthAdjust="spacing" textLength="83.7881" x="1264.89" y="440.8951">onConfirm()</text><text fill="#000000" font-family="sans-serif" font-size="14" lengthAdjust="spacing" textLength="75.79" x="1264.89" y="457.192">onCancel()</text></g><!--class ConfigPopupController--><g id="elem_ConfigPopupController"><rect codeLine="72" fill="#F1F1F1" height="80.5938" id="ConfigPopupController" rx="2.5" ry="2.5" style="stroke:#181818;stroke-width:0.5;" width="189.7461" x="1521.15" y="88.48"/><ellipse cx="1536.15" cy="104.48" fill="#ADD1B2" rx="11" ry="11" style="stroke:#181818;stroke-width:1;"/><path d="M1539.1188,110.1206 Q1538.5406,110.4175 1537.9,110.5581 Q1537.2594,110.7144 1536.5563,110.7144 Q1534.0563,110.7144 1532.7281,109.0738 Q1531.4156,107.4175 1531.4156,104.2925 Q1531.4156,101.1675 1532.7281,99.5113 Q1534.0563,97.855 1536.5563,97.855 Q1537.2594,97.855 1537.9,98.0113 Q1538.5563,98.1675 1539.1188,98.4644 L1539.1188,101.1831 Q1538.4938,100.605 1537.9,100.3394 Q1537.3063,100.0581 1536.6813,100.0581 Q1535.3375,100.0581 1534.65,101.1363 Q1533.9625,102.1988 1533.9625,104.2925 Q1533.9625,106.3863 1534.65,107.4644 Q1535.3375,108.5269 1536.6813,108.5269 Q1537.3063,108.5269 1537.9,108.2613 Q1538.4938,107.98 1539.1188,107.4019 L1539.1188,110.1206 Z " fill="#000000"/><text fill="#000000" font-family="sans-serif" font-size="14" lengthAdjust="spacing" textLength="157.7461" x="1550.15" y="109.3267">ConfigPopupController</text><line style="stroke:#181818;stroke-width:0.5;" x1="1522.15" x2="1709.8961" y1="120.48" y2="120.48"/><line style="stroke:#181818;stroke-width:0.5;" x1="1522.15" x2="1709.8961" y1="128.48" y2="128.48"/><rect fill="#F24D5C" height="6" style="stroke:#C82930;stroke-width:1;" width="6" x="1529.15" y="139.1284"/><text fill="#000000" font-family="sans-serif" font-size="14" lengthAdjust="spacing" textLength="103.4893" x="1541.15" y="145.4751">void onVerify()</text><rect fill="#F24D5C" height="6" style="stroke:#C82930;stroke-width:1;" width="6" x="1529.15" y="155.4253"/><text fill="#000000" font-family="sans-serif" font-size="14" lengthAdjust="spacing" textLength="117.8652" x="1541.15" y="161.772">void onConfirm()</text></g><!--class Tag--><g id="elem_Tag"><rect codeLine="77" fill="#F1F1F1" height="80.5938" id="Tag" rx="2.5" ry="2.5" style="stroke:#181818;stroke-width:0.5;" width="151.6582" x="763.19" y="630.42"/><ellipse cx="821.7603" cy="646.42" fill="#ADD1B2" rx="11" ry="11" style="stroke:#181818;stroke-width:1;"/><path d="M824.7291,652.0606 Q824.1509,652.3575 823.5103,652.4981 Q822.8697,652.6544 822.1666,652.6544 Q819.6666,652.6544 818.3384,651.0138 Q817.0259,649.3575 817.0259,646.2325 Q817.0259,643.1075 818.3384,641.4513 Q819.6666,639.795 822.1666,639.795 Q822.8697,639.795 823.5103,639.9513 Q824.1666,640.1075 824.7291,640.4044 L824.7291,643.1231 Q824.1041,642.545 823.5103,642.2794 Q822.9166,641.9981 822.2916,641.9981 Q820.9478,641.9981 820.2603,643.0763 Q819.5728,644.1388 819.5728,646.2325 Q819.5728,648.3263 820.2603,649.4044 Q820.9478,650.4669 822.2916,650.4669 Q822.9166,650.4669 823.5103,650.2013 Q824.1041,649.92 824.7291,649.3419 L824.7291,652.0606 Z " fill="#000000"/><text fill="#000000" font-family="sans-serif" font-size="14" lengthAdjust="spacing" textLength="26.0176" x="842.2603" y="651.2667">Tag</text><line style="stroke:#181818;stroke-width:0.5;" x1="764.19" x2="913.8482" y1="662.42" y2="662.42"/><rect fill="none" height="6" style="stroke:#C82930;stroke-width:1;" width="6" x="771.19" y="673.0684"/><text fill="#000000" font-family="sans-serif" font-size="14" lengthAdjust="spacing" textLength="70.0889" x="783.19" y="679.4151">final int id</text><rect fill="none" height="6" style="stroke:#C82930;stroke-width:1;" width="6" x="771.19" y="689.3653"/><text fill="#000000" font-family="sans-serif" font-size="14" lengthAdjust="spacing" textLength="125.6582" x="783.19" y="695.712">String descrizione</text><line style="stroke:#181818;stroke-width:0.5;" x1="764.19" x2="913.8482" y1="703.0138" y2="703.0138"/></g><!--class Database--><g id="elem_Database"><rect codeLine="82" fill="#F1F1F1" height="129.4844" id="Database" rx="2.5" ry="2.5" style="stroke:#181818;stroke-width:0.5;" width="290.6602" x="949.69" y="605.98"/><ellipse cx="1057.3697" cy="621.98" fill="#ADD1B2" rx="11" ry="11" style="stroke:#181818;stroke-width:1;"/><path d="M1060.3384,627.6206 Q1059.7603,627.9175 1059.1197,628.0581 Q1058.4791,628.2144 1057.7759,628.2144 Q1055.2759,628.2144 1053.9478,626.5738 Q1052.6353,624.9175 1052.6353,621.7925 Q1052.6353,618.6675 1053.9478,617.0113 Q1055.2759,615.355 1057.7759,615.355 Q1058.4791,615.355 1059.1197,615.5113 Q1059.7759,615.6675 1060.3384,615.9644 L1060.3384,618.6831 Q1059.7134,618.105 1059.1197,617.8394 Q1058.5259,617.5581 1057.9009,617.5581 Q1056.5572,617.5581 1055.8697,618.6363 Q1055.1822,619.6988 1055.1822,621.7925 Q1055.1822,623.8863 1055.8697,624.9644 Q1056.5572,626.0269 1057.9009,626.0269 Q1058.5259,626.0269 1059.1197,625.7613 Q1059.7134,625.48 1060.3384,624.9019 L1060.3384,627.6206 Z " fill="#000000"/><text fill="#000000" font-family="sans-serif" font-size="14" lengthAdjust="spacing" textLength="66.8008" x="1077.8697" y="626.8267">Database</text><line style="stroke:#181818;stroke-width:0.5;" x1="950.69" x2="1239.3502" y1="637.98" y2="637.98"/><line style="stroke:#181818;stroke-width:0.5;" x1="950.69" x2="1239.3502" y1="645.98" y2="645.98"/><ellipse cx="960.69" cy="659.6284" fill="#84BE84" rx="3" ry="3" style="stroke:#038048;stroke-width:1;"/><text fill="#000000" font-family="sans-serif" font-size="14" lengthAdjust="spacing" text-decoration="underline" textLength="216.1318" x="969.69" y="662.9751">boolean verifyDBUrl(String url)</text><ellipse cx="960.69" cy="675.9253" fill="#84BE84" rx="3" ry="3" style="stroke:#038048;stroke-width:1;"/><text fill="#000000" font-family="sans-serif" font-size="14" lengthAdjust="spacing" textLength="210.998" x="969.69" y="679.272">void upsertContact(Contact c)</text><ellipse cx="960.69" cy="692.2222" fill="#84BE84" rx="3" ry="3" style="stroke:#038048;stroke-width:1;"/><text fill="#000000" font-family="sans-serif" font-size="14" lengthAdjust="spacing" textLength="177.9121" x="969.69" y="695.5689">void removeTag(Tag tag)</text><ellipse cx="960.69" cy="708.5191" fill="#84BE84" rx="3" ry="3" style="stroke:#038048;stroke-width:1;"/><text fill="#000000" font-family="sans-serif" font-size="14" lengthAdjust="spacing" textLength="264.6602" x="969.69" y="711.8657">Collection&lt;Contact&gt; getAllContacts()</text><ellipse cx="960.69" cy="724.8159" fill="#84BE84" rx="3" ry="3" style="stroke:#038048;stroke-width:1;"/><text fill="#000000" font-family="sans-serif" font-size="14" lengthAdjust="spacing" textLength="207.7578" x="969.69" y="728.1626">Collection&lt;Tag&gt; getAllTags()</text></g><!--class Serializable--><g id="elem_Serializable"><rect codeLine="91" fill="#F1F1F1" height="48" id="Serializable" rx="2.5" ry="2.5" style="stroke:#181818;stroke-width:0.5;" width="112.8213" x="675.61" y="803.61"/><ellipse cx="690.61" cy="819.61" fill="#B4A7E5" rx="11" ry="11" style="stroke:#181818;stroke-width:1;"/><path d="M686.5319,815.3756 L686.5319,813.2194 L693.9225,813.2194 L693.9225,815.3756 L691.4538,815.3756 L691.4538,823.4538 L693.9225,823.4538 L693.9225,825.61 L686.5319,825.61 L686.5319,823.4538 L689.0006,823.4538 L689.0006,815.3756 L686.5319,815.3756 Z " fill="#000000"/><text fill="#000000" font-family="sans-serif" font-size="14" font-style="italic" lengthAdjust="spacing" textLength="80.8213" x="704.61" y="824.4567">Serializable</text><line style="stroke:#181818;stroke-width:0.5;" x1="676.61" x2="787.4313" y1="835.61" y2="835.61"/><line style="stroke:#181818;stroke-width:0.5;" x1="676.61" x2="787.4313" y1="843.61" y2="843.61"/></g><!--class TagManager--><g id="elem_TagManager"><rect codeLine="93" fill="#F1F1F1" height="113.1875" id="TagManager" rx="2.5" ry="2.5" style="stroke:#181818;stroke-width:0.5;" width="268.8057" x="1275.62" y="614.13"/><ellipse cx="1362.0809" cy="630.13" fill="#B4A7E5" rx="11" ry="11" style="stroke:#181818;stroke-width:1;"/><path d="M1358.0028,625.8956 L1358.0028,623.7394 L1365.3934,623.7394 L1365.3934,625.8956 L1362.9247,625.8956 L1362.9247,633.9738 L1365.3934,633.9738 L1365.3934,636.13 L1358.0028,636.13 L1358.0028,633.9738 L1360.4716,633.9738 L1360.4716,625.8956 L1358.0028,625.8956 Z " fill="#000000"/><text fill="#000000" font-family="sans-serif" font-size="14" font-style="italic" lengthAdjust="spacing" textLength="87.3838" x="1382.5809" y="634.9767">TagManager</text><line style="stroke:#181818;stroke-width:0.5;" x1="1276.62" x2="1543.4257" y1="646.13" y2="646.13"/><line style="stroke:#181818;stroke-width:0.5;" x1="1276.62" x2="1543.4257" y1="654.13" y2="654.13"/><ellipse cx="1286.62" cy="667.7784" fill="#84BE84" rx="3" ry="3" style="stroke:#038048;stroke-width:1;"/><text fill="#000000" font-family="sans-serif" font-size="14" font-style="italic" lengthAdjust="spacing" textLength="150.7939" x="1295.62" y="671.1251">void addTag(Tag tag)</text><ellipse cx="1286.62" cy="684.0753" fill="#84BE84" rx="3" ry="3" style="stroke:#038048;stroke-width:1;"/><text fill="#000000" font-family="sans-serif" font-size="14" font-style="italic" lengthAdjust="spacing" textLength="174.3027" x="1295.62" y="687.422">Tag removeTag(Tag tag)</text><ellipse cx="1286.62" cy="700.3722" fill="#84BE84" rx="3" ry="3" style="stroke:#038048;stroke-width:1;"/><text fill="#000000" font-family="sans-serif" font-size="14" font-style="italic" lengthAdjust="spacing" textLength="125.877" x="1295.62" y="703.7189">Tag getTag(int id)</text><ellipse cx="1286.62" cy="716.6691" fill="#84BE84" rx="3" ry="3" style="stroke:#038048;stroke-width:1;"/><text fill="#000000" font-family="sans-serif" font-size="14" font-style="italic" lengthAdjust="spacing" textLength="242.8057" x="1295.62" y="720.0157">ObservableList&lt;Tag&gt; getAllTags()</text></g><!--class ContactManager--><g id="elem_ContactManager"><rect codeLine="100" fill="#F1F1F1" height="96.8906" id="ContactManager" rx="2.5" ry="2.5" style="stroke:#181818;stroke-width:0.5;" width="325.708" x="163.17" y="622.27"/><ellipse cx="263.8565" cy="638.27" fill="#B4A7E5" rx="11" ry="11" style="stroke:#181818;stroke-width:1;"/><path d="M259.7784,634.0356 L259.7784,631.8794 L267.169,631.8794 L267.169,634.0356 L264.7003,634.0356 L264.7003,642.1138 L267.169,642.1138 L267.169,644.27 L259.7784,644.27 L259.7784,642.1138 L262.2471,642.1138 L262.2471,634.0356 L259.7784,634.0356 Z " fill="#000000"/><text fill="#000000" font-family="sans-serif" font-size="14" font-style="italic" lengthAdjust="spacing" textLength="115.835" x="284.3565" y="643.1167">ContactManager</text><line style="stroke:#181818;stroke-width:0.5;" x1="164.17" x2="487.878" y1="654.27" y2="654.27"/><line style="stroke:#181818;stroke-width:0.5;" x1="164.17" x2="487.878" y1="662.27" y2="662.27"/><ellipse cx="174.17" cy="675.9184" fill="#84BE84" rx="3" ry="3" style="stroke:#038048;stroke-width:1;"/><text fill="#000000" font-family="sans-serif" font-size="14" font-style="italic" lengthAdjust="spacing" textLength="299.708" x="183.17" y="679.2651">ObservableList&lt;Contact&gt; getAllContacts()</text><ellipse cx="174.17" cy="692.2153" fill="#84BE84" rx="3" ry="3" style="stroke:#038048;stroke-width:1;"/><text fill="#000000" font-family="sans-serif" font-size="14" font-style="italic" lengthAdjust="spacing" textLength="158.3613" x="183.17" y="695.562">addContact(Contact c)</text><ellipse cx="174.17" cy="708.5122" fill="#84BE84" rx="3" ry="3" style="stroke:#038048;stroke-width:1;"/><text fill="#000000" font-family="sans-serif" font-size="14" font-style="italic" lengthAdjust="spacing" textLength="185.4795" x="183.17" y="711.8589">removeContact(Contact c)</text></g><!--link Contact to Serializable--><g id="link_Contact_Serializable"><path codeLine="107" d="M702.04,743.65 C702.04,765.1 702.04,769.1 702.04,785.19 " fill="none" id="Contact-to-Serializable" style="stroke:#181818;stroke-width:1;stroke-dasharray:7.0,7.0;"/><polygon fill="none" points="702.04,803.19,708.04,785.19,696.04,785.19,702.04,803.19" style="stroke:#181818;stroke-width:1;"/></g><!--link Tag to Serializable--><g id="link_Tag_Serializable"><path codeLine="109" d="M775.81,711.12 C775.81,740.36 775.81,760.89 775.81,785.47 " fill="none" id="Tag-to-Serializable" style="stroke:#181818;stroke-width:1;stroke-dasharray:7.0,7.0;"/><polygon fill="none" points="775.81,803.47,781.81,785.47,769.81,785.47,775.81,803.47" style="stroke:#181818;stroke-width:1;"/></g><!--reverse link AddressBook to Contact--><g id="link_AddressBook_Contact"><path codeLine="111" d="M715.66,550.08 C715.66,570.26 715.66,578.79 715.66,597.46 " fill="none" id="AddressBook-backto-Contact" style="stroke:#181818;stroke-width:1;"/><polygon fill="none" points="715.66,538.08,711.66,544.08,715.66,550.08,719.66,544.08,715.66,538.08" style="stroke:#181818;stroke-width:1;"/><text fill="#000000" font-family="sans-serif" font-size="13" lengthAdjust="spacing" textLength="8.271" x="699.5097" y="557.9275">1</text><text fill="#000000" font-family="sans-serif" font-size="13" lengthAdjust="spacing" textLength="23.0356" x="700.1089" y="586.8357">0..*</text></g><!--reverse link AddressBook to Database--><g id="link_AddressBook_Database"><path codeLine="112" d="M962.45,550.08 C962.45,573.29 962.45,584.95 962.45,605.74 " fill="none" id="AddressBook-backto-Database" style="stroke:#181818;stroke-width:1;"/><polygon fill="#181818" points="962.45,538.08,958.45,544.08,962.45,550.08,966.45,544.08,962.45,538.08" style="stroke:#181818;stroke-width:1;"/><text fill="#000000" font-family="sans-serif" font-size="13" lengthAdjust="spacing" textLength="8.271" x="962.1097" y="557.9275">1</text><text fill="#000000" font-family="sans-serif" font-size="13" lengthAdjust="spacing" textLength="24.8066" x="922.6818" y="594.8864">0..1</text></g><!--reverse link AddressBook to Tag--><g id="link_AddressBook_Tag"><path codeLine="113" d="M839.02,550.08 C839.02,583 839.02,604.83 839.02,630.08 " fill="none" id="AddressBook-backto-Tag" style="stroke:#181818;stroke-width:1;"/><polygon fill="none" points="839.02,538.08,835.02,544.08,839.02,550.08,843.02,544.08,839.02,538.08" style="stroke:#181818;stroke-width:1;"/><text fill="#000000" font-family="sans-serif" font-size="13" lengthAdjust="spacing" textLength="8.271" x="830.7724" y="557.9275">1</text><text fill="#000000" font-family="sans-serif" font-size="13" lengthAdjust="spacing" textLength="23.0356" x="814.1902" y="619.4857">0..*</text></g><!--link AddressBook to TagManager--><g id="link_AddressBook_TagManager"><path codeLine="114" d="M975.43,501.61 C1131.98,501.61 1367.38,501.61 1367.38,501.61 C1367.38,501.61 1367.38,546.81 1367.38,595.94 " fill="none" id="AddressBook-to-TagManager" style="stroke:#181818;stroke-width:1;stroke-dasharray:7.0,7.0;"/><polygon fill="none" points="1367.38,613.94,1373.38,595.94,1361.38,595.94,1367.38,613.94" style="stroke:#181818;stroke-width:1;"/></g><!--link AddressBook to ContactManager--><g id="link_AddressBook_ContactManager"><path codeLine="115" d="M702.54,501.61 C582.45,501.61 426.58,501.61 426.58,501.61 C426.58,501.61 426.58,553.86 426.58,603.81 " fill="none" id="AddressBook-to-ContactManager" style="stroke:#181818;stroke-width:1;stroke-dasharray:7.0,7.0;"/><polygon fill="none" points="426.58,621.81,432.58,603.81,420.58,603.81,426.58,621.81" style="stroke:#181818;stroke-width:1;"/></g><!--reverse link MainController to AddressBook--><g id="link_MainController_AddressBook"><path codeLine="117" d="M993.75,262.99 C993.75,313.12 993.75,347.61 993.75,347.61 C993.75,347.61 986.73,347.61 975.69,347.61 " fill="none" id="MainController-backto-AddressBook" style="stroke:#181818;stroke-width:1;"/><polygon fill="none" points="993.75,250.99,989.75,256.99,993.75,262.99,997.75,256.99,993.75,250.99" style="stroke:#181818;stroke-width:1;"/><text fill="#000000" font-family="sans-serif" font-size="13" lengthAdjust="spacing" textLength="8.271" x="979.5563" y="270.5595">1</text><text fill="#000000" font-family="sans-serif" font-size="13" lengthAdjust="spacing" textLength="8.271" x="983.3903" y="340.0822">1</text></g><!--link MainController to ImagePopupController--><g id="link_MainController_ImagePopupController"><path codeLine="118" d="M1107.02,250.64 C1107.02,301.98 1107.02,351.62 1107.02,385.69 " fill="none" id="MainController-to-ImagePopupController" style="stroke:#181818;stroke-width:1;stroke-dasharray:7.0,7.0;"/><polygon fill="#181818" points="1107.02,391.69,1111.02,382.69,1107.02,386.69,1103.02,382.69,1107.02,391.69" style="stroke:#181818;stroke-width:1;"/></g><!--link MainController to ConfirmPopupController--><g id="link_MainController_ConfirmPopupController"><path codeLine="119" d="M1210.3,250.71 C1210.3,318.22 1210.3,388.61 1210.3,388.61 C1210.3,388.61 1225.87,388.61 1252.58,388.61 " fill="none" id="MainController-to-ConfirmPopupController" style="stroke:#181818;stroke-width:1;stroke-dasharray:7.0,7.0;"/><polygon fill="#181818" points="1258.58,388.61,1249.58,384.61,1253.58,388.61,1249.58,392.61,1258.58,388.61" style="stroke:#181818;stroke-width:1;"/></g><!--link ManageTagsPopupController to ConfirmPopupController--><g id="link_ManageTagsPopupController_ConfirmPopupController"><path codeLine="121" d="M1359.02,185.74 C1359.02,243.75 1359.02,326.26 1359.02,377.55 " fill="none" id="ManageTagsPopupController-to-ConfirmPopupController" style="stroke:#181818;stroke-width:1;stroke-dasharray:7.0,7.0;"/><polygon fill="#181818" points="1359.02,383.55,1363.02,374.55,1359.02,378.55,1355.02,374.55,1359.02,383.55" style="stroke:#181818;stroke-width:1;"/></g><!--reverse link ExportPopupController to ContactManager--><g id="link_ExportPopupController_ContactManager"><path codeLine="123" d="M364.29,476.9 C364.29,519.98 364.29,575.96 364.29,621.89 " fill="none" id="ExportPopupController-backto-ContactManager" style="stroke:#181818;stroke-width:1;"/><polygon fill="none" points="364.29,464.9,360.29,470.9,364.29,476.9,368.29,470.9,364.29,464.9" style="stroke:#181818;stroke-width:1;"/><text fill="#000000" font-family="sans-serif" font-size="13" lengthAdjust="spacing" textLength="8.271" x="344.8795" y="484.6599">1</text><text fill="#000000" font-family="sans-serif" font-size="13" lengthAdjust="spacing" textLength="8.271" x="361.1277" y="611.0455">1</text></g><!--reverse link ImportPopupController to ContactManager--><g id="link_ImportPopupController_ContactManager"><path codeLine="125" d="M215.1,476.9 C215.1,519.98 215.1,575.96 215.1,621.89 " fill="none" id="ImportPopupController-backto-ContactManager" style="stroke:#181818;stroke-width:1;"/><polygon fill="none" points="215.1,464.9,211.1,470.9,215.1,476.9,219.1,470.9,215.1,464.9" style="stroke:#181818;stroke-width:1;"/><text fill="#000000" font-family="sans-serif" font-size="13" lengthAdjust="spacing" textLength="8.271" x="218.9279" y="484.6599">1</text><text fill="#000000" font-family="sans-serif" font-size="13" lengthAdjust="spacing" textLength="8.271" x="190.9579" y="611.0455">1</text></g><!--SRC=[fLPBRzim3BxxLmYzD6lHOBiN0V8gaA4lDEqE6tQGRSOLAak6f6Hji_ptKRRioBRS7kPBR7uVARv4HhymKL15SyAP0FDM097AFClebCF642E9Ojcp8IbJa1WcHHH5fsUzXyolf-lrYlIHAE5KQpANmj34a7r4yBaWQwEOo8YWEP2sI6zLN_hhDn7RF0QbksB8AUErD7upWB92oGtZSCyIirLGQu2vN0a36QW9CJHRYHHUGHCI7IBdv3HD5MWza_AbSNIl3JKiERH09b0gajhqNQn1xMZCuPffS-bYdP2aUj4zclMbYg1qfHqKIUCdnPreGGsDgGOKHgNedEmaIuccEy1pDYmRVV7bND8q9BVykzdtHkX7OtLyh55ub8lPeCQLahc5BNfCuGrbmiQl9EUWcYpwolJu7ZcuF54APBdSkLCRn8ddd2Kla7RHTPMCaEADJDdcRG1yW5mEQivjWNbRgf_bdrLUu0svbyMsw8FBrm_0gYu3u2gd6GnWDrGW-8YDKXEQV7lU1DBkGglqLTsFxhCTRcN8D-t5yd-cAqE-wKv00VE8rQPDyzhhbcxDdegK6kXA5y2Xb7fPgvFTE_gSNE7e81cODQeb1jAIx6kNTLHvMB_iLGixBxn6QXl8Xa9tNly0XPqRk0ZEU6CDKzNeRfYW7CUJ8Ipj31NGYMBlEC7XgDfCbphsPjh5KdAWWknABnOpd4WZPschU6jIR0iSQwQ-HVMWJreSLTuqz7HalSMArkZSnbukbkFOnDnFENUVUXIWef6QPfl8PeE4zzBgzd7vS3MTpvUXtOI90hMX2U1sK8nozcwdS-J9lJvqEThJM1k5dXsgq72SzUFoI1OO2hz3muWifofVdz9PCu4a-9vtBkZ-CtEVfDzJfCSntQssnrAjuUeH3-5AFIolfpzNTxV1Fn6r-dZyTzAfbKrSGEnld9Dl9qHUN92Jh-FnsKcTcHxbp57mjRuO7vd1WrjmwSInN_fOko9HrDcLZNdyzNIxjF5u4fnV8LvuKjcJX-RlHrhXXU2xtOqml9s6DVu1]--></g></svg>