<?xml version="1.0" encoding="us-ascii" standalone="no"?><svg xmlns="http://www.w3.org/2000/svg" xmlns:xlink="http://www.w3.org/1999/xlink" contentStyleType="text/css" height="897px" preserveAspectRatio="none" style="width:1412px;height:897px;background:#FFFFFF;" version="1.1" viewBox="0 0 1412 897" width="1412px" zoomAndPan="magnify"><defs/><g><!--class Contact--><g id="elem_Contact"><rect codeLine="6" fill="#F1F1F1" height="153.6563" id="Contact" rx="2.5" ry="2.5" style="stroke:#181818;stroke-width:0.5;" width="179" x="453" y="628"/><ellipse cx="513.75" cy="644" fill="#ADD1B2" rx="11" ry="11" style="stroke:#181818;stroke-width:1.0;"/><path d="M516.5156,639.875 Q516.6719,639.6563 516.8594,639.5469 Q517.0469,639.4375 517.2656,639.4375 Q517.6406,639.4375 517.875,639.7031 Q518.1094,639.9531 518.1094,640.5625 L518.1094,642.0156 Q518.1094,642.625 517.875,642.8906 Q517.6406,643.1563 517.2656,643.1563 Q516.9219,643.1563 516.7188,642.9531 Q516.5156,642.7656 516.4063,642.25 Q516.3594,641.8906 516.1719,641.7031 Q515.8438,641.3281 515.2344,641.1094 Q514.625,640.8906 514,640.8906 Q513.2344,640.8906 512.5938,641.2188 Q511.9688,641.5469 511.4688,642.2969 Q510.9844,643.0469 510.9844,644.0781 L510.9844,645.1719 Q510.9844,646.4063 511.875,647.2344 Q512.7656,648.0469 514.3594,648.0469 Q515.2969,648.0469 515.9531,647.7969 Q516.3438,647.6406 516.7656,647.2031 Q517.0313,646.9375 517.1719,646.8594 Q517.3281,646.7813 517.5313,646.7813 Q517.8594,646.7813 518.1094,647.0469 Q518.375,647.2969 518.375,647.6406 Q518.375,647.9844 518.0313,648.3906 Q517.5313,648.9688 516.7344,649.2969 Q515.6563,649.75 514.3594,649.75 Q512.8438,649.75 511.6406,649.125 Q510.6563,648.625 509.9688,647.5625 Q509.2813,646.4844 509.2813,645.2031 L509.2813,644.0469 Q509.2813,642.7188 509.8906,641.5781 Q510.5156,640.4219 511.6094,639.8125 Q512.7031,639.1875 513.9375,639.1875 Q514.6719,639.1875 515.3125,639.3594 Q515.9688,639.5156 516.5156,639.875 Z " fill="#000000"/><text fill="#000000" font-family="sans-serif" font-size="14" lengthAdjust="spacing" textLength="49" x="534.25" y="649.7285">Contact</text><line style="stroke:#181818;stroke-width:0.5;" x1="454" x2="631" y1="660" y2="660"/><rect fill="none" height="6" style="stroke:#C82930;stroke-width:1.0;" width="6" x="461" y="671.3047"/><text fill="#000000" font-family="sans-serif" font-size="14" lengthAdjust="spacing" textLength="76" x="473" y="678.5332">String name</text><rect fill="none" height="6" style="stroke:#C82930;stroke-width:1.0;" width="6" x="461" y="688.9141"/><text fill="#000000" font-family="sans-serif" font-size="14" lengthAdjust="spacing" textLength="96" x="473" y="696.1426">String surname</text><rect fill="none" height="6" style="stroke:#C82930;stroke-width:1.0;" width="6" x="461" y="706.5234"/><text fill="#000000" font-family="sans-serif" font-size="14" lengthAdjust="spacing" textLength="104" x="473" y="713.752">String[] numbers</text><rect fill="none" height="6" style="stroke:#C82930;stroke-width:1.0;" width="6" x="461" y="724.1328"/><text fill="#000000" font-family="sans-serif" font-size="14" lengthAdjust="spacing" textLength="89" x="473" y="731.3613">String[] emails</text><rect fill="none" height="6" style="stroke:#C82930;stroke-width:1.0;" width="6" x="461" y="741.7422"/><text fill="#000000" font-family="sans-serif" font-size="14" lengthAdjust="spacing" textLength="122" x="473" y="748.9707">byte[] profilePicture</text><rect fill="none" height="6" style="stroke:#C82930;stroke-width:1.0;" width="6" x="461" y="759.3516"/><text fill="#000000" font-family="sans-serif" font-size="14" lengthAdjust="spacing" textLength="153" x="473" y="766.5801">Set&lt;Integer&gt; tagIndexes</text><line style="stroke:#181818;stroke-width:0.5;" x1="454" x2="631" y1="773.6563" y2="773.6563"/></g><!--class AddressBook--><g id="elem_AddressBook"><rect codeLine="15" fill="#F1F1F1" height="241.7031" id="AddressBook" rx="2.5" ry="2.5" style="stroke:#181818;stroke-width:0.5;" width="243" x="675" y="326"/><ellipse cx="750.25" cy="342" fill="#ADD1B2" rx="11" ry="11" style="stroke:#181818;stroke-width:1.0;"/><path d="M753.0156,337.875 Q753.1719,337.6563 753.3594,337.5469 Q753.5469,337.4375 753.7656,337.4375 Q754.1406,337.4375 754.375,337.7031 Q754.6094,337.9531 754.6094,338.5625 L754.6094,340.0156 Q754.6094,340.625 754.375,340.8906 Q754.1406,341.1563 753.7656,341.1563 Q753.4219,341.1563 753.2188,340.9531 Q753.0156,340.7656 752.9063,340.25 Q752.8594,339.8906 752.6719,339.7031 Q752.3438,339.3281 751.7344,339.1094 Q751.125,338.8906 750.5,338.8906 Q749.7344,338.8906 749.0938,339.2188 Q748.4688,339.5469 747.9688,340.2969 Q747.4844,341.0469 747.4844,342.0781 L747.4844,343.1719 Q747.4844,344.4063 748.375,345.2344 Q749.2656,346.0469 750.8594,346.0469 Q751.7969,346.0469 752.4531,345.7969 Q752.8438,345.6406 753.2656,345.2031 Q753.5313,344.9375 753.6719,344.8594 Q753.8281,344.7813 754.0313,344.7813 Q754.3594,344.7813 754.6094,345.0469 Q754.875,345.2969 754.875,345.6406 Q754.875,345.9844 754.5313,346.3906 Q754.0313,346.9688 753.2344,347.2969 Q752.1563,347.75 750.8594,347.75 Q749.3438,347.75 748.1406,347.125 Q747.1563,346.625 746.4688,345.5625 Q745.7813,344.4844 745.7813,343.2031 L745.7813,342.0469 Q745.7813,340.7188 746.3906,339.5781 Q747.0156,338.4219 748.1094,337.8125 Q749.2031,337.1875 750.4375,337.1875 Q751.1719,337.1875 751.8125,337.3594 Q752.4688,337.5156 753.0156,337.875 Z " fill="#000000"/><text fill="#000000" font-family="sans-serif" font-size="14" lengthAdjust="spacing" textLength="84" x="770.75" y="347.7285">AddressBook</text><line style="stroke:#181818;stroke-width:0.5;" x1="676" x2="917" y1="358" y2="358"/><rect fill="none" height="6" style="stroke:#C82930;stroke-width:1.0;" width="6" x="683" y="369.3047"/><text fill="#000000" font-family="sans-serif" font-size="14" lengthAdjust="spacing" text-decoration="underline" textLength="141" x="695" y="376.5332">AddressBook instance</text><rect fill="none" height="6" style="stroke:#C82930;stroke-width:1.0;" width="6" x="683" y="386.9141"/><text fill="#000000" font-family="sans-serif" font-size="14" lengthAdjust="spacing" textLength="217" x="695" y="394.1426">ObservableList&lt;Contact&gt; contacts</text><rect fill="none" height="6" style="stroke:#C82930;stroke-width:1.0;" width="6" x="683" y="404.5234"/><text fill="#000000" font-family="sans-serif" font-size="14" lengthAdjust="spacing" textLength="178" x="695" y="411.752">ObservableSet&lt;String&gt; tags</text><rect fill="none" height="6" style="stroke:#C82930;stroke-width:1.0;" width="6" x="683" y="422.1328"/><text fill="#000000" font-family="sans-serif" font-size="14" lengthAdjust="spacing" textLength="74" x="695" y="429.3613">String dbUrl</text><rect fill="none" height="6" style="stroke:#C82930;stroke-width:1.0;" width="6" x="683" y="439.7422"/><text fill="#000000" font-family="sans-serif" font-size="14" lengthAdjust="spacing" textLength="81" x="695" y="446.9707">Database db</text><line style="stroke:#181818;stroke-width:0.5;" x1="676" x2="917" y1="454.0469" y2="454.0469"/><ellipse cx="686" cy="468.3516" fill="#84BE84" rx="3" ry="3" style="stroke:#038048;stroke-width:1.0;"/><text fill="#000000" font-family="sans-serif" font-size="14" lengthAdjust="spacing" textLength="111" x="695" y="472.5801">void saveConfig()</text><ellipse cx="686" cy="485.9609" fill="#84BE84" rx="3" ry="3" style="stroke:#038048;stroke-width:1.0;"/><text fill="#000000" font-family="sans-serif" font-size="14" lengthAdjust="spacing" textLength="108" x="695" y="490.1895">void loadConfig()</text><ellipse cx="686" cy="503.5703" fill="#84BE84" rx="3" ry="3" style="stroke:#038048;stroke-width:1.0;"/><text fill="#000000" font-family="sans-serif" font-size="14" lengthAdjust="spacing" textLength="96" x="695" y="507.7988">void saveOBJ()</text><ellipse cx="686" cy="521.1797" fill="#84BE84" rx="3" ry="3" style="stroke:#038048;stroke-width:1.0;"/><text fill="#000000" font-family="sans-serif" font-size="14" lengthAdjust="spacing" textLength="151" x="695" y="525.4082">AddressBook loadOBJ()</text><ellipse cx="686" cy="538.7891" fill="#84BE84" rx="3" ry="3" style="stroke:#038048;stroke-width:1.0;"/><text fill="#000000" font-family="sans-serif" font-size="14" lengthAdjust="spacing" textLength="106" x="695" y="543.0176">void saveToDB()</text><ellipse cx="686" cy="556.3984" fill="#84BE84" rx="3" ry="3" style="stroke:#038048;stroke-width:1.0;"/><text fill="#000000" font-family="sans-serif" font-size="14" lengthAdjust="spacing" textLength="177" x="695" y="560.627">AddressBook loadFromDB()</text></g><!--class MainController--><g id="elem_MainController"><rect codeLine="30" fill="#F1F1F1" height="259.3125" id="MainController" rx="2.5" ry="2.5" style="stroke:#181818;stroke-width:0.5;" width="222" x="930.5" y="7"/><ellipse cx="991.25" cy="23" fill="#ADD1B2" rx="11" ry="11" style="stroke:#181818;stroke-width:1.0;"/><path d="M994.0156,18.875 Q994.1719,18.6563 994.3594,18.5469 Q994.5469,18.4375 994.7656,18.4375 Q995.1406,18.4375 995.375,18.7031 Q995.6094,18.9531 995.6094,19.5625 L995.6094,21.0156 Q995.6094,21.625 995.375,21.8906 Q995.1406,22.1563 994.7656,22.1563 Q994.4219,22.1563 994.2188,21.9531 Q994.0156,21.7656 993.9063,21.25 Q993.8594,20.8906 993.6719,20.7031 Q993.3438,20.3281 992.7344,20.1094 Q992.125,19.8906 991.5,19.8906 Q990.7344,19.8906 990.0938,20.2188 Q989.4688,20.5469 988.9688,21.2969 Q988.4844,22.0469 988.4844,23.0781 L988.4844,24.1719 Q988.4844,25.4063 989.375,26.2344 Q990.2656,27.0469 991.8594,27.0469 Q992.7969,27.0469 993.4531,26.7969 Q993.8438,26.6406 994.2656,26.2031 Q994.5313,25.9375 994.6719,25.8594 Q994.8281,25.7813 995.0313,25.7813 Q995.3594,25.7813 995.6094,26.0469 Q995.875,26.2969 995.875,26.6406 Q995.875,26.9844 995.5313,27.3906 Q995.0313,27.9688 994.2344,28.2969 Q993.1563,28.75 991.8594,28.75 Q990.3438,28.75 989.1406,28.125 Q988.1563,27.625 987.4688,26.5625 Q986.7813,25.4844 986.7813,24.2031 L986.7813,23.0469 Q986.7813,21.7188 987.3906,20.5781 Q988.0156,19.4219 989.1094,18.8125 Q990.2031,18.1875 991.4375,18.1875 Q992.1719,18.1875 992.8125,18.3594 Q993.4688,18.5156 994.0156,18.875 Z " fill="#000000"/><text fill="#000000" font-family="sans-serif" font-size="14" lengthAdjust="spacing" textLength="92" x="1011.75" y="28.7285">MainController</text><line style="stroke:#181818;stroke-width:0.5;" x1="931.5" x2="1151.5" y1="39" y2="39"/><rect fill="none" height="6" style="stroke:#C82930;stroke-width:1.0;" width="6" x="938.5" y="50.3047"/><text fill="#000000" font-family="sans-serif" font-size="14" lengthAdjust="spacing" textLength="171" x="950.5" y="57.5332">AddressBook addressBook</text><line style="stroke:#181818;stroke-width:0.5;" x1="931.5" x2="1151.5" y1="64.6094" y2="64.6094"/><rect fill="#F24D5C" height="6" style="stroke:#C82930;stroke-width:1.0;" width="6" x="938.5" y="75.9141"/><text fill="#000000" font-family="sans-serif" font-size="14" lengthAdjust="spacing" textLength="130" x="950.5" y="83.1426">void onAddContact()</text><rect fill="#F24D5C" height="6" style="stroke:#C82930;stroke-width:1.0;" width="6" x="938.5" y="93.5234"/><text fill="#000000" font-family="sans-serif" font-size="14" lengthAdjust="spacing" textLength="151" x="950.5" y="100.752">void onContactClicked()</text><rect fill="#F24D5C" height="6" style="stroke:#C82930;stroke-width:1.0;" width="6" x="938.5" y="111.1328"/><text fill="#000000" font-family="sans-serif" font-size="14" lengthAdjust="spacing" textLength="137" x="950.5" y="118.3613">void onSaveContact()</text><rect fill="#F24D5C" height="6" style="stroke:#C82930;stroke-width:1.0;" width="6" x="938.5" y="128.7422"/><text fill="#000000" font-family="sans-serif" font-size="14" lengthAdjust="spacing" textLength="146" x="950.5" y="135.9707">void onModifyContact()</text><rect fill="#F24D5C" height="6" style="stroke:#C82930;stroke-width:1.0;" width="6" x="938.5" y="146.3516"/><text fill="#000000" font-family="sans-serif" font-size="14" lengthAdjust="spacing" textLength="157" x="950.5" y="153.5801">void onRemoveContact()</text><rect fill="#F24D5C" height="6" style="stroke:#C82930;stroke-width:1.0;" width="6" x="938.5" y="163.9609"/><text fill="#000000" font-family="sans-serif" font-size="14" lengthAdjust="spacing" textLength="100" x="950.5" y="171.1895">void onCancel()</text><rect fill="#F24D5C" height="6" style="stroke:#C82930;stroke-width:1.0;" width="6" x="938.5" y="181.5703"/><text fill="#000000" font-family="sans-serif" font-size="14" lengthAdjust="spacing" textLength="152" x="950.5" y="188.7988">void showImportPopup()</text><rect fill="#F24D5C" height="6" style="stroke:#C82930;stroke-width:1.0;" width="6" x="938.5" y="199.1797"/><text fill="#000000" font-family="sans-serif" font-size="14" lengthAdjust="spacing" textLength="153" x="950.5" y="206.4082">void showExportPopup()</text><rect fill="#F24D5C" height="6" style="stroke:#C82930;stroke-width:1.0;" width="6" x="938.5" y="216.7891"/><text fill="#000000" font-family="sans-serif" font-size="14" lengthAdjust="spacing" textLength="154" x="950.5" y="224.0176">void showConfigPopup()</text><rect fill="#F24D5C" height="6" style="stroke:#C82930;stroke-width:1.0;" width="6" x="938.5" y="234.3984"/><text fill="#000000" font-family="sans-serif" font-size="14" lengthAdjust="spacing" textLength="151" x="950.5" y="241.627">void showImagePopup()</text><rect fill="#F24D5C" height="6" style="stroke:#C82930;stroke-width:1.0;" width="6" x="938.5" y="252.0078"/><text fill="#000000" font-family="sans-serif" font-size="14" lengthAdjust="spacing" textLength="196" x="950.5" y="259.2363">void showManageTagsPopup()</text></g><!--class ImportPopupController--><g id="elem_ImportPopupController"><rect codeLine="46" fill="#F1F1F1" height="83.2188" id="ImportPopupController" rx="2.5" ry="2.5" style="stroke:#181818;stroke-width:0.5;" width="237" x="279" y="405.5"/><ellipse cx="322.35" cy="421.5" fill="#ADD1B2" rx="11" ry="11" style="stroke:#181818;stroke-width:1.0;"/><path d="M325.1156,417.375 Q325.2719,417.1563 325.4594,417.0469 Q325.6469,416.9375 325.8656,416.9375 Q326.2406,416.9375 326.475,417.2031 Q326.7094,417.4531 326.7094,418.0625 L326.7094,419.5156 Q326.7094,420.125 326.475,420.3906 Q326.2406,420.6563 325.8656,420.6563 Q325.5219,420.6563 325.3188,420.4531 Q325.1156,420.2656 325.0063,419.75 Q324.9594,419.3906 324.7719,419.2031 Q324.4438,418.8281 323.8344,418.6094 Q323.225,418.3906 322.6,418.3906 Q321.8344,418.3906 321.1938,418.7188 Q320.5688,419.0469 320.0688,419.7969 Q319.5844,420.5469 319.5844,421.5781 L319.5844,422.6719 Q319.5844,423.9063 320.475,424.7344 Q321.3656,425.5469 322.9594,425.5469 Q323.8969,425.5469 324.5531,425.2969 Q324.9438,425.1406 325.3656,424.7031 Q325.6313,424.4375 325.7719,424.3594 Q325.9281,424.2813 326.1313,424.2813 Q326.4594,424.2813 326.7094,424.5469 Q326.975,424.7969 326.975,425.1406 Q326.975,425.4844 326.6313,425.8906 Q326.1313,426.4688 325.3344,426.7969 Q324.2563,427.25 322.9594,427.25 Q321.4438,427.25 320.2406,426.625 Q319.2563,426.125 318.5688,425.0625 Q317.8813,423.9844 317.8813,422.7031 L317.8813,421.5469 Q317.8813,420.2188 318.4906,419.0781 Q319.1156,417.9219 320.2094,417.3125 Q321.3031,416.6875 322.5375,416.6875 Q323.2719,416.6875 323.9125,416.8594 Q324.5688,417.0156 325.1156,417.375 Z " fill="#000000"/><text fill="#000000" font-family="sans-serif" font-size="14" lengthAdjust="spacing" textLength="142" x="342.65" y="427.2285">ImportPopupController</text><line style="stroke:#181818;stroke-width:0.5;" x1="280" x2="515" y1="437.5" y2="437.5"/><rect fill="none" height="6" style="stroke:#C82930;stroke-width:1.0;" width="6" x="287" y="448.8047"/><text fill="#000000" font-family="sans-serif" font-size="14" lengthAdjust="spacing" textLength="211" x="299" y="456.0332">ContactManager contactManager</text><line style="stroke:#181818;stroke-width:0.5;" x1="280" x2="515" y1="463.1094" y2="463.1094"/><rect fill="#F24D5C" height="6" style="stroke:#C82930;stroke-width:1.0;" width="6" x="287" y="474.4141"/><text fill="#000000" font-family="sans-serif" font-size="14" lengthAdjust="spacing" textLength="95" x="299" y="481.6426">void onImport()</text></g><!--class ExportPopupController--><g id="elem_ExportPopupController"><rect codeLine="51" fill="#F1F1F1" height="83.2188" id="ExportPopupController" rx="2.5" ry="2.5" style="stroke:#181818;stroke-width:0.5;" width="237" x="7" y="405.5"/><ellipse cx="49.9" cy="421.5" fill="#ADD1B2" rx="11" ry="11" style="stroke:#181818;stroke-width:1.0;"/><path d="M52.6656,417.375 Q52.8219,417.1563 53.0094,417.0469 Q53.1969,416.9375 53.4156,416.9375 Q53.7906,416.9375 54.025,417.2031 Q54.2594,417.4531 54.2594,418.0625 L54.2594,419.5156 Q54.2594,420.125 54.025,420.3906 Q53.7906,420.6563 53.4156,420.6563 Q53.0719,420.6563 52.8688,420.4531 Q52.6656,420.2656 52.5563,419.75 Q52.5094,419.3906 52.3219,419.2031 Q51.9938,418.8281 51.3844,418.6094 Q50.775,418.3906 50.15,418.3906 Q49.3844,418.3906 48.7438,418.7188 Q48.1188,419.0469 47.6188,419.7969 Q47.1344,420.5469 47.1344,421.5781 L47.1344,422.6719 Q47.1344,423.9063 48.025,424.7344 Q48.9156,425.5469 50.5094,425.5469 Q51.4469,425.5469 52.1031,425.2969 Q52.4938,425.1406 52.9156,424.7031 Q53.1813,424.4375 53.3219,424.3594 Q53.4781,424.2813 53.6813,424.2813 Q54.0094,424.2813 54.2594,424.5469 Q54.525,424.7969 54.525,425.1406 Q54.525,425.4844 54.1813,425.8906 Q53.6813,426.4688 52.8844,426.7969 Q51.8063,427.25 50.5094,427.25 Q48.9938,427.25 47.7906,426.625 Q46.8063,426.125 46.1188,425.0625 Q45.4313,423.9844 45.4313,422.7031 L45.4313,421.5469 Q45.4313,420.2188 46.0406,419.0781 Q46.6656,417.9219 47.7594,417.3125 Q48.8531,416.6875 50.0875,416.6875 Q50.8219,416.6875 51.4625,416.8594 Q52.1188,417.0156 52.6656,417.375 Z " fill="#000000"/><text fill="#000000" font-family="sans-serif" font-size="14" lengthAdjust="spacing" textLength="143" x="70.1" y="427.2285">ExportPopupController</text><line style="stroke:#181818;stroke-width:0.5;" x1="8" x2="243" y1="437.5" y2="437.5"/><rect fill="none" height="6" style="stroke:#C82930;stroke-width:1.0;" width="6" x="15" y="448.8047"/><text fill="#000000" font-family="sans-serif" font-size="14" lengthAdjust="spacing" textLength="211" x="27" y="456.0332">ContactManager contactManager</text><line style="stroke:#181818;stroke-width:0.5;" x1="8" x2="243" y1="463.1094" y2="463.1094"/><rect fill="#F24D5C" height="6" style="stroke:#C82930;stroke-width:1.0;" width="6" x="15" y="474.4141"/><text fill="#000000" font-family="sans-serif" font-size="14" lengthAdjust="spacing" textLength="96" x="27" y="481.6426">void onExport()</text></g><!--class ManageTagsPopupController--><g id="elem_ManageTagsPopupController"><rect codeLine="56" fill="#F1F1F1" height="118.4375" id="ManageTagsPopupController" rx="2.5" ry="2.5" style="stroke:#181818;stroke-width:0.5;" width="218" x="1187.5" y="77.5"/><ellipse cx="1202.5" cy="93.5" fill="#ADD1B2" rx="11" ry="11" style="stroke:#181818;stroke-width:1.0;"/><path d="M1205.2656,89.375 Q1205.4219,89.1563 1205.6094,89.0469 Q1205.7969,88.9375 1206.0156,88.9375 Q1206.3906,88.9375 1206.625,89.2031 Q1206.8594,89.4531 1206.8594,90.0625 L1206.8594,91.5156 Q1206.8594,92.125 1206.625,92.3906 Q1206.3906,92.6563 1206.0156,92.6563 Q1205.6719,92.6563 1205.4688,92.4531 Q1205.2656,92.2656 1205.1563,91.75 Q1205.1094,91.3906 1204.9219,91.2031 Q1204.5938,90.8281 1203.9844,90.6094 Q1203.375,90.3906 1202.75,90.3906 Q1201.9844,90.3906 1201.3438,90.7188 Q1200.7188,91.0469 1200.2188,91.7969 Q1199.7344,92.5469 1199.7344,93.5781 L1199.7344,94.6719 Q1199.7344,95.9063 1200.625,96.7344 Q1201.5156,97.5469 1203.1094,97.5469 Q1204.0469,97.5469 1204.7031,97.2969 Q1205.0938,97.1406 1205.5156,96.7031 Q1205.7813,96.4375 1205.9219,96.3594 Q1206.0781,96.2813 1206.2813,96.2813 Q1206.6094,96.2813 1206.8594,96.5469 Q1207.125,96.7969 1207.125,97.1406 Q1207.125,97.4844 1206.7813,97.8906 Q1206.2813,98.4688 1205.4844,98.7969 Q1204.4063,99.25 1203.1094,99.25 Q1201.5938,99.25 1200.3906,98.625 Q1199.4063,98.125 1198.7188,97.0625 Q1198.0313,95.9844 1198.0313,94.7031 L1198.0313,93.5469 Q1198.0313,92.2188 1198.6406,91.0781 Q1199.2656,89.9219 1200.3594,89.3125 Q1201.4531,88.6875 1202.6875,88.6875 Q1203.4219,88.6875 1204.0625,88.8594 Q1204.7188,89.0156 1205.2656,89.375 Z " fill="#000000"/><text fill="#000000" font-family="sans-serif" font-size="14" lengthAdjust="spacing" textLength="186" x="1216.5" y="99.2285">ManageTagsPopupController</text><line style="stroke:#181818;stroke-width:0.5;" x1="1188.5" x2="1404.5" y1="109.5" y2="109.5"/><rect fill="none" height="6" style="stroke:#C82930;stroke-width:1.0;" width="6" x="1195.5" y="120.8047"/><text fill="#000000" font-family="sans-serif" font-size="14" lengthAdjust="spacing" textLength="161" x="1207.5" y="128.0332">TagManager tagManager</text><line style="stroke:#181818;stroke-width:0.5;" x1="1188.5" x2="1404.5" y1="135.1094" y2="135.1094"/><rect fill="#F24D5C" height="6" style="stroke:#C82930;stroke-width:1.0;" width="6" x="1195.5" y="146.4141"/><text fill="#000000" font-family="sans-serif" font-size="14" lengthAdjust="spacing" textLength="81" x="1207.5" y="153.6426">void onAdd()</text><rect fill="#F24D5C" height="6" style="stroke:#C82930;stroke-width:1.0;" width="6" x="1195.5" y="164.0234"/><text fill="#000000" font-family="sans-serif" font-size="14" lengthAdjust="spacing" textLength="101" x="1207.5" y="171.252">void onUpdate()</text><rect fill="#F24D5C" height="6" style="stroke:#C82930;stroke-width:1.0;" width="6" x="1195.5" y="181.6328"/><text fill="#000000" font-family="sans-serif" font-size="14" lengthAdjust="spacing" textLength="97" x="1207.5" y="188.8613">void onDelete()</text></g><!--class ImagePopupController--><g id="elem_ImagePopupController"><rect codeLine="63" fill="#F1F1F1" height="65.6094" id="ImagePopupController" rx="2.5" ry="2.5" style="stroke:#181818;stroke-width:0.5;" width="176" x="953.5" y="414"/><ellipse cx="969.85" cy="430" fill="#ADD1B2" rx="11" ry="11" style="stroke:#181818;stroke-width:1.0;"/><path d="M972.6156,425.875 Q972.7719,425.6563 972.9594,425.5469 Q973.1469,425.4375 973.3656,425.4375 Q973.7406,425.4375 973.975,425.7031 Q974.2094,425.9531 974.2094,426.5625 L974.2094,428.0156 Q974.2094,428.625 973.975,428.8906 Q973.7406,429.1563 973.3656,429.1563 Q973.0219,429.1563 972.8188,428.9531 Q972.6156,428.7656 972.5063,428.25 Q972.4594,427.8906 972.2719,427.7031 Q971.9438,427.3281 971.3344,427.1094 Q970.725,426.8906 970.1,426.8906 Q969.3344,426.8906 968.6938,427.2188 Q968.0688,427.5469 967.5688,428.2969 Q967.0844,429.0469 967.0844,430.0781 L967.0844,431.1719 Q967.0844,432.4063 967.975,433.2344 Q968.8656,434.0469 970.4594,434.0469 Q971.3969,434.0469 972.0531,433.7969 Q972.4438,433.6406 972.8656,433.2031 Q973.1313,432.9375 973.2719,432.8594 Q973.4281,432.7813 973.6313,432.7813 Q973.9594,432.7813 974.2094,433.0469 Q974.475,433.2969 974.475,433.6406 Q974.475,433.9844 974.1313,434.3906 Q973.6313,434.9688 972.8344,435.2969 Q971.7563,435.75 970.4594,435.75 Q968.9438,435.75 967.7406,435.125 Q966.7563,434.625 966.0688,433.5625 Q965.3813,432.4844 965.3813,431.2031 L965.3813,430.0469 Q965.3813,428.7188 965.9906,427.5781 Q966.6156,426.4219 967.7094,425.8125 Q968.8031,425.1875 970.0375,425.1875 Q970.7719,425.1875 971.4125,425.3594 Q972.0688,425.5156 972.6156,425.875 Z " fill="#000000"/><text fill="#000000" font-family="sans-serif" font-size="14" lengthAdjust="spacing" textLength="141" x="984.15" y="435.7285">ImagePopupController</text><line style="stroke:#181818;stroke-width:0.5;" x1="954.5" x2="1128.5" y1="446" y2="446"/><line style="stroke:#181818;stroke-width:0.5;" x1="954.5" x2="1128.5" y1="454" y2="454"/><ellipse cx="964.5" cy="468.3047" fill="#84BE84" rx="3" ry="3" style="stroke:#038048;stroke-width:1.0;"/><text fill="#000000" font-family="sans-serif" font-size="14" lengthAdjust="spacing" textLength="150" x="973.5" y="472.5332">File getSelectedImage()</text></g><!--class ConfirmPopupController--><g id="elem_ConfirmPopupController"><rect codeLine="67" fill="#F1F1F1" height="83.2188" id="ConfirmPopupController" rx="2.5" ry="2.5" style="stroke:#181818;stroke-width:0.5;" width="184" x="1184.5" y="405.5"/><ellipse cx="1199.5" cy="421.5" fill="#ADD1B2" rx="11" ry="11" style="stroke:#181818;stroke-width:1.0;"/><path d="M1202.2656,417.375 Q1202.4219,417.1563 1202.6094,417.0469 Q1202.7969,416.9375 1203.0156,416.9375 Q1203.3906,416.9375 1203.625,417.2031 Q1203.8594,417.4531 1203.8594,418.0625 L1203.8594,419.5156 Q1203.8594,420.125 1203.625,420.3906 Q1203.3906,420.6563 1203.0156,420.6563 Q1202.6719,420.6563 1202.4688,420.4531 Q1202.2656,420.2656 1202.1563,419.75 Q1202.1094,419.3906 1201.9219,419.2031 Q1201.5938,418.8281 1200.9844,418.6094 Q1200.375,418.3906 1199.75,418.3906 Q1198.9844,418.3906 1198.3438,418.7188 Q1197.7188,419.0469 1197.2188,419.7969 Q1196.7344,420.5469 1196.7344,421.5781 L1196.7344,422.6719 Q1196.7344,423.9063 1197.625,424.7344 Q1198.5156,425.5469 1200.1094,425.5469 Q1201.0469,425.5469 1201.7031,425.2969 Q1202.0938,425.1406 1202.5156,424.7031 Q1202.7813,424.4375 1202.9219,424.3594 Q1203.0781,424.2813 1203.2813,424.2813 Q1203.6094,424.2813 1203.8594,424.5469 Q1204.125,424.7969 1204.125,425.1406 Q1204.125,425.4844 1203.7813,425.8906 Q1203.2813,426.4688 1202.4844,426.7969 Q1201.4063,427.25 1200.1094,427.25 Q1198.5938,427.25 1197.3906,426.625 Q1196.4063,426.125 1195.7188,425.0625 Q1195.0313,423.9844 1195.0313,422.7031 L1195.0313,421.5469 Q1195.0313,420.2188 1195.6406,419.0781 Q1196.2656,417.9219 1197.3594,417.3125 Q1198.4531,416.6875 1199.6875,416.6875 Q1200.4219,416.6875 1201.0625,416.8594 Q1201.7188,417.0156 1202.2656,417.375 Z " fill="#000000"/><text fill="#000000" font-family="sans-serif" font-size="14" lengthAdjust="spacing" textLength="152" x="1213.5" y="427.2285">ConfirmPopupController</text><line style="stroke:#181818;stroke-width:0.5;" x1="1185.5" x2="1367.5" y1="437.5" y2="437.5"/><line style="stroke:#181818;stroke-width:0.5;" x1="1185.5" x2="1367.5" y1="445.5" y2="445.5"/><ellipse cx="1195.5" cy="459.8047" fill="#84BE84" rx="3" ry="3" style="stroke:#038048;stroke-width:1.0;"/><text fill="#000000" font-family="sans-serif" font-size="14" lengthAdjust="spacing" textLength="75" x="1204.5" y="464.0332">onConfirm()</text><ellipse cx="1195.5" cy="477.4141" fill="#84BE84" rx="3" ry="3" style="stroke:#038048;stroke-width:1.0;"/><text fill="#000000" font-family="sans-serif" font-size="14" lengthAdjust="spacing" textLength="70" x="1204.5" y="481.6426">onCancel()</text></g><!--class ConfigPopupController--><g id="elem_ConfigPopupController"><rect codeLine="72" fill="#F1F1F1" height="100.8281" id="ConfigPopupController" rx="2.5" ry="2.5" style="stroke:#181818;stroke-width:0.5;" width="197" x="698" y="86"/><ellipse cx="722.45" cy="102" fill="#ADD1B2" rx="11" ry="11" style="stroke:#181818;stroke-width:1.0;"/><path d="M725.2156,97.875 Q725.3719,97.6563 725.5594,97.5469 Q725.7469,97.4375 725.9656,97.4375 Q726.3406,97.4375 726.575,97.7031 Q726.8094,97.9531 726.8094,98.5625 L726.8094,100.0156 Q726.8094,100.625 726.575,100.8906 Q726.3406,101.1563 725.9656,101.1563 Q725.6219,101.1563 725.4188,100.9531 Q725.2156,100.7656 725.1063,100.25 Q725.0594,99.8906 724.8719,99.7031 Q724.5438,99.3281 723.9344,99.1094 Q723.325,98.8906 722.7,98.8906 Q721.9344,98.8906 721.2938,99.2188 Q720.6688,99.5469 720.1688,100.2969 Q719.6844,101.0469 719.6844,102.0781 L719.6844,103.1719 Q719.6844,104.4063 720.575,105.2344 Q721.4656,106.0469 723.0594,106.0469 Q723.9969,106.0469 724.6531,105.7969 Q725.0438,105.6406 725.4656,105.2031 Q725.7313,104.9375 725.8719,104.8594 Q726.0281,104.7813 726.2313,104.7813 Q726.5594,104.7813 726.8094,105.0469 Q727.075,105.2969 727.075,105.6406 Q727.075,105.9844 726.7313,106.3906 Q726.2313,106.9688 725.4344,107.2969 Q724.3563,107.75 723.0594,107.75 Q721.5438,107.75 720.3406,107.125 Q719.3563,106.625 718.6688,105.5625 Q717.9813,104.4844 717.9813,103.2031 L717.9813,102.0469 Q717.9813,100.7188 718.5906,99.5781 Q719.2156,98.4219 720.3094,97.8125 Q721.4031,97.1875 722.6375,97.1875 Q723.3719,97.1875 724.0125,97.3594 Q724.6688,97.5156 725.2156,97.875 Z " fill="#000000"/><text fill="#000000" font-family="sans-serif" font-size="14" lengthAdjust="spacing" textLength="144" x="738.55" y="107.7285">ConfigPopupController</text><line style="stroke:#181818;stroke-width:0.5;" x1="699" x2="894" y1="118" y2="118"/><rect fill="none" height="6" style="stroke:#C82930;stroke-width:1.0;" width="6" x="706" y="129.3047"/><text fill="#000000" font-family="sans-serif" font-size="14" lengthAdjust="spacing" textLength="171" x="718" y="136.5332">AddressBook addressBook</text><line style="stroke:#181818;stroke-width:0.5;" x1="699" x2="894" y1="143.6094" y2="143.6094"/><rect fill="#F24D5C" height="6" style="stroke:#C82930;stroke-width:1.0;" width="6" x="706" y="154.9141"/><text fill="#000000" font-family="sans-serif" font-size="14" lengthAdjust="spacing" textLength="92" x="718" y="162.1426">void onVerify()</text><rect fill="#F24D5C" height="6" style="stroke:#C82930;stroke-width:1.0;" width="6" x="706" y="172.5234"/><text fill="#000000" font-family="sans-serif" font-size="14" lengthAdjust="spacing" textLength="105" x="718" y="179.752">void onConfirm()</text></g><!--class Tag--><g id="elem_Tag"><rect codeLine="79" fill="#F1F1F1" height="83.2188" id="Tag" rx="2.5" ry="2.5" style="stroke:#181818;stroke-width:0.5;" width="138" x="1237.5" y="663.5"/><ellipse cx="1289.75" cy="679.5" fill="#ADD1B2" rx="11" ry="11" style="stroke:#181818;stroke-width:1.0;"/><path d="M1292.5156,675.375 Q1292.6719,675.1563 1292.8594,675.0469 Q1293.0469,674.9375 1293.2656,674.9375 Q1293.6406,674.9375 1293.875,675.2031 Q1294.1094,675.4531 1294.1094,676.0625 L1294.1094,677.5156 Q1294.1094,678.125 1293.875,678.3906 Q1293.6406,678.6563 1293.2656,678.6563 Q1292.9219,678.6563 1292.7188,678.4531 Q1292.5156,678.2656 1292.4063,677.75 Q1292.3594,677.3906 1292.1719,677.2031 Q1291.8438,676.8281 1291.2344,676.6094 Q1290.625,676.3906 1290,676.3906 Q1289.2344,676.3906 1288.5938,676.7188 Q1287.9688,677.0469 1287.4688,677.7969 Q1286.9844,678.5469 1286.9844,679.5781 L1286.9844,680.6719 Q1286.9844,681.9063 1287.875,682.7344 Q1288.7656,683.5469 1290.3594,683.5469 Q1291.2969,683.5469 1291.9531,683.2969 Q1292.3438,683.1406 1292.7656,682.7031 Q1293.0313,682.4375 1293.1719,682.3594 Q1293.3281,682.2813 1293.5313,682.2813 Q1293.8594,682.2813 1294.1094,682.5469 Q1294.375,682.7969 1294.375,683.1406 Q1294.375,683.4844 1294.0313,683.8906 Q1293.5313,684.4688 1292.7344,684.7969 Q1291.6563,685.25 1290.3594,685.25 Q1288.8438,685.25 1287.6406,684.625 Q1286.6563,684.125 1285.9688,683.0625 Q1285.2813,681.9844 1285.2813,680.7031 L1285.2813,679.5469 Q1285.2813,678.2188 1285.8906,677.0781 Q1286.5156,675.9219 1287.6094,675.3125 Q1288.7031,674.6875 1289.9375,674.6875 Q1290.6719,674.6875 1291.3125,674.8594 Q1291.9688,675.0156 1292.5156,675.375 Z " fill="#000000"/><text fill="#000000" font-family="sans-serif" font-size="14" lengthAdjust="spacing" textLength="25" x="1310.25" y="685.2285">Tag</text><line style="stroke:#181818;stroke-width:0.5;" x1="1238.5" x2="1374.5" y1="695.5" y2="695.5"/><rect fill="none" height="6" style="stroke:#C82930;stroke-width:1.0;" width="6" x="1245.5" y="706.8047"/><text fill="#000000" font-family="sans-serif" font-size="14" lengthAdjust="spacing" textLength="60" x="1257.5" y="714.0332">final int id</text><rect fill="none" height="6" style="stroke:#C82930;stroke-width:1.0;" width="6" x="1245.5" y="724.4141"/><text fill="#000000" font-family="sans-serif" font-size="14" lengthAdjust="spacing" textLength="112" x="1257.5" y="731.6426">String descrizione</text><line style="stroke:#181818;stroke-width:0.5;" x1="1238.5" x2="1374.5" y1="738.7188" y2="738.7188"/></g><!--class Database--><g id="elem_Database"><rect codeLine="84" fill="#F1F1F1" height="136.0469" id="Database" rx="2.5" ry="2.5" style="stroke:#181818;stroke-width:0.5;" width="258" x="667.5" y="637"/><ellipse cx="761.75" cy="653" fill="#ADD1B2" rx="11" ry="11" style="stroke:#181818;stroke-width:1.0;"/><path d="M764.5156,648.875 Q764.6719,648.6563 764.8594,648.5469 Q765.0469,648.4375 765.2656,648.4375 Q765.6406,648.4375 765.875,648.7031 Q766.1094,648.9531 766.1094,649.5625 L766.1094,651.0156 Q766.1094,651.625 765.875,651.8906 Q765.6406,652.1563 765.2656,652.1563 Q764.9219,652.1563 764.7188,651.9531 Q764.5156,651.7656 764.4063,651.25 Q764.3594,650.8906 764.1719,650.7031 Q763.8438,650.3281 763.2344,650.1094 Q762.625,649.8906 762,649.8906 Q761.2344,649.8906 760.5938,650.2188 Q759.9688,650.5469 759.4688,651.2969 Q758.9844,652.0469 758.9844,653.0781 L758.9844,654.1719 Q758.9844,655.4063 759.875,656.2344 Q760.7656,657.0469 762.3594,657.0469 Q763.2969,657.0469 763.9531,656.7969 Q764.3438,656.6406 764.7656,656.2031 Q765.0313,655.9375 765.1719,655.8594 Q765.3281,655.7813 765.5313,655.7813 Q765.8594,655.7813 766.1094,656.0469 Q766.375,656.2969 766.375,656.6406 Q766.375,656.9844 766.0313,657.3906 Q765.5313,657.9688 764.7344,658.2969 Q763.6563,658.75 762.3594,658.75 Q760.8438,658.75 759.6406,658.125 Q758.6563,657.625 757.9688,656.5625 Q757.2813,655.4844 757.2813,654.2031 L757.2813,653.0469 Q757.2813,651.7188 757.8906,650.5781 Q758.5156,649.4219 759.6094,648.8125 Q760.7031,648.1875 761.9375,648.1875 Q762.6719,648.1875 763.3125,648.3594 Q763.9688,648.5156 764.5156,648.875 Z " fill="#000000"/><text fill="#000000" font-family="sans-serif" font-size="14" lengthAdjust="spacing" textLength="61" x="782.25" y="658.7285">Database</text><line style="stroke:#181818;stroke-width:0.5;" x1="668.5" x2="924.5" y1="669" y2="669"/><line style="stroke:#181818;stroke-width:0.5;" x1="668.5" x2="924.5" y1="677" y2="677"/><ellipse cx="678.5" cy="691.3047" fill="#84BE84" rx="3" ry="3" style="stroke:#038048;stroke-width:1.0;"/><text fill="#000000" font-family="sans-serif" font-size="14" lengthAdjust="spacing" text-decoration="underline" textLength="192" x="687.5" y="695.5332">boolean verifyDBUrl(String url)</text><ellipse cx="678.5" cy="708.9141" fill="#84BE84" rx="3" ry="3" style="stroke:#038048;stroke-width:1.0;"/><text fill="#000000" font-family="sans-serif" font-size="14" lengthAdjust="spacing" textLength="189" x="687.5" y="713.1426">void upsertContact(Contact c)</text><ellipse cx="678.5" cy="726.5234" fill="#84BE84" rx="3" ry="3" style="stroke:#038048;stroke-width:1.0;"/><text fill="#000000" font-family="sans-serif" font-size="14" lengthAdjust="spacing" textLength="161" x="687.5" y="730.752">void removeTag(Tag tag)</text><ellipse cx="678.5" cy="744.1328" fill="#84BE84" rx="3" ry="3" style="stroke:#038048;stroke-width:1.0;"/><text fill="#000000" font-family="sans-serif" font-size="14" lengthAdjust="spacing" textLength="232" x="687.5" y="748.3613">Collection&lt;Contact&gt; getAllContacts()</text><ellipse cx="678.5" cy="761.7422" fill="#84BE84" rx="3" ry="3" style="stroke:#038048;stroke-width:1.0;"/><text fill="#000000" font-family="sans-serif" font-size="14" lengthAdjust="spacing" textLength="184" x="687.5" y="765.9707">Collection&lt;Tag&gt; getAllTags()</text></g><!--class Serializable--><g id="elem_Serializable"><rect codeLine="93" fill="#F1F1F1" height="48" id="Serializable" rx="2.5" ry="2.5" style="stroke:#181818;stroke-width:0.5;" width="105" x="872" y="842"/><ellipse cx="887" cy="858" fill="#B4A7E5" rx="11" ry="11" style="stroke:#181818;stroke-width:1.0;"/><path d="M887.9531,854.6406 L887.9531,861.2969 L889.6719,861.2969 Q890.2813,861.2969 890.5469,861.5313 Q890.8125,861.7656 890.8125,862.1563 Q890.8125,862.5313 890.5469,862.7656 Q890.2813,863 889.6719,863 L884.5313,863 Q883.9219,863 883.6563,862.7656 Q883.3906,862.5313 883.3906,862.1406 Q883.3906,861.7656 883.6563,861.5313 Q883.9219,861.2969 884.5313,861.2969 L886.25,861.2969 L886.25,854.6406 L884.5313,854.6406 Q883.9219,854.6406 883.6563,854.4063 Q883.3906,854.1719 883.3906,853.7813 Q883.3906,853.4063 883.6563,853.1719 Q883.9219,852.9375 884.5313,852.9375 L889.6719,852.9375 Q890.2813,852.9375 890.5469,853.1719 Q890.8125,853.4063 890.8125,853.7813 Q890.8125,854.1719 890.5469,854.4063 Q890.2813,854.6406 889.6719,854.6406 L887.9531,854.6406 Z " fill="#000000"/><text fill="#000000" font-family="sans-serif" font-size="14" font-style="italic" lengthAdjust="spacing" textLength="73" x="901" y="863.7285">Serializable</text><line style="stroke:#181818;stroke-width:0.5;" x1="873" x2="976" y1="874" y2="874"/><line style="stroke:#181818;stroke-width:0.5;" x1="873" x2="976" y1="882" y2="882"/></g><!--class TagManager--><g id="elem_TagManager"><rect codeLine="95" fill="#F1F1F1" height="118.4375" id="TagManager" rx="2.5" ry="2.5" style="stroke:#181818;stroke-width:0.5;" width="242" x="960.5" y="646"/><ellipse cx="1036.25" cy="662" fill="#B4A7E5" rx="11" ry="11" style="stroke:#181818;stroke-width:1.0;"/><path d="M1037.2031,658.6406 L1037.2031,665.2969 L1038.9219,665.2969 Q1039.5313,665.2969 1039.7969,665.5313 Q1040.0625,665.7656 1040.0625,666.1563 Q1040.0625,666.5313 1039.7969,666.7656 Q1039.5313,667 1038.9219,667 L1033.7813,667 Q1033.1719,667 1032.9063,666.7656 Q1032.6406,666.5313 1032.6406,666.1406 Q1032.6406,665.7656 1032.9063,665.5313 Q1033.1719,665.2969 1033.7813,665.2969 L1035.5,665.2969 L1035.5,658.6406 L1033.7813,658.6406 Q1033.1719,658.6406 1032.9063,658.4063 Q1032.6406,658.1719 1032.6406,657.7813 Q1032.6406,657.4063 1032.9063,657.1719 Q1033.1719,656.9375 1033.7813,656.9375 L1038.9219,656.9375 Q1039.5313,656.9375 1039.7969,657.1719 Q1040.0625,657.4063 1040.0625,657.7813 Q1040.0625,658.1719 1039.7969,658.4063 Q1039.5313,658.6406 1038.9219,658.6406 L1037.2031,658.6406 Z " fill="#000000"/><text fill="#000000" font-family="sans-serif" font-size="14" font-style="italic" lengthAdjust="spacing" textLength="82" x="1056.75" y="667.7285">TagManager</text><line style="stroke:#181818;stroke-width:0.5;" x1="961.5" x2="1201.5" y1="678" y2="678"/><line style="stroke:#181818;stroke-width:0.5;" x1="961.5" x2="1201.5" y1="686" y2="686"/><ellipse cx="971.5" cy="700.3047" fill="#84BE84" rx="3" ry="3" style="stroke:#038048;stroke-width:1.0;"/><text fill="#000000" font-family="sans-serif" font-size="14" font-style="italic" lengthAdjust="spacing" textLength="137" x="980.5" y="704.5332">void addTag(Tag tag)</text><ellipse cx="971.5" cy="717.9141" fill="#84BE84" rx="3" ry="3" style="stroke:#038048;stroke-width:1.0;"/><text fill="#000000" font-family="sans-serif" font-size="14" font-style="italic" lengthAdjust="spacing" textLength="159" x="980.5" y="722.1426">Tag removeTag(Tag tag)</text><ellipse cx="971.5" cy="735.5234" fill="#84BE84" rx="3" ry="3" style="stroke:#038048;stroke-width:1.0;"/><text fill="#000000" font-family="sans-serif" font-size="14" font-style="italic" lengthAdjust="spacing" textLength="114" x="980.5" y="739.752">Tag getTag(int id)</text><ellipse cx="971.5" cy="753.1328" fill="#84BE84" rx="3" ry="3" style="stroke:#038048;stroke-width:1.0;"/><text fill="#000000" font-family="sans-serif" font-size="14" font-style="italic" lengthAdjust="spacing" textLength="216" x="980.5" y="757.3613">ObservableList&lt;Tag&gt; getAllTags()</text></g><!--class ContactManager--><g id="elem_ContactManager"><rect codeLine="102" fill="#F1F1F1" height="100.8281" id="ContactManager" rx="2.5" ry="2.5" style="stroke:#181818;stroke-width:0.5;" width="290" x="127.5" y="654.5"/><ellipse cx="215.25" cy="670.5" fill="#B4A7E5" rx="11" ry="11" style="stroke:#181818;stroke-width:1.0;"/><path d="M216.2031,667.1406 L216.2031,673.7969 L217.9219,673.7969 Q218.5313,673.7969 218.7969,674.0313 Q219.0625,674.2656 219.0625,674.6563 Q219.0625,675.0313 218.7969,675.2656 Q218.5313,675.5 217.9219,675.5 L212.7813,675.5 Q212.1719,675.5 211.9063,675.2656 Q211.6406,675.0313 211.6406,674.6406 Q211.6406,674.2656 211.9063,674.0313 Q212.1719,673.7969 212.7813,673.7969 L214.5,673.7969 L214.5,667.1406 L212.7813,667.1406 Q212.1719,667.1406 211.9063,666.9063 Q211.6406,666.6719 211.6406,666.2813 Q211.6406,665.9063 211.9063,665.6719 Q212.1719,665.4375 212.7813,665.4375 L217.9219,665.4375 Q218.5313,665.4375 218.7969,665.6719 Q219.0625,665.9063 219.0625,666.2813 Q219.0625,666.6719 218.7969,666.9063 Q218.5313,667.1406 217.9219,667.1406 L216.2031,667.1406 Z " fill="#000000"/><text fill="#000000" font-family="sans-serif" font-size="14" font-style="italic" lengthAdjust="spacing" textLength="106" x="235.75" y="676.2285">ContactManager</text><line style="stroke:#181818;stroke-width:0.5;" x1="128.5" x2="416.5" y1="686.5" y2="686.5"/><line style="stroke:#181818;stroke-width:0.5;" x1="128.5" x2="416.5" y1="694.5" y2="694.5"/><ellipse cx="138.5" cy="708.8047" fill="#84BE84" rx="3" ry="3" style="stroke:#038048;stroke-width:1.0;"/><text fill="#000000" font-family="sans-serif" font-size="14" font-style="italic" lengthAdjust="spacing" textLength="264" x="147.5" y="713.0332">ObservableList&lt;Contact&gt; getAllContacts()</text><ellipse cx="138.5" cy="726.4141" fill="#84BE84" rx="3" ry="3" style="stroke:#038048;stroke-width:1.0;"/><text fill="#000000" font-family="sans-serif" font-size="14" font-style="italic" lengthAdjust="spacing" textLength="143" x="147.5" y="730.6426">addContact(Contact c)</text><ellipse cx="138.5" cy="744.0234" fill="#84BE84" rx="3" ry="3" style="stroke:#038048;stroke-width:1.0;"/><text fill="#000000" font-family="sans-serif" font-size="14" font-style="italic" lengthAdjust="spacing" textLength="165" x="147.5" y="748.252">removeContact(Contact c)</text></g><!--link Contact to Serializable--><g id="link_Contact_Serializable"><path codeLine="109" d="M632.4,778 C737.93,778 898.75,778 898.75,778 C898.75,778 898.75,797.9 898.75,823.95 " fill="none" id="Contact-to-Serializable" style="stroke:#181818;stroke-width:1.0;stroke-dasharray:7.0,7.0;"/><polygon fill="none" points="898.75,841.95,904.75,823.95,892.75,823.95,898.75,841.95" style="stroke:#181818;stroke-width:1.0;"/></g><!--link Tag to Serializable--><g id="link_Tag_Serializable"><path codeLine="111" d="M1306.5,746.88 C1306.5,794.58 1306.5,866 1306.5,866 C1306.5,866 1100.01,866 995.21,866 " fill="none" id="Tag-to-Serializable" style="stroke:#181818;stroke-width:1.0;stroke-dasharray:7.0,7.0;"/><polygon fill="none" points="977.21,866,995.21,872,995.21,860,977.21,866" style="stroke:#181818;stroke-width:1.0;"/></g><!--reverse link AddressBook to Contact--><g id="link_AddressBook_Contact"><path codeLine="113" d="M662.83,542 C610.89,542 574,542 574,542 C574,542 574,585.67 574,627.8 " fill="none" id="AddressBook-backto-Contact" style="stroke:#181818;stroke-width:1.0;"/><polygon fill="none" points="674.83,542,668.83,538,662.83,542,668.83,546,674.83,542" style="stroke:#181818;stroke-width:1.0;"/><text fill="#000000" font-family="sans-serif" font-size="13" lengthAdjust="spacing" textLength="7" x="659.8113" y="545.0893">1</text><text fill="#000000" font-family="sans-serif" font-size="13" lengthAdjust="spacing" textLength="20" x="556.0492" y="617.2076">0..*</text></g><!--reverse link AddressBook to Database--><g id="link_AddressBook_Database"><path codeLine="114" d="M796.5,580.07 C796.5,603.63 796.5,615.55 796.5,636.67 " fill="none" id="AddressBook-backto-Database" style="stroke:#181818;stroke-width:1.0;"/><polygon fill="#181818" points="796.5,568.07,792.5,574.07,796.5,580.07,800.5,574.07,796.5,568.07" style="stroke:#181818;stroke-width:1.0;"/><text fill="#000000" font-family="sans-serif" font-size="13" lengthAdjust="spacing" textLength="7" x="789.2977" y="589.0457">1</text><text fill="#000000" font-family="sans-serif" font-size="13" lengthAdjust="spacing" textLength="22" x="773.3656" y="626.3093">0..1</text></g><!--reverse link AddressBook to Tag--><g id="link_AddressBook_Tag"><path codeLine="115" d="M930.14,515 C1080,515 1303,515 1303,515 C1303,515 1303,607.37 1303,663.3 " fill="none" id="AddressBook-backto-Tag" style="stroke:#181818;stroke-width:1.0;"/><polygon fill="none" points="918.14,515,924.14,519,930.14,515,924.14,511,918.14,515" style="stroke:#181818;stroke-width:1.0;"/><text fill="#000000" font-family="sans-serif" font-size="13" lengthAdjust="spacing" textLength="7" x="926.1568" y="516.3596">1</text><text fill="#000000" font-family="sans-serif" font-size="13" lengthAdjust="spacing" textLength="20" x="1280.7641" y="652.5746">0..*</text></g><!--link AddressBook to TagManager--><g id="link_AddressBook_TagManager"><path codeLine="116" d="M918.2,542 C981.16,542 1045,542 1045,542 C1045,542 1045,581.09 1045,627.69 " fill="none" id="AddressBook-to-TagManager" style="stroke:#181818;stroke-width:1.0;stroke-dasharray:7.0,7.0;"/><polygon fill="none" points="1045,645.69,1051,627.69,1039,627.69,1045,645.69" style="stroke:#181818;stroke-width:1.0;"/></g><!--link AddressBook to ContactManager--><g id="link_AddressBook_ContactManager"><path codeLine="117" d="M674.95,515 C549.3,515 371.33,515 371.33,515 C371.33,515 371.33,579.8 371.33,636.08 " fill="none" id="AddressBook-to-ContactManager" style="stroke:#181818;stroke-width:1.0;stroke-dasharray:7.0,7.0;"/><polygon fill="none" points="371.33,654.08,377.33,636.08,365.33,636.08,371.33,654.08" style="stroke:#181818;stroke-width:1.0;"/></g><!--reverse link MainController to AddressBook--><g id="link_MainController_AddressBook"><path codeLine="119" d="M942,278.01 C942,330.06 942,366 942,366 C942,366 932.47,366 918.3,366 " fill="none" id="MainController-backto-AddressBook" style="stroke:#181818;stroke-width:1.0;"/><polygon fill="none" points="942,266.01,938,272.01,942,278.01,946,272.01,942,266.01" style="stroke:#181818;stroke-width:1.0;"/><text fill="#000000" font-family="sans-serif" font-size="13" lengthAdjust="spacing" textLength="7" x="928.7234" y="287.8858">1</text><text fill="#000000" font-family="sans-serif" font-size="13" lengthAdjust="spacing" textLength="7" x="925.9355" y="358.0914">1</text></g><!--link MainController to ImagePopupController--><g id="link_MainController_ImagePopupController"><path codeLine="120" d="M1041.5,266.38 C1041.5,320.39 1041.5,372.61 1041.5,407.93 " fill="none" id="MainController-to-ImagePopupController" style="stroke:#181818;stroke-width:1.0;stroke-dasharray:7.0,7.0;"/><polygon fill="#181818" points="1041.5,413.93,1045.5,404.93,1041.5,408.93,1037.5,404.93,1041.5,413.93" style="stroke:#181818;stroke-width:1.0;"/></g><!--link MainController to ConfirmPopupController--><g id="link_MainController_ConfirmPopupController"><path codeLine="121" d="M1141,266.04 C1141,336.73 1141,410 1141,410 C1141,410 1154.25,410 1178.25,410 " fill="none" id="MainController-to-ConfirmPopupController" style="stroke:#181818;stroke-width:1.0;stroke-dasharray:7.0,7.0;"/><polygon fill="#181818" points="1184.25,410,1175.25,406,1179.25,410,1175.25,414,1184.25,410" style="stroke:#181818;stroke-width:1.0;"/></g><!--link ManageTagsPopupController to ConfirmPopupController--><g id="link_ManageTagsPopupController_ConfirmPopupController"><path codeLine="123" d="M1278,195.63 C1278,257.04 1278,345.53 1278,399.46 " fill="none" id="ManageTagsPopupController-to-ConfirmPopupController" style="stroke:#181818;stroke-width:1.0;stroke-dasharray:7.0,7.0;"/><polygon fill="#181818" points="1278,405.46,1282,396.46,1278,400.46,1274,396.46,1278,405.46" style="stroke:#181818;stroke-width:1.0;"/></g><!--reverse link ExportPopupController to ContactManager--><g id="link_ExportPopupController_ContactManager"><path codeLine="125" d="M185.75,500.74 C185.75,545.95 185.75,606.08 185.75,654.46 " fill="none" id="ExportPopupController-backto-ContactManager" style="stroke:#181818;stroke-width:1.0;"/><polygon fill="none" points="185.75,488.74,181.75,494.74,185.75,500.74,189.75,494.74,185.75,488.74" style="stroke:#181818;stroke-width:1.0;"/><text fill="#000000" font-family="sans-serif" font-size="13" lengthAdjust="spacing" textLength="7" x="187.7945" y="510.173">1</text><text fill="#000000" font-family="sans-serif" font-size="13" lengthAdjust="spacing" textLength="7" x="166.0586" y="643.7597">1</text></g><!--reverse link ImportPopupController to ContactManager--><g id="link_ImportPopupController_ContactManager"><path codeLine="127" d="M325.17,500.74 C325.17,545.95 325.17,606.08 325.17,654.46 " fill="none" id="ImportPopupController-backto-ContactManager" style="stroke:#181818;stroke-width:1.0;"/><polygon fill="none" points="325.17,488.74,321.17,494.74,325.17,500.74,329.17,494.74,325.17,488.74" style="stroke:#181818;stroke-width:1.0;"/><text fill="#000000" font-family="sans-serif" font-size="13" lengthAdjust="spacing" textLength="7" x="306.0846" y="510.173">1</text><text fill="#000000" font-family="sans-serif" font-size="13" lengthAdjust="spacing" textLength="7" x="325.0845" y="643.7597">1</text></g><!--reverse link ConfigPopupController to AddressBook--><g id="link_ConfigPopupController_AddressBook"><path codeLine="129" d="M796.5,199.08 C796.5,236.63 796.5,277.46 796.5,325.7 " fill="none" id="ConfigPopupController-backto-AddressBook" style="stroke:#181818;stroke-width:1.0;"/><polygon fill="none" points="796.5,187.08,792.5,193.08,796.5,199.08,800.5,193.08,796.5,187.08" style="stroke:#181818;stroke-width:1.0;"/><text fill="#000000" font-family="sans-serif" font-size="13" lengthAdjust="spacing" textLength="7" x="789.0297" y="208.482">1</text><text fill="#000000" font-family="sans-serif" font-size="13" lengthAdjust="spacing" textLength="7" x="789.2867" y="315.3357">1</text></g><!--SRC=[fLPBRzim3BxxLmYvD6lHOBiN0V8guA4lDDqE6tQGRSOLAak6f6Hji_ptKNv5jkLqm7o9pUyZnOT8HhymaLD5CyAP0FEM0v7AFClWZCF642E9Okcp8GbJ41icHH04P-UzXonkPkjrIFf847EgDLb8OMXio3uW-5oIjL5Cf4JG34XRfBUgB_tvYuXj5e7INJ5abF5Q6hqPG5ckv8PnU62nsIgeDS1SXS902cfA34r3aS0hQ4A2Gr0vEKiI1LhFfNnf7DrhGmsB3osG2PIAk3Pz7sbGEnfnk67QN5MnJabSlkWUpVfIHb2uqWwA9D4tnIlHaXeQKGqe30hH1Tb9bX1DTu3dR5Ww_kJAkQI9Jsxvz_ElZT2DnkguMAFm99VpGOrh9JCBM_IOmblAX8rVISv1DLbqbUdnFQZWuaGfa5NbhZgrGIhnWhFu1P8kkYwJuLEybGdRl0s0Zv39GSs5BJ1lI_Mp_1rcENR8WyotUHzSlPu0oxeCW656KnZ0Rgb0y0alIareykruuqbx5Lgfh-hxM7ssmoqDkQQTMFxFT6d8DTq9o6CUiTgqQLvxjwLRiszvGWrqfKlWK4YThDN9xXrzGQvnT90Kp1hLOWD9GNQrYpggR4Y_kAsMqBIESvdQHjAXyF-jNxw3miljwPNgzEOmp6PZUiC4vJZ13659P-w0ZXLxno4FHzLc0DNXDGCnaf835MHNUB6Suz0QLvQsYhU6oJR7oMVgHgjtGTpYgA8PqTEnzHQBNgCBcvfYznmdAvPdnddrgSSUAXgfQVQUsMmG_-eAxvvMZzUpnMBbMr-OA50R6WCk4CKeP-zsW0UEtBcgLOxsDD96eMU7CZIiO3ykXsI1eV0xD8p8SihozIcTJUH9WkjvfuVt7vdx8FsE8ZrEycwr7PPgpL-7UF1Nwd5rC_iHtjzv_sVKwfF9dscdLZPn7h7RPACl8o8lBydeysHoFgepqwESLnHyhHlZb1ayk0KNJXplInzhLoG8EkkqCO-_ZcwNDfbClIFEn_CFCtloq8W-fUNV6QxRtGZz2-oKXdzo3gNcBm00]--></g></svg>